<?xml version="1.0" encoding="UTF-8"?>
<svg id="Camada_1" xmlns="http://www.w3.org/2000/svg" version="1.1" viewBox="0 0 566.93 566.93">
  <!-- Generator: Adobe Illustrator 29.5.0, SVG Export Plug-In . SVG Version: 2.1.0 Build 137)  -->
  <defs>
    <style>
      .st0 {
        fill: #3f5a91;
      }

      .st1 {
        fill: #f4f4f4;
      }
    </style>
  </defs>
  <rect class="st1" x=".88" y=".03" width="566.93" height="566.93" transform="translate(.85 567.84) rotate(-90)"/>
  <path class="st0" d="M567.81,431.61c-39.21-.18-68.59-31.46-69.64-70.45-.03-1.27-.06-2.53-.14-3.8-.59-9.64-2.67-59.94,15.65-97.48,20.34-41.69,54.13-97.05,54.13-97.05h0v268.79Z"/>
  <path class="st0" d="M567.56,494.13c-40.09.03-72.57,32.53-72.57,72.62,0,.07,0,.15,0,.22h72.57s0-72.84,0-72.84Z"/>
  <path class="st0" d="M432.34,566.75v.35c0-39.38-31.35-68.94-70.45-69.99-1.27-.03-2.53-.06-3.8-.14-9.64-.59-59.94-2.67-97.48,15.65-41.69,20.34-97.62,54.4-97.62,54.4v-.18l269.36-.08Z"/>
  <path class="st0" d="M160.95,344.14c-52.98-67.03-42.71-98.64-46.78-146.43-3.82-44.9-20.21-62.87-55.06-82.59-2.11-1.19-1.41-4.41,1.01-4.6,68.86-5.57,103.48,18.48,146.59,56.69,44.74,39.66,49.83,107.79,58.98,137.28,9.15,29.49,35.59,54.91,52.88,65.08,17.29,10.17,52.88,26.44,75.25,47.79,17.19,16.41,24.77,44.22,27.36,56.23.47,2.16-1.92,3.79-3.75,2.56-7.78-5.21-22.84-15.42-29.71-20.82-9.47-7.44-35.8-20.95-54.77-27.74-.1-.03-.18-.06-.28-.08-2.48-.58-38.74-9.02-64.27-15.56s-52.2-18.98-71.18-33.22c-18.98-14.24-36.27-34.57-36.27-34.57Z"/>
  <path class="st0" d="M491.47,444.45c1.73.85,3.47-1.15,2.43-2.76-7.64-11.89-25.18-40.88-30.95-65.01-7.46-31.18-10.85-67.11-8.13-90.84,2.71-23.73,15.45-82.71-3.39-134.9-14.83-41.07-43.4-90.16-91.79-110.19-1.2-.5-2.54.36-2.65,1.65-1.97,24.72-4.94,32.49-12,48.21-5.55,12.37-31.86,63.72-10.17,130.16,21.69,66.44,18.3,63.05,37.29,94.23,18.26,29.99,68.5,104.51,119.35,129.46Z"/>
</svg>