<?xml version="1.0" encoding="UTF-8"?>
<svg id="Camada_1" xmlns="http://www.w3.org/2000/svg" version="1.1" viewBox="0 0 566.93 566.93">
  <!-- Generator: Adobe Illustrator 29.5.0, SVG Export Plug-In . SVG Version: 2.1.0 Build 137)  -->
  <defs>
    <style>
      .st0 {
        fill: #fff;
      }

      .st1 {
        fill: #b6b7b7;
      }

      .st2 {
        fill: #989999;
      }

      .st3 {
        fill: #3c3d3d;
      }

      .st4 {
        fill: #797a7a;
      }
    </style>
  </defs>
  <polygon class="st2" points="85.04 566.93 0 566.93 60.12 506.78 126.37 520.24 85.04 566.93"/>
  <polygon class="st0" points="0 198.43 0 85.03 46.69 126.4 60.12 60.15 126.37 46.69 85.04 0 198.44 0 0 198.43"/>
  <polygon class="st0" points="566.93 198.43 566.93 368.5 481.89 283.47 566.93 198.43"/>
  <polygon class="st0" points="0 368.5 0 198.43 85.04 283.47 0 368.5"/>
  <polygon class="st2" points="481.89 0 566.93 0 506.81 60.15 440.56 46.69 481.89 0"/>
  <polygon class="st0" points="440.56 46.69 506.81 60.15 520.24 126.4 566.93 85.03 566.93 198.43 368.52 0 481.89 0 440.56 46.69"/>
  <polygon class="st3" points="566.93 85.03 520.24 126.4 506.81 60.15 566.93 0 566.93 85.03"/>
  <polygon class="st2" points="0 85.03 0 0 60.12 60.15 46.69 126.4 0 85.03"/>
  <polygon class="st3" points="566.93 566.93 481.89 566.93 440.56 520.24 506.81 506.78 566.93 566.93"/>
  <polygon class="st0" points="440.56 520.24 481.89 566.93 368.52 566.93 566.93 368.5 566.93 481.9 520.24 440.53 506.81 506.78 440.56 520.24"/>
  <polygon class="st2" points="506.81 506.78 520.24 440.53 566.93 481.9 566.93 566.93 506.81 506.78"/>
  <rect class="st2" x="284.9" y="365.07" width="280.61" height="120.26" transform="translate(-176.12 425.23) rotate(-45)"/>
  <rect class="st2" x="365.07" y="1.43" width="120.26" height="280.61" transform="translate(24.31 342.16) rotate(-45)"/>
  <path class="st0" d="M283.48,85.03l198.41,198.43-198.41,198.43-198.44-198.43,198.44-198.43ZM198.44,283.47l-41.36,46.69,66.25,13.43,13.46,66.28,46.69-41.36,46.66,41.36,13.46-66.28,66.25-13.43-41.33-46.69,41.33-46.69-66.25-13.43-13.46-66.28-46.66,41.36-46.69-41.36-13.46,66.28-66.25,13.43,41.36,46.69Z"/>
  <rect class="st2" x="81.61" y="284.88" width="120.26" height="280.63" transform="translate(-259.15 224.77) rotate(-45)"/>
  <polygon class="st0" points="126.37 520.24 60.12 506.78 46.69 440.53 0 481.9 0 368.5 198.44 566.93 85.04 566.93 126.37 520.24"/>
  <polygon class="st3" points="46.69 440.53 60.12 506.78 0 566.93 0 481.9 46.69 440.53"/>
  <polygon class="st3" points="60.12 60.15 0 0 85.04 0 126.37 46.69 60.12 60.15"/>
  <rect class="st2" x="1.42" y="81.6" width="280.63" height="120.26" transform="translate(-58.71 141.74) rotate(-45)"/>
  <polygon class="st0" points="283.48 85.03 198.44 0 368.52 0 283.48 85.03"/>
  <polygon class="st0" points="198.44 566.93 283.48 481.9 368.52 566.93 198.44 566.93"/>
  <polygon class="st1" points="157.08 330.15 198.44 283.47 283.48 283.47 223.33 343.58 157.08 330.15"/>
  <polygon class="st4" points="409.85 330.15 343.6 343.58 283.48 283.47 368.52 283.47 409.85 330.15"/>
  <polygon class="st4" points="236.79 409.86 223.33 343.58 283.48 283.47 283.48 368.5 236.79 409.86"/>
  <polygon class="st1" points="283.48 368.5 283.48 283.47 343.6 343.58 330.14 409.86 283.48 368.5"/>
  <polygon class="st1" points="236.79 157.07 283.48 198.43 283.48 283.47 223.33 223.35 236.79 157.07"/>
  <polygon class="st4" points="283.48 283.47 283.48 198.43 330.14 157.07 343.6 223.35 283.48 283.47"/>
  <polygon class="st1" points="283.48 283.47 343.6 223.35 409.85 236.78 368.52 283.47 283.48 283.47"/>
  <polygon class="st4" points="223.33 223.35 283.48 283.47 198.44 283.47 157.08 236.78 223.33 223.35"/>
</svg>