<?xml version="1.0" encoding="UTF-8"?>
<svg id="Camada_1" xmlns="http://www.w3.org/2000/svg" version="1.1" viewBox="0 0 566.93 566.93">
  <!-- Generator: Adobe Illustrator 29.5.0, SVG Export Plug-In . SVG Version: 2.1.0 Build 137)  -->
  <defs>
    <style>
      .st0 {
        fill: #bfb7b4;
      }

      .st1 {
        fill: #f9f9f9;
      }

      .st2 {
        fill: #7291d1;
      }

      .st3 {
        fill: #4a6441;
      }

      .st4 {
        fill: none;
        stroke: #000;
        stroke-miterlimit: 10;
        stroke-width: .06px;
      }
    </style>
  </defs>
  <g>
    <polygon class="st0" points="27.47 101.79 33.76 98.71 39.58 94.8 44.78 90.12 49.28 84.79 53.01 78.85 55.87 72.47 57.84 65.76 58.86 58.86 65.76 57.84 72.47 55.87 78.88 53.01 84.79 49.28 90.15 44.75 94.8 39.55 98.74 33.76 101.79 27.47 103.98 20.82 105.21 13.95 105.49 6.96 104.81 0 172.32 0 0 176.76 0 104.81 6.96 105.49 13.95 105.21 20.82 103.98 27.47 101.79"/>
    <polygon class="st3" points="33.76 98.71 27.47 101.79 20.82 103.98 13.95 105.21 6.96 105.49 0 104.81 0 54.27 9.46 53.56 17 51.65 24.18 48.73 30.86 44.78 36.93 39.92 42.23 34.28 46.66 27.9 50.17 20.97 52.64 13.61 54.05 6.01 54.3 0 104.81 0 105.49 6.96 105.21 13.95 103.98 20.82 101.79 27.47 98.74 33.76 94.8 39.55 90.15 44.75 84.79 49.28 78.88 53.01 72.47 55.87 65.76 57.84 58.86 58.86 57.84 65.76 55.87 72.47 53.01 78.85 49.28 84.79 44.78 90.12 39.58 94.8 33.76 98.71"/>
    <polygon class="st0" points="0 390.17 0 176.76 97.79 283.45 0 390.17"/>
    <polygon class="st0" points="181.47 0 385.46 0 283.48 101.98 181.47 0"/>
    <polygon class="st1" points="0 0 54.3 0 54.05 6.01 52.64 13.61 50.17 20.97 46.66 27.9 42.23 34.28 36.93 39.92 30.86 44.78 24.18 48.73 17 51.65 9.46 53.56 0 54.27 0 0"/>
    <polygon class="st2" points="172.32 0 181.47 0 283.48 101.98 102.01 283.45 97.79 283.45 0 176.76 172.32 0"/>
    <path class="st0" d="M102.01,283.45l181.47-181.47,181.47,181.47-181.47,181.47-181.47-181.47ZM178.55,252.77l-4.59,11.61-1.57,12.38,1.57,12.41,4.59,11.61,7.33,10.13,9.64,7.95,11.3,5.36,12.26,2.34,1.39,16.29,5.57,15.34,9.33,13.43,12.5,10.53,14.78,6.93,16.08,2.86,16.29-1.39,15.37-5.54,13.4-9.33,10.53-12.5,6.93-14.78,2.9-16.08,13.61-1.82,12.69-5.24,10.93-8.38,8.35-10.9,5.27-12.72,1.79-13.61-1.79-13.64-5.27-12.69-8.35-10.9-10.93-8.38-12.69-5.27-13.61-1.79-3.08-15.31-6.74-14.08-10.01-11.98-12.69-9.15-9.21-3.88-14.6-1.91-14.57,1.91-13.58,5.64-11.64,8.93-8.96,11.67-5.6,13.58-1.94,14.57h-12.44l-12.26,2.34-11.3,5.33-9.64,7.98-7.33,10.13Z"/>
    <polygon class="st2" points="464.95 283.45 283.48 101.98 385.46 0 394.61 0 566.93 176.76 469.17 283.45 464.95 283.45"/>
    <polygon class="st0" points="469.17 283.45 566.93 176.76 566.93 390.17 469.17 283.45"/>
    <polygon class="st0" points="566.93 176.76 394.61 0 462.12 0 461.44 6.96 461.72 13.95 462.95 20.82 465.14 27.47 468.22 33.76 472.13 39.55 476.81 44.75 482.14 49.28 488.08 53.01 494.46 55.87 501.17 57.84 508.1 58.86 509.12 65.76 511.06 72.47 513.92 78.85 517.65 84.79 522.18 90.12 527.38 94.8 533.17 98.71 539.45 101.79 546.11 103.98 552.98 105.21 559.97 105.49 566.93 104.81 566.93 176.76"/>
    <polygon class="st2" points="469.17 283.45 566.93 390.17 394.61 566.93 385.46 566.93 283.48 464.92 464.95 283.45 469.17 283.45"/>
    <polygon class="st0" points="394.61 566.93 566.93 390.17 566.93 462.12 559.97 461.44 552.98 461.72 546.11 462.95 539.45 465.14 533.17 468.22 527.38 472.13 522.18 476.78 517.65 482.14 513.92 488.05 511.06 494.46 509.12 501.17 508.1 508.07 501.17 509.09 494.46 511.06 488.08 513.92 482.14 517.65 476.81 522.18 472.13 527.35 468.22 533.17 465.14 539.46 462.95 546.11 461.72 552.98 461.44 559.97 462.12 566.93 394.61 566.93"/>
    <polygon class="st2" points="102.01 283.45 283.48 464.92 181.47 566.93 172.32 566.93 0 390.17 97.79 283.45 102.01 283.45"/>
    <polygon class="st0" points="181.47 566.93 283.48 464.92 385.46 566.93 181.47 566.93"/>
    <polygon class="st0" points="0 390.17 172.32 566.93 104.81 566.93 105.49 559.97 105.21 552.98 103.98 546.11 101.79 539.46 98.74 533.17 94.8 527.35 90.15 522.18 84.79 517.65 78.88 513.92 72.47 511.06 65.76 509.09 58.86 508.07 57.84 501.17 55.87 494.46 53.01 488.05 49.28 482.14 44.78 476.78 39.58 472.13 33.76 468.22 27.47 465.14 20.82 462.95 13.95 461.72 6.96 461.44 0 462.12 0 390.17"/>
    <polygon class="st1" points="278.18 336.79 270.67 335.5 263.37 333.13 256.53 329.77 250.22 325.46 244.55 320.32 239.71 314.4 235.77 307.84 232.78 300.82 230.81 293.43 229.95 285.82 230.13 278.18 231.43 270.64 233.8 263.37 237.16 256.5 241.47 250.18 246.64 244.55 252.53 239.71 259.09 235.74 266.11 232.78 273.5 230.81 281.11 229.92 288.75 230.14 296.29 231.43 303.56 233.8 310.43 237.16 316.74 241.47 322.38 246.61 327.22 252.53 331.19 259.09 334.18 266.11 336.12 273.5 337.01 281.11 336.79 288.75 335.5 296.26 333.13 303.56 329.77 310.4 325.46 316.74 320.32 322.38 314.4 327.22 307.84 331.16 300.82 334.15 293.43 336.12 285.82 336.98 278.18 336.79"/>
    <path class="st3" d="M173.96,264.38l4.59-11.61,7.33-10.13,9.64-7.98,11.3-5.33,12.26-2.34h12.44l1.94-14.57,5.6-13.58,8.96-11.67,11.64-8.93,13.58-5.64,14.57-1.91,14.6,1.91,9.21,3.88,12.69,9.15,10.01,11.98,6.74,14.08,3.08,15.31,13.61,1.79,12.69,5.27,10.93,8.38,8.35,10.9,5.27,12.69,1.79,13.64-1.79,13.61-5.27,12.72-8.35,10.9-10.93,8.38-12.69,5.24-13.61,1.82-2.9,16.08-6.93,14.78-10.53,12.5-13.4,9.33-15.37,5.54-16.29,1.39-16.08-2.86-14.78-6.93-12.5-10.53-9.33-13.43-5.57-15.34-1.39-16.29-12.26-2.34-11.3-5.36-9.64-7.95-7.33-10.13-4.59-11.61-1.57-12.41,1.57-12.38ZM270.67,335.5l7.51,1.29,7.64.19,7.61-.86,7.39-1.97,7.02-2.99,6.56-3.94,5.91-4.84,5.14-5.64,4.31-6.35,3.36-6.84,2.37-7.3,1.29-7.52.22-7.64-.89-7.61-1.94-7.39-2.99-7.02-3.97-6.56-4.84-5.91-5.64-5.14-6.31-4.31-6.87-3.36-7.27-2.37-7.55-1.29-7.64-.22-7.61.89-7.39,1.97-7.02,2.96-6.56,3.97-5.88,4.84-5.18,5.64-4.31,6.31-3.36,6.87-2.37,7.27-1.29,7.55-.18,7.64.86,7.61,1.97,7.39,2.99,7.02,3.94,6.56,4.84,5.91,5.67,5.14,6.31,4.31,6.84,3.36,7.3,2.37Z"/>
    <line class="st4" x1="0" y1="390.17" x2="0" y2="176.76"/>
    <line class="st4" x1="181.47" y1="0" x2="385.46" y2="0"/>
    <line class="st4" x1="566.93" y1="566.93" x2="512.66" y2="566.93"/>
    <line class="st4" x1="566.93" y1="0" x2="566.93" y2="54.27"/>
    <line class="st4" x1="0" y1="0" x2="54.3" y2="0"/>
    <path class="st4" d="M0,512.63"/>
    <path class="st4" d="M0,566.93"/>
    <line class="st4" x1="0" y1="104.81" x2="0" y2="54.27"/>
    <line class="st4" x1="104.81" y1="0" x2="172.32" y2="0"/>
    <line class="st4" x1="172.32" y1="0" x2="181.47" y2="0"/>
    <line class="st4" x1="0" y1="176.76" x2="0" y2="104.81"/>
    <line class="st4" x1="0" y1="54.27" x2="0" y2="0"/>
    <line class="st4" x1="54.3" y1="0" x2="104.81" y2="0"/>
    <line class="st4" x1="512.66" y1="0" x2="566.93" y2="0"/>
    <line class="st4" x1="385.46" y1="0" x2="394.61" y2="0"/>
    <line class="st4" x1="394.61" y1="0" x2="462.12" y2="0"/>
    <line class="st4" x1="462.12" y1="0" x2="512.66" y2="0"/>
    <line class="st4" x1="566.93" y1="54.27" x2="566.93" y2="104.81"/>
    <line class="st4" x1="566.93" y1="104.81" x2="566.93" y2="176.76"/>
    <line class="st4" x1="566.93" y1="176.76" x2="566.93" y2="390.17"/>
    <line class="st4" x1="512.66" y1="566.93" x2="462.12" y2="566.93"/>
    <line class="st4" x1="0" y1="512.63" x2="0" y2="462.12"/>
    <line class="st4" x1="385.46" y1="566.93" x2="181.47" y2="566.93"/>
    <line class="st4" x1="181.47" y1="566.93" x2="172.32" y2="566.93"/>
    <line class="st4" x1="104.81" y1="566.93" x2="54.3" y2="566.93"/>
    <line class="st4" x1="54.3" y1="566.93" x2="0" y2="566.93"/>
    <line class="st4" x1="462.12" y1="566.93" x2="394.61" y2="566.93"/>
    <line class="st4" x1="394.61" y1="566.93" x2="385.46" y2="566.93"/>
    <line class="st4" x1="172.32" y1="566.93" x2="104.81" y2="566.93"/>
    <line class="st4" x1="0" y1="462.12" x2="0" y2="390.17"/>
    <line class="st4" x1="566.93" y1="390.17" x2="566.93" y2="462.12"/>
    <line class="st4" x1="566.93" y1="462.12" x2="566.93" y2="512.63"/>
    <line class="st4" x1="566.93" y1="512.63" x2="566.93" y2="566.93"/>
  </g>
  <g>
    <polygon class="st3" points="533.17 98.71 539.46 101.79 546.11 103.98 552.98 105.21 559.97 105.49 566.93 104.81 566.93 54.27 557.47 53.56 549.93 51.65 542.75 48.73 536.07 44.78 530 39.92 524.7 34.28 520.27 27.9 516.76 20.97 514.29 13.61 512.88 6.01 512.63 0 462.12 0 461.44 6.96 461.72 13.95 462.95 20.82 465.14 27.47 468.19 33.76 472.13 39.55 476.78 44.75 482.14 49.28 488.05 53.01 494.46 55.87 501.17 57.84 508.07 58.86 509.09 65.76 511.06 72.47 513.92 78.85 517.65 84.79 522.15 90.12 527.35 94.8 533.17 98.71"/>
    <polygon class="st1" points="566.93 0 512.63 0 512.88 6.01 514.29 13.61 516.76 20.97 520.27 27.9 524.7 34.28 530 39.92 536.07 44.78 542.75 48.73 549.93 51.65 557.47 53.56 566.93 54.27 566.93 0"/>
  </g>
  <polygon class="st3" points="533.17 468.22 539.46 465.14 546.11 462.95 552.98 461.72 559.97 461.44 566.93 462.12 566.93 512.66 557.47 513.37 549.93 515.28 542.75 518.2 536.07 522.15 530 527.01 524.7 532.65 520.27 539.02 516.76 545.95 514.29 553.32 512.88 560.92 512.63 566.93 462.12 566.93 461.44 559.97 461.72 552.98 462.95 546.11 465.14 539.46 468.19 533.17 472.13 527.38 476.78 522.18 482.14 517.65 488.05 513.92 494.46 511.06 501.17 509.09 508.07 508.07 509.09 501.17 511.06 494.46 513.92 488.08 517.65 482.14 522.15 476.81 527.35 472.13 533.17 468.22"/>
  <polygon class="st1" points="566.93 566.93 512.63 566.93 512.88 560.92 514.29 553.32 516.76 545.95 520.27 539.02 524.7 532.65 530 527.01 536.07 522.15 542.75 518.2 549.93 515.28 557.47 513.37 566.93 512.66 566.93 566.93"/>
  <g>
    <polygon class="st3" points="33.76 468.22 27.47 465.14 20.82 462.95 13.95 461.72 6.96 461.44 0 462.12 0 512.66 9.46 513.37 17 515.28 24.18 518.2 30.86 522.15 36.93 527.01 42.23 532.65 46.66 539.02 50.17 545.95 52.64 553.32 54.05 560.92 54.3 566.93 104.81 566.93 105.49 559.97 105.21 552.98 103.98 546.11 101.79 539.46 98.74 533.17 94.8 527.38 90.15 522.18 84.79 517.65 78.88 513.92 72.47 511.06 65.76 509.09 58.86 508.07 57.84 501.17 55.87 494.46 53.01 488.08 49.28 482.14 44.78 476.81 39.58 472.13 33.76 468.22"/>
    <polygon class="st1" points="0 566.93 54.3 566.93 54.05 560.92 52.64 553.32 50.17 545.95 46.66 539.02 42.23 532.65 36.93 527.01 30.86 522.15 24.18 518.2 17 515.28 9.46 513.37 0 512.66 0 566.93"/>
  </g>
</svg>