<?xml version="1.0" encoding="UTF-8"?>
<svg id="Camada_1" xmlns="http://www.w3.org/2000/svg" version="1.1" viewBox="0 0 566.93 566.93">
  <!-- Generator: Adobe Illustrator 29.5.0, SVG Export Plug-In . SVG Version: 2.1.0 Build 137)  -->
  <defs>
    <style>
      .st0 {
        fill: #ece0c6;
      }

      .st1 {
        fill: #ae4d3a;
      }

      .st2 {
        fill: #3f5a91;
      }

      .st3 {
        fill: #d6ad42;
      }

      .st4 {
        fill: #978e41;
      }

      .st5 {
        fill: #d6ad43;
      }
    </style>
  </defs>
  <path class="st2" d="M566.93,0v566.93H0V0h566.93ZM20.06,17.11c-5.66,1.27-3.08,11.31-2.34,15.39,4.11,22.58,20.76,51.2,47.81,44.38,5.26-1.33,8.28-2.64,10.25-7.82,9.96-26.2-15.79-44.19-37.9-49.79-4.31-1.09-13.72-3.08-17.82-2.16ZM540.23,17.16c-23.02,1.9-55.06,18.5-50.89,45.75,1.5,9.8,4.58,12.69,14.18,14.52,27.15,5.18,43.69-27.1,46.32-49.6.32-2.76,1.05-6.24-.47-8.44-2.3-3.33-5.5-2.53-9.15-2.23ZM131.8,25.1c-15.09.43-28.48,11.75-31.57,26.42-1.35,6.4.36,9.96,2.85,15.79,10.9,25.47,35.6,45.38,63.27,49.43,14.3,2.1,30.25-1.01,40.81-11.52,16.21-16.12.46-45.09-20.86-37.31-10.51,3.84-16.23,19.8-5.33,26.24,6.27,3.7,7.57.98,12.94.44,6.07-.61,6.64,7.31,1.69,8.67-1.74.48-2.56-.36-3.85-.22-3.39.37-7.13,1.49-10.64,1.64-15.04.61-37.02-4.41-37.02-23.14,0-4.18,2.91-8.94-1.91-11.87-6.76-4.11-8.08,4.55-14.27,5.25-13.6,1.53-15.65-17.52-3.47-21.53,12.81-4.21,14.06,9.7,23.03,14.17,4.84,2.41,11.17,2.73,16.32,1.23,2.99-.87,6.26-2.42,5.09-6.13-.94-2.99-3.87-2.61-5.99-3.59-6.49-3.03-4.36-10.04-11.96-11.96-2.16-.55-5.37.18-6.42-2.08-1.84-3.94,2.5-5.06,4.39-7.58,1.03-1.37,3.39-7.04,3.63-8.63.29-1.9-1.59-3.43-3.38-3.37-1.19.04-1.78,1-2.61,1.05-3.71.23-10.33-1.54-14.75-1.41ZM433.88,25.1c-4.04-.06-10.06,1.55-13.5,1.4-1.62-.07-3.86-2.5-5.58.3-.9,1.47.78,6.36,1.52,8.11.5,1.18,1.62,2.96,2.48,3.9,1.37,1.5,4.61,2.44,3.8,5.3-.95,3.32-3.88,2.28-6.2,2.88-8.33,2.18-5.81,7.65-11.4,11.45-2.49,1.69-6.72,1.01-7.17,4.56-.97,7.67,13.7,7.16,18.48,5.68,9.98-3.09,10.89-12.88,18.2-15.29,9.8-3.23,19.01,6.19,14.83,15.88-1.9,4.39-6.13,6.2-10.8,5.59-5.73-.75-7.19-8.86-13.57-5.49-5.46,2.89-2.18,7.94-2.17,12.18.03,18.76-22.5,23.81-37.49,23.11-3.3-.16-6.97-1.21-10.19-1.55-1.39-.15-2.25.69-3.9.27-4.45-1.12-4.4-7.78-.15-8.71,2.87-.63,5.3,1.65,8.36,1.51,15.2-.68,15.74-21.31,2.62-27.58-21.34-10.21-40.66,20.54-20.95,37.93,33.02,29.14,86.24-3.2,101.68-37.11,3.14-6.9,5.3-11.45,3.47-19.06-3.56-14.83-17.25-25.05-32.38-25.27ZM282.28,29.86c-6.88.84-19.16,10.88-21.4,17.45-3.03,8.86,3.15,11.58,7.61,17.34,6.33,8.2,9.26,19.35,8.08,29.68-.53,4.61-5.67,4.63-8.79,2.38s-2.95-6.31-4.26-9.56c-3.11-7.71-11.88-14.09-20.29-14.32-2.93-.08-6.67,5.1-7.47,7.82-4,13.52,9.58,16.52,18.29,21.28,10.9,5.95,20.4,13.76,29.69,21.89,8.88-8,18.12-15.55,28.63-21.36,8.66-4.8,20.49-6.82,19.52-19.33-.27-3.53-3.74-10.28-7.71-10.35-7.62-.14-16.73,6.29-19.88,13.11-2.23,4.83-1.66,12.01-8.94,12.23-.91.03-3.76-.66-4.18-1.4-.64-1.11-.88-7.71-.81-9.33.31-6.91,3.09-14.99,6.92-20.71,4.47-6.69,11.06-8.7,9.55-18.02-1.15-7.11-17.34-19.68-24.55-18.79ZM70.38,143.28c2.93,3.06,9.65.85,13.93,1.22,16.52,1.45,21,22.89,20.48,36.44-.13,3.47-1.22,7.29-1.58,10.69-.15,1.39.69,2.25.27,3.9-1.12,4.43-7.77,4.41-8.71.15-.59-2.65,1.73-5.42,1.45-8.84-1.17-14.32-19.88-14.86-26.77-3.48-12.47,20.63,18.98,43.37,37.43,21.99,23.22-26.91,4.97-70.35-19.41-90.03-7.7-6.22-24.45-16.53-34.42-15.29-15.34,1.91-27.58,16.87-28,32.07-.12,4.42,1.53,10.37,1.52,14.37,0,1.57-2.71,4.27.57,5.75,1.53.69,7.47-1.53,9.19-2.49,3.28-1.83,4.9-6.85,8.88-4.94,1.92.92,1.3,3.72,1.72,5.18,2.64,9.1,6.42,5.61,10.77,11.02,2.56,3.19,1.58,8.06,6.39,8.03,5.45-.03,5.96-10.76,5.57-14.66-1.36-13.49-13.48-13.74-16.21-22.06-3.03-9.21,5.31-18.19,14.73-15.25,6.91,2.16,9.12,10.86,4.35,16.27-.78.88-2.13,1.33-2.88,2.44-1.59,2.34-1.22,5.5.72,7.53ZM510.9,136.89c-4.54,4.54-8.98,4.37-12.14,12.05-1.76,4.27-2.68,17.52,2.23,19.74,5.94,2.7,5.98-4.97,8.49-7.97,3.65-4.36,8.78-2.83,10.42-9.78.42-1.79-.16-5.19,1.83-6.14,3.82-1.82,4.62,1.63,6.65,3.45,1.23,1.1,3.21,2.08,4.76,2.69,1.88.73,5.71,2.12,7.25.81,2.32-1.97.19-3.47.12-5.24-.17-3.78,1.51-10.25,1.48-14.46-.13-18.69-19.7-37.06-38.47-30.42-37.36,13.21-73.84,69.38-43.22,104.01,19.43,21.97,51.5-3.89,36.12-23.87-6.49-8.44-20.59-9.34-24.78,1.72-2.04,5.39.12,5.9.59,10.24.72,6.64-8.44,6.8-8.83.94-.69-10.38-1.8-19.96.72-30.39,2.32-9.62,7.59-18.81,18.5-19.77,5.38-.47,14.54,3.09,15.6-4.64.67-4.87-3.71-5.27-5.32-8.79-4.77-10.39,7.36-18.84,16.56-12.29,5.64,4.02,6.31,13.23,1.44,18.11ZM126.44,117.02c-3.01.51-7.63,5.02-8.63,7.84-2.4,6.78,2.76,10.82,5.67,16.11,7.81,14.2,11.11,28.43,9.48,44.72-.35,3.48-4.34,14.93,3.05,12.07,6.58-2.54,10.95-12.13,10.19-18.92-.29-2.61-3.43-8.04.07-9.61,3.89-1.75,4.32,2.39,5.6,4.48,10.41,16.97,23.37,25.55,42.28,30.55,6.45,1.71,5.83,8.63,14.56,7.17,5.04-.85,3.78-7.78,1.36-10.86-1.48-1.89-3.74-2.33-4.73-4.84-.75-1.89-.3-3.13-.71-4.6-4.64-16.6-15.82-30.32-30.23-39.4-2.37-1.5-7.08-2.18-4.45-6.13,2.27-3.41,5.11-.46,7.99-.07,5.42.73,10.53-.34,14.83-3.69,2.11-1.64,7.89-7.32,5.09-9.85-2.09-1.89-11.34.62-14.66.82-11.8.72-25.02-1.9-35.72-6.81-6.83-3.13-13.58-10.28-21.05-9ZM434.91,197.53c1.55-1.55-.68-9.33-.93-11.83-1.53-15.3,1.54-30.24,8.94-43.65,3.74-6.79,10.63-12.22,4.36-20.11-8.45-10.62-15.02-2.76-23.26,1.77-11.82,6.5-26.78,9.96-40.31,9.13-4.38-.27-18.22-5.02-14.54,3.38,3.06,7,12.67,10.3,19.81,9.34,2.01-.27,3.72-1.66,5.85-1.53,2.78.17,3.99,3.97,1.66,5.84-.84.68-2.29.84-3.31,1.48-16.46,10.29-25.91,22.85-30.72,41.57-1.44,5.62-2.94,4.28-5.61,7.68s-3.5,10.26,1.85,10.9c8.52,1.02,7.68-5.67,14.5-7.32,17.93-4.34,31.21-13.73,41.31-29.39,1.58-2.45,2.62-8.03,6.87-5.31,2.6,1.67.4,4.9-.02,6.84-1.14,5.31-.62,10.19,2.4,14.83,1.57,2.42,8.19,9.37,11.15,6.41ZM278.04,131.93c-19.64.77-39.69,5.63-57.52,13.73-2.88,1.31-12.86,5.88-14.05,8.28-2.09,4.22,2.3,11.09,6.99,10.75,2.07-.15,13.05-6.31,16.3-7.67,34.26-14.29,72.61-14.37,106.86,0,3.34,1.4,14.04,7.5,16.3,7.67,4.97.36,9.37-7.23,6.51-11.32-1.84-2.63-14.44-8.13-18.02-9.63-19.53-8.14-42.16-12.65-63.38-11.82ZM331.79,172.75c-1.09-1.74-9,.71-10.73,1.62-4.26,2.24-4.45,5.34-10.59,4.55-5.72-.74-6.85-4.8-10.5-8.1-9.87-8.94-22.86-9.59-32.73-.28-3.6,3.4-4.44,7.57-10.23,8.37-6.41.89-6.03-1.83-10.39-4.22-2.04-1.12-9.42-3.84-11.06-1.8-2.02,2.5.93,2.62,1.47,3.15,7.07,6.91,4,16.68,4.41,25.09.64,13.37,5.96,27.48,13.95,38.13,1.91,2.54,9.75,11.52,12.52,11.97,5,.8,1.53-6.76,1.28-9.28-.87-8.84,2.27-18.93,10.08-23.79,2.71-1.69,3.78-2.49,6.89-1.13,9.81,4.29,12.81,16.76,11.62,26.53-.29,2.33-3.45,7.25.94,7.65,2.15.19,8.46-6.06,10.03-7.85,8.56-9.77,15.78-25.51,16.74-38.53.74-9.98-2.46-19.58,4.26-28.16.67-.86,3.4-1.77,2.06-3.91ZM408.84,205.73c-2.77.54-7.15,4.39-6.76,7.53,22.17,39.93,24.59,85.34,5.93,127.15-3.11,6.97-11.45,15.73.59,19.42,5.54,1.7,7.92-4.72,10.05-8.8,21.09-40.39,21.24-89.06,2.66-130.36-1.34-2.99-5.99-13.23-8.46-14.39-1.29-.61-2.58-.82-4-.55ZM154.61,206.8c-3.29.76-7.51,10.62-8.98,13.87-17.99,39.74-18.47,84.65-.53,124.52,1.33,2.96,6.85,14.72,9.27,15.71,5.01,2.03,11.42-2.6,10.47-8.34-.36-2.18-5.65-10.75-6.98-13.75-14.78-33.3-15.55-72.41-1.91-106.24,1.53-3.81,8.23-15.53,8.42-18.2.34-4.76-5.43-8.58-9.76-7.58ZM390.72,236.8c-7.06,7.23-17.49,3.89-26.15,4.43-14.46.91-41.3,11.59-48.34,25.03-3.56,6.79,5.69,2.94,8.52,2.67,7.99-.78,17.42,1.71,22.52,8.18,3.02,3.83,4.16,5.75,1.62,10.09-5.18,8.88-14.99,11.23-24.76,10.37-3.01-.27-7.51-3.37-8.54.5-.76,2.85,7.86,10.38,10.18,12.21,9.62,7.63,23.79,13.98,36.15,14.89,9.99.74,19.61-2.46,28.18,4.26.66.52.86,1.77,1.68,2.05,4.43,1.51,2.65-5.42,1.94-7.79-2.02-6.69-8.81-8.16-4.8-16.7,1.53-3.26,5.17-5.1,7.57-7.84,8.75-9.96,8.87-22.4-.26-32.16-2.9-3.1-6.3-3.86-7.73-8.22-2.64-8,2.21-8.48,4.62-14.53.8-2,2.91-8.51.07-9.31-2.49-.7-1.83,1.21-2.47,1.86ZM481.2,234.98c-10.3.84-12.52,12.04-16.64,19.54-5.84,10.62-13.59,19.9-21.57,28.95,0,.62,6.88,7.71,7.98,9.05,5.61,6.84,10.74,14.44,15,22.21s5.74,17.78,17.75,16.85c3.88-.3,10.46-3.83,10.37-8.22-.19-8.23-6.97-17.09-14.55-20.05-4.22-1.65-9.81-1.15-10.48-7.07-.63-5.57,1.17-5.79,6.13-6.12,8.66-.58,18.2,2.27,25.33,7.1,6.39,4.33,8.7,10.78,17.71,9.34,6.82-1.1,19.16-16.73,18.94-23.59-.23-7.08-10.91-20.04-17.59-22.32-8.88-3.03-11.56,3.17-17.36,7.6-8.28,6.33-19.28,9.3-29.7,8.07-3-.35-3.42-1.76-3.48-4.52-.19-7.95,8.75-6.94,14.23-10.27s11.95-13.15,10.8-19.48c-.79-4.34-8.84-7.39-12.87-7.06ZM173.74,235.44c-3.17.8-.61,9.05.41,11.12s3.89,4.47,4.3,5.8c3.2,10.4-7.83,13.36-11.9,21.11-4.72,8.97-3,18.49,3.62,25.95,4.54,5.12,9.97,5.49,9.05,14.34-.36,3.49-2.8,4.46-4.35,7.34-1.06,1.96-3.45,9.39-1.54,10.76,2.01,1.44,2.89-1.39,3.81-2.12,8.6-6.83,14.56-3.51,24.15-4.04,15.49-.85,33.41-8.43,44.41-19.39,1.56-1.56,5.47-5.91,5.38-7.97-.19-4.14-4.4-1.32-6.32-.94-8.9,1.72-19.47.04-25.39-7.29-4.57-5.66-4.16-7.92.53-13.3,5.26-6.03,14-8.14,21.8-7.42,2.97.27,11.89,4.23,8.55-2.69-6-12.42-31.08-22.88-44.18-24.41-9.85-1.15-21.2,2.56-29.24-4.26-.98-.83-1.36-3.03-3.09-2.6ZM83.39,236.03c-3.66.2-7.89,2.48-10,5.46-1.3,1.84-.77,4.49-.3,6.67,1.52,7.04,7.1,13.35,13.76,16.01,4.38,1.75,10.69,1.69,10.97,8.19.17,3.95-2.28,4.69-5.56,4.99-8.78.8-19.21-2.08-26.48-7-7.74-5.25-10.43-13.81-21.49-6.93-6.78,4.22-16.57,16.35-13.85,24.71,2.38,7.32,12.1,19.32,20.38,19.53,6.31.16,9.16-5.12,13.36-8.43,8.14-6.4,20.52-9.59,30.72-8.03,5.06.78,3.27,8.7-1.26,10.89-4.82,2.33-8.67,1.94-13.34,6.33-3.56,3.35-8.16,12.09-7.43,16.97.64,4.24,8.15,7.3,11.97,7.25,10.87-.13,12.43-10.02,16.47-17.58,6.08-11.38,14.13-21.32,22.58-31-8.06-8.38-15.57-17.46-21.33-27.61-4.64-8.2-7.22-21.07-19.16-20.43ZM304.97,283.57c0-12.06-9.79-21.84-21.86-21.84s-21.86,9.78-21.86,21.84,9.79,21.84,21.86,21.84,21.86-9.78,21.86-21.84ZM331.75,391.16c-.1-.17-1.48-.73-2.04-1.4-6.84-8.27-3.43-18.74-4.3-28.65-.99-11.21-6.64-24.46-13.33-33.44-1.8-2.42-9.9-11.6-12.42-12.05-5.58-1.01-2.1,5.48-1.85,8.25.97,10.45-1.76,20.54-11.53,25.65-3.12,1.64-3.18,1.16-6.17-.53-8.56-4.81-11.94-15.06-10.94-24.54.26-2.47,3.3-8.35-.36-8.84-2.62-.36-8.27,5.4-10.08,7.44-9.66,10.88-16.42,27.18-17.27,41.72-.51,8.78,2.7,17.36-3.73,24.97-.83.99-3.92,1.95-2.43,4.02,1.31,1.83,8.51-.38,10.43-1.35,5.12-2.58,5.08-5.64,12.35-4.41,4.4.75,7.12,6.37,10.49,9.18,9.35,7.79,20.39,7.58,29.8,0,3.58-2.89,6.23-8.35,11.02-9.18,7.58-1.3,6.71,1.89,11.82,4.41,2,.98,8.4,2.86,10.16,1.61.61-.44.75-2.22.38-2.85ZM85.5,352.94c-14.36,1.95-24.64,19.32-15.04,31.76,6.65,8.62,21.07,9.87,24.99-1.62,1.86-5.46-.32-6.11-.76-10.41-.68-6.67,8.44-6.31,8.9-.88.09,1.05-.55,2.04-.44,3.04.37,3.39,1.49,7.13,1.64,10.63.64,15.88-4.83,38.25-24.77,36.97-3.76-.24-7.56-2.53-10.27,1.92-4.07,6.68,4.29,8.07,5.2,13.77,2.53,15.79-21.8,15.82-22.26.42-.3-10.06,10.57-11.04,14.76-19.14,2.48-4.79,3.84-17.2-.78-20.82-6.06-4.76-6.8,5.15-9.48,7.91s-6.29,2.71-8.49,5.86-1.2,8.92-4,9.83c-3.95,1.29-4.96-3.19-7.82-5-2.66-1.68-12.34-5.41-11.36.67.13.79.97,1.34,1.02,2.14.22,3.54-1.58,10.2-1.49,14.32.38,16.04,13.38,31.04,29.61,32.59,7.5.72,22.76-8.19,29.01-12.7,23.68-17.11,42.52-53.58,29.86-82.24-5.14-11.64-14.3-20.88-28.03-19.01ZM500.08,398.66c-3.64,3.37-3.18,13.66-1.64,18.05,2.57,7.32,5.78,7.72,11.01,11.84,9.79,7.72,3.29,23.17-9.22,21.44-7.8-1.08-10.92-10.6-5.91-16.44.85-.99,2.24-1.52,2.88-2.44,2-2.87,1.06-6.82-1.87-8.62-3.21-1.97-4.79-.33-7.91-.09-16.76,1.27-22.79-12.79-24.66-26.89-1.08-8.13.23-12.94,1.02-20.68.1-1.01-.53-1.99-.44-3.04.46-5.38,9.49-5.88,8.96.94-.38,5.01-3.22,5.69.06,12.13,7.84,15.38,32.68,2.09,27.2-16.54-4.74-16.12-26.25-20.59-37.93-8.86-31.33,31.45.69,86.07,34.2,102.38,10.18,4.96,15.9,7.04,26.78,2.12,15.85-7.17,19.89-22.03,18.78-38.07-.29-4.17-.75-3.8,0-8.02,1.09-6.13-8.7-2.34-11.34-.67-2.86,1.81-3.87,6.29-7.82,5-2.71-.88-1.89-4.31-2.46-6.58-1.74-6.88-6.3-5.27-10.03-9.11-2.28-2.35-1.76-3.9-2.78-6.25-1.18-2.74-4.63-3.64-6.88-1.57ZM211.01,356.12c-1.52-1.52-5.51-1.26-7.47-.54-3.8,1.39-4.57,5.01-7.61,6.21-1.89.75-3.13.3-4.61.71-13.79,3.85-27.53,13.74-35.93,25.2-1.65,2.25-5.26,9.86-7.39,10.19-5.94.91-1.59-9.67-1.72-12.95-.22-5.9-4.17-12.75-9.44-15.55-8.43-4.49-4.28,7.78-3.89,11.85,1.44,14.89-1.26,29.45-8.41,42.59-4.25,7.81-12.48,14.68-3.03,23.03,8.7,7.69,14.61-.32,22.26-4.35,12.86-6.78,27.06-9.39,41.6-8.43,3.96.26,16.7,4.73,12.4-3.89-2.56-5.13-9.98-9.19-15.6-9.4-3.57-.13-10.2,3.11-12.23.55-3.01-3.78,2.92-5.31,5-6.67,12.61-8.25,23.98-21.14,28.63-35.69.85-2.66.88-6.26,1.6-7.96,1.1-2.6,5.07-3.79,6.4-7.42.72-1.96.98-5.94-.54-7.47ZM360.4,368.93c2.39,2.79,1.64,5.32,2.56,8.34,4.56,15.03,15.95,29.48,29.37,37.61,2.26,1.37,7.91,2.34,4.67,6.47-1.96,2.5-8.65-.72-12.23-.55-5.43.25-14.07,4.83-15.92,10.14-2.69,7.73,8.26,3.46,12.21,3.17,17.38-1.26,31.25,2.23,46.16,10.72,4.38,2.49,6.45,5.9,12.29,5.16,4.81-.61,9.84-6.26,10.3-11s-7.35-14.56-9.71-19.79c-6.44-14.27-7.29-27.31-5.53-42.68.27-2.32,1.96-5.36.22-7.27-3.02-3.32-10.1,4.42-11.57,7.09-1.19,2.17-2.56,6.7-2.59,9.15-.05,3.77,3.5,9.03.85,11.43-4.08,3.68-6.45-4.29-8.35-7.08-8.5-12.5-22.5-23.06-37.1-27.23-1.53-.44-2.97-.09-4.67-.64-3.73-1.21-4.18-6.05-9.58-6.91-6.58-1.05-8.85,4.36-5.92,9.64,1,1.79,3.44,2.96,4.53,4.24ZM212.07,401.78c-3.15.6-6.52,5.48-6.22,8.6.36,3.86,5.35,5.85,8.47,7.52,41.31,22.07,95.17,21.97,136.7.53,4.14-2.14,10.87-4.64,9.15-10.22-3.7-12.02-12.46-3.69-19.44-.58-36.96,16.47-77.31,16.93-114.36.36-3.15-1.41-11.54-6.72-14.3-6.2ZM291,469.78c.07-.11,2.11-.97,2.43-1.02,9.62-1.72,8.55,9.23,12.46,14.93,3.53,5.14,12.92,11.15,19.31,9.9,4.69-.92,7-8.81,6.65-13-.79-9.37-8.38-10.32-14.89-13.81-12.27-6.58-23.28-14.5-33.3-24.15-5.66,5.01-11.16,10.07-17.36,14.42-3.64,2.56-7.83,5.27-11.73,7.41-7.64,4.2-18.61,6.21-19.46,16.72-.43,5.33,3.31,12.67,9.27,12.45,7.32-.27,15.25-5.96,18.43-12.42,2.34-4.75,1.6-12.2,8.7-12.6,3.35-.19,4.69.72,5.03,4.01,1.05,10.16-1.53,19.98-7.33,28.28-3.64,5.21-9.56,8.23-9.17,15.27.49,8.8,16.58,21.75,25.14,20.35,9.82-1.61,26.44-15.78,20.36-27-1.2-2.21-2.66-2.51-3.83-3.88-6.29-7.32-10.7-15.72-11.35-25.59-.1-1.47.13-9.44.61-10.27ZM137.02,510.42c-6.18,6.2-18.07,3.55-20.3-5.11s5.57-16.44,14.14-12.53c4.13,1.88,3.89,6.13,9.69,4.95,6.89-1.41,3.39-9.13,3.55-13.44.83-22.59,30.42-23.01,46.57-20.98,1.54.19,3.21-.2,4.75.04,3.95.61,4.7,5.54,1.63,7.94s-3.85.06-6.52-.41c-2.87-.51-6.1-.22-8.68,1.18-15.87,8.62-1.43,34.08,18.1,26.58,16.35-6.28,18.37-27.55,5.33-38.78-25.57-22.05-66.76-6.41-86.97,15.67-6.02,6.58-19.11,26.64-18.89,35.31.39,15.07,14.88,29.04,29.59,30.51,6.12.62,11.42-1.08,16.96-1.05,1.58,0,2.82,1.07,3.63,1,1.19-.1,3.01-2,2.89-3.25-.08-.89-2.09-6.4-2.63-7.44-1.41-2.7-5.78-5.04-5.8-6.99-.04-4.3,4.58-3.33,7.48-4.27,6.5-2.09,5.06-7.16,9.57-10.63,3-2.31,9.47-1.78,7.76-7.19-1.6-5.06-13.1-5.08-17.33-3.97-9.53,2.5-9.24,7.53-14.54,12.84ZM388.13,449.13c-18.48,1.3-41.88,15.67-33.66,37.03,5.35,13.9,23.46,19.4,33.5,6.92,7.85-9.76,2-24.02-11.13-22.27-2.8.37-4.56,2.7-7.42.41-2.37-1.91-1.83-6.13.86-7.49,13.46-1.74,28.6-3.01,41.18,3.22,6.67,3.31,11.38,10.91,11.33,18.43-.02,3.85-3.39,11.18,3.59,12.37,6.04,1.03,5.52-3.39,9.96-5.21,12.05-4.95,19.61,11.56,9.06,19.15-3.56,2.56-7.37,2.72-11.42,1.32-5.79-2-5.94-6.61-9.83-10.36-5.51-5.31-14.05-7.16-21.32-4.79-2.69.87-5.09,1.9-5.08,5.08.02,4.04,3.37,3.36,5.75,4.4,6.43,2.79,4.87,10,11.84,12.08,2.87.86,7.51-.04,7.3,4.16-.13,2.57-3.13,3.47-4.63,5.4s-4.52,9.19-3.15,11.11c1.74,2.45,4.01.27,6.07.26,5.37-.03,10.46,1.59,16.42,1.04,14.35-1.32,27.19-13.21,29.45-27.43,1.01-6.37-2.24-13.32-5.09-19.09-12.81-25.96-43.82-47.81-73.59-45.71ZM56.82,488.42c-17.45.51-28.74,15.97-34.74,30.69-2.57,6.3-6.04,18.58-5.62,25.25.45,7.1,9.47,5.12,14.51,4.35,18.33-2.79,44.83-16.04,46.67-36.79.41-4.58-.75-15.86-4.27-19.09-2.84-2.61-12.69-4.53-16.55-4.41ZM549.21,547.63c1.74-2.09.96-6.35.64-9.06-2.8-23.97-20.13-56.15-48.87-48.95-8.13,2.04-10.18,5.25-11.56,13.42-4.68,27.51,28.38,45.09,51.7,46.38,2.69.15,6.23.45,8.09-1.79Z"/>
  <path class="st1" d="M390.72,236.8c.63-.65-.02-2.57,2.47-1.86,2.84.8.73,7.3-.07,9.31-2.41,6.05-7.26,6.52-4.62,14.53,1.44,4.35,4.83,5.12,7.73,8.22,9.13,9.76,9.01,22.2.26,32.16-2.41,2.74-6.04,4.58-7.57,7.84-4.01,8.54,2.78,10.01,4.8,16.7.72,2.37,2.49,9.3-1.94,7.79-.82-.28-1.01-1.53-1.68-2.05-8.57-6.72-18.2-3.52-28.18-4.26-12.36-.91-26.52-7.27-36.15-14.89-2.32-1.84-10.94-9.36-10.18-12.21,1.03-3.87,5.53-.77,8.54-.5,9.77.86,19.58-1.48,24.76-10.37,2.54-4.35,1.4-6.26-1.62-10.09-5.1-6.47-14.53-8.96-22.52-8.18-2.82.28-12.08,4.12-8.52-2.67,7.04-13.43,33.89-24.12,48.34-25.03,8.65-.55,19.09,2.79,26.15-4.43Z"/>
  <path class="st1" d="M331.75,391.16c.37.64.23,2.41-.38,2.85-1.76,1.25-8.16-.62-10.16-1.61-5.11-2.52-4.24-5.71-11.82-4.41-4.8.82-7.44,6.29-11.02,9.18-9.4,7.58-20.45,7.79-29.8,0-3.37-2.81-6.09-8.43-10.49-9.18-7.26-1.23-7.23,1.83-12.35,4.41-1.92.97-9.12,3.17-10.43,1.35-1.49-2.07,1.6-3.04,2.43-4.02,6.43-7.6,3.22-16.18,3.73-24.97.85-14.54,7.61-30.84,17.27-41.72,1.81-2.04,7.46-7.8,10.08-7.44,3.66.5.62,6.38.36,8.84-1,9.48,2.39,19.73,10.94,24.54,3,1.68,3.05,2.16,6.17.53,9.77-5.12,12.5-15.2,11.53-25.65-.26-2.76-3.73-9.26,1.85-8.25,2.52.46,10.62,9.63,12.42,12.05,6.68,8.99,12.34,22.23,13.33,33.44.87,9.91-2.55,20.38,4.3,28.65.56.68,1.94,1.23,2.04,1.4Z"/>
  <path class="st1" d="M331.79,172.75c1.34,2.15-1.38,3.06-2.06,3.91-6.72,8.57-3.52,18.17-4.26,28.16-.96,13.03-8.18,28.76-16.74,38.53-1.56,1.79-7.88,8.04-10.03,7.85-4.39-.39-1.22-5.32-.94-7.65,1.2-9.76-1.8-22.24-11.62-26.53-3.11-1.36-4.18-.56-6.89,1.13-7.81,4.87-10.95,14.95-10.08,23.79.25,2.53,3.72,10.09-1.28,9.28-2.76-.44-10.61-9.43-12.52-11.97-7.99-10.65-13.31-24.76-13.95-38.13-.4-8.41,2.66-18.18-4.41-25.09-.53-.52-3.49-.64-1.47-3.15,1.64-2.04,9.02.69,11.06,1.8,4.36,2.39,3.98,5.11,10.39,4.22,5.79-.8,6.63-4.98,10.23-8.37,9.87-9.32,22.85-8.67,32.73.28,3.65,3.31,4.78,7.36,10.5,8.1,6.14.8,6.33-2.31,10.59-4.55,1.73-.91,9.65-3.36,10.73-1.62Z"/>
  <path class="st1" d="M173.74,235.44c1.73-.44,2.11,1.77,3.09,2.6,8.04,6.82,19.4,3.11,29.24,4.26,13.09,1.53,38.18,11.99,44.18,24.41,3.34,6.92-5.58,2.97-8.55,2.69-7.81-.72-16.54,1.4-21.8,7.42-4.69,5.37-5.1,7.64-.53,13.3,5.92,7.33,16.49,9.01,25.39,7.29,1.92-.37,6.13-3.2,6.32.94.09,2.06-3.82,6.41-5.38,7.97-11,10.96-28.92,18.54-44.41,19.39-9.59.52-15.55-2.79-24.15,4.04-.92.73-1.8,3.55-3.81,2.12s.48-8.8,1.54-10.76c1.55-2.88,3.98-3.85,4.35-7.34.92-8.85-4.51-9.21-9.05-14.34-6.62-7.47-8.33-16.99-3.62-25.95,4.07-7.74,15.11-10.71,11.9-21.11-.41-1.33-3.31-3.78-4.3-5.8s-3.58-10.32-.41-11.12Z"/>
  <path class="st4" d="M388.13,449.13c29.77-2.1,60.79,19.75,73.59,45.71,2.84,5.76,6.1,12.71,5.09,19.09-2.26,14.22-15.1,26.11-29.45,27.43-5.96.55-11.05-1.07-16.42-1.04-2.06.01-4.33,2.19-6.07-.26-1.37-1.92,1.68-9.21,3.15-11.11s4.49-2.82,4.63-5.4c.22-4.2-4.42-3.31-7.3-4.16-6.97-2.08-5.42-9.29-11.84-12.08-2.38-1.03-5.73-.36-5.75-4.4-.02-3.18,2.39-4.21,5.08-5.08,7.26-2.37,15.81-.51,21.32,4.79,3.9,3.76,4.04,8.36,9.83,10.36,4.05,1.4,7.86,1.24,11.42-1.32,10.55-7.58,2.99-24.09-9.06-19.15-4.44,1.82-3.92,6.24-9.96,5.21-6.98-1.19-3.61-8.51-3.59-12.37.04-7.51-4.66-15.12-11.33-18.43-12.58-6.23-27.72-4.96-41.18-3.22-2.69,1.36-3.23,5.59-.86,7.49,2.86,2.3,4.62-.03,7.42-.41,13.13-1.75,18.98,12.52,11.13,22.27-10.04,12.48-28.15,6.98-33.5-6.92-8.22-21.35,15.17-35.72,33.66-37.03Z"/>
  <path class="st4" d="M137.02,510.42c5.3-5.31,5.01-10.34,14.54-12.84,4.23-1.11,15.73-1.09,17.33,3.97,1.71,5.41-4.75,4.87-7.76,7.19-4.51,3.47-3.07,8.54-9.57,10.63-2.91.94-7.53-.04-7.48,4.27.02,1.95,4.39,4.29,5.8,6.99.54,1.03,2.55,6.54,2.63,7.44.12,1.26-1.7,3.15-2.89,3.25-.82.07-2.06-.99-3.63-1-5.54-.03-10.84,1.66-16.96,1.05-14.72-1.48-29.21-15.45-29.59-30.51-.22-8.68,12.87-28.73,18.89-35.31,20.2-22.08,61.4-37.72,86.97-15.67,13.03,11.24,11.02,32.5-5.33,38.78-19.53,7.5-33.97-17.97-18.1-26.58,2.57-1.4,5.81-1.68,8.68-1.18,2.67.47,3.6,2.7,6.52.41s2.31-7.34-1.63-7.94c-1.54-.24-3.21.16-4.75-.04-16.15-2.03-45.74-1.61-46.57,20.98-.16,4.31,3.34,12.03-3.55,13.44-5.8,1.18-5.56-3.07-9.69-4.95-8.57-3.91-16.43,3.6-14.14,12.53s14.12,11.31,20.3,5.11Z"/>
  <path class="st4" d="M510.9,136.89c4.87-4.88,4.2-14.08-1.44-18.11-9.19-6.55-21.33,1.9-16.56,12.29,1.61,3.52,5.99,3.92,5.32,8.79-1.07,7.73-10.23,4.17-15.6,4.64-10.91.96-16.18,10.15-18.5,19.77-2.52,10.43-1.41,20.01-.72,30.39.39,5.85,9.55,5.7,8.83-.94-.47-4.34-2.64-4.85-.59-10.24,4.19-11.06,18.29-10.15,24.78-1.72,15.38,19.99-16.7,45.84-36.12,23.87-30.62-34.63,5.86-90.81,43.22-104.01,18.77-6.64,38.34,11.73,38.47,30.42.03,4.21-1.65,10.68-1.48,14.46.08,1.77,2.21,3.27-.12,5.24-1.54,1.31-5.38-.08-7.25-.81-1.55-.6-3.52-1.59-4.76-2.69-2.04-1.82-2.84-5.27-6.65-3.45-1.98.95-1.4,4.36-1.83,6.14-1.64,6.95-6.77,5.43-10.42,9.78-2.51,3-2.55,10.67-8.49,7.97-4.91-2.23-3.99-15.47-2.23-19.74,3.16-7.68,7.6-7.51,12.14-12.05Z"/>
  <path class="st4" d="M70.38,143.28c-1.93-2.02-2.3-5.19-.72-7.53.75-1.11,2.1-1.56,2.88-2.44,4.77-5.41,2.56-14.11-4.35-16.27-9.43-2.94-17.76,6.04-14.73,15.25,2.73,8.32,14.85,8.57,16.21,22.06.39,3.9-.12,14.63-5.57,14.66-4.8.03-3.83-4.84-6.39-8.03-4.35-5.41-8.13-1.92-10.77-11.02-.42-1.46.2-4.26-1.72-5.18-3.98-1.9-5.6,3.12-8.88,4.94-1.72.96-7.66,3.18-9.19,2.49-3.28-1.49-.57-4.18-.57-5.75.01-4-1.64-9.96-1.52-14.37.43-15.2,12.66-30.15,28-32.07,9.96-1.24,26.72,9.07,34.42,15.29,24.38,19.68,42.64,63.12,19.41,90.03-18.45,21.38-49.9-1.36-37.43-21.99,6.88-11.38,25.6-10.85,26.77,3.48.28,3.42-2.04,6.19-1.45,8.84.94,4.26,7.59,4.28,8.71-.15.42-1.65-.42-2.51-.27-3.9.36-3.4,1.45-7.22,1.58-10.69.52-13.55-3.96-34.99-20.48-36.44-4.28-.38-11.01,1.84-13.93-1.22Z"/>
  <path class="st4" d="M500.08,398.66c2.25-2.07,5.69-1.18,6.88,1.57,1.02,2.35.5,3.9,2.78,6.25,3.72,3.84,8.28,2.23,10.03,9.11.58,2.28-.24,5.7,2.46,6.58,3.95,1.28,4.96-3.19,7.82-5,2.65-1.67,12.44-5.46,11.34.67-.75,4.22-.29,3.84,0,8.02,1.1,16.04-2.94,30.91-18.78,38.07-10.89,4.92-16.6,2.84-26.78-2.12-33.51-16.31-65.53-70.92-34.2-102.38,11.68-11.72,33.18-7.26,37.93,8.86,5.48,18.63-19.36,31.92-27.2,16.54-3.28-6.44-.44-7.12-.06-12.13.52-6.81-8.5-6.32-8.96-.94-.09,1.05.54,2.03.44,3.04-.79,7.74-2.09,12.55-1.02,20.68,1.87,14.09,7.89,28.16,24.66,26.89,3.12-.24,4.7-1.88,7.91.09,2.93,1.8,3.88,5.75,1.87,8.62-.64.92-2.02,1.45-2.88,2.44-5.01,5.84-1.88,15.36,5.91,16.44,12.52,1.74,19.02-13.71,9.22-21.44-5.23-4.13-8.44-4.52-11.01-11.84-1.54-4.39-2-14.68,1.64-18.05Z"/>
  <path class="st4" d="M85.5,352.94c13.73-1.87,22.89,7.37,28.03,19.01,12.65,28.66-6.19,65.13-29.86,82.24-6.25,4.52-21.51,13.42-29.01,12.7-16.23-1.55-29.23-16.55-29.61-32.59-.1-4.12,1.71-10.78,1.49-14.32-.05-.8-.89-1.34-1.02-2.14-.98-6.08,8.69-2.35,11.36-.67,2.86,1.81,3.88,6.29,7.82,5,2.8-.91,1.77-6.64,4-9.83s5.93-3.21,8.49-5.86,3.42-12.67,9.48-7.91c4.62,3.62,3.26,16.03.78,20.82-4.19,8.1-15.06,9.08-14.76,19.14.46,15.4,24.8,15.37,22.26-.42-.91-5.7-9.28-7.08-5.2-13.77,2.71-4.45,6.51-2.17,10.27-1.92,19.94,1.29,25.42-21.09,24.77-36.97-.14-3.51-1.27-7.25-1.64-10.63-.11-1,.53-1.99.44-3.04-.47-5.43-9.58-5.79-8.9.88.44,4.3,2.62,4.95.76,10.41-3.92,11.49-18.34,10.24-24.99,1.62-9.6-12.43.68-29.8,15.04-31.76Z"/>
  <path class="st4" d="M433.88,25.1c15.13.23,28.81,10.44,32.38,25.27,1.83,7.61-.33,12.16-3.47,19.06-15.44,33.9-68.66,66.25-101.68,37.11-19.71-17.4-.39-48.14,20.95-37.93,13.12,6.28,12.58,26.9-2.62,27.58-3.06.14-5.49-2.14-8.36-1.51-4.26.93-4.3,7.58.15,8.71,1.66.42,2.51-.42,3.9-.27,3.23.34,6.9,1.4,10.19,1.55,14.98.71,37.51-4.35,37.49-23.11,0-4.24-3.29-9.29,2.17-12.18,6.38-3.38,7.84,4.73,13.57,5.49,4.67.61,8.9-1.2,10.8-5.59,4.19-9.68-5.03-19.1-14.83-15.88-7.32,2.41-8.23,12.19-18.2,15.29-4.79,1.48-19.45,1.99-18.48-5.68.45-3.55,4.68-2.87,7.17-4.56,5.59-3.8,3.08-9.28,11.4-11.45,2.32-.61,5.25.43,6.2-2.88.82-2.86-2.43-3.8-3.8-5.3-.86-.94-1.99-2.72-2.48-3.9-.74-1.76-2.42-6.64-1.52-8.11,1.73-2.81,3.96-.37,5.58-.3,3.43.15,9.46-1.46,13.5-1.4Z"/>
  <path class="st4" d="M131.8,25.1c4.42-.12,11.03,1.64,14.75,1.41.84-.05,1.43-1.01,2.61-1.05,1.78-.06,3.67,1.48,3.38,3.37-.24,1.59-2.6,7.26-3.63,8.63-1.89,2.52-6.23,3.64-4.39,7.58,1.05,2.26,4.26,1.54,6.42,2.08,7.6,1.92,5.47,8.93,11.96,11.96,2.12.99,5.04.61,5.99,3.59,1.17,3.72-2.1,5.27-5.09,6.13-5.14,1.49-11.48,1.17-16.32-1.23-8.98-4.47-10.23-18.38-23.03-14.17-12.18,4.01-10.14,23.06,3.47,21.53,6.19-.7,7.51-9.36,14.27-5.25,4.82,2.93,1.91,7.69,1.91,11.87,0,18.73,21.98,23.74,37.02,23.14,3.51-.14,7.25-1.27,10.64-1.64,1.29-.14,2.11.7,3.85.22,4.95-1.37,4.38-9.28-1.69-8.67-5.36.54-6.66,3.26-12.94-.44-10.9-6.44-5.18-22.41,5.33-26.24,21.31-7.78,37.07,21.18,20.86,37.31-10.57,10.51-26.51,13.62-40.81,11.52-27.66-4.06-52.37-23.97-63.27-49.43-2.49-5.82-4.2-9.39-2.85-15.79,3.09-14.67,16.48-26,31.57-26.42Z"/>
  <path class="st4" d="M211.01,356.12c1.53,1.53,1.26,5.51.54,7.47-1.33,3.63-5.3,4.82-6.4,7.42-.72,1.7-.75,5.3-1.6,7.96-4.64,14.55-16.01,27.45-28.63,35.69-2.08,1.36-8.01,2.89-5,6.67,2.04,2.56,8.66-.68,12.23-.55,5.63.21,13.04,4.27,15.6,9.4,4.3,8.62-8.45,4.15-12.4,3.89-14.53-.96-28.74,1.66-41.6,8.43-7.65,4.03-13.55,12.04-22.26,4.35-9.45-8.35-1.22-15.22,3.03-23.03,7.15-13.14,9.86-27.7,8.41-42.59-.39-4.07-4.54-16.34,3.89-11.85,5.27,2.81,9.22,9.66,9.44,15.55.12,3.28-4.23,13.85,1.72,12.95,2.13-.33,5.74-7.93,7.39-10.19,8.4-11.47,22.14-21.35,35.93-25.2,1.48-.41,2.72.04,4.61-.71,3.04-1.2,3.81-4.82,7.61-6.21,1.96-.72,5.95-.98,7.47.54Z"/>
  <path class="st4" d="M360.4,368.93c-1.09-1.28-3.53-2.45-4.53-4.24-2.93-5.27-.67-10.68,5.92-9.64,5.4.86,5.85,5.7,9.58,6.91,1.7.55,3.15.21,4.67.64,14.6,4.17,28.6,14.73,37.1,27.23,1.9,2.79,4.28,10.76,8.35,7.08,2.65-2.39-.9-7.65-.85-11.43.04-2.44,1.4-6.98,2.59-9.15,1.47-2.67,8.55-10.41,11.57-7.09,1.74,1.91.05,4.95-.22,7.27-1.76,15.37-.91,28.42,5.53,42.68,2.36,5.23,10.19,14.91,9.71,19.79s-5.5,10.39-10.3,11c-5.84.74-7.91-2.67-12.29-5.16-14.91-8.49-28.78-11.98-46.16-10.72-3.95.29-14.9,4.55-12.21-3.17,1.85-5.32,10.49-9.89,15.92-10.14,3.58-.17,10.27,3.05,12.23.55,3.24-4.13-2.41-5.1-4.67-6.47-13.41-8.13-24.81-22.58-29.37-37.61-.92-3.02-.17-5.55-2.56-8.34Z"/>
  <path class="st4" d="M126.44,117.02c7.47-1.28,14.22,5.86,21.05,9,10.71,4.91,23.92,7.52,35.72,6.81,3.32-.2,12.56-2.71,14.66-.82,2.8,2.53-2.98,8.2-5.09,9.85-4.3,3.34-9.41,4.42-14.83,3.69-2.89-.39-5.72-3.33-7.99.07-2.63,3.95,2.07,4.63,4.45,6.13,14.42,9.08,25.59,22.8,30.23,39.4.41,1.48-.04,2.71.71,4.6.99,2.5,3.25,2.95,4.73,4.84,2.42,3.08,3.69,10.01-1.36,10.86-8.73,1.46-8.11-5.46-14.56-7.17-18.91-5-31.87-13.58-42.28-30.55-1.28-2.09-1.71-6.23-5.6-4.48-3.5,1.57-.36,7-.07,9.61.76,6.79-3.61,16.38-10.19,18.92-7.39,2.86-3.4-8.6-3.05-12.07,1.63-16.29-1.67-30.52-9.48-44.72-2.91-5.29-8.07-9.33-5.67-16.11,1-2.83,5.62-7.33,8.63-7.84Z"/>
  <path class="st4" d="M434.91,197.53c-2.95,2.96-9.57-3.99-11.15-6.41-3.01-4.63-3.54-9.51-2.4-14.83.42-1.93,2.62-5.17.02-6.84-4.25-2.72-5.29,2.86-6.87,5.31-10.1,15.66-23.38,25.06-41.31,29.39-6.81,1.65-5.97,8.34-14.5,7.32-5.35-.64-4.41-7.63-1.85-10.9s4.17-2.06,5.61-7.68c4.81-18.72,14.26-31.28,30.72-41.57,1.02-.64,2.47-.8,3.31-1.48,2.34-1.87,1.12-5.67-1.66-5.84-2.13-.13-3.84,1.26-5.85,1.53-7.15.96-16.75-2.34-19.81-9.34-3.67-8.4,10.17-3.64,14.54-3.38,13.53.82,28.48-2.63,40.31-9.13,8.23-4.53,14.81-12.39,23.26-1.77,6.27,7.89-.61,13.33-4.36,20.11-7.4,13.42-10.47,28.35-8.94,43.65.25,2.51,2.48,10.28.93,11.83Z"/>
  <path class="st0" d="M291,469.78c-.49.83-.71,8.79-.61,10.27.64,9.87,5.06,18.27,11.35,25.59,1.17,1.37,2.63,1.66,3.83,3.88,6.08,11.22-10.55,25.39-20.36,27-8.56,1.41-24.65-11.55-25.14-20.35-.39-7.04,5.53-10.06,9.17-15.27,5.8-8.3,8.38-18.12,7.33-28.28-.34-3.29-1.68-4.2-5.03-4.01-7.1.41-6.36,7.85-8.7,12.6-3.18,6.46-11.12,12.16-18.43,12.42-5.96.22-9.7-7.11-9.27-12.45.85-10.5,11.82-12.52,19.46-16.72,3.89-2.14,8.09-4.85,11.73-7.41,6.2-4.36,11.7-9.41,17.36-14.42,10.02,9.65,21.03,17.57,33.3,24.15,6.51,3.49,14.1,4.44,14.89,13.81.35,4.19-1.96,12.08-6.65,13-6.4,1.25-15.79-4.76-19.31-9.9-3.91-5.7-2.84-16.65-12.46-14.93-.31.06-2.36.91-2.43,1.02Z"/>
  <path class="st0" d="M481.2,234.98c4.03-.33,12.08,2.72,12.87,7.06,1.15,6.33-5.52,16.28-10.8,19.48s-14.42,2.32-14.23,10.27c.07,2.76.48,4.16,3.48,4.52,10.43,1.23,21.42-1.74,29.7-8.07,5.8-4.43,8.47-10.63,17.36-7.6,6.68,2.28,17.36,15.23,17.59,22.32.22,6.87-12.12,22.5-18.94,23.59-9.01,1.45-11.33-5-17.71-9.34-7.13-4.83-16.67-7.68-25.33-7.1-4.96.33-6.76.54-6.13,6.12.67,5.92,6.25,5.42,10.48,7.07,7.58,2.96,14.36,11.81,14.55,20.05.1,4.39-6.49,7.92-10.37,8.22-12.01.93-13.3-8.72-17.75-16.85s-9.38-15.37-15-22.21c-1.1-1.34-7.98-8.43-7.98-9.05,7.98-9.05,15.73-18.32,21.57-28.95,4.12-7.5,6.33-18.7,16.64-19.54Z"/>
  <path class="st0" d="M282.28,29.86c7.21-.89,23.41,11.68,24.55,18.79,1.5,9.32-5.08,11.33-9.55,18.02-3.83,5.72-6.61,13.8-6.92,20.71-.07,1.63.17,8.22.81,9.33.42.74,3.28,1.43,4.18,1.4,7.28-.22,6.7-7.4,8.94-12.23,3.15-6.82,12.26-13.25,19.88-13.11,3.98.07,7.44,6.82,7.71,10.35.97,12.51-10.86,14.53-19.52,19.33-10.51,5.82-19.75,13.36-28.63,21.36-9.29-8.14-18.8-15.95-29.69-21.89-8.71-4.75-22.29-7.76-18.29-21.28.8-2.72,4.54-7.91,7.47-7.82,8.41.24,17.18,6.61,20.29,14.32,1.31,3.25,1.23,7.38,4.26,9.56s8.26,2.23,8.79-2.38c1.18-10.32-1.75-21.48-8.08-29.68-4.45-5.77-10.64-8.49-7.61-17.34,2.25-6.57,14.52-16.6,21.4-17.45Z"/>
  <path class="st0" d="M83.39,236.03c11.93-.64,14.52,12.23,19.16,20.43,5.75,10.16,13.27,19.23,21.33,27.61-8.44,9.67-16.5,19.62-22.58,31-4.04,7.56-5.59,17.45-16.47,17.58-3.82.05-11.34-3.01-11.97-7.25-.73-4.88,3.88-13.62,7.43-16.97,4.67-4.39,8.52-4,13.34-6.33,4.53-2.19,6.32-10.12,1.26-10.89-10.2-1.57-22.58,1.63-30.72,8.03-4.2,3.31-7.06,8.59-13.36,8.43-8.28-.21-18-12.21-20.38-19.53-2.72-8.36,7.07-20.49,13.85-24.71,11.06-6.89,13.75,1.68,21.49,6.93,7.27,4.92,17.7,7.8,26.48,7,3.28-.3,5.74-1.04,5.56-4.99-.28-6.5-6.59-6.44-10.97-8.19-6.66-2.66-12.24-8.97-13.76-16.01-.47-2.18-1-4.83.3-6.67,2.11-2.98,6.34-5.27,10-5.46Z"/>
  <path class="st5" d="M20.06,17.11c4.1-.92,13.5,1.07,17.82,2.16,22.12,5.6,47.86,23.59,37.9,49.79-1.97,5.18-5,6.5-10.25,7.82-27.04,6.82-43.7-21.8-47.81-44.38-.74-4.09-3.32-14.13,2.34-15.39Z"/>
  <path class="st5" d="M549.21,547.63c-1.86,2.24-5.4,1.93-8.09,1.79-23.32-1.29-56.37-18.87-51.7-46.38,1.39-8.17,3.43-11.38,11.56-13.42,28.73-7.2,46.07,24.98,48.87,48.95.32,2.71,1.11,6.97-.64,9.06Z"/>
  <path class="st5" d="M56.82,488.42c3.86-.11,13.71,1.8,16.55,4.41,3.52,3.24,4.68,14.52,4.27,19.09-1.85,20.75-28.35,34-46.67,36.79-5.04.77-14.06,2.75-14.51-4.35-.42-6.67,3.06-18.95,5.62-25.25,6-14.73,17.28-30.18,34.74-30.69Z"/>
  <path class="st5" d="M540.23,17.16c3.65-.3,6.84-1.1,9.15,2.23,1.52,2.2.79,5.68.47,8.44-2.63,22.5-19.18,54.78-46.32,49.6-9.6-1.83-12.68-4.73-14.18-14.52-4.17-27.24,27.88-43.84,50.89-45.75Z"/>
  <path class="st3" d="M154.61,206.8c4.34-1,10.1,2.82,9.76,7.58-.19,2.67-6.89,14.39-8.42,18.2-13.63,33.83-12.86,72.93,1.91,106.24,1.33,3,6.62,11.57,6.98,13.75.95,5.74-5.46,10.37-10.47,8.34-2.42-.98-7.94-12.75-9.27-15.71-17.94-39.87-17.46-84.78.53-124.52,1.47-3.25,5.69-13.12,8.98-13.87Z"/>
  <path class="st3" d="M212.07,401.78c2.76-.52,11.15,4.79,14.3,6.2,37.05,16.57,77.4,16.11,114.36-.36,6.98-3.11,15.74-11.43,19.44.58,1.72,5.59-5.01,8.09-9.15,10.22-41.53,21.44-95.39,21.54-136.7-.53-3.12-1.67-8.11-3.66-8.47-7.52-.3-3.12,3.08-8.01,6.22-8.6Z"/>
  <path class="st3" d="M408.84,205.73c1.42-.28,2.71-.07,4,.55,2.47,1.17,7.11,11.41,8.46,14.39,18.57,41.3,18.42,89.97-2.66,130.36-2.13,4.08-4.51,10.5-10.05,8.8-12.03-3.69-3.7-12.45-.59-19.42,18.66-41.81,16.24-87.22-5.93-127.15-.39-3.14,4-6.99,6.76-7.53Z"/>
  <path class="st3" d="M278.04,131.93c21.22-.83,43.85,3.68,63.38,11.82,3.58,1.49,16.18,7,18.02,9.63,2.86,4.1-1.54,11.68-6.51,11.32-2.26-.16-12.96-6.27-16.3-7.67-34.26-14.37-72.6-14.29-106.86,0-3.25,1.36-14.23,7.52-16.3,7.67-4.69.34-9.09-6.53-6.99-10.75,1.19-2.4,11.16-6.97,14.05-8.28,17.83-8.1,37.88-12.96,57.52-13.73Z"/>
  <ellipse class="st0" cx="283.11" cy="283.57" rx="21.86" ry="21.84"/>
</svg>