<?xml version="1.0" encoding="UTF-8"?>
<svg id="Camada_1" xmlns="http://www.w3.org/2000/svg" version="1.1" viewBox="0 0 566.93 566.93">
  <!-- Generator: Adobe Illustrator 29.5.0, SVG Export Plug-In . SVG Version: 2.1.0 Build 137)  -->
  <defs>
    <style>
      .st0 {
        fill: #7d7a70;
      }

      .st1 {
        fill: #f4f2f2;
      }

      .st2 {
        fill: #282a22;
      }
    </style>
  </defs>
  <path class="st0" d="M566.93,0v566.93H0V0h566.93ZM25.73,283.2c0,.18,0,.36,0,.53.35,142.01,115.46,257,257.47,257.2.18,0,.35,0,.53,0,142.08-.1,257.3-115.12,257.65-257.2,0-.18,0-.36,0-.53.05-142.36-115.29-257.82-257.65-257.92-.18,0-.36,0-.53,0-142.29.2-257.52,115.63-257.47,257.92Z"/>
  <path class="st1" d="M541.38,283.2c0,.18,0,.36,0,.53-130.62,20.65-236.61,127.22-257.65,257.2-.18,0-.35,0-.53,0-13.29-81.57-59.91-155.25-126.29-202.91-38.41-27.58-83.51-46.69-131.18-54.29,0-.18,0-.36,0-.53,130.26-21.33,237.04-127.33,257.47-257.92.18,0,.36,0,.53,0,13.27,80.13,58.07,152.77,122.57,200.44,39.55,29.24,85.48,48.93,135.08,57.48Z"/>
  <path class="st2" d="M283.2,25.28c-20.43,130.6-127.21,236.59-257.47,257.92-.05-142.29,115.18-257.73,257.47-257.92Z"/>
  <path class="st2" d="M283.73,25.28c142.36.1,257.7,115.56,257.65,257.92-49.6-8.55-95.53-28.24-135.08-57.48-64.5-47.67-109.3-120.31-122.57-200.44Z"/>
  <path class="st2" d="M541.38,283.73c-.35,142.08-115.57,257.1-257.65,257.2,21.04-129.97,127.03-236.54,257.65-257.2Z"/>
  <path class="st2" d="M283.2,540.93c-142.01-.2-257.12-115.19-257.47-257.2,47.67,7.6,92.77,26.71,131.18,54.29,66.38,47.66,113,121.34,126.29,202.91Z"/>
</svg>