<?xml version="1.0" encoding="UTF-8"?>
<svg id="Camada_1" xmlns="http://www.w3.org/2000/svg" version="1.1" viewBox="0 0 566.93 566.93">
  <!-- Generator: Adobe Illustrator 29.5.0, SVG Export Plug-In . SVG Version: 2.1.0 Build 137)  -->
  <defs>
    <style>
      .st0 {
        fill: #f9f9f9;
      }

      .st1 {
        fill: #deca8b;
      }

      .st2 {
        fill: #262523;
      }
    </style>
  </defs>
  <path class="st0" d="M566.93,0v566.93H0V0h566.93ZM108.14,206.3l-64.59,77.95,64.59,77.95-70.86,169.03,169.03-71.39,77.86,65.02,77.52-65.02,166.56,70.44,2.98.69-71.38-169.3,64.59-76.93-64.59-78.45c22.2-54.3,46.51-107.82,68.49-162.22.42-1.03,2.73-6.36,2.37-6.81l-169.02,71.39-77.52-65.02-77.86,65.02L37.27,37.27l70.86,169.03Z"/>
  <path class="st1" d="M361.68,108.66l-77.16,175.33,175.33-77.69,64.59,78.45-64.59,76.93c-1.24-.02-2.39-.46-3.51-.96-56.96-25.53-114.13-50.61-171.29-75.68l.95,3.5,75.68,171.3-77.52,65.02-77.86-65.02,77.16-174.8-1.95.41-173.38,76.75-64.59-77.95,64.59-77.95,175.33,77.16-77.16-174.8,77.86-65.02,77.52,65.02Z"/>
  <polygon class="st2" points="206.3 108.66 283.46 283.46 108.14 206.3 37.27 37.27 206.3 108.66"/>
  <path class="st2" d="M459.84,206.3l-175.33,77.69,77.16-175.33,169.02-71.39c.35.45-1.96,5.78-2.37,6.81-21.97,54.4-46.28,107.92-68.49,162.22Z"/>
  <polygon class="st2" points="108.14 362.2 281.51 285.45 283.46 285.04 206.3 459.84 37.27 531.23 108.14 362.2"/>
  <path class="st2" d="M459.84,361.68l71.38,169.3-2.98-.69-166.56-70.44-75.68-171.3-.95-3.5c57.16,25.07,114.33,50.15,171.29,75.68,1.11.5,2.26.94,3.51.96Z"/>
</svg>