<?xml version="1.0" encoding="UTF-8"?>
<svg id="Camada_1" xmlns="http://www.w3.org/2000/svg" version="1.1" viewBox="0 0 566.93 566.93">
  <!-- Generator: Adobe Illustrator 29.5.0, SVG Export Plug-In . SVG Version: 2.1.0 Build 137)  -->
  <defs>
    <style>
      .st0 {
        fill: #f9f9f9;
      }

      .st1 {
        fill: #3f5a91;
      }
    </style>
  </defs>
  <polygon class="st0" points="566.37 0 566.93 0 566.93 94.69 378.63 283.2 566.93 471.71 566.93 566.37 283.73 283.47 0 566.37 0 471.71 188.77 283.27 0 94.69 0 0 .56 0 283.27 282.89 566.37 0"/>
  <polygon class="st1" points="95.22 0 283.73 188.3 472.24 0 566.37 0 283.27 282.89 .56 0 95.22 0"/>
  <polygon class="st1" points="566.93 566.37 566.93 566.93 472.24 566.93 283.27 377.63 94.69 566.93 0 566.93 0 566.37 283.73 283.47 566.93 566.37"/>
  <polygon class="st0" points="472.24 566.93 377.59 566.93 283.73 472.25 189.34 566.93 94.69 566.93 283.27 377.63 472.24 566.93"/>
  <polygon class="st0" points="189.87 0 283.73 93.64 377.59 0 472.24 0 283.73 188.3 95.22 0 189.87 0"/>
  <polygon class="st1" points="566.93 188.81 472.25 283.2 566.93 377.59 566.93 471.71 378.63 283.2 566.93 94.69 566.93 188.81"/>
  <polygon class="st1" points="0 471.71 0 377.59 94.71 283.2 0 188.81 0 94.69 188.77 283.27 0 471.71"/>
  <polygon class="st0" points="0 377.59 0 188.81 94.71 283.2 0 377.59"/>
  <polygon class="st0" points="566.93 377.59 472.25 283.2 566.93 188.81 566.93 377.59"/>
  <polygon class="st1" points="377.59 566.93 189.34 566.93 283.73 472.25 377.59 566.93"/>
  <polygon class="st1" points="377.59 0 283.73 93.64 189.87 0 377.59 0"/>
</svg>