<?xml version="1.0" encoding="UTF-8"?>
<svg id="Camada_1" xmlns="http://www.w3.org/2000/svg" version="1.1" viewBox="0 0 566.93 566.93">
  <!-- Generator: Adobe Illustrator 29.5.0, SVG Export Plug-In . SVG Version: 2.1.0 Build 137)  -->
  <defs>
    <style>
      .st0 {
        fill: #c37463;
      }

      .st1 {
        fill: #d19e79;
      }

      .st2 {
        fill: #ebe0b3;
      }

      .st3 {
        fill: #701e13;
      }

      .st4 {
        fill: #262523;
      }
    </style>
  </defs>
  <rect class="st2" y="0" width="566.93" height="566.93"/>
  <path class="st0" d="M.62,238.55c0-.35-.55-1.35-.55-2.35C-.06,157.83-.03,79.39.36,1.07c.12-.25.96-1.07,1.05-1.07h565.52v566.09c0,.44-1.29.94-1.83.82-78.37-.04-156.74-.04-235.11-.03,1.98-14.72,12.74-21.05,25.37-25.9,22.69-8.72,47.08-11.67,71.32-10.23-8.67-5.99-15.36-14.45-17.92-24.84l-.16-8.38c7.85-1.06,16.19-1.23,24.05-.1,2.13.31,12.64,3.48,13.16,3.04.9-.76-.45-1.01-.68-1.21-2.22-1.97-4.84-3.67-7.04-5.68-27.24-24.94-43.2-59.36-42.75-96.71,37.39-.91,73.01,15.19,98.03,42.5,1.96,2.14,4.26,4.84,5.58,7.44.91.15.57-1.27.48-1.81-.34-1.98-1.38-4.04-1.82-6.15-2.12-10.04-2.47-20.09-1.32-30.29,5.06.52,8.39-.01,13.27,1.87,8.7,3.36,14.94,9.19,20.19,16.73-1.94-24.04.92-48.65,9.17-71.32,5.18-14.23,11.45-24.33,27.52-27.29v-90.73c-15.13-3.71-20.89-13.71-25.93-27.29-7.89-21.28-11.33-45.46-9.7-68.14.19-.99.02-1.52-.53-1.59-5.28,7.6-14.74,16.71-24.43,17.85-2.55.3-5.24-.56-7.97.74-1.87-9.23-1.35-18.94.24-28.18l2.68-10.6c-24.38,32.32-63.07,51.81-103.86,51.54-1.58-40.32,17.89-78.93,48.88-103.87-3.25-.2-6.76,1.53-10.07,2.15-9.17,1.71-18.38,1.65-27.64.77.63-5.21.42-8.76,2.4-13.8,3.24-8.26,9.04-14.63,16.19-19.66-24.89,1.85-51.34-1.32-74.52-10.75-9.31-3.79-16.84-8.05-21.03-17.75-.71-1.64-2.32-8.37-3.07-8.62h-90.18c-.93.32-1.51,4.07-2.05,5.38-5.2,12.53-14.63,16.77-26.69,21.12-22.07,7.97-45.92,10.9-69.33,9.03l8.25,6.35c3.9,3.89,9.38,12.52,10.21,17.94.45,2.93-.13,6.15.66,9.17-8.56,1.2-17.07,1.24-25.61-.15-4.07-.66-7.95-2.3-12.11-2.5l7.71,6.36c27.15,24.46,43.83,60.29,42.75,97.24-33.81.51-67.43-12.73-91.66-36.12-4.1-3.96-7.35-8.75-11.19-12.72-.55-.57-.76-1.35-1.81-1.11,4.58,11.89,5.94,25.65,3.69,38.23-6.33-.47-10.68-.55-16.47-3.42-7.22-3.57-11.98-9.09-16.97-15.17,2.14,23.75-.7,47.77-8.64,70.26-5.06,14.34-11.55,25.65-28.02,28.03Z"/>
  <path class="st0" d="M.62,329.93c16.78,2.64,22.77,16.73,27.63,31.07,7.18,21.14,9.68,43.9,7.97,66.15l3.97-5.32c4.39-4.86,9.53-8.99,15.69-11.41,4.95-1.94,8.61-1.84,13.8-2.4,2,12.98.63,25.76-3.18,38.25,3.22-2.89,5.56-6.68,8.48-9.84,24.24-26.3,59.69-41.65,95.64-41.16.66,37-15,72.6-41.96,97.5l-7.97,6.63c12.59-3.4,25.23-4.81,38.25-3.18-.54,5.34-.39,9.25-2.4,14.33-3.2,8.07-9.29,14.15-16.19,19.13,24.99-2.02,50.6,1.15,73.98,10.23,13.26,5.15,22.23,11.9,24.3,26.96H.61c-.08-78.97.12-157.98,0-236.95Z"/>
  <path class="st3" d="M324.68,183.82c.83.79,2.89-3.1,3.45-3.72,13.59-15.3,36.39-17.96,52.34-4.52,19.41,16.35,28.66,36.9,11.69,59.52l-8.51,7.69c19.79-5.74,41.66,3.87,49.28,23.24,4.08,10.36,4.03,25.82-.31,36.09-8.18,19.38-29.55,28.23-49.49,22.49l8.77,7.96c11.47,14.08,10.94,34.76-1.06,48.36s-26.88,24.04-46.78,17.55c-9.61-3.14-11.67-7.65-18.29-13.59-.53-.47-.74-.98-1.61-.77,7.4,23.54-9.02,47.98-33.27,50.93-17.17,2.09-33.93-2.87-43.66-17.83-6.74-10.35-7.84-22.32-4.89-34.17-12.99,18.9-39.79,22.41-56.85,6.65-6.21-5.74-13.79-13.56-16.61-21.65-5.85-16.81.71-33.65,14.49-43.97-25.12,6.59-49.83-10.19-51.56-36.37-.97-14.63,2.64-28.34,14.12-38,10.81-9.09,24.39-11.36,37.97-7.99-18.2-12.85-22.19-38.29-7.45-55.53,11.8-13.8,25.17-23.41,44.33-18.81,9.82,2.36,14.51,7.01,20.87,14.16.21.24.46,1.6,1.21.68.47-.58-.96-5.42-1.05-6.65-2.15-28.03,19.48-46.03,46.5-44.38,26.67,1.63,45.07,26.98,36.37,52.61Z"/>
  <path class="st1" d="M530.8,142.39l-.53-1.59c.27-.39.43-1.06,1.06-1.06.51,1.05-.52,2.51-.53,2.66Z"/>
  <path class="st2" d="M277.82,211.61c57.6-4.53,97.11,57.72,68.2,108.05-25.51,44.41-88.72,48.25-119.84,7.57-34.53-45.14-4.6-111.19,51.64-115.62Z"/>
  <path class="st4" d="M280.48,241.89c30.65-2.39,52.98,27.43,42.48,56.3-10.79,29.67-50.66,36.57-71.05,12.33-21.78-25.9-5.18-66,28.57-68.63Z"/>
</svg>