<?xml version="1.0" encoding="UTF-8"?>
<svg id="Camada_1" xmlns="http://www.w3.org/2000/svg" version="1.1" viewBox="0 0 1067 1070">
  <!-- Generator: Adobe Illustrator 29.5.0, SVG Export Plug-In . SVG Version: 2.1.0 Build 137)  -->
  <defs>
    <style>
      .st0 {
        fill: #bfb7b4;
      }

      .st1 {
        fill: #f9f9f9;
      }

      .st2 {
        fill: #8e877f;
      }
    </style>
  </defs>
  <path class="st1" d="M764,0v1c91.1,94,184.67,185.79,275.97,279.53,7.33,7.53,15.3,15.99,23.01,22.99,1.24,1.13,2.04,2.5,4.02,2.48v462l-303,302h-465L0,768v-462c2.26-.14,3.62-1.97,5.03-3.48C92.92,208.06,185.09,117.08,275.03,24.53c6.21-6.39,12.05-13.24,18.44-19.58,1.52-1.51,4.04-1.65,3.53-3.95V0h467ZM298,307H5s237,228,237,228L5,766.99h295s0,298.01,0,298.01l233.99-208,228.99,208v-297s299,0,299,0l-233.99-233.99c77.35-76.26,156.52-150.81,234-226.99h-299s-.01-303.01-.01-303.01c-14.9,14.23-29.55,28.79-44.02,43.47-56.5,57.36-113.4,114.77-168.95,173.05-5.05,5.3-10.94,11.84-17.03,15.47L298.01,4v303Z"/>
  <path class="st2" d="M1067,1v305c-1.98.02-2.77-1.35-4.02-2.48-7.71-7-15.68-15.47-23.01-22.99C948.67,186.79,855.1,95,764,1h303Z"/>
  <polygon class="st2" points="1067 768 1067 1070 764 1070 1067 768"/>
  <polygon class="st2" points="299 1070 0 1070 0 768 299 1070"/>
  <path class="st2" d="M297,1c.52,2.3-2.01,2.44-3.53,3.95-6.4,6.34-12.23,13.19-18.44,19.58C185.09,117.08,92.92,208.06,5.03,302.52c-1.4,1.51-2.76,3.34-5.03,3.48V1h297Z"/>
  <rect class="st0" x="764" width="303" height="1"/>
  <rect class="st0" width="297" height="1"/>
  <path class="st0" d="M763,307c-75.9,75.82-152.83,150.46-228,226.99h293s233.99,234,233.99,234h-298.99s-228.99-231.99-228.99-231.99v321s-234,208-234,208v-298s231.99-231.99,231.99-231.99H242S5,307.01,5,307.01h293c69.72,66.44,138.26,134.17,207.47,201.02,6.92,6.68,17.54,18.12,24.52,23.48,1,.77,1.27,1.94,3,1.49V236c6.09-3.64,11.98-10.18,17.03-15.47,55.54-58.28,112.45-115.69,168.95-173.05,14.46-14.68,29.11-29.25,44.02-43.47v303Z"/>
  <polygon class="st2" points="763 768 762.99 1065 534 857 534.01 536 763 768"/>
  <path class="st2" d="M533,236v296.99c-1.74.45-2-.72-3.01-1.49-6.98-5.36-17.6-16.8-24.52-23.48-69.21-66.84-137.75-134.57-207.47-201.03V4s235,232,235,232Z"/>
  <polygon class="st2" points="242 535 532 535.01 300 767 5 766.99 242 535"/>
  <path class="st2" d="M763,307h299c-77.48,76.19-156.65,150.74-234,227h-293c75.17-76.54,152.1-151.18,228-227Z"/>
</svg>