<?xml version="1.0" encoding="UTF-8"?>
<svg id="Camada_1" xmlns="http://www.w3.org/2000/svg" version="1.1" viewBox="0 0 566.93 566.93">
  <!-- Generator: Adobe Illustrator 29.5.0, SVG Export Plug-In . SVG Version: 2.1.0 Build 137)  -->
  <defs>
    <style>
      .st0 {
        fill: #f9f9f9;
      }

      .st1 {
        fill: #8e877f;
      }

      .st2 {
        fill: #262523;
      }
    </style>
  </defs>
  <path class="st0" d="M282.56.62l-97.71,184.51L.59,282.45,98.29,97.93c59.59-30.88,118.4-63.3,177.88-94.4.84-.44,6.09-3.21,6.38-2.91Z"/>
  <polygon class="st1" points="98.29 97.93 .59 282.45 .59 .62 98.29 97.93"/>
  <path class="st1" d="M184.85,185.14l98.43,97.27,97.52-97.27c58.89,31.99,119.18,61.57,177.9,93.84,1.16.64,6.38,3.22,6.37,4.26l-184.8,97.58-97.97-97.33-97.44,96.8c-58.59-31.62-118.64-60.95-176.84-93.31-1.61-.89-6.78-3.45-7.42-4.53l184.27-97.31Z"/>
  <polygon class="st2" points="380.27 380.82 282.3 564.8 184.85 380.29 282.29 283.49 380.27 380.82"/>
  <path class="st2" d="M282.56.62c-.3-.3-5.55,2.48-6.38,2.91-59.48,31.1-118.29,63.52-177.88,94.4L.59.62,2.4.06h278.37c.81-.25,1.31.38,1.8.56Z"/>
  <path class="st2" d="M282.56.62c.19.07.65-.14.92.12l97.32,184.39-97.52,97.27-98.43-97.27L282.56.62Z"/>
  <path class="st2" d="M467.89,467.49c32.73,31.64,64.07,64.73,96.63,96.55.57.56,1.51.67,1.61.76.08.08.88,1.82.79,2.13h-285.42s186.39-99.44,186.39-99.44Z"/>
  <path class="st1" d="M97.76,466.96c59.23,32.5,119.58,63.06,178.78,95.62,1.6.88,3.75,1.95,4.95,3.28l-281.13.02c-.6-.08-.27-1.12-.31-1.61l97.71-97.31Z"/>
  <path class="st2" d="M565.07.09l1.07.32-.02,281.5c-.81-.3-1.43-1.87-1.86-2.65-32.99-59.76-63.73-120.85-96.37-180.8L565.07.09Z"/>
  <path class="st1" d="M566.13,564.8c-.09-.09-1.03-.2-1.61-.76-32.56-31.81-63.9-64.91-96.63-96.55l98.23-183.98v281.29Z"/>
  <polygon class="st1" points="565.07 .09 467.89 98.46 284.16 .1 565.07 .09"/>
  <path class="st2" d="M97.76,466.96L.05,564.27v-280.76c.8.12.99,1,1.34,1.58,2.76,4.62,5.39,10.07,7.97,14.89,29.68,55.54,58.98,111.3,88.4,166.98Z"/>
  <path class="st0" d="M284.37,566.31l97.71-184.51,184.27-97.31-97.71,184.51c-59.59,30.88-118.4,63.3-177.88,94.4-.84.44-6.09,3.21-6.38,2.91Z"/>
  <path class="st0" d="M284.37.62l97.71,184.51,184.27,97.31-97.71-184.51c-59.59-30.88-118.4-63.3-177.88-94.4-.84-.44-6.09-3.21-6.38-2.91Z"/>
  <path class="st0" d="M.62,284.37l184.51,97.71,97.31,184.27-184.51-97.71c-30.88-59.59-63.3-118.4-94.4-177.88-.44-.84-3.21-6.09-2.91-6.38Z"/>
</svg>