<?xml version="1.0" encoding="UTF-8"?>
<svg id="Camada_1" xmlns="http://www.w3.org/2000/svg" version="1.1" viewBox="0 0 566.93 566.93">
  <!-- Generator: Adobe Illustrator 29.5.0, SVG Export Plug-In . SVG Version: 2.1.0 Build 137)  -->
  <defs>
    <style>
      .st0 {
        fill: #f9f9f9;
      }

      .st1 {
        fill: #e3bbb1;
      }
    </style>
  </defs>
  <path class="st1" d="M566.93,0v566.93H0V0h566.93ZM139.25,94.63c0-24.48-19.84-44.32-44.32-44.32s-44.32,19.84-44.32,44.32,19.84,44.32,44.32,44.32,44.32-19.84,44.32-44.32ZM327.91,94.6c0-24.48-19.84-44.32-44.32-44.32s-44.32,19.84-44.32,44.32,19.84,44.32,44.32,44.32,44.32-19.84,44.32-44.32ZM516.59,94.6c0-24.47-19.84-44.31-44.31-44.31s-44.31,19.84-44.31,44.31,19.84,44.31,44.31,44.31,44.31-19.84,44.31-44.31ZM139.22,283.29c0-24.48-19.84-44.32-44.32-44.32s-44.32,19.84-44.32,44.32,19.84,44.32,44.32,44.32,44.32-19.84,44.32-44.32ZM327.92,283.29c0-24.48-19.85-44.33-44.33-44.33s-44.33,19.85-44.33,44.33,19.85,44.33,44.33,44.33,44.33-19.85,44.33-44.33ZM516.43,283.3c0-24.49-19.85-44.34-44.34-44.34s-44.34,19.85-44.34,44.34,19.85,44.34,44.34,44.34,44.34-19.85,44.34-44.34ZM139.25,472c0-24.48-19.85-44.33-44.33-44.33s-44.33,19.85-44.33,44.33,19.85,44.33,44.33,44.33,44.33-19.85,44.33-44.33ZM327.93,471.98c0-24.48-19.85-44.33-44.33-44.33s-44.33,19.85-44.33,44.33,19.85,44.33,44.33,44.33,44.33-19.85,44.33-44.33ZM516.61,471.98c0-24.48-19.85-44.33-44.33-44.33s-44.33,19.85-44.33,44.33,19.85,44.33,44.33,44.33,44.33-19.85,44.33-44.33Z"/>
  <circle class="st0" cx="472.08" cy="283.3" r="44.34"/>
  <circle class="st0" cx="283.6" cy="471.98" r="44.33"/>
  <circle class="st0" cx="94.92" cy="472" r="44.33"/>
  <circle class="st0" cx="283.59" cy="283.29" r="44.33"/>
  <circle class="st0" cx="94.9" cy="283.29" r="44.32"/>
  <circle class="st0" cx="472.28" cy="471.98" r="44.33"/>
  <circle class="st0" cx="94.93" cy="94.63" r="44.32"/>
  <circle class="st0" cx="283.59" cy="94.6" r="44.32"/>
  <circle class="st0" cx="472.28" cy="94.6" r="44.31"/>
</svg>