<?xml version="1.0" encoding="UTF-8"?>
<svg id="Camada_1" xmlns="http://www.w3.org/2000/svg" version="1.1" viewBox="0 0 566.93 566.93">
  <!-- Generator: Adobe Illustrator 29.5.0, SVG Export Plug-In . SVG Version: 2.1.0 Build 137)  -->
  <defs>
    <style>
      .st0 {
        fill: #f9f9f9;
      }

      .st1 {
        fill: #3f5a91;
      }

      .st2 {
        fill: #a8cce4;
      }

      .st3 {
        fill: #d6ad43;
      }

      .st4 {
        fill: #e9eef1;
      }
    </style>
  </defs>
  <path class="st0" d="M458.57,251.61c11.67-.95,22.91-1.71,34.64-.41,26.74,2.95,51.47,14.11,71.61,31.53.66.25,1.34.28,2.03.11,0-47.38.01-94.79,0-142.17l-1.32-4.83c-12.76-23.44-27.5-46.78-45.6-66.51-.55-.6-1.21-1.1-1.9-1.59-.69-.5-1.42-.93-2.17-1.34-.55.31-1.09.64-1.59,1.02-.49.38-.96.76-1.28,1.23-15.16,22.05-25.74,47.09-29.54,73.38-10.83-26.65-32.11-47.7-58.57-58.67,26.37-4.64,52.58-14.59,74.6-30.25.81-.58,1.36-1.35.44-2.09-.34-.69-.69-1.37-1.12-2-.42-.62-.84-1.23-1.37-1.73-15.26-14.32-33.01-25.5-50.76-36.38-6.62-4.06-13.77-8.38-20.58-10.82-47.62-.01-95.27,0-142.89,0-47.44,0-94.91-.02-142.36,0-6.35,2.28-12.86,6.12-18.93,9.74-18.34,10.93-37.04,22.73-52.54,37.52-.51.48-.91,1.08-1.31,1.69-.4.62-.74,1.29-1.05,1.97-.41.24-.83.55-.87,1-.16,1.61,15.44,10.85,18.64,12.58,17.96,9.69,37.87,14.75,57.47,19.3-27.44,10.67-47.91,32.32-59.14,58.78-3.84-26.83-14.3-53.13-30.16-74.96l-1.87-.8c-.69.33-1.36.67-1.99,1.09-.63.41-1.24.82-1.72,1.34C28.75,89.3,14.09,113.01,1.15,136.9l-1.07,4.3c-.02,47.56,0,95.14,0,142.7,0,47.2-.01,94.43,0,141.64l1.22,4.6c12.89,23.52,27.53,47.23,45.86,66.95.53.57,1.16,1.03,1.82,1.49.66.46,1.37.86,2.1,1.23,1.25.47,2.53-.98,3.19-1.94,14.86-21.71,25.39-46.82,29.29-72.98,11.29,25.71,31.81,47.09,58.41,58.23-25.99,4.73-50.44,13.85-73.31,29.76-.46.32-.83.79-1.2,1.27-.37.49-.69,1.02-.98,1.57.97,1.54,1.99,3.09,3.35,4.31,18.37,16.53,44.18,34.02,66.31,45.06.8.4,1.66.67,2.54.93.88.26,1.79.45,2.7.62,94.89.02,189.82.03,284.71,0,25.48-11.29,51.29-28.37,71.98-47.78.52-.48.92-1.09,1.32-1.71.41-.62.74-1.29,1.06-1.97-.3-.55-.61-1.08-.98-1.56-3.19-4.15-17.03-11.31-22.48-14.1-16.87-8.65-34-13.29-51.49-16.93,27.15-11.04,46.97-32.43,58.44-58.17,3.9,26.31,14.26,51.02,29.04,73.06.32.48.8.87,1.28,1.26.49.4,1.03.73,1.59,1.05.7-.34,1.38-.7,2.03-1.12.63-.42,1.25-.85,1.75-1.38,18.51-19.54,32.99-43.48,46.07-66.86l1.15-4.37c.01-47.38,0-94.79,0-142.17-1.05.24-2.16.48-3.04,1.12-15.96,11.48-28.46,20.34-47.76,26.04-19.02,5.62-37.89,5.87-57.49,4.6.57,13.99,10.8,26.79,22.44,33.34-21.43,2.04-42.27.11-63.65-2.86-1.17-.16-2.34.09-3.48.35-.9-.03-1.08.15-.53.53l.84,1.72c14.28,8.75,24.02,22.46,24.31,39.54.88,51.28-66.07,68.22-90.1,23.83-.98-1.4-1.91-1.48-1.98.16-.24,1.34-.43,2.72-.24,4.08,2.99,21.25,5.83,42.21,2.86,63.63-4.78-8.41-11.98-15-20.86-19.03-2.37-1.07-10.81-4.41-12.65-2.98.99,12.36,1.63,24.25.05,36.65-3.41,26.68-14.76,50.28-32.1,70.65-16.84-19.93-27.9-42.74-31.6-68.69-1.86-13.03-1.34-25.59-.49-38.62-14.31.62-26.6,10.57-33.26,22.23-2.86-20.48-.28-42.08,2.75-63.38.17-1.17-.09-2.35-.35-3.48-.08-1.62-1.11-1.5-2.01-.08-19.6,36.64-75.13,31.77-87.48-8.43-6.65-21.66,2.92-46.99,23.56-57.17l1.13-1.7c-1.43-.24-2.89-.46-4.34-.26-18.32,2.53-33.64,4.22-52.26,4.22-1.45,0-13.36-.69-12.83-1.05,8.35-5.73,13.95-9.99,18.72-19.71,1.19-2.41,4.98-11.64,3.35-13.52-37.64,4.06-75.86-5.25-104.71-30.47l-3.03-1.27,1.28-.09c27.25-26.67,68.6-37.22,106.45-32.18,1.64-1.94-2.05-11.2-3.24-13.68-4.05-8.48-10.84-15.64-18.91-20.17,21.99-2.4,42.78.13,64.46,3.23,1.33.19,2.68,0,4-.24v-1.3c-70.8-45.72,17.94-135.39,63.86-65.34,1.03,1.37,1.95,1.43,2-.2.26-1.2.5-2.43.32-3.65-2.96-21.08-5.82-43.44-2.55-63.47,6.51,11.51,19.31,21.27,33.09,21.97-3.84-35.69,4.02-71.82,26.6-100.32,2.36-2.35,4.1-4.96,5.22-7.83l.38,1.72c17.83,18.74,28.95,44.53,32.1,70.33,1.49,12.22.8,23.93-.13,36.1,14.57-.67,27.1-11.02,33.81-22.89.55.47.72,12.03.74,14.41.16,17.61-1.64,32.38-3.93,49.68-.2,1.49-.01,3,.23,4.48l1.23.54c12.44-22.58,39.47-33.62,63.47-21.95,37.04,18.01,35.19,68.31.42,86.58l.22,1.14c1.37.24,2.76.43,4.14.24,21.87-3.05,42.9-5.64,65.08-3.2-11.51,6.79-22.25,19.55-22.41,33.8Z"/>
  <path class="st1" d="M411.75,220.77c23.6-5.06,48.24-5.9,72.24-3.71l-9.03,6.09c-8.44,7.34-14.23,16.66-15.93,27.85,33.61-5.54,68.85,3.12,96.31,22.91,3.96,2.85,7.45,6.25,11.52,8.92v1.06c-14.57,12.14-30.74,22.07-48.99,27.73-19.16,5.94-38.95,6.91-58.84,4.64,2.05,11.11,7.9,21.12,16.74,28.1l8.22,5.31c-6.62,1.09-13.26.93-19.94,1.04-16.49.28-33.9-.59-50.17-4.22-.65.23-1.36.05-2.12-.53-.68.12-1.36.22-2.04.23s-1.33.02-1.95-.13c-13.95-3.45-28.25-9.05-41.3-15.06-.57-.26-1.08-.68-1.59-1.11s-.99-.93-1.44-1.44l1.64-1.17c54.05-6.62,53.03-83-1.21-87.99l-.96-1.02c3.41-3.17,7.58-5.54,12.5-7.09,9.11-3.88,24.22-9.59,33.85-10.93.87-.12,1.73.19,2.52.52Z"/>
  <path class="st3" d="M51.08,499.8c.67-.96,2.23-2.24,3.09-3.55,14.83-22.48,25.56-48.04,28.79-74.96l5.21,10.43c12.17,24.01,32.4,41.87,57.46,51.64l-24.43,5.56c-20.01,5.46-38.08,14.8-54.71,26.79-.23.51-.49,1-.8,1.45s-.61.86-1,1.18c-17.14,14.12-33.75,27.93-44.44,47.76l-1.04.54c-.18,0-.35,0-.53,0-6.27.2-12.47.03-18.59-.53-.02-6.18.02-12.39,0-18.57l1.62-2.13c19.79-10.84,33.15-26.64,46.9-43.95.29-.36.68-.65,1.09-.93s.9-.52,1.38-.74Z"/>
  <path class="st3" d="M515.86,499.8l1.56.99c13.1,18.33,29.03,31.08,47.09,44.05.98.7,1.68,1.72,2.34,2.71-.02,6.18.02,12.39,0,18.57-6.04.73-12.59.46-18.59,0l-2.65-2.37c-10.82-19.02-26.48-32.13-43.05-45.72-.92-.75-1.53-1.81-2.11-2.84-17.12-12.22-34.3-21.04-54.71-26.79l-23.9-5.56c10.71-4.08,21.18-10.23,30.22-17.3,11.04-8.64,18.87-19.42,25.83-31.5l6.62-13.27c3.65,28.73,14.88,55.46,31.35,79.04Z"/>
  <path class="st3" d="M18.68.09l1.46.66c11.67,19.51,28.7,37.45,46.88,50.27-.02,1.14.8,1.38,1.52,1.93,22.44,17.03,48.11,24.35,75.2,29.94.64.13,1.27.25,1.37,1.02-10.62,4.12-21.04,9.97-29.99,17-11.49,9.04-20.85,22.08-27.66,34.98-1.68,3.18-2.68,7-5.03,9.56-2.97-24.87-12.21-48.77-25.28-69.98-1.84-2.99-4.08-5.67-6.06-8.53l-1.32-.2C38.45,47.58,19.94,34.13,2.07,21.18c-.41-.3-.75-.7-1.09-1.12s-.63-.91-.9-1.4C.1,16.13-.32.95.58.32,1.39-.24,16.2.1,18.68.09Z"/>
  <path class="st3" d="M548.26.09c6.19.03,12.4-.02,18.59,0,.01,6.18-.03,12.39,0,18.57-.27.49-.56.96-.9,1.39s-.67.81-1.09,1.11c-17.98,12.91-35.89,26.23-47.67,45.15l-1.34.09c-14.49,20.43-24.07,41.1-29.58,65.68-.86,3.83-1.2,7.96-2.12,11.68-.14.55.07,1.3-.69,1.15-9.42-24.07-25.45-42.63-47.99-55.26-4.23-2.37-8.63-4.08-12.88-6.23-.56-.28-1.01.28-.76-1.11,27.86-3.27,53.61-14.32,76.68-29.8.74-.5,1.17-1.34,1.4-1.5.25-.5.51-.99.83-1.44s.62-.84,1.02-1.15c17.44-13.82,33.69-27.54,44.67-47.17l1.82-1.17Z"/>
  <path class="st1" d="M548.26,566.11c.46.15.46.33,0,.53-40.71.17-81.46-.01-122.17,0,.34-.9,1.19-1.11,1.94-1.51,5.78-3.1,11.67-5.91,17.35-9.2,19.62-11.37,38.68-25.17,55.08-40.74,19.29,13.76,35.85,30.27,47.81,50.93Z"/>
  <path class="st1" d="M140.85.09c-.34.9-1.19,1.11-1.94,1.51-25.93,13.91-50.5,29.01-71.9,49.41-.48.3-.99.52-1.56.27-1.82-.79-8.41-6.56-10.38-8.24-11.34-9.69-21.83-21.08-30.46-33.24-2.12-2.99-4.55-6.37-5.94-9.72,40.71-.19,81.46.01,122.17,0Z"/>
  <path class="st1" d="M548.26.09c-3.01,5.9-7.35,11.73-11.48,16.92-10.97,13.8-22.8,24.31-36.86,34.01-20.66-19.36-44.04-34.26-68.88-47.65-1.6-.86-3.74-1.95-4.95-3.27,40.71.01,81.46-.17,122.17,0Z"/>
  <path class="st1" d="M66.48,515.72c22.75,20.05,47.93,37.02,74.9,50.93-40.71,0-81.46.16-122.17,0-.17-1.11.46-1.68.94-2.5,11.38-19.19,28.46-35.54,46.33-48.42Z"/>
  <path class="st1" d="M51.08,499.8c-7.21,10.34-14.73,19.58-24.43,28.39-7.91,7.19-17.23,14.23-26.57,19.35-.16-40.66.01-81.35,0-122.01,13.89,26.71,30.48,52.17,50.99,74.27Z"/>
  <path class="st1" d="M51.08,66.93C30.33,88.76,14.02,114.56.08,141.2.1,100.36-.11,59.49.08,18.66c18.39,11.5,36.29,27.02,49.09,44.61.92,1.26,1.37,2.89,1.91,3.67Z"/>
  <path class="st1" d="M566.86,140.67c-13.78-26.79-30.61-52.04-50.99-74.27.97-1.37,1.78-3.15,2.98-4.72,12.79-16.81,30.03-31.98,48.02-43.02.17,40.66-.01,81.35,0,122.01Z"/>
  <path class="st1" d="M566.86,547.54c-19.99-12.21-37.59-28.55-50.99-47.74,20.66-21.82,36.89-47.31,50.99-73.74-.01,40.48.16,81,0,121.48Z"/>
  <path class="st1" d="M154.66,220.77c.32-.2.65-.38,1.01-.5,3.12-1.02,31.64,9.24,35.82,10.99,4.93,1.52,9.12,3.86,12.57,7.01l-1.01,1.02c-54.21,5.31-55.13,81.77-.64,88l1.66,1.17-1.71,1.99c-12.34,6.57-25.53,10.57-38.94,13.9-2.72,1.29-5.29,1.83-7.7,1.61-20.7,4.08-41.91,5.91-62.94,4.77-3.12-.17-6.67-.81-9.83-1.06l7.08-4.33c9.38-6.93,16.27-17.36,17.88-29.08-38.82,5.29-78.39-6.05-107.3-32.36,1.53-2.9,5.35-5.57,8.02-7.64,27.63-21.33,64.63-31.05,99.27-25.25-1.59-12.41-8.96-23.45-19.17-30.45l-5.79-3.49c23.72-2.17,48.4-1.44,71.71,3.71Z"/>
  <path class="st1" d="M328.89,362.94c.51.44,1,.89,1.44,1.4s.85.99,1.11,1.55c6.24,13.39,11.87,28.06,15.17,42.46.14.61.12,1.26.09,1.92s-.14,1.34-.28,2c5.08,23.22,5.77,47.46,3.71,71.08-2.4-3.05-4.1-6.57-6.63-9.55-6.93-8.18-16.73-13.7-27.36-15.38,6.11,38.49-6.01,79.39-32.67,107.67-26.75-28.81-38.11-68.75-32.67-107.67-10.17,1.98-19.66,6.79-26.54,14.6l-6.91,10.33-1.59-17.77c.15-17.22,1.03-35.42,4.78-52.25-.19-.38-.36-.76-.46-1.16s-.17-.75-.11-1.09c2.09-11.82,10.31-37.24,16.55-47.17.21-.33.53-.6.88-.85.37-.27.78-.47,1.2-.66l.98,1.1c4.79,54.41,81.2,55.06,88.13,1.05l1.19-1.61Z"/>
  <path class="st2" d="M260.36,325.27l-.31,1.74c-7.94,11.16-14.68,22.71-20.24,34.66l-1.23.73c-3.73,6.29-6.59,13.51-9.04,20.41-3.29,9.27-6.89,20.96-9.02,30.51l-.66-.4c-17.33,34.52-67.7,35.08-86.2.94-13.01-24.02-3.3-56.66,22.05-67.91,7.69-3.41,19.31-5.38,27.9-8.48,7.33-2.64,13.52-5.74,20.44-9.03-.02-.93.51-1.41,1.59-1.44,11.83-6.06,21.18-12.1,32.13-19.51,1.03-.7,2.26-1.04,3.46-1.34l1.43.38c4.38,6.93,10.39,12.9,17.32,17.29l.37,1.43Z"/>
  <path class="st2" d="M363.41,328.46c15.61,7.18,31.48,13.52,48.34,17.51.76.26,1.29.61,1.59,1.06,13.53,7.65,24.71,21.37,26.02,37.41,4.51,55.19-67.18,75.22-92.29,27.44l-.66.4c-3.76-17.19-10.05-33.52-17.53-49.33l-1.47-.68c-5.53-12.24-12.33-23.95-20.39-35.15l-.45-1.84.39-1.45c6.89-4.41,12.88-10.36,17.28-17.25l1.45-.39c1.08.22,2.21.45,3.14,1.08,11.12,7.54,20.48,13.82,32.61,19.86,1.15,0,1.8.45,1.97,1.34Z"/>
  <path class="st4" d="M413.88,346.49l-.53.53c-.56-.32-1.19-.49-1.59-1.06.71.17,1.45.38,2.12.53Z"/>
  <path class="st1" d="M283.2.62c3.15,2.54,5.73,5.86,8.18,9.07,21.13,27.8,30.25,63.99,24.76,98.61,10.54-2.03,19.97-7.07,27.07-15.13l6.91-10.33c2.32,23.93.98,48.07-3.71,71.61l.6.9c-3.72,16.27-9.31,32.06-16.77,47.35l-1.36,1.08-1.06-.76c-5.57-55.02-83.43-54.45-88.26.25l-.98,1.05c-.83-.47-1.69-1.01-2.21-1.83-5.83-9.18-14.48-35.2-16.44-46.39-.06-.33.02-.69.12-1.06.11-.39.28-.76.47-1.12-3.79-17.2-4.57-35.21-4.78-52.78l1.59-17.77,5.32,8.2c6.99,8.94,17.01,14.5,28.13,16.72-5.46-39.01,5.96-78.6,32.41-107.69Z"/>
  <path class="st2" d="M154.66,220.77l-10.1-7.16c-55.35-55.16,35.68-125.85,75.31-59.28l.66-.4c1.96,8.88,5.43,19.75,8.49,28.39,2.65,7.49,5.67,15.1,9.57,22,.47-.04.97.06,1.17.47,5.69,12.17,12.51,23.19,20.26,34.85l.35,1.81-.41,1.46c-6.93,4.34-12.92,10.29-17.26,17.23l-1.45.41c-1.15-.26-2.33-.55-3.32-1.21-7.38-4.93-14.75-9.8-22.16-14.34-3.53-2.16-7.3-4.13-11.15-5.55l-.55-1.18c-10.27-5.42-21.39-9.52-32.53-12.87-5.26-1.58-11.58-3.46-16.87-4.63Z"/>
  <path class="st2" d="M346.42,154.46c1.06-.07,1.8-2.45,2.97-4.2,15.17-22.79,44.5-30.21,67.96-14.91,26.89,17.53,29.47,56.07,5.81,77.45l-11.41,7.97c-4.89,1.05-10.06,2.57-14.87,3.98-11.52,3.38-23.45,7.86-34,13.53l-.55,1.18c-3.84,1.42-7.63,3.38-11.15,5.55-7.44,4.57-14.76,9.39-22.16,14.34-.99.66-2.17.95-3.32,1.22l-1.49-.51c-4.18-6.98-10.22-12.83-17.14-17.09l-.49-1.5.4-1.82c8.15-11.41,15.07-23.21,20.76-35.4l1.15-.44c5.16-9.78,9.09-20.32,12.36-30.89.66-2.15,4.21-18.38,5.17-18.44Z"/>
  <path class="st3" d="M362.88,238.28c7.54-.57,19.69,4.56,25.67,9.11,33.6,25.53,16.48,79.1-25.14,81.07-.36-.16-1.54.04-2.49-.41-12.33-5.82-24.52-13.47-35.22-21.87l-.1-2.09c6.23-13,5.89-28.4-.05-41.44l.16-2.08c6.63-5.22,13.78-9.95,21.09-14.22,3.17-1.85,13.15-7.84,16.1-8.06Z"/>
  <path class="st3" d="M204.06,238.28c2.94.22,12.93,6.21,16.1,8.06,7.3,4.27,14.44,9.02,21.09,14.22l.11,2.12c-6.11,12.99-6.12,28.4,0,41.39l-.11,2.12c-10.69,8.48-22.58,15.71-34.87,21.69-.89.43-1.89.39-2.31.59-41.28-1.95-59.03-53.2-26.81-80.09,6.21-5.18,18.69-10.71,26.81-10.09Z"/>
  <path class="st3" d="M306.58,325.27c6.83,9.5,13.45,19.3,18.87,29.7,1.4,2.69,2.24,5.43,3.44,7.97-2.53,40.31-52.68,58.49-79.69,27.33-5.66-6.53-11.56-19.12-10.61-27.86.39-3.56,6.29-13.22,8.41-16.8,4.13-6.99,8.89-13.58,13.37-20.33l2.13-.09c13.15,6.34,28.81,6.43,41.95.01l2.13.08Z"/>
  <path class="st0" d="M306.58,241.46c7.17,3.89,15.37,11.85,19.12,19.1,7.1,13.7,7.52,31.97,0,45.62-3.75,6.8-12.33,15.32-19.12,19.1-13.91,7.73-32.27,7.62-46.21,0-6.79-3.71-15.44-12.3-19.12-19.1-7.38-13.6-7.36-32.02,0-45.62,3.75-6.93,12.19-15.32,19.12-19.1,3.15-4.03,10.51-5.59,15.66-6.37,4.93-.75,9.97-.75,14.89,0s12.51,2.35,15.66,6.37Z"/>
  <path class="st3" d="M328.89,203.8c-.09,2.57-6.39,13.19-8.07,16.07-4.35,7.44-9.33,14.52-14.24,21.59-14.39-7.82-31.82-7.84-46.21,0-4.69-7.1-9.62-14.02-13.9-21.39-1.99-3.42-7.51-12.38-7.88-15.74-.92-8.48,4.93-21.2,10.35-27.59,21.16-24.97,61.95-19.91,75.62,9.9,1.99,4.34,4.49,12.48,4.33,17.16Z"/>
</svg>