<?xml version="1.0" encoding="UTF-8"?>
<svg id="Camada_1" xmlns="http://www.w3.org/2000/svg" version="1.1" viewBox="0 0 566.93 566.93">
  <!-- Generator: Adobe Illustrator 29.5.0, SVG Export Plug-In . SVG Version: 2.1.0 Build 137)  -->
  <defs>
    <style>
      .st0 {
        fill: #f9f9f9;
      }

      .st1 {
        fill: #8e877f;
      }

      .st2 {
        fill: #262523;
      }
    </style>
  </defs>
  <path class="st0" d="M566.93,0v566.93H0V0h566.93ZM384.78,161.15L284.25,4.73l-100,156.95L144.88,4.72,4.97,152.25c-.72,1.59,3.28,6.59,4.36,8.23,29.46,44.81,60.29,89.22,90.4,133.48L4.74,442.26l278.2,120.99c.35.01.7-.02,1.05,0,.22.01.73-.48,1.05-.52.06,0,0,.27,1.05,0,4.17-1.08,7.91-3.11,11.9-4.63l265.56-115.57-94.27-148.57c29.45-43.3,59.08-87.19,88.31-130.85.91-1.37,6.76-9.72,6.47-10.36L424.15,4.2l-39.38,156.95Z"/>
  <path class="st1" d="M384.78,161.15c-32.36,129.1-65.53,258.12-96.76,387.5-1.12,4.64-2.38,9.34-2.98,14.08-.32.04-.83.54-1.05.52l-99.5-398.94-.24-2.63L284.25,4.73l100.53,156.42Z"/>
  <path class="st2" d="M469.29,293.96c-59.45,87.42-120.49,174.96-179.96,262.83-1.2,1.77-3,3.81-3.25,5.94-1.04.27-.99,0-1.05,0,.6-4.74,1.86-9.44,2.98-14.08,31.22-129.37,64.39-258.4,96.76-387.5L424.15,4.2l139.91,148.55c.29.64-5.55,8.99-6.47,10.36-29.23,43.66-58.86,87.55-88.31,130.85Z"/>
  <path class="st2" d="M99.74,293.96c-30.12-44.26-60.94-88.67-90.4-133.48-1.08-1.65-5.09-6.65-4.36-8.23L144.88,4.72l39.37,156.96.24,2.63,99.5,398.94c-.35-.02-.7.01-1.05,0-.5-2.54-2.62-5.04-4.08-7.2-59.28-87.62-119.67-174.71-179.12-262.09Z"/>
  <path class="st1" d="M282.94,563.25L4.74,442.26l95-148.3c59.45,87.38,119.84,174.47,179.12,262.09,1.47,2.17,3.58,4.66,4.08,7.2Z"/>
  <path class="st1" d="M469.29,293.96l94.27,148.57-265.56,115.57c-4,1.52-7.74,3.55-11.9,4.63.25-2.13,2.05-4.17,3.25-5.94,59.46-87.87,120.5-175.4,179.96-262.83Z"/>
</svg>