<?xml version="1.0" encoding="UTF-8"?>
<svg id="Camada_1" xmlns="http://www.w3.org/2000/svg" version="1.1" viewBox="0 0 566.93 566.93">
  <!-- Generator: Adobe Illustrator 29.5.0, SVG Export Plug-In . SVG Version: 2.1.0 Build 137)  -->
  <defs>
    <style>
      .st0 {
        fill: #f9f9f9;
      }

      .st1 {
        fill: #a3d0cb;
      }
    </style>
  </defs>
  <polygon class="st1" points="442.52 386.14 448.86 399.34 456.04 412.12 464.04 424.41 472.82 436.15 482.35 447.31 492.59 457.81 503.48 467.6 515.03 476.67 527.09 484.99 539.71 492.47 552.75 499.14 566.21 504.93 566.21 568.14 310.21 568.14 302.08 562.29 294.14 556.14 286.44 549.77 278.92 543.13 271.64 536.24 264.58 529.12 257.79 521.77 251.22 514.19 244.91 506.42 238.86 498.42 233.08 490.23 227.58 481.87 222.35 473.32 217.4 464.6 212.75 455.73 208.4 446.69 204.33 437.52 200.59 428.22 197.15 418.82 194.02 409.29 191.23 399.67 188.72 389.98 287.64 328.95 295.18 319.91 301.52 309.99 306.56 299.36 310.21 288.17 312.42 276.63 313.16 264.89 312.42 253.15 310.21 241.57 306.56 230.39 301.52 219.75 295.18 209.87 287.64 200.83 153.83 275.16 148.5 263.16 143.66 250.97 139.26 238.61 135.4 226.06 132.05 213.38 129.18 200.57 126.84 187.66 125.02 174.69 123.72 161.61 122.91 148.54 122.65 135.41 122.91 122.3 123.72 109.2 125.02 96.13 126.84 83.15 129.18 70.24 132.05 57.43 135.4 44.75 139.26 32.2 143.66 19.84 148.5 7.65 151.36 1.21 375.17 1.21 442.52 99.38 449.64 108.74 457.67 117.33 466.48 125.1 476.04 131.96 486.22 137.84 496.92 142.69 508.07 146.43 519.51 149.1 531.16 150.59 542.93 150.92 554.63 150.1 566.21 148.12 566.21 316.23 560.62 323.13 554.63 329.73 548.32 335.97 541.66 341.89 534.73 347.45 527.48 352.59 519.97 357.36 512.23 361.72 504.26 365.66 496.1 369.17 487.75 372.22 442.52 386.14"/>
  <polygon class="st0" points="448.86 399.34 442.52 386.14 487.75 372.22 496.1 369.17 504.26 365.66 512.23 361.72 519.97 357.36 527.48 352.59 534.73 347.45 541.66 341.89 548.32 335.97 554.63 329.73 560.62 323.13 566.21 316.23 566.21 504.93 552.75 499.14 539.71 492.47 527.09 484.99 515.03 476.67 503.48 467.6 492.59 457.81 482.35 447.31 472.82 436.15 464.04 424.41 456.04 412.12 448.86 399.34"/>
  <polygon class="st0" points="310.21 241.57 312.42 253.15 313.16 264.89 312.42 276.63 310.21 288.17 306.56 299.36 301.52 309.99 295.18 319.91 287.64 328.95 188.72 389.98 191.23 399.67 194.02 409.29 197.15 418.82 200.59 428.22 204.33 437.52 208.4 446.69 212.75 455.73 217.4 464.6 222.35 473.32 227.58 481.87 233.08 490.23 238.86 498.42 244.91 506.42 251.22 514.19 257.79 521.77 264.58 529.12 271.64 536.24 278.92 543.13 286.44 549.77 294.14 556.14 302.08 562.29 310.21 568.14 -.72 568.14 -.72 497.38 108.93 429.91 101.48 423.44 94.81 416.16 89.03 408.16 84.15 399.57 80.31 390.47 77.52 381 75.83 371.25 75.24 361.4 75.76 351.54 77.42 341.82 80.15 332.33 83.95 323.22 77.91 321.08 71.96 318.7 66.1 316.04 60.41 313.11 54.82 309.96 49.39 306.54 44.12 302.87 39.02 299 34.07 294.9 29.36 290.58 24.81 286.02 20.48 281.31 16.35 276.37 12.48 271.26 8.81 265.99 5.39 260.6 2.21 255 -.72 249.31 -.72 1.21 151.36 1.21 148.5 7.65 143.66 19.84 139.26 32.2 135.4 44.75 132.05 57.43 129.18 70.24 126.84 83.15 125.02 96.13 123.72 109.2 122.91 122.3 122.65 135.41 122.91 148.54 123.72 161.61 125.02 174.69 126.84 187.66 129.18 200.57 132.05 213.38 135.4 226.06 139.26 238.61 143.66 250.97 148.5 263.16 153.83 275.16 287.64 200.83 295.18 209.87 301.52 219.75 306.56 230.39 310.21 241.57"/>
  <polygon class="st0" points="566.21 148.12 554.63 150.1 542.93 150.92 531.16 150.59 519.51 149.1 508.07 146.43 496.92 142.69 486.22 137.84 476.04 131.96 466.48 125.1 457.67 117.33 449.64 108.74 442.52 99.38 375.17 1.21 566.21 1.21 566.21 148.12"/>
  <polygon class="st1" points="108.93 429.91 -.72 497.38 -.72 249.31 2.21 255 5.39 260.6 8.81 265.99 12.48 271.26 16.35 276.37 20.48 281.31 24.81 286.02 29.36 290.58 34.07 294.9 39.02 299 44.12 302.87 49.39 306.54 54.82 309.96 60.41 313.11 66.1 316.04 71.96 318.7 77.91 321.08 83.95 323.22 80.15 332.33 77.42 341.82 75.76 351.54 75.24 361.4 75.83 371.25 77.52 381 80.31 390.47 84.15 399.57 89.03 408.16 94.81 416.16 101.48 423.44 108.93 429.91"/>
</svg>