<?xml version="1.0" encoding="UTF-8"?>
<svg id="Camada_1" xmlns="http://www.w3.org/2000/svg" version="1.1" viewBox="0 0 566.93 566.93">
  <!-- Generator: Adobe Illustrator 29.5.0, SVG Export Plug-In . SVG Version: 2.1.0 Build 137)  -->
  <defs>
    <style>
      .st0 {
        fill: #ebe0b3;
      }

      .st1 {
        fill: #522019;
      }

      .st2 {
        fill: #d6ad43;
      }
    </style>
  </defs>
  <rect class="st0" x="0" y="0" width="566.93" height="566.93"/>
  <path class="st1" d="M277.92,46.03c3.38,5.78,9.02,10.57,14.4,14.46,20.1,14.54,50.88,27.93,65.07,48.12,10.48,14.91,17.78,36.72,8.8,53.98-6.67,12.82-22.18,16.75-27.85,29.31-6.14,13.58,6.71,25.09,20.09,18.41,16.03-8,19.29-28.74,41.37-30.91,33.79-3.33,52.17,21.68,68.76,46.1,7.55,11.11,17.87,31.76,27.63,39.62,2.31,1.86,5.09,3.17,7.56,4.78,0,1.11-7.16,5.17-8.67,6.45-10.97,9.26-25.73,36.94-35.14,50.03-14.86,20.67-32.65,38.2-60.69,35.68-21.38-1.92-24.28-21.37-40.06-29.98-14.07-7.68-27.48,5.11-20.47,18.79,8.43,16.45,28.9,16.71,31.1,41.19,2.69,29.92-17.04,49.46-39.48,64.72-13.23,9-36.72,20.66-46.82,31.63-1.14,1.23-5.42,7.58-6.42,7.59-3.04-5.09-6.88-9.48-11.55-13.12-26.38-20.54-64.72-31.81-77.13-66.32-4.86-13.51-6.53-26.96,1.43-39.75,7.1-11.4,25.36-15.8,27.88-30.96,1.55-9.37-8.43-19.06-17.67-15.98-18.59,6.19-21.5,30.07-44.57,32.19-48.98,4.51-65.85-49.88-90.5-79.82-4.15-5.04-8.48-8.29-13.98-11.78,5.08-3.83,9.04-5.93,13.1-10.99,24.8-30.89,40.06-84.68,90.26-80.06,23.5,2.16,25.33,23.61,42.5,31.47,10.19,4.67,22.63-2.8,20.86-14.14-2.39-15.26-21.13-20.32-28.42-32.65-10.13-17.15-3.17-39.67,7.48-54.9,18.22-26.04,56-35.67,76.68-58.36.8-.88,3.53-5.42,4.46-4.77ZM277.9,159.8l-1.64-.02c-1.36,7.05-6.75,12.5-10.19,18.68-5.68,10.22-8.69,20.64-9.68,32.34-18.88,6.37-34.06,21.15-40.23,40.18-9.97,1.7-19.19,3.85-28.26,8.45-5.22,2.65-9.74,6.59-15.11,8.99-1.96.87-9.61,2.1-5.56,4.04,12.31,5.92,23.73,14.39,37.28,17.63,3.98.95,8.25.97,12.21,2.08,6.06,18.79,20.9,34.24,39.85,40.28.8,11.01,4.21,22.58,9.5,32.24,2.15,3.93,5.07,7.05,7.28,10.65.92,1.49,3.03,7.45,4.3,7.47.3,0,1.91-4.52,2.43-5.42,1.76-3.03,4.13-5.65,5.93-8.64,6.55-10.87,11.27-23.07,12.36-35.83,18.8-7.06,33.21-21.28,39.78-40.35,11.29-2.02,21.92-5.1,32.05-10.53,6.31-3.39,11.72-8.42,18.68-10.47l-.56-1.68c-6.41-.44-10.7-4.84-15.87-7.66-11.09-6.04-21.73-9.76-34.29-11.66-5.74-18.64-21.13-33.51-39.38-39.91-1.67-11.43-4.51-22.06-10.1-32.2-3.47-6.29-8.75-11.69-10.78-18.65Z"/>
  <path class="st2" d="M450.26,199.37c-1.1,0-2.38-1.37-4.92-4.37-.69-.82-1.35-1.59-1.71-1.93-3.8-3.56-8.72-6.86-15.04-10.1l-.45-.23-.08-.5c-.12-.77.46-2,4.79-9.16,1.05-1.74,1.96-3.24,2.27-3.86,9.79-19.26,15.4-41.6,16.24-64.62.31-8.56-.27-9.85-.33-9.97-.19-.23-.39-.29-1.09-.37l-.2-.03c-3.57-.47-10.2.1-14.59.48l-1.27.11c-25.5,2.14-49.46,10.32-69.28,23.64l-.96.65-.5-1.05c-3.28-6.9-7.62-13.33-12.54-18.6-.29-.31-.8-.66-1.35-1.04-1.51-1.04-3.79-2.61-2.74-4.99.63-1.43,6.38-8.08,7.38-9.16,12.46-13.51,30.04-20.51,49.53-19.71,5.12.21,9.91.52,14.54.83,12.92.85,25.13,1.66,40-.32,3.65-.49,7.35-1.22,10.93-1.93,5.04-1,10.25-2.04,15.5-2.42l1.17-.08-.1,1.17c-.41,4.77-1.27,9.55-2.09,14.18-.62,3.47-1.26,7.05-1.7,10.58-1.98,15.8-1.49,29.5-.96,44.02.13,3.6.26,7.28.36,11.1.65,24.83-10.94,46.9-30.25,57.59l-.18.1-.21.02s-.08,0-.13,0Z"/>
  <path class="st0" d="M104.08,444.02c-.65-23.46,3.38-47.15,13.19-68.48,2.95-6.41,6.84-12.21,10.07-18.45,15.76,6.71,32.34,9.26,47-1.43,9.59-6.99,12.9-17.8,24.58-23.58,10.38-5.13,20.75,5.08,16.92,15.26-5.13,13.63-21.68,17.19-28.1,30.03s-4.23,28.42,1.51,41.56c.13,1.32-7.91,6-9.51,6.91-9.8,5.58-21.44,10.16-32.36,13.04-14.25,3.76-28.57,5.05-43.31,5.14Z"/>
  <path class="st0" d="M450.67,444.02c-25.77-.16-52.9-5.08-75.46-17.83-1.78-1.01-9.72-5.64-9.69-7.25s2.6-7.28,3.17-9.56c3.67-14.63,2.43-30.02-8.52-41.23-6.5-6.65-19.12-11.75-21.86-21.88-2.99-11.06,7.79-19.09,18.25-13.82,12.11,6.1,15.96,19.03,27.85,25.85,13.24,7.6,28.79,4.53,42.18-1.06l.56.36c11.58,17.67,19.02,38.08,21.77,59.1,1.21,9.26,1,18.1,1.74,27.32Z"/>
  <path class="st0" d="M126.83,183.78c-10.96-18.29-18.84-38.79-21.57-60.11-1.09-8.51-.85-17.15-1.73-25.67,29.98-.76,60.8,6.8,85.58,23.8l.17.72c-6.78,15.5-8.83,34.11,2.55,48,7.68,9.38,27.69,16.88,24.52,32.26-1.09,5.27-8.75,9.41-13.86,8.57-11.77-1.92-19.51-18.66-28.38-25.32-14.05-10.55-31.86-8.94-47.28-2.26Z"/>
  <path class="st0" d="M450.67,98c-.55,11.35-.93,22.11-2.94,33.32-3.28,18.26-10.2,36.66-20.58,51.99l-.56.36c-15.18-5.85-32.25-8.14-45.95,2.36-9.44,7.23-14.17,19.83-26.1,24.28-6.43,2.39-13.5.1-15.97-6.59-5.31-14.4,16.15-23.77,23.5-32.39,12.52-14.69,10.06-33.51,2.81-50.04,25.55-15.95,55.48-24.38,85.79-23.3Z"/>
  <path class="st2" d="M277.9,161.13l-1.62-.02c-1.35,6.96-6.67,12.35-10.07,18.45-5.62,10.1-8.58,20.4-9.57,31.95-18.66,6.29-33.65,20.9-39.74,39.7-9.85,1.68-18.96,3.8-27.92,8.34-5.16,2.61-9.62,6.51-14.93,8.88-1.93.86-9.49,2.07-5.5,3.99,12.16,5.84,23.44,14.22,36.84,17.42,3.93.94,8.16.96,12.06,2.05,5.99,18.57,20.65,33.83,39.37,39.8.79,10.88,4.16,22.31,9.39,31.86,2.13,3.88,5,6.97,7.19,10.52.91,1.47,2.99,7.36,4.25,7.38.29,0,1.89-4.47,2.4-5.36,1.74-2.99,4.08-5.58,5.86-8.53,6.48-10.74,11.14-22.8,12.21-35.4,18.58-6.97,32.82-21.03,39.31-39.86,11.15-2,21.66-5.04,31.67-10.41,6.24-3.34,11.58-8.32,18.46-10.34l-.56-1.66c-6.33-.43-10.57-4.78-15.68-7.57-10.95-5.97-21.47-9.64-33.88-11.52-5.67-18.41-20.88-33.11-38.91-39.43-1.65-11.3-4.45-21.8-9.98-31.81-3.43-6.22-8.65-11.55-10.65-18.43Z"/>
  <path class="st2" d="M101.54,201.89l-.21-.02-.18-.1c-19.32-10.69-30.91-32.76-30.25-57.59.1-3.81.23-7.49.36-11.1.52-14.51,1.02-28.22-.96-44.02-.44-3.52-1.08-7.11-1.7-10.58-.83-4.63-1.68-9.41-2.09-14.18l-.1-1.17,1.17.08c5.25.38,10.46,1.42,15.5,2.42,3.58.71,7.28,1.45,10.93,1.93,14.87,1.98,27.08,1.18,40,.32,4.63-.31,9.42-.62,14.54-.83,19.49-.8,37.06,6.21,49.53,19.71,1,1.09,6.75,7.73,7.38,9.16,1.05,2.38-1.23,3.95-2.74,4.99-.54.37-1.06.73-1.35,1.04-4.92,5.27-9.26,11.7-12.54,18.6l-.5,1.05-.96-.65c-19.82-13.32-43.78-21.5-69.28-23.64l-1.27-.11c-4.39-.38-11.02-.95-14.59-.48l-.2.03c-.7.09-.9.14-1.09.37-.07.12-.64,1.41-.33,9.97.83,23.02,6.45,45.37,16.24,64.62.31.62,1.22,2.12,2.27,3.86,4.32,7.16,4.91,8.39,4.79,9.16l-.08.5-.45.23c-6.32,3.24-11.24,6.54-15.04,10.1-.36.34-1.02,1.11-1.71,1.93-2.54,3-3.82,4.37-4.92,4.37-.04,0-.08,0-.13,0Z"/>
  <path class="st2" d="M452.91,340l.21.02.18.1c19.32,10.69,30.91,32.76,30.25,57.59-.1,3.81-.23,7.49-.36,11.1-.52,14.51-1.02,28.22.96,44.02.44,3.52,1.08,7.11,1.7,10.58.83,4.62,1.68,9.41,2.09,14.18l.1,1.17-1.17-.08c-5.25-.38-10.46-1.42-15.5-2.42-3.58-.71-7.28-1.45-10.93-1.93-14.87-1.98-27.08-1.18-40-.32-4.63.31-9.42.62-14.54.83-19.49.8-37.06-6.21-49.53-19.71-1-1.09-6.75-7.73-7.38-9.16-1.05-2.38,1.23-3.95,2.74-4.99.54-.37,1.06-.73,1.35-1.04,4.92-5.27,9.26-11.7,12.54-18.6l.5-1.05.96.65c19.82,13.32,43.78,21.5,69.28,23.64l1.27.11c4.39.38,11.02.95,14.59.48l.2-.03c.7-.09.9-.14,1.09-.37.07-.12.64-1.41.33-9.97-.83-23.02-6.45-45.37-16.24-64.62-.31-.62-1.22-2.12-2.27-3.86-4.32-7.16-4.91-8.39-4.79-9.16l.08-.5.45-.23c6.32-3.24,11.24-6.54,15.04-10.1.36-.34,1.02-1.11,1.71-1.93,2.54-3,3.82-4.37,4.92-4.37.04,0,.08,0,.13,0Z"/>
  <path class="st2" d="M101.67,339.99c1.1,0,2.38,1.37,4.92,4.37.69.82,1.35,1.59,1.71,1.93,3.8,3.56,8.72,6.86,15.04,10.1l.45.23.08.5c.12.77-.46,2-4.79,9.16-1.05,1.74-1.96,3.24-2.27,3.86-9.79,19.26-15.4,41.6-16.24,64.62-.31,8.56.27,9.85.33,9.97.19.23.39.29,1.09.37l.2.03c3.57.47,10.2-.1,14.59-.48l1.27-.11c25.5-2.14,49.46-10.32,69.28-23.64l.96-.65.5,1.05c3.28,6.9,7.62,13.33,12.54,18.6.29.31.8.66,1.35,1.04,1.51,1.04,3.79,2.61,2.74,4.99-.63,1.43-6.38,8.08-7.38,9.16-12.46,13.51-30.04,20.51-49.53,19.71-5.12-.21-9.91-.52-14.54-.83-12.92-.85-25.13-1.66-40,.32-3.65.49-7.35,1.22-10.93,1.93-5.04,1-10.25,2.04-15.5,2.42l-1.17.08.1-1.17c.41-4.77,1.27-9.55,2.09-14.18.62-3.47,1.26-7.05,1.7-10.58,1.98-15.8,1.49-29.5.96-44.02-.13-3.6-.26-7.28-.36-11.1-.65-24.83,10.94-46.9,30.25-57.59l.18-.1.21-.02s.08,0,.13,0Z"/>
</svg>