<?xml version="1.0" encoding="UTF-8"?>
<svg id="Camada_1" xmlns="http://www.w3.org/2000/svg" version="1.1" viewBox="0 0 566.93 566.93">
  <!-- Generator: Adobe Illustrator 29.5.0, SVG Export Plug-In . SVG Version: 2.1.0 Build 137)  -->
  <defs>
    <style>
      .st0 {
        fill: #f9f9f9;
      }

      .st1 {
        fill: #262523;
      }
    </style>
  </defs>
  <polygon class="st0" points="566.93 188.58 566.93 284.65 285.24 566.93 282.87 566.93 0 283.46 0 187.99 283.84 471.41 566.93 188.58"/>
  <polygon class="st0" points="2.96 0 283.84 281.64 564.56 0 566.93 0 566.93 94.29 283.84 377.12 0 93.7 0 0 2.96 0"/>
  <polygon class="st1" points="566.93 94.29 566.93 188.58 283.84 471.41 0 187.99 0 93.7 283.84 377.12 566.93 94.29"/>
  <polygon class="st1" points="97.05 0 283.84 187.35 470.47 0 564.56 0 283.84 281.64 2.96 0 97.05 0"/>
  <polygon class="st0" points="192.33 0 283.84 91.88 375.19 0 470.47 0 283.84 187.35 97.05 0 192.33 0"/>
  <polygon class="st1" points="282.87 566.93 188.19 566.93 0 378.35 0 283.46 282.87 566.93"/>
  <polygon class="st1" points="566.93 284.65 566.93 378.94 379.33 566.93 285.24 566.93 566.93 284.65"/>
  <polygon class="st0" points="188.19 566.93 92.91 566.93 0 473.82 0 378.35 188.19 566.93"/>
  <polygon class="st0" points="566.93 474.42 474.61 566.93 379.33 566.93 566.93 378.94 566.93 474.42"/>
  <polygon class="st1" points="375.19 0 283.84 91.88 192.33 0 375.19 0"/>
  <polygon class="st1" points="92.91 566.93 0 566.93 0 473.82 92.91 566.93"/>
  <polygon class="st1" points="566.93 474.42 566.93 566.93 474.61 566.93 566.93 474.42"/>
</svg>