<?xml version="1.0" encoding="UTF-8"?>
<svg id="Camada_1" xmlns="http://www.w3.org/2000/svg" version="1.1" viewBox="0 0 566.93 566.93">
  <!-- Generator: Adobe Illustrator 29.5.0, SVG Export Plug-In . SVG Version: 2.1.0 Build 137)  -->
  <defs>
    <style>
      .st0 {
        fill: #b89937;
      }

      .st1 {
        fill: #502225;
      }
    </style>
  </defs>
  <rect class="st0" x="0" y="0" width="566.93" height="566.93"/>
  <g>
    <path class="st1" d="M283.76,566.9c1.24-48.53-23.54-94.96-64.35-120.71-22.94-14.47-50.02-21.89-77.23-21.01-3.43-77.63,63.42-144.73,140.99-141.72.62,14.94,2.05,29.2,6.34,43.56,17.65,59.08,73.34,99.92,135.26,98.17-.31-30.01,8.22-59.03,25.47-83.45,26.31-37.24,70.18-59.71,116.11-58.28v278.73l-4.3-20.79c-8.67-34.25-30.79-72.97-59.82-93.66-22.12-15.77-49.28-23.72-76.54-22.56.31,24.15-4.96,47.19-16.97,68.1-21.49,37.41-68.63,63.6-110.18,71.59l-11.82,2.05h-2.95Z"/>
    <path class="st1" d="M283.17,0c-1.27,49.21,24.08,95.53,65.53,121.3,22.66,14.08,49.33,20.94,76.06,20.42,1.83,49.21-24.11,95.69-65.54,121.31-22.67,14.02-48.74,20.74-75.47,20.43-.21-14.32-1.69-28.15-5.6-41.93-13.82-48.63-54.83-87.39-104.59-97.26-11.31-2.24-20.65-2.14-31.98-2.54-.33,8.38-.1,15.9-1.34,24.34-9.94,67.62-71.58,119.98-140.24,116.79V1.77l4.53,22.93c14.15,52.11,47.39,101.23,102.83,113.78,12.19,2.76,21.93,2.82,34.22,3.24.32-8.18.18-15.5,1.36-23.73,8.59-59.7,57.72-97.03,112.5-112.97L279.04,0h4.13Z"/>
    <path class="st1" d="M563.98,0h2.95v281.68c-1.2-4.68-1.6-9.53-2.54-14.28-8.15-41.14-33.36-86.44-69.84-108.43-20.46-12.33-44.86-18.4-68.81-17.21-.83-.19-.96-2.52-1.01-3.25-.59-8.37,1.35-21.07,3.16-29.37,12.1-55.34,59.49-89.18,111.31-104.12L563.98,0Z"/>
    <path class="st1" d="M0,566.9l.29-281.09c6.9,51.77,36.42,107.87,86.03,129.43,17.48,7.6,36.25,10.33,55.27,10.28,1.86,37.53-14.61,75.05-43.07,99.17-27.42,23.24-61.33,36.87-96.76,42.22-.56.09-1.19-.05-1.77,0Z"/>
  </g>
</svg>