<?xml version="1.0" encoding="UTF-8"?>
<svg id="Camada_1" xmlns="http://www.w3.org/2000/svg" version="1.1" viewBox="0 0 566.93 566.93">
  <!-- Generator: Adobe Illustrator 29.5.0, SVG Export Plug-In . SVG Version: 2.1.0 Build 137)  -->
  <defs>
    <style>
      .st0 {
        fill: #2a2b23;
      }

      .st1 {
        fill: #f4f2f2;
      }
    </style>
  </defs>
  <path class="st1" d="M189.69,0l93.78,94.13L377.24,0h95.1l94.58,94.14v94.66l-94.57,94.4,94.57,94.4v94.66l-94.58,94.67h-95.1l-93.78-94.66-93.78,94.66h-95.1L0,472.26v-94.66l94.57-94.4L0,188.8V0h566.93v566.93H0V94.14L94.58,0h95.1ZM283.46,188.75l-94.36,94.44,94.36,94.46,94.36-94.44-94.36-94.46Z"/>
  <polygon class="st0" points="0 377.6 0 188.8 94.57 283.2 0 377.6"/>
  <polygon class="st0" points="566.93 377.6 472.36 283.2 566.93 188.8 566.93 377.6"/>
  <polygon class="st0" points="377.24 566.93 189.69 566.93 283.46 472.27 377.24 566.93"/>
  <polygon class="st0" points="377.24 0 283.46 94.13 189.69 0 377.24 0"/>
  <polygon class="st0" points="94.58 566.93 0 566.93 0 472.26 94.58 566.93"/>
  <polygon class="st0" points="566.93 472.26 566.93 566.93 472.35 566.93 566.93 472.26"/>
  <polygon class="st0" points="472.35 0 566.93 0 566.93 94.14 472.35 0"/>
  <polygon class="st0" points="94.58 0 0 94.14 0 0 94.58 0"/>
  <rect class="st0" x="216.71" y="216.44" width="133.51" height="133.52" transform="translate(-117.23 283.18) rotate(-44.97)"/>
</svg>