<?xml version="1.0" encoding="UTF-8"?>
<svg id="Camada_1" xmlns="http://www.w3.org/2000/svg" version="1.1" viewBox="0 0 566.93 566.93">
  <!-- Generator: Adobe Illustrator 29.5.0, SVG Export Plug-In . SVG Version: 2.1.0 Build 137)  -->
  <defs>
    <style>
      .st0 {
        fill: #ebe0b3;
      }

      .st1 {
        fill: #d6ad43;
      }

      .st2 {
        fill: #262523;
      }
    </style>
  </defs>
  <path class="st2" d="M0,213L283.11,1.17l283.16,211.41v141.77l-283.07,212.05L0,354.47v-141.46ZM282.78,71.62L26.04,264.06c-.64.52-.69,1.15-.79,1.9-1.41,10.73,1.13,24.49,0,35.56l.58,1.57,257.81,192.75,257.47-192.75.57-1.58-.31-36.87L284.52,71.81c-.56-.38-1.11-.37-1.74-.2Z"/>
  <path class="st0" d="M0,.54V0h566.93v566.93h-.54v-124.25s-164.59,124.25-164.59,124.25h-236.67L0,443.22v-88.75l283.21,211.93,283.07-212.05v-141.77L283.11,1.17,0,213v-88.75L165.13.54H0ZM566.39.54h-165.13l165.13,123.71V.54Z"/>
  <polygon class="st2" points="0 443.22 165.13 566.93 0 566.93 0 443.22"/>
  <polygon class="st2" points="0 .54 165.13 .54 0 124.25 0 .54"/>
  <polygon class="st2" points="566.39 566.93 401.8 566.93 566.39 442.68 566.39 566.93"/>
  <path class="st0" d="M282.78,71.62c.63-.17,1.18-.18,1.74.2l256.86,192.83.31,36.87-.57,1.58-257.47,192.75L25.83,303.09l-.58-1.57c1.14-11.07-1.4-24.83,0-35.56.1-.75.15-1.38.79-1.9L282.78,71.62ZM283.29,142.65l-188.08,141.08,188.42,141.11,188.08-141.11-188.42-141.08Z"/>
  <polygon class="st2" points="566.39 .54 566.39 124.25 401.26 .54 566.39 .54"/>
  <polygon class="st1" points="283.29 142.65 471.71 283.73 283.64 424.84 95.22 283.73 283.29 142.65"/>
</svg>