<?xml version="1.0" encoding="UTF-8"?>
<svg id="Camada_1" xmlns="http://www.w3.org/2000/svg" version="1.1" viewBox="0 0 566.93 566.93">
  <!-- Generator: Adobe Illustrator 29.5.0, SVG Export Plug-In . SVG Version: 2.1.0 Build 137)  -->
  <defs>
    <style>
      .st0 {
        fill: #f9f9f9;
      }

      .st1 {
        fill: #262523;
      }
    </style>
  </defs>
  <rect class="st0" x="-.58" y="0" width="566.93" height="566.93"/>
  <polygon class="st1" points="566.35 566.92 425.82 425.57 566.93 284.26 566.93 566.92 566.35 566.92"/>
  <polygon class="st1" points="566.35 284.26 425.82 142.91 566.93 1.59 566.93 284.26 566.35 284.26"/>
  <polygon class="st1" points="0 0 140.54 141.34 -.57 282.66 -.58 0 0 0"/>
  <polygon class="st1" points="0 282.66 140.54 424.01 -.57 565.32 -.58 282.66 0 282.66"/>
  <polygon class="st1" points="140.54 141.34 283.5 0 425.82 142.91 283.5 282.66 140.54 141.34"/>
  <polygon class="st1" points="140.25 424.01 283.21 282.66 425.53 425.57 283.21 565.32 140.25 424.01"/>
</svg>