<?xml version="1.0" encoding="UTF-8"?>
<svg id="Camada_1" xmlns="http://www.w3.org/2000/svg" version="1.1" viewBox="0 0 566.93 566.93">
  <!-- Generator: Adobe Illustrator 29.5.0, SVG Export Plug-In . SVG Version: 2.1.0 Build 137)  -->
  <defs>
    <style>
      .st0 {
        fill: #522019;
      }

      .st1 {
        fill: #d6ad43;
      }
    </style>
  </defs>
  <path class="st1" d="M284,0c.01,50.86-.02,101.75,0,152.61-72.69-.21-131.61,58.62-131.49,131.12-50.83-.01-101.68.01-152.51,0v-154.76c7.78-.7,15.52-1.35,23.18-2.95C82.26,113.7,126.67,60.41,127.18,0h156.82Z"/>
  <path class="st1" d="M414.42,283.2c-43.46-.01-86.95,0-130.42,0,0-43.52.02-87.07,0-130.58,72.52.2,130.23,58.46,130.42,130.58Z"/>
  <path class="st1" d="M566.93,283.2v155.3c-68.67.85-126.69,60.08-126.64,128.43h-156.82v-152.62c-11.72.57-23.35-1.4-34.61-4.45-56.59-15.33-96.25-67.54-96.35-126.13,43.82.01,87.67,0,131.49,0v130.58c57.16.86,109.15-38.85,125.17-93.09,3.79-12.82,5.28-24.67,5.25-38.03,50.83.02,101.68-.01,152.51,0Z"/>
  <path class="st0" d="M440.29,0c.27,46.08,26.52,89.38,66.46,111.87,18.51,10.42,38.92,15.91,60.18,17.1v154.23c-50.83-.01-101.68.02-152.51,0-.19-72.12-57.9-130.38-130.42-130.58-.02-50.86.01-101.75,0-152.61h156.28Z"/>
  <path class="st0" d="M284,152.61c.01,43.52,0,87.07,0,130.58,43.46,0,86.95-.02,130.42,0,.03,13.36-1.46,25.21-5.25,38.03-16.02,54.24-68.01,93.95-125.17,93.09v-130.58c-43.82,0-87.67.01-131.49,0-.12-72.5,58.81-131.32,131.49-131.12Z"/>
  <path class="st0" d="M152.51,283.73c.09,58.59,39.76,110.8,96.35,126.13,11.25,3.05,22.89,5.02,34.61,4.45v152.62H127.18c-.86-23.55-7.27-46.59-19.72-66.59-22.88-36.78-63.65-61.05-107.47-61.84v-154.76c50.83.01,101.68-.01,152.51,0Z"/>
  <path class="st0" d="M127.18,0c-.51,60.41-44.93,113.7-104,126.02-7.66,1.6-15.4,2.25-23.18,2.95V0h127.18Z"/>
  <path class="st1" d="M127.18,566.93H0v-128.43c43.81.8,84.58,25.06,107.47,61.84,12.44,20,18.86,43.04,19.72,66.59Z"/>
  <path class="st1" d="M440.29,0h126.64v128.97c-21.26-1.19-41.67-6.68-60.18-17.1-39.95-22.49-66.19-65.79-66.46-111.87Z"/>
  <path class="st0" d="M566.93,438.5v128.43h-126.64c-.05-68.35,57.98-127.58,126.64-128.43Z"/>
</svg>