<?xml version="1.0" encoding="UTF-8"?>
<svg id="Camada_1" xmlns="http://www.w3.org/2000/svg" version="1.1" viewBox="0 0 566.93 566.93">
  <!-- Generator: Adobe Illustrator 29.5.0, SVG Export Plug-In . SVG Version: 2.1.0 Build 137)  -->
  <defs>
    <style>
      .st0 {
        fill: #4a949d;
      }

      .st1 {
        fill: #a2bfaf;
      }

      .st2 {
        fill: #f5f5f5;
      }

      .st3 {
        fill: #155d64;
      }
    </style>
  </defs>
  <rect class="st2" width="566.93" height="566.93"/>
  <g>
    <path class="st0" d="M471.86,288.57c-2.94,50.07-44.41,88.84-94.49,88.84.29,1.67-.44,3.24-.54,4.85,1.63-.3,1.03.82,1.08,1.86,1.51,35.18,25.4,67.46,57.62,80.77,48.25,19.93,103.12-2.9,123.37-50.5,3.8-8.94,5.69-18.31,7.44-27.82v-9.15c-49.27,1.14-92.1-39.86-94.49-88.84Z"/>
    <path class="st0" d="M471.86,99.6c-2.65,49.66-44.65,89.51-94.49,89.38.17,1.03-.43,2.02-.46,2.97-.01.42.46.73.46.79.78,3.2.7,6.58,1.17,9.87,3.33,23.4,16.86,46.02,35.5,60.33,52.92,40.64,128.34,16.19,148.15-46.64l4.16-18.72v-8.61c-49.1.88-92.51-40.37-94.49-89.38Z"/>
    <path class="st0" d="M377.37,0c-.2,2.17-.44,4.27-.54,6.46,1.65-.33.97.81,1.08,2.15,2.6,33.63,25.06,64.04,55.63,77.62,55.32,24.59,118.67-8.8,130.94-67.38l1.87-10.25V0h-188.98Z"/>
    <path class="st0" d="M471.86,477.01c-3.14,51.41-45.47,90.66-97.18,89.38v.54h191.67v-.54c-49.2,1.25-92.53-40.51-94.49-89.38Z"/>
  </g>
  <g>
    <path class="st3" d="M276.4,94.24c50.5,2.94,96.69-34.55,100.43-85.63.05-.71-.03-1.44,0-2.15.1-2.19.34-4.29.54-6.46h-188.44c.03,1.79-.04,3.59,0,5.38,1.11,46.17,41.76,86.19,87.47,88.86Z"/>
    <path class="st3" d="M289.9,507.69c-3.59-8.87-5.55-18-7.02-27.45-3.63,40.58-34.25,75.66-74.13,84.17l-17.67,2.52h183.59v-.54c-37.28-.92-70.84-24.21-84.78-58.7Z"/>
    <path class="st3" d="M377.37,377.41c-49.58,0-90.6-38.46-94.49-87.76-3.44,49.38-44.36,87.76-93.95,87.76.01,1.79-.02,3.59,0,5.38.36,39.97,32.36,76.95,70.53,86.42,59.09,14.66,113.81-26.98,117.37-86.95.1-1.61.82-3.17.54-4.85Z"/>
    <path class="st3" d="M211.27,249.82c56.67,64.68,160.87,28.31,166.1-57.08,0-.06-.47-.37-.46-.79.03-.95.63-1.94.46-2.97-45.75-.12-84.43-32.64-93-77.4-.23-1.21-.72-8.77-1.49-8.74-4.63,48.46-45.2,85.62-93.95,86.15.01,1.61-.02,3.23,0,4.85.22,19.23,9.74,41.62,22.34,56Z"/>
  </g>
  <g>
    <path class="st1" d="M97.68,309.04c-1.71-6.03-2.55-12.19-3.77-18.31-3.32,48.23-45.94,87.84-94.49,86.69v.54l1.77,16.8c22.74,106.55,173.59,102.07,186.81-9.39.1-.83.31-1.96.93-2.57-.02-1.79.01-3.59,0-5.38-42.23,0-79.72-27.73-91.26-68.38Z"/>
    <path class="st1" d="M188.93,0H-.04c-.98,42.5,30,81.28,70.84,91.49,53.64,13.41,107.04-21.6,116.37-75.76.59-3.41.29-7.29,1.77-10.34-.04-1.79.03-3.59,0-5.38Z"/>
    <path class="st1" d="M96.49,493.82c-1.09-4.67-1.4-9.48-2.58-14.11-3.04,48.06-46.2,87.98-94.49,86.69v.54h188.98l-12.58-1.15c-38.32-5.13-70.55-34.31-79.33-71.96Z"/>
    <path class="st1" d="M97.68,120.6c-1.6-5.64-2.16-10.59-3.12-16.27-.1-.57-.14-2.14-.92-2.03C90.79,150.3,47.86,189.35-.05,188.97c-.68,39.15,25.98,75.59,62.58,88.45,55.34,19.44,114.85-15.76,124.63-73.25.58-3.41.29-7.29,1.77-10.34-.02-1.61.01-3.23,0-4.85-42.01.46-79.85-28.18-91.26-68.38Z"/>
  </g>
</svg>