<?xml version="1.0" encoding="UTF-8"?>
<svg id="Camada_1" xmlns="http://www.w3.org/2000/svg" version="1.1" viewBox="0 0 566.93 566.93">
  <!-- Generator: Adobe Illustrator 29.5.0, SVG Export Plug-In . SVG Version: 2.1.0 Build 137)  -->
  <defs>
    <style>
      .st0 {
        fill: #3f5a91;
      }

      .st1 {
        fill: #a8cce4;
      }

      .st2 {
        fill: #d6ad43;
      }
    </style>
  </defs>
  <g>
    <path class="st0" d="M283.2,148.95c1.25,10.33,2.45,20.36,5.2,30.43,16.55,60.66,73.37,104.29,136.52,104.11-.85-68.76,51.28-129.28,118.94-139.76,4.31-.67,9.29-1.41,13.47-1.68l-16.05-2.29C474.62,127.98,424.8,68.38,424.92,0h-11.7l-14.99,2.89c-65.72,12.32-115.75,71.92-114.76,139.15-19.04-.08-38.35-3.93-55.82-11.45-50.25-21.63-83.92-70.85-85.9-125.75C140.04,80.15,75.47,142.89,0,142.04v6.91c1.44,6.3,1.69,12.83,2.85,19.24,11.38,62.94,67.46,112.68,131.71,114.76-1.1,1.88-4.19.85-6.11,1.06C57.68,291.73,1.48,349.99.57,422.01c-.01.9.34,2.36-.57,2.92v4.79l1.71,15.07c9.58,68.88,70.06,122.41,140,121.6.91-11.69,1.89-23.25,4.71-34.69,14.55-58.9,68.49-103.39,129.07-106.77-64.94-3.13-120.88-52.91-131.71-116.89-1.38-8.15-1.92-16.31-2.3-24.56,74.49.39,138.31-60.17,141.72-134.53Z"/>
    <path class="st0" d="M492.5,404.41c-37.77-23.16-62.44-62.68-67.07-106.82-.07-.68.49-2.27-.78-1.88-.52.16-1.24,9.31-1.49,10.75-11.98,68.13-69.81,118.75-139.7,119-.78,67.9,49.9,127.38,116.36,139.15l17.12,2.32h17.55c2.62-1.28,6-.78,8.71-1.15,61.13-8.33,111.18-55.82,121.42-116.81l2.31-17.66v-6.38c-25.89,1.06-52.54-7.09-74.43-20.52Z"/>
  </g>
  <g>
    <path class="st2" d="M557.33,142.04c-4.19.27-9.16,1.02-13.47,1.68-67.66,10.49-119.79,71-118.94,139.76-63.15.18-119.97-43.45-136.52-104.11-2.75-10.07-3.95-20.1-5.2-30.43-3.42,74.36-67.24,134.93-141.72,134.53.38,8.25.92,16.41,2.3,24.56,10.84,63.97,66.78,113.76,131.71,116.89,2.81-.16,5.81.54,7.98.53,69.9-.25,127.73-50.87,139.7-119,.25-1.44.97-10.59,1.49-10.75,1.27-.39.7,1.2.78,1.88,4.62,44.15,29.3,83.67,67.07,106.82,21.89,13.42,48.54,21.57,74.43,20.52V142.04c-3.19.15-6.44-.2-9.6,0Z"/>
    <path class="st2" d="M2.85,168.19C1.69,161.78,1.44,155.25,0,148.95v275.98c.91-.55.56-2.02.57-2.92.91-72.02,57.12-130.28,127.89-137.99,1.92-.21,5.01.82,6.11-1.06-64.25-2.08-120.33-51.82-131.71-114.76Z"/>
  </g>
  <g>
    <path class="st1" d="M141.75,4.84c1.98,54.89,35.65,104.11,85.9,125.75,17.47,7.52,36.78,11.38,55.82,11.45-.98-67.23,49.04-126.83,114.76-139.15L413.22,0H0s0,142.04,0,142.04c75.47.85,140.04-61.89,141.75-137.2Z"/>
    <path class="st1" d="M283.46,425.46c-2.17,0-5.16-.69-7.98-.53-60.58,3.37-114.52,47.87-129.07,106.77-2.83,11.44-3.8,23-4.71,34.69-69.93.81-130.41-52.72-140-121.6L0,429.71v137.22s416.94,0,416.94,0l-17.12-2.32c-66.46-11.77-117.14-71.26-116.36-139.15Z"/>
    <path class="st1" d="M424.92,0c-.12,68.38,49.7,127.98,116.36,139.74l16.05,2.29c3.16-.2,6.4.15,9.6,0V0s-142.01,0-142.01,0Z"/>
    <path class="st1" d="M443.2,565.78c-2.71.37-6.09-.13-8.71,1.15h132.44v-135.62s-2.31,17.66-2.31,17.66c-10.24,60.99-60.29,108.48-121.42,116.81Z"/>
  </g>
</svg>