<?xml version="1.0" encoding="UTF-8"?>
<svg id="Camada_1" xmlns="http://www.w3.org/2000/svg" version="1.1" viewBox="0 0 566.93 566.93">
  <!-- Generator: Adobe Illustrator 29.5.0, SVG Export Plug-In . SVG Version: 2.1.0 Build 137)  -->
  <defs>
    <style>
      .st0 {
        fill: #7c796f;
      }

      .st1 {
        fill: #f4f2f2;
      }

      .st2 {
        fill: #a19e98;
      }

      .st3 {
        fill: #a29f99;
      }
    </style>
  </defs>
  <rect class="st0" width="566.93" height="566.93"/>
  <g>
    <path class="st1" d="M566.89,310.62c0,28.85,0,57.74,0,86.59l-38.02-21.78-.3-42.79,38.33-22.02Z"/>
    <path class="st1" d="M566.89,451.93c-.01,28.85.1,57.74,0,86.59l-38.02-21.78-.31-42.78,38.33-22.03Z"/>
    <path class="st1" d="M566.89,169.32c0,28.85,0,57.74,0,86.59l-38.02-21.78-.31-42.78,38.33-22.03Z"/>
    <path class="st1" d="M566.89,28.01c.06,28.85,0,57.74,0,86.59l-37.21-21-.98-1.15.16-42.67,38.02-21.78Z"/>
    <path class="st1" d="M240.38.39l-.09,22.23-37.94,21.3-37.4-21.3-.09-22.23c25.16,0,50.35,0,75.51,0Z"/>
    <path class="st1" d="M402.04.39l-.11,22.2-37.37,21.34-37.94-21.31-.09-22.23c25.16,0,50.35,0,75.51,0Z"/>
    <path class="st1" d="M563.7.39l-.11,22.2-37.37,21.32-37.54-21.44c-1.12-7.17-.18-14.77-.49-22.09,24.91.01,50.72-.87,75.51,0Z"/>
    <path class="st1" d="M482.87.39l-.09,22.23-37.4,21.3-37.54-21.44c-1.12-7.17-.18-14.77-.49-22.09,25.16,0,50.35-.01,75.51,0Z"/>
    <path class="st1" d="M159.55.39c-.31,7.31.63,14.92-.49,22.09l-37.54,21.44-37.4-21.3-.09-22.23c25.16-.01,50.35,0,75.51,0Z"/>
    <path class="st1" d="M321.21.39l-.09,22.23-37.94,21.31-36.99-21.45c-1.12-7.17-.18-14.77-.49-22.09,25.16,0,50.35,0,75.51,0Z"/>
    <path class="st1" d="M78.19.39l-.26,22.32-37.23,21.21L3.33,22.59,3.21.39c24.61-.87,50.25.01,74.98,0Z"/>
    <path class="st1" d="M.02,310.62c12.75,6.44,24.79,14.42,37.41,21.2.74,14.5.24,29.41.26,44.06L.02,397.21c0-28.85,0-57.74,0-86.59Z"/>
    <path class="st1" d="M.02,28.01c12.75,6.44,24.79,14.42,37.41,21.2.74,14.5.24,29.41.26,44.06L.02,114.6C.03,85.75-.03,56.86.02,28.01Z"/>
    <path class="st1" d="M.02,538.52c-.06-29.03,0-58.09,0-87.12l37.5,21.77.16,43.2-.98,1.15L.02,538.52Z"/>
    <path class="st1" d="M.02,255.91c0-28.85,0-57.74,0-86.59,12.88,6.29,24.91,14.34,37.5,21.24l.16,43.2-.98,1.15L.02,255.91Z"/>
    <path class="st2" d="M3.21,543.83c.41,0,1.05.1,1.06.36.31,5.43.35,12.86,0,18.25.34,1.75-.01,2.8-1.06,3.17l.37-1.06h73.96l.65,1.06c-.41,0-1.05-.1-1.06-.36-.25-4.06-.72-17.52,0-20.8l1.06-.62c.6.24.51.76.56,1.27.71,6.54-.59,14.36-.03,21.04-24.91-.01-51.32,1.12-76.04,0,.56-6.68-.74-14.5-.03-21.04.06-.51-.04-1.03.56-1.27Z"/>
    <path class="st3" d="M402.57,566.14c-25.34,0-50.7,0-76.04,0v-.53l.37-1.06h73.69c.45-6.53.58-13.23.38-20.09l1.06-.63c.6.24.51.76.56,1.27.7,6.55-.59,14.35-.03,21.04Z"/>
    <path class="st3" d="M564.23,566.14c-23.68,1.78-51.85-.02-76.04,0v-.53l.37-1.06h73.69c.45-6.53.58-13.23.38-20.09l1.06-.63c.6.24.51.76.56,1.27.71,6.54-.59,14.36-.03,21.04Z"/>
    <path class="st3" d="M407.89,543.83l1.06.36c-.19,6.94-.07,13.73.37,20.36h72.89s.65,1.06.65,1.06v.53c-25.16.02-50.35,0-75.51,0,.55-6.7-.73-14.48-.03-21.04.05-.51,0-1.01.56-1.27Z"/>
    <path class="st3" d="M159.55,565.61v.53c-25.16,0-50.35.01-75.51,0v-.53l.37-1.06h74.48l.66,1.06Z"/>
    <path class="st3" d="M240.38,565.61v.53c-25.16,0-50.35,0-75.51,0v-.53l.37-1.06h74.48l.66,1.06Z"/>
    <path class="st3" d="M321.21,565.61v.53c-25.16,0-50.35,0-75.51,0v-.53l.37-1.06h74.48l.66,1.06Z"/>
    <path class="st1" d="M563.58,305.2l-37.47,21.26c-11.04-6.47-22.57-12.27-33.5-18.93-1.43-.87-4.11-1.98-4.42-3.56l.1-42.64,37.91-21.7c11.3,6.98,23.4,12.85,34.65,19.91,1.04.65,2.6,1.22,2.84,2.48l-.12,43.19Z"/>
    <polygon class="st1" points="240.3 305.23 202.36 326.36 164.96 305.23 165.13 261.21 202.36 239.63 239.52 260.75 240.41 262.52 240.3 305.23"/>
    <path class="st1" d="M401.95,305.23l-37.49,21.25-37.85-21.25.17-44.01,37.76-21.59c10.13,6.22,20.76,11.66,30.94,17.79,1.47.88,6.33,3.38,6.56,4.6l-.09,43.21Z"/>
    <path class="st1" d="M159.44,261.33l.1,42.64c-.31,1.58-2.99,2.69-4.42,3.56-10.93,6.66-22.46,12.46-33.5,18.93l-37.5-21.23-.12-42.71.89-1.77,36.63-21.12,37.91,21.7Z"/>
    <path class="st1" d="M321.13,305.23l-37.85,21.25c-10.88-6.57-22.3-12.33-33.15-18.95-1.43-.87-4.11-1.98-4.42-3.56l.25-42.76,37.23-21.59,37.17,21.12.88,1.78-.12,42.71Z"/>
    <path class="st1" d="M482.78,305.23l-37.4,21.13-37.76-21.58v-43.02c11.66-7.82,24.46-14.12,36.43-21.56l1.96-.37,36.6,21.38.17,44.02Z"/>
    <path class="st1" d="M367.06,190.67l38.54-21.5,36.6,21.38v43.57s-37.23,21.77-37.23,21.77c-10.66-6.44-21.91-12-32.53-18.5-1.4-.86-5.24-2.72-5.5-4.07l.12-42.66Z"/>
    <polygon class="st1" points="442.34 49.37 442.37 93.27 404.96 114.57 367.03 93.27 367.03 49.34 404.96 28.05 442.34 49.37"/>
    <path class="st1" d="M242.38,452.02c.77-.13,1.43-.12,2.11.32l35.46,20.36.88,1.78-.3,42.26-37.3,21.67-37.68-21.67v-43.57s36.83-21.15,36.83-21.15Z"/>
    <polygon class="st1" points="280.71 49.34 280.71 93.27 242.77 114.58 205.37 93.27 205.63 49.21 242.01 28.29 243.27 27.99 280.71 49.34"/>
    <path class="st1" d="M280.68,190.67l.02,43.1c-12.25,7.92-25.09,14.95-37.84,22.02l-37.32-21.66-.29-42.27.88-1.78,34.75-20,2.38-.77,37.41,21.35Z"/>
    <path class="st1" d="M563.61,163.92l-37.4,21.32c-10.76-6.26-21.92-11.99-32.53-18.48-1.4-.86-5.24-2.72-5.5-4.07l.09-42.68,37.43-21.34,2.39.78,34.75,20,.89,1.77-.12,42.71Z"/>
    <polygon class="st1" points="119.05 331.96 118.88 375.44 81.11 397.19 43.72 375.88 43.62 332.25 81.12 310.66 119.05 331.96"/>
    <path class="st1" d="M280.71,331.96v43.92s-37.49,21.21-37.49,21.21c-12.95-6.39-25.02-14.54-37.85-21.21l.26-44.06,37.19-21.21,37.89,21.34Z"/>
    <polygon class="st1" points="442.34 331.98 442.37 375.88 404.96 397.18 367.03 375.88 367.03 331.96 404.96 310.67 442.34 331.98"/>
    <polygon class="st1" points="401.95 446.53 364.46 467.75 326.79 446.09 326.64 402.63 363.26 381.55 364.51 381.27 401.19 402.05 402.07 403.82 401.95 446.53"/>
    <polygon class="st1" points="404.96 451.57 442.2 473.17 442.35 516.37 441.37 517.52 404.87 538.42 367.21 516.74 366.91 474.48 367.79 472.7 404.96 451.57"/>
    <polygon class="st1" points="401.95 163.92 364.46 185.13 326.79 163.48 326.64 120.02 363.26 98.94 364.51 98.65 401.19 119.43 402.07 121.21 401.95 163.92"/>
    <path class="st1" d="M563.61,446.53l-37.4,21.32c-9.61-5.42-19.32-10.73-28.81-16.36-1.77-1.05-8.96-4.83-9.22-6.2l.09-42.68,37.43-21.34,2.39.78,34.75,20,.89,1.77-.12,42.71Z"/>
    <path class="st1" d="M43.72,93.27l-.1-43.63,37.5-21.59c12.83,6.77,25.4,14.14,37.76,21.74v43.04s-37.77,21.75-37.77,21.75l-37.39-21.31Z"/>
    <path class="st1" d="M119.03,473.29l.12,42.66c-.24,1.26-1.8,1.82-2.84,2.48-11.26,7.06-23.64,13.17-35.09,20l-37.5-21.23-.12-42.71.89-1.77c11.3-5.61,22.15-13.73,33.35-19.27,1.1-.55,2.55-1.58,3.77-1.5l37.41,21.36Z"/>
    <polygon class="st1" points="240.27 402.63 240.12 446.09 202.36 467.86 164.96 446.53 164.86 402.9 202.36 381.32 240.27 402.63"/>
    <polygon class="st1" points="240.27 120.02 240.12 163.48 202.36 185.24 164.96 163.92 164.86 120.29 202.36 98.7 240.27 120.02"/>
    <path class="st1" d="M119.03,190.67l.12,42.66c-.24,1.26-1.8,1.82-2.84,2.48-11.36,7.13-23.56,13.14-35.09,20l-37.5-21.23-.12-42.71.89-1.77,34.75-20,2.39-.78,37.41,21.36Z"/>
    <path class="st1" d="M159.47,402.61l.09,42.68c-.26,1.37-7.44,5.14-9.22,6.2-9.49,5.63-19.2,10.94-28.81,16.36l-37.22-21.76-.15-43.46c10.67-5.72,20.83-12.44,31.44-18.26,1.68-.92,5.21-3.41,6.86-3l37.01,21.24Z"/>
    <path class="st1" d="M361.54,49.34l.08,42.67c-.31,1.58-2.99,2.69-4.42,3.56-10.96,6.68-22.41,12.72-33.6,19.01l-37.22-21.75-.18-43.48,37.4-21.3,37.94,21.3Z"/>
    <path class="st1" d="M361.54,331.96l.08,42.67c-.31,1.58-2.99,2.69-4.42,3.56-10.96,6.68-22.43,12.68-33.6,19.01l-37.22-21.75-.18-43.48,37.4-21.3,37.94,21.3Z"/>
    <path class="st1" d="M124.54,93.27v-43.92s37.4-21.3,37.4-21.3c12.82,6.82,25.36,14.19,37.76,21.74v43.04s-37.76,21.75-37.76,21.75l-37.4-21.3Z"/>
    <path class="st1" d="M447.86,473.26l37.43-21.34c12.84,5.95,24.57,14.23,37.14,20.78l.88,1.78-.29,42.27-37.32,21.68c-10.37-6.06-21.08-11.68-31.37-17.87-1.47-.88-6.33-3.38-6.56-4.6l.09-42.68Z"/>
    <polygon class="st1" points="321.12 120 320.95 163.48 283.28 185.13 245.96 163.48 245.79 120 283.23 98.65 321.12 120"/>
    <path class="st1" d="M159.47,120l.09,42.68c-.26,1.36-4.1,3.22-5.5,4.07-10.61,6.49-21.78,12.22-32.53,18.48l-37.22-21.76-.15-43.46,37.43-21.36c12.82,6.55,25.06,14.61,37.88,21.34Z"/>
    <path class="st1" d="M361.51,190.67l.12,42.66c-.26,1.36-7.45,5.15-9.22,6.2-9.46,5.58-19.13,10.89-28.72,16.26l-37.31-21.67-.16-43.45c10.66-5.74,20.83-12.44,31.44-18.26,2.01-1.1,5.13-3.53,7.28-2.87l36.57,21.14Z"/>
    <path class="st1" d="M523.2,49.34v43.92s-37.4,21.32-37.4,21.32l-37.76-21.76-.16-42.66c.32-1.05,8.98-5.82,10.71-6.83,8.95-5.28,18.05-10.38,27.22-15.28l37.4,21.3Z"/>
    <path class="st1" d="M447.86,190.65l37.43-21.34c12.83,5.95,24.55,14.27,37.14,20.78l.88,1.78-.29,42.27-37.32,21.68c-10.39-6.03-21.08-11.68-31.37-17.87-1.47-.88-6.33-3.38-6.56-4.6l.09-42.68Z"/>
    <path class="st1" d="M523.2,331.96v43.92s-37.4,21.32-37.4,21.32l-37.76-21.76-.16-42.66c.32-1.05,8.98-5.82,10.71-6.83,8.95-5.28,18.05-10.38,27.22-15.28l37.4,21.3Z"/>
    <polygon class="st1" points="124.54 375.88 124.54 331.96 161.54 310.71 163.12 311.02 199.71 332.4 199.71 375.44 161.94 397.2 124.54 375.88"/>
    <path class="st1" d="M482.76,402.63l-.15,43.46-36.47,21.52h-1.52s-36.99-21.53-36.99-21.53l-.3-41.72.52-1.6c12.39-7.3,24.74-14.79,37.53-21.44l37.38,21.32Z"/>
    <path class="st1" d="M161.55,169.4c.61-.1,1.14-.18,1.69.19,12.01,7.4,24.7,13.75,36.46,21.5v43.04s-37.67,21.68-37.67,21.68l-36.5-20.9-.98-1.15.16-43.2,36.84-21.16Z"/>
    <path class="st1" d="M482.76,120.02l.03,43.9-37.4,21.32-37.76-21.77-.17-42.66c.34-1.13,14.76-9.19,17.09-10.55,5.46-3.19,12.01-7.42,17.55-10.09,1.08-.52,2.47-1.59,3.68-1.41l36.97,21.27Z"/>
    <path class="st1" d="M321.1,402.63l-.15,43.46-37.31,21.67c-12.81-6.69-25.22-14.29-37.67-21.67l-.18-43.47,37.45-21.34,37.86,21.37Z"/>
    <path class="st1" d="M161.55,452.01c.61-.1,1.14-.18,1.69.19,12.04,7.35,24.7,13.75,36.46,21.5v43.04s-37.67,21.68-37.67,21.68l-36.5-20.9-.98-1.15.16-43.2,36.84-21.16Z"/>
    <path class="st1" d="M361.51,473.29l-.16,43.45-37.66,21.67-37.31-21.67-.16-43.45c10.65-5.76,20.83-12.44,31.44-18.26,2.01-1.1,5.13-3.53,7.28-2.87l36.57,21.14Z"/>
    <polygon class="st1" points="78.08 305.2 40.7 326.36 3.56 305.36 3.17 304.53 3.48 261.22 40.71 239.63 77.92 261.22 78.08 305.2"/>
    <polygon class="st1" points="78.11 446.53 40.71 467.85 3.3 446.53 3.47 402.52 37.42 382.78 40.7 381.32 77.34 402.05 78.22 403.82 78.11 446.53"/>
    <polygon class="st1" points="78.11 163.92 40.71 185.24 3.3 163.92 3.47 119.91 37.42 100.17 40.7 98.7 77.34 119.44 78.22 121.21 78.11 163.92"/>
    <polygon class="st1" points="240.38 565.61 164.87 565.61 165.13 543.82 202.36 522.24 240.12 543.82 240.38 565.61"/>
    <polygon class="st1" points="563.7 543.83 563.7 565.62 488.19 565.61 488.3 543.94 525.9 522.3 563.7 543.83"/>
    <polygon class="st1" points="402.04 543.83 402.04 565.62 326.53 565.61 326.79 543.83 364.26 522.29 402.04 543.83"/>
    <polygon class="st1" points="84.04 565.61 84.3 543.82 121.53 522.24 159.44 543.94 159.55 565.61 84.04 565.61"/>
    <polygon class="st1" points="321.21 565.61 245.7 565.61 245.96 543.83 283.19 522.24 320.95 543.83 321.21 565.61"/>
    <polygon class="st1" points="78.19 543.83 78.19 565.61 3.21 565.61 3.21 543.83 40.71 522.24 78.19 543.83"/>
    <polygon class="st1" points="482.87 565.61 407.89 565.62 407.89 543.83 444.05 522.82 445.69 522.29 482.61 543.82 482.87 565.61"/>
  </g>
</svg>