<?xml version="1.0" encoding="UTF-8"?>
<svg id="Camada_1" xmlns="http://www.w3.org/2000/svg" version="1.1" viewBox="0 0 566.93 566.93">
  <!-- Generator: Adobe Illustrator 29.5.0, SVG Export Plug-In . SVG Version: 2.1.0 Build 137)  -->
  <defs>
    <style>
      .st0 {
        fill: #f9f9f9;
      }

      .st1 {
        fill: #8e877f;
      }

      .st2 {
        fill: #262523;
      }
    </style>
  </defs>
  <rect class="st0" x="0" y="0" width="566.93" height="566.93"/>
  <path class="st2" d="M33.02.09c4.59.02,9.26-.23,13.82.26-6.66,3.8-12.04,10.66-13.67,18.23-.3,1.41-1.11,5.51-.43,6.52.21.31,5.68,2.53,6.84,3.26,13.41,8.46,9.08,20.34,17.03,28.43,10.98,11.16,31.52,3.44,37.57-9.38.65-.1.68-.19,1.09.33,1.45,1.85,2.5,4.62,4.49,6.58,10.92,10.75,32.66,11.66,37.65-5.41,2.62-8.97,2.56-13.19,10.82-19.48,2.83-2.16,5.7-3.08,8.64-4.69-.6-7.47-3.67-15.27-9.25-20.4-1.75-1.61-3.97-2.58-5.59-4.24,4.6-.02,9.22.01,13.82,0,1.8,3.96,4.58,6.86,6.25,11.02s2.64,8.57,2.78,12.9c9.25.09,16.84,4.26,24.1,9.48,6.87-5.54,14.75-9.18,23.72-9.51.54-5.38,1.58-10.54,3.99-15.41,1.46-2.94,3.99-5.4,5.07-8.48,4.6.02,9.22-.02,13.82,0-8.14,5.79-14.45,14.09-13.85,24.63,6.99,2.61,13.29,7.51,16.6,14.34,2.62,5.4,1.82,10.45,5.76,15.5,10.97,14.08,31.67,5.94,39.6-7.15,6.87,12.2,25.75,20.12,37.49,9.83,6.4-5.61,4.8-12.68,8.21-19.43,3.13-6.19,9.53-11.14,16.22-12.77-.43-10-5.44-19.65-14.33-24.43-.14-.87.72-.49,1.32-.53,3.91-.2,8.04.01,11.97,0,4.65,7.31,9.33,14.86,9.04,23.93,9.11,0,17.05,4.14,24.1,9.49,7.15-5.81,14.94-8.75,24.06-9.99.19-6.16,2.06-11.93,5.12-17.21,1.26-2.18,3.14-3.97,4.15-6.22,4.41.02,8.9-.23,13.29.26-6.15,3.86-11.24,10.13-13.03,17.28-.36,1.44-1.36,6.38-.72,7.37.19.3,5.19,2.03,6.48,2.83,14.17,8.78,9.44,22.07,18.96,29.95,10.75,8.89,25.56,2.59,33.77-6.65.74-.83,2.11-3.46,2.66-3.72.93-.44,2.19,3.81,3.18,4.26,8.35,10.43,27.18,15.08,36.41,3.44,3.82-4.82,3.09-8.53,4.78-13.83,2.67-8.37,9.64-13.57,17.59-16.55-.24-7.63-3.41-14.59-8.52-20.14l-5.86-4.5c4.42-.02,8.87.01,13.29,0,4.92,7.19,9.48,14.83,9.04,23.93,6.5-.04,12.72,2.2,18.24,5.42,2.18,1.27,3.97,3.13,6.22,4.15-.02,4.42.02,8.87,0,13.29-2.34-2.56-3.66-5.34-6.37-7.72-8.46-7.4-22.05-10.24-31.12-2.4-6.09,5.26-4.87,9.9-7.44,16.48-2.96,7.56-9.5,13.52-17.3,15.75-.39,7.35,3.05,15.3,8.25,20.43,1.05,1.04,6.14,4.12,6.15,4.5,0,.86-.35.83-.89,1.24-2.17,1.64-4.01,2.42-6.04,4.59-4.76,5.11-7.82,12.6-7.46,19.62,7.53,2.23,14.68,8.74,17.45,16.13,1.94,5.18,1.66,9.54,5.46,14.21,7.5,9.23,20.85,7.79,29.92,1.77,3.62-2.4,6.16-5.64,8.87-8.94h.53c.26,4.08-.01,8.61,0,12.76-7.4,5.24-15.07,9.48-24.46,9.57.23,8.76-3.68,17.37-9.53,23.73,5.36,6.91,9.82,15.07,9.54,24.11,6.42.33,12.7,2.2,18.23,5.43,2.17,1.26,3.87,3.27,6.22,4.15-.01,4.15.26,8.68,0,12.76h-.53c-7.13-9.75-19.07-17.2-31.51-12.64-13.25,4.86-9.27,17.13-16.35,26.18-3.4,4.35-8.42,7.87-13.74,9.39-.76,10.09,5.79,20.71,14.81,24.92-4.78,3.41-9.48,7.17-12.13,12.58-1.31,2.68-3.62,9.86-2.68,12.59.22.64,6.07,3,7.34,3.83,13.72,9.01,8.44,24.96,21.13,31.5,11.72,6.04,26.66-1.83,33.14-12.13h.53c.26,4.08-.01,8.61,0,12.76-1.96.66-3.42,2.48-5.15,3.62-5.58,3.66-12.61,5.94-19.31,5.95.17,8.66-3.58,17.49-9.51,23.74,5.14,7.02,9.78,15,9.59,24.04,5.41.91,10.38,1.59,15.37,4.04,3.23,1.59,5.78,4.35,9.01,5.61-.01,4.15.26,8.68,0,12.76h-.53c-6.88-9.43-18.21-16.48-30.29-13.01-13.88,3.98-10.7,17.1-17.34,26.26-3.42,4.72-8.55,8.15-14.08,9.94-.44,7.14,3.06,15.12,8.01,20.14,1.13,1.15,6.38,4.31,6.38,5.31-6.48,3.53-11.45,9.73-13.43,16.88-.51,1.84-1.84,6.73-.41,8.13.59.58,5.62,2.49,7.41,3.75,8.75,6.17,8.58,11.73,11.72,20.71,5.64,16.1,25.41,14.92,36.42,5.01,2.47-2.22,3.88-5.07,6.13-7.43.02,4.6-.01,9.22,0,13.82l-12.09,6.78c-3.97,1.36-8.13,2.53-12.37,2.25.27,4.24-.89,8.39-2.25,12.37l-6.78,12.09c-4.32-.01-9.04.27-13.29,0v-.53c8.15-5.96,14.13-14.1,14.39-24.64-7.45-2.68-14.07-7.87-17.31-15.24-2.93-6.68-1.58-11.96-8-17.52-9.64-8.36-25-3.86-32.96,4.77-1.32,1.43-2.36,3.81-3.41,4.99-.36.4-.8.58-1.1.33-.24-.2-2.52-4.27-3.46-5.32-8.65-9.72-26.8-13.67-35.64-2.13-3.17,4.14-2.87,7.21-4.24,11.71-2.62,8.61-9.58,15.6-18.27,18.15-.38,10.53,5.88,19.98,14.81,25.18-4.56.49-9.23.25-13.82.26-1.26-3.24-4.02-5.78-5.61-9.01-2.45-4.99-3.13-9.96-4.04-15.37-9.04.19-17.02-4.45-24.04-9.59-6.25,5.94-15.08,9.68-23.74,9.51.01,6.74-2.3,13.68-5.95,19.31-1.13,1.74-2.97,3.19-3.62,5.15-4.59-.02-9.26.23-13.82-.26,9.41-5.27,14.61-14.56,15.42-25.25-7.73-1.69-14.43-7.99-17.47-15.23-1.48-3.51-1.64-6.88-3.01-10.28-6.61-16.34-28.43-13.1-38.28-1.61-.87,1.02-2.7,4.63-2.93,4.79-.94.65-3.96-4.64-4.79-5.56-9.72-10.82-31.29-13.54-37.83,2.01-1.33,3.16-1.43,6.72-2.69,10.07-2.91,7.77-9.78,13.4-17.44,16.16-.41,10.28,5.96,18.89,13.85,24.64v.53c-4.08.26-8.61-.01-12.76,0-.88-2.34-2.88-4.05-4.15-6.22-3.23-5.53-5.09-11.82-5.43-18.23-9.05.28-17.21-4.18-24.12-9.54-6.37,5.85-14.97,9.76-23.73,9.53-.09,9.39-4.33,17.06-9.57,24.46-4.59-.02-9.26.23-13.82-.26,6.58-3.98,12.18-10.16,14.09-17.81.37-1.48,1.36-6.29.7-7.36-.17-.28-4.84-2.02-6.04-2.73-15.18-9.08-9.59-24.22-20.81-31.29-12.02-7.58-28.29.49-35,11.6-6.66-12.19-25.62-19.99-37.2-10.08-6.52,5.58-5.08,12.38-8.5,19.15-3.33,6.59-9.57,10.95-16.26,13.63-.63,10.51,5.85,18.78,13.84,24.63v.53c-4.08.26-8.61-.01-12.76,0-1.02-2.24-2.87-4.05-4.15-6.22-3.24-5.51-5.44-11.76-5.42-18.24-9.1.45-16.73-4.12-23.93-9.03.02-4.6-.02-9.22,0-13.82l3.2,4.5c8.71,10.06,26.02,14.55,35.62,3.22,4.31-5.08,3.43-9.34,5.74-14.99,3.04-7.45,9.51-13.02,17.14-15.38.48-10.15-5.59-19.69-14.39-24.4,0-.71,5.75-4.58,6.93-5.83,4.76-5.05,8-12.92,7.36-19.89-7.34-1.74-14.48-8.52-17.21-15.49-2.19-5.61-1.71-10.21-6.11-15.15-9.55-10.72-26.74-6.01-35.09,3.75l-3.2,4.5c-.02-4.42.01-8.87,0-13.29,2.25-1.01,4.04-2.89,6.22-4.15,5.28-3.05,11.06-4.93,17.21-5.12,1.24-9.11,4.18-16.91,9.99-24.05-5.36-7.05-9.48-14.99-9.49-24.1-9.07.29-16.62-4.38-23.93-9.03.02-4.6-.02-9.22,0-13.82l6.12,7.42c11.54,10.18,32.06,10.16,36.69-6.87.31-1.13.08-2.37.37-3.35,2.97-9.98,8.98-16.38,18.77-20.06.18-10.21-5.9-19.66-14.64-24.73,8.89-5.61,14.58-14.52,14.84-25.22-7.74-1.57-14.67-8.39-17.6-15.62-1.76-4.34-1.57-8.23-4.05-12.43-7.41-12.52-24.65-10.1-34.38-1.74L.06,235.6c-.02-4.6.01-9.22,0-13.82,7.3-4.78,14.81-9.29,23.93-9.03.22-9.1,4.17-17.13,9.59-24.19-5.69-6.88-9.53-15.09-9.59-24.19-6.17.39-12.44-1.84-17.71-4.88-2.18-1.26-3.97-3.14-6.22-4.15.02-4.42-.02-8.87,0-13.29l4.77,6.12c8.34,7.81,23.23,11.5,32.45,3.18,6.01-5.42,4.79-11.71,7.87-18.18,2.49-5.23,7.36-9.87,12.5-12.49,4.16-2.13,4.88-.33,3.85-6.84-1.24-7.84-7.42-16.08-14.65-19.38,6.1-3.43,11.34-8.96,13.54-15.7.56-1.72,2.33-8.6,1.02-9.6-1.15-.88-4.7-1.89-6.75-3.23-13.58-8.91-8.72-20.24-17.03-28.42-9.17-9.03-24.8-5.01-33.12,3.19L.06,46.34c-.02-4.42.01-8.87,0-13.29,2.66-.91,4.63-2.98,7.09-4.34,5.14-2.86,10.94-4.48,16.84-4.69.21-5.9,1.84-11.7,4.69-16.84,1.36-2.45,3.43-4.42,4.34-7.09ZM188.28,46.87c-.22-.15-1.9-3.57-2.68-4.5-8.45-10.13-26.87-14.79-36.13-3.19-3.6,4.51-3.03,7.49-4.56,12.46-2.73,8.88-9.85,14.83-18.35,17.92.34,10.5,6.03,19.59,14.91,24.9-9.03,5.26-14.57,14.37-14.91,24.9,7.23,2.7,13.63,7.4,16.97,14.51,3.14,6.68,1.82,12.38,8.05,18.01,11.21,10.13,30.68,2.46,36.96-9.85.98,0,3.13,4.04,4,5.04,8.71,10.09,27.67,14.09,36.37,1.84,3.26-4.59,2.87-10.07,5.15-15.05,3.06-6.67,9.84-12.18,16.87-14.22.25-10.55-5.91-19.94-14.8-25.18,8.91-5.21,14.55-14.48,14.91-24.9-7.94-2.81-14.87-8.82-17.84-16.84-1.42-3.84-1.47-7.62-3.57-11.32-7.86-13.9-28.03-10.06-37.1.44-.81.93-3.36,5.65-4.26,5.03ZM378.06,46.87c-.9.62-3.45-4.1-4.26-5.03-8.74-10.13-28.34-14.23-36.58-1.52-2.61,4.03-2.28,6.62-3.55,10.81-2.68,8.85-9.77,15.33-18.37,18.42.02,10.45,6.06,19.7,14.9,24.9-8.98,5.04-15.17,14.75-14.8,25.18,7.9,2.24,14.89,8.89,17.73,16.56,1.77,4.77,1.35,8.47,4.62,12.93,10.27,14,32.46,6.31,39.52-7.08l6.92,7.96c9.91,8.03,27.02,10.15,34.18-2.48,2.23-3.95,2.06-7.79,3.57-11.85,2.94-7.91,9.94-13.72,17.84-16.28-.39-10.51-5.62-19.93-14.91-24.93,9.04-5.21,14.45-14.46,14.92-24.91-8.57-3.1-15.47-9.08-18.36-17.91-1.63-4.98-1.32-8.59-5.09-12.99-9.4-10.96-27.34-6.19-35.6,3.72-.78.93-2.46,4.36-2.68,4.5ZM93.97,60.75c-6.37,6.31-14.77,8.95-23.5,10.01-.51,8.6-3.72,17.03-9.74,23.24,5.28,7.31,9.47,14.84,9.74,24.15,2.51.67,5.1.78,7.65,1.39,6.24,1.48,11.28,4.7,16.31,8.5,5.82-4.65,11.87-7.8,19.27-9.26,1.29-.25,4.09.22,4.69-.63.3-8.96,4.14-16.83,9.63-23.69-3.81-5.04-7.02-10.07-8.5-16.31-.61-2.55-.71-5.14-1.39-7.65-9.31-.28-16.85-4.47-24.15-9.74ZM307.36,70.26c-8.75.19-17.39-3.61-23.74-9.51-2.26.95-3.79,2.84-5.88,4.09-5.83,3.5-11.82,5.04-18.54,5.92-.24,8.96-3.98,16.94-9.64,23.69,2.98,3.86,5.89,7.86,7.54,12.5,1.37,3.86,1.65,7.5,2.36,11.46,9.19.17,17,4.44,24.15,9.75,6.28-5.97,15.01-9.7,23.74-9.51.02-9,3.82-17.49,9.59-24.19-5.47-6.91-9.71-15.16-9.59-24.19ZM496.11,70.26c-8.75.16-17.41-3.67-23.73-9.53-6.96,5.35-15.03,9.76-24.12,9.54-.45,9.02-3.9,17.63-10.09,24.19,6.22,6.45,9.62,15.26,10.09,24.19,9.18-.32,17.11,4.1,24.12,9.54,6.37-5.85,14.97-9.76,23.73-9.53.14-9.14,4.05-17.18,9.59-24.19-5.49-7.1-9.48-14.97-9.59-24.19ZM93.64,140.97c-.25-.17-2.34-4.02-3.22-5.03-8.53-9.85-26.5-13.89-35.59-2.66-3.83,4.73-3.2,9.25-5.23,14.44-3.01,7.67-9.9,13.57-17.68,15.91.35,10.54,5.86,19.66,14.91,24.93-8.93,5.27-14.59,14.4-14.91,24.9,6.91,2.54,13.46,7.47,16.77,14.18s1.83,13.1,8.78,18.87c9.28,7.71,22.45,3.94,30.85-3.19l6.1-7.19c6.61,13.99,30.5,21.27,40.05,6.55,2.51-3.87,2.32-6.77,3.55-10.81,2.58-8.49,9.69-15.65,18.27-18.14.25-10.55-5.91-19.94-14.8-25.18,9.17-5.06,14.7-14.42,14.91-24.93-7.13-2.35-13.76-7.59-16.98-14.48-3.23-6.92-1.83-13.37-8.93-18.72-11.08-8.34-25.13-2.47-33.41,6.81-.68.77-2.48,4.38-3.44,3.72ZM282.91,141.5c-6.04-13.52-28.42-21.02-38.81-8.23-6.36,7.83-2.91,17.08-13.35,25.46-1.65,1.32-9.27,4.92-9.45,5.43-1.68,4.85,4.4,16.04,7.91,19.6,1.02,1.04,6.58,4.49,6.38,5.31-.1.41-5.65,3.98-6.67,5.04-4.81,5.01-7.94,12.96-7.72,19.9,7.88,2.19,14.81,8.83,17.67,16.44,1.54,4.1,1.34,7.73,3.72,11.69,9.58,15.95,33.43,8.11,40.57-6.02,8.7,16.54,36.42,22.53,42.96.95.48-1.59.44-3.28.94-4.91,2.84-9.33,9.81-14.96,18.51-18.68-.71-10.08-5.82-19.56-14.82-24.42l6.93-5.83c4.66-5.44,7.96-12.28,7.46-19.62-6.92-1.98-13.52-7.83-16.61-14.31-2.12-4.45-1.96-8.92-4.35-13.19-7.19-12.87-23.73-11.19-33.84-2.86-2.9,2.39-4.84,5.6-7.43,8.25ZM471.65,141.5c-6.66-15.7-34.51-22.14-41.74-3.71-1,2.55-.99,4.93-1.71,7.33-2.7,8.97-9.54,15.44-18.26,18.53-.36,8.96,3.9,16.23,10.4,21.97,1.02.9,3.98,2.06,3.98,3.46-7.09,2.42-16.68,17.42-14.29,24.39.23.67,5.79,2.85,7.01,3.62,13.05,8.22,8.96,20.43,16.82,28.37,11.37,11.48,30.97,2.89,38.03-9.31,6.64,12.36,25.63,20.09,37.2,10.08,7.25-6.27,5.08-16.42,12.23-24.45,3.6-4.04,7.7-5.95,12.43-8.3.65-10.01-5.61-19.77-14.29-24.39,0-.89,5.47-4.46,6.6-5.63,4.89-5.08,8.22-12.65,7.79-19.8-7.47-2.7-14.25-8.27-17.29-15.78-1.89-4.67-1.55-9.06-4.63-13.45-8.16-11.67-24.4-9.12-33.94-.63-2.63,2.34-4.19,5.06-6.37,7.71ZM212.72,164.37c-8.72.31-17.4-3.75-23.72-9.54-6.8,5.55-15.07,9.96-24.12,9.53-.06,9.15-4.04,17.19-9.59,24.19,5.49,7.04,9.38,15.08,9.59,24.19,8.78-.07,17.17,3.93,23.74,9.5,7.03-5.19,15.04-9.72,24.11-9.51.41-5.51,1.8-11.21,4.35-16.12,1.51-2.91,3.86-5.17,5.21-8.08-5.52-7.06-9.22-15.06-9.57-24.17ZM353.62,212.74c9.24.35,16.95,4.22,24.2,9.58,7.08-5.87,14.96-8.5,23.95-10.08.3-8.99,4.13-16.83,9.77-23.62-5.96-6.19-9.43-14.64-9.76-23.23-9.06-1.35-16.96-4.07-23.96-10.08-7.04,5.49-15.08,9.38-24.19,9.59.07,8.78-3.93,17.17-9.51,23.74,5.28,7.12,9.6,14.91,9.51,24.11ZM188.28,235.6c-.26-.18-2.48-4.24-3.46-5.32-8.64-9.51-26.33-13.51-35.35-2.37-3.79,4.68-3.17,8.95-5.07,14.07-2.9,7.8-9.92,13.96-17.84,16.28.35,10.48,5.91,19.72,14.91,24.93-8.88,5.46-14.57,14.26-14.91,24.9,7.19,2.55,14.19,8.16,17.3,15.24,1.94,4.41,1.77,9,4.3,13.24,7.46,12.49,24.5,10.34,34.25,1.91l6.63-7.72c6.75,14.06,30.87,21.39,40.27,6.24,2.64-4.25,2.27-7.69,3.87-12.08,2.98-8.13,9.92-13.85,17.83-16.85-.17-10.8-6.27-19.36-14.91-25.15,9.09-4.38,14.62-14.74,14.92-24.67-7.17-2.29-13.77-7.6-16.98-14.48-2.6-5.56-1.89-10.62-6-15.79-8.48-10.66-25.03-7.51-33.95.96-1.88,1.79-3.02,4.56-4.54,6.1-.35.35-.75.93-1.29.56ZM378.06,235.6c-.54.37-.95-.21-1.29-.56-1.52-1.53-2.65-4.31-4.54-6.1-9.63-9.15-27.41-11.83-35.32.85-2.78,4.45-2.44,8.92-4.47,13.61-3.1,7.16-9.8,12.5-17.14,14.85.04,10.12,5.78,20.22,14.92,24.67-8.84,5.72-14.81,14.31-14.91,25.15,7.72,2.99,14.65,8.57,17.66,16.48,1.88,4.94,1.38,8.67,4.78,13.3,10.39,14.14,32.46,6.47,39.52-7.09l7.17,8.25c9.9,7.95,25.83,9.81,33.51-2.12,2.51-3.9,2.04-6.11,3.21-10.08,2.7-9.15,9.8-15.53,18.62-18.72-.45-10.58-5.75-19.63-14.92-24.91,9.18-5.18,14.56-14.35,14.91-24.93-7.7-2.22-14.43-8.1-17.5-15.55-2.37-5.75-1.86-11.2-6.7-16.16-9.36-9.59-26.27-5.08-34.3,4.02-.89,1.01-2.97,4.86-3.22,5.03ZM118.62,307.37c-.18-8.73,3.54-17.46,9.51-23.74-3.67-5.26-7.4-10.7-8.82-17.09-.31-1.41-.73-7.01-1.19-7.32-9-.2-16.91-3.96-23.69-9.64-4.47,3.55-9.35,6.77-14.92,8.32-2.99.83-6.04.88-9.04,1.59-.36,9.22-4.33,16.98-9.75,24.15,5.9,6.35,9.71,14.98,9.51,23.73,9.12-.03,17.33,3.93,24.19,9.59,6.7-5.77,15.2-9.56,24.19-9.59ZM307.36,307.37c-.09-9.06,4.05-17.3,9.59-24.19-6.1-6.86-8.95-14.93-10.09-23.96-8.98-.22-16.87-4.17-23.7-9.66-5.61,4.96-11.85,7.93-19.19,9.38-1.41.28-3.52-.47-4.52.8-.56,3.05-.84,5.92-1.69,8.94-1.53,5.45-4.62,10.2-8.22,14.5,3.8,4.98,7.36,10.41,8.74,16.65.31,1.41.74,7.02,1.19,7.32,8.94.6,16.96,3.99,23.7,9.82,6.89-5.54,15.14-9.67,24.19-9.59ZM496.11,307.37c.21-9.12,4.1-17.15,9.59-24.19-6.04-6.96-8.79-14.93-10.09-23.96-8.6-.33-17.04-3.8-23.24-9.76-6.79,5.64-14.63,9.47-23.62,9.77-1.58,8.99-4.2,16.86-10.08,23.95,5.42,7.28,9.13,14.91,9.6,24.17,9.19-.02,16.96,4.24,24.09,9.53,6.57-5.57,14.96-9.57,23.74-9.5ZM142.02,377.03c7.29-2.43,15.8-16.5,14.36-23.68-.28-1.38-5.71-3.16-7.42-4.28-13.71-9.01-8.45-24.98-21.13-31.5-11.97-6.16-26.96,2.05-33.4,12.65-6.24-11.38-22.5-18.88-34.45-12.11s-6.17,22.2-20.4,31.17c-1.22.77-6.78,2.95-7.01,3.62-2.32,6.76,7.34,22.03,14.29,24.39,0,.99-5.52,4.38-6.67,5.55-4.79,4.89-8.14,12.97-7.71,19.87,7.44,2.71,14.29,8.26,17.29,15.78,1.88,4.7,1.49,8.96,4.63,13.45,8.13,11.64,24.44,9.11,33.94.63,2.69-2.4,4.04-5.12,6.37-7.71,5.88,13.23,26.95,20.74,37.96,9.51,4.86-4.95,4.18-9.7,6.3-15.5,2.84-7.76,9.84-13.41,17.44-16.16.37-8.74-3.84-16.04-10.12-21.72-.78-.71-4.89-3.05-4.26-3.97ZM321,320.85c-11.3-11.3-31.01-2.94-37.83,9.37-6.73-11.93-24.84-20.05-36.67-10.61-6.85,5.47-5.33,10.38-8.16,17.36-3.08,7.6-9.73,13.41-17.63,15.61.37,10.88,5.96,19.4,14.86,25.23-8.91,5.15-14.24,14.09-14.82,24.37,3,1.98,6.22,2.96,9.16,5.22,11.93,9.21,7.49,23.73,19.33,30.11,12.5,6.73,27.4-1.83,34.18-12.65,5.98,14.25,29.48,21.36,39.58,7.41,3.07-4.25,2.74-8.49,4.46-13.08,2.88-7.69,9.64-13.98,17.58-16.18.46-10.01-5.46-21.01-14.82-24.93,6.23-4.41,11.43-9.3,13.67-16.89.55-1.85,1.71-6.63,1.14-8.28-.13-.39-6.04-2.98-7.32-3.84-13.22-8.86-8.71-20.2-16.72-28.21ZM519.5,377.02c7.14-1.78,16.53-17.56,14.28-24.13-.22-.64-6.07-3-7.34-3.83-13.71-9.01-8.45-24.98-21.13-31.5-11.97-6.16-26.96,2.05-33.4,12.65-6.24-11.38-22.5-18.88-34.45-12.11s-6.22,22.23-20.4,31.17c-1.22.77-6.78,2.95-7.01,3.62-2.32,6.76,7.34,22.03,14.29,24.39,0,1.01-5.52,4.36-6.67,5.56-4.74,4.94-8.16,12.94-7.71,19.87,7.44,2.71,14.29,8.26,17.29,15.78,1.88,4.7,1.49,8.96,4.63,13.45,8.14,11.65,24.43,9.1,33.94.63,2.63-2.34,4.19-5.06,6.37-7.71,6.77,15.57,33.8,22.05,41.58,4.09,1.4-3.22,1.45-6.7,2.68-10.08,2.84-7.76,9.84-13.41,17.44-16.16.37-6.87-2.71-14.64-7.45-19.6-1.92-2.01-4.75-3.2-6.37-4.8-.44-.44-.75-.49-.56-1.29ZM212.72,353.63c-9.2.08-16.98-4.23-24.11-9.51-6.57,5.57-14.96,9.57-23.74,9.5-.21,9.12-4.1,17.15-9.59,24.19,6.01,7,8.74,14.9,10.09,23.96,8.6.33,17.04,3.8,23.24,9.76,6.79-5.64,14.63-9.47,23.62-9.77,1.2-3.09,1.2-6.39,2.13-9.57,1.57-5.35,4.75-9.91,7.95-14.38-5.4-7.28-9.24-14.9-9.58-24.2ZM401.39,353.7c-8.88-.26-16.93-3.97-23.59-9.66-6.91,5.47-15.16,9.71-24.19,9.59.12,9.03-4.12,17.28-9.59,24.19,5.69,6.66,9.4,14.71,9.66,23.59,9.14.95,17.1,4.18,24.13,10.04,5.61-4.96,11.85-7.93,19.19-9.38,1.41-.28,3.52.47,4.52-.8.56-3.05.84-5.92,1.69-8.94,1.53-5.45,4.62-10.2,8.22-14.5-5.86-7.03-9.09-14.98-10.04-24.12ZM188.27,424.86c-6.19-13.83-29.11-21.25-39.35-7.71-3.68,4.87-3.13,10.41-5.59,15.68-3.17,6.77-9.65,12.04-16.77,14.15-.17,6.48,2.22,12.73,6.14,17.76l8.25,7.7c-6.19,3.41-11.09,9.29-13.15,16.1-.61,2.03-1.79,6.39-1.14,8.29.16.47,5.72,2.97,6.91,3.72,13.81,8.78,8.97,20.9,17.46,28.79,11.53,10.71,30.93,2.64,37.49-9.84,7.39,13.63,29.53,21.6,40.05,7.08,3.29-4.54,2.79-8.91,4.78-13.83,2.74-6.76,9.71-13.67,17.06-15.11.79-6.9-1.96-13.62-6.31-18.83l-7.99-6.89c8.85-4.84,14.92-14.72,14.39-24.93-7.07-2.42-13.37-7.51-16.61-14.32-2.48-5.21-1.94-10.38-5.52-15.21-8.5-11.48-25.3-8.34-34.54.48-2.18,2.08-3.44,4.83-5.56,6.92ZM378.07,424.86c-6.28-10.26-19.5-17.96-31.65-13.85-13.54,4.58-9.86,17.66-17.26,26.86-3.82,4.74-8.4,7.01-13.74,9.62.6,7.01,3.05,13.92,7.89,19.11,2.03,2.18,3.87,2.96,6.04,4.59.46.34,1.05.49.89,1.24-9.14,4.89-14.36,14.07-14.85,24.39,2.95,1.59,5.81,2.52,8.64,4.68,12.21,9.31,8.23,22.01,17.73,29.06,11.98,8.9,29.4.61,36.06-11.06,7.61,15.95,36.12,22.15,42.43,2.01,2.89-9.23,3.16-15.22,12.43-21.06,1.23-.77,6.78-2.95,7.01-3.62,1.67-4.78-4.46-16.1-7.91-19.6-1.02-1.04-6.58-4.49-6.38-5.31.11-.44,2.76-1.82,3.44-2.41,6.66-5.78,11-13.51,10.94-22.53-8.03-2.19-15.3-9.32-17.99-17.19-1.91-5.58-1.13-9.04-5.69-13.98-10.86-11.76-32.02-4.12-38.03,9.04ZM118.62,448.26c-8.9-.5-17.78-3.79-24.19-10.09-6.55,6.19-15.17,9.64-24.19,10.09.22,9.08-4.19,17.16-9.54,24.11,5.86,6.33,9.69,14.98,9.53,23.73,9.22.11,17.1,4.1,24.19,9.59,7.02-5.53,15.05-9.45,24.19-9.59-.23-8.76,3.68-17.37,9.53-23.73-5.44-7.01-9.86-14.93-9.54-24.11ZM307.34,448.28c-9.26-.47-16.89-4.18-24.17-9.6-7.08,5.87-14.96,8.5-23.95,10.08-.3,8.99-4.13,16.83-9.77,23.62,5.96,6.19,9.43,14.64,9.76,23.24,9.04,1.27,16.99,4.13,23.96,10.08,7.04-5.49,15.08-9.38,24.19-9.59-.07-8.78,3.93-17.17,9.51-23.74-5.3-7.13-9.56-14.89-9.53-24.09ZM496.07,448.28c-7.71-.61-14.33-2.85-20.66-7.25-1.15-.8-1.89-2.53-3.48-2.38-.57.06-4.77,3.47-5.98,4.18-5.61,3.27-11.16,4.88-17.63,5.49-.62,6.48-2.22,12.02-5.49,17.63-.71,1.21-4.12,5.41-4.18,5.98-.15,1.58,1.58,2.33,2.38,3.47,4.4,6.33,6.64,12.94,7.25,20.66,8.88.39,16.96,3.85,23.62,9.61,7.24-5.28,14.96-9.42,24.2-9.57.15-9.24,4.29-16.96,9.57-24.2-5.76-6.66-9.22-14.74-9.61-23.62Z"/>
  <path class="st1" d="M566.81,344.05c.06,22.32.06,44.67,0,66.99-3.24-1.26-5.78-4.02-9.01-5.61-4.99-2.45-9.96-3.13-15.37-4.04.19-9.04-4.45-17.02-9.59-24.04,5.94-6.25,9.68-15.08,9.51-23.74,6.7,0,13.73-2.29,19.31-5.95,1.74-1.14,3.19-2.96,5.15-3.62Z"/>
  <path class="st1" d="M344.05,566.81c.65-1.97,2.49-3.41,3.62-5.15,3.64-5.63,5.96-12.57,5.95-19.31,8.66.17,17.49-3.58,23.74-9.51,7.02,5.13,15,9.78,24.04,9.59.91,5.41,1.59,10.38,4.04,15.37,1.59,3.23,4.35,5.78,5.61,9.01-22.32.08-44.67.08-66.99,0Z"/>
  <path class="st1" d="M566.81,155.32c.06,22.32.06,44.67,0,66.99-2.34-.88-4.05-2.88-6.22-4.15-5.53-3.23-11.82-5.09-18.23-5.43.28-9.05-4.18-17.21-9.54-24.11,5.86-6.37,9.76-14.97,9.53-23.73,9.39-.09,17.06-4.33,24.46-9.57Z"/>
  <path class="st1" d="M155.3,566.81c5.24-7.4,9.48-15.07,9.57-24.46,8.76.23,17.37-3.68,23.73-9.53,6.91,5.36,15.07,9.82,24.12,9.54.33,6.41,2.2,12.7,5.43,18.23,1.26,2.17,3.27,3.87,4.15,6.22-22.32.06-44.67.08-66.99,0Z"/>
  <path class="st1" d="M.06,155.32c2.25,1.01,4.04,2.89,6.22,4.15,5.27,3.05,11.54,5.28,17.71,4.88.06,9.1,3.9,17.31,9.59,24.19-5.42,7.06-9.37,15.09-9.59,24.19-9.12-.26-16.63,4.25-23.93,9.03C-.02,199.64-.02,177.46.06,155.32Z"/>
  <path class="st1" d="M.06,344.59c7.31,4.65,14.86,9.33,23.93,9.03,0,9.11,4.14,17.05,9.49,24.1-5.81,7.15-8.75,14.94-9.99,24.05-6.16.19-11.93,2.06-17.21,5.12-2.18,1.26-3.97,3.14-6.22,4.15-.08-22.14-.07-44.31,0-66.45Z"/>
  <path class="st1" d="M411.04.09c-1.01,2.25-2.89,4.04-4.15,6.22-3.05,5.28-4.93,11.06-5.12,17.21-9.11,1.24-16.91,4.18-24.06,9.99-7.05-5.36-14.99-9.48-24.1-9.49.29-9.07-4.38-16.62-9.04-23.93C366.72,0,388.89,0,411.04.09Z"/>
  <path class="st1" d="M221.76.09c-1.08,3.08-3.62,5.54-5.07,8.48-2.42,4.87-3.45,10.03-3.99,15.41-8.97.33-16.85,3.97-23.72,9.51-7.26-5.21-14.86-9.38-24.1-9.48-.14-4.33-1.17-8.89-2.78-12.9s-4.45-7.07-6.25-11.02C177.8,0,199.8,0,221.76.09Z"/>
  <path class="st1" d="M566.81,533.32c.04,11.16-.03,22.34,0,33.5-11.16-.03-22.34.03-33.5,0l6.78-12.09c1.36-3.97,2.53-8.13,2.25-12.37,4.24.27,8.39-.89,12.37-2.25l12.09-6.78Z"/>
  <path class="st1" d="M533.32.09c11.16-.04,22.34.03,33.5,0-.04,11.16.04,22.34,0,33.5-2.25-1.02-4.04-2.88-6.22-4.15-5.53-3.22-11.74-5.45-18.24-5.42.45-9.1-4.12-16.73-9.04-23.93Z"/>
  <path class="st1" d="M.06,533.32c7.19,4.92,14.83,9.48,23.93,9.03-.02,6.48,2.17,12.73,5.42,18.24,1.28,2.17,3.13,3.97,4.15,6.22-11.16.03-22.34-.03-33.5,0,.03-11.16-.03-22.34,0-33.5Z"/>
  <path class="st1" d="M33.02.09c-.91,2.66-2.98,4.63-4.34,7.09-2.86,5.14-4.48,10.94-4.69,16.84-5.9.21-11.7,1.84-16.84,4.69-2.45,1.36-4.42,3.43-7.09,4.34C.02,22.07.09,11.06.06.08c10.98.03,21.98-.03,32.97,0Z"/>
  <path class="st1" d="M-11.45,331.3h-.53c.14-.22-.29-1.08.27-1.07.48,0,.24.65.27,1.07Z"/>
  <path class="st1" d="M-11.45,142.56h-.53c.15-.18-.29-1.08.27-1.07.48,0,.24.65.27,1.07Z"/>
  <path class="st1" d="M-11.45,423.8c-.03.42.21,1.07-.27,1.07-.56,0-.12-.87-.27-1.07h.53Z"/>
  <path class="st1" d="M-11.45,235.07c-.03.42.21,1.07-.27,1.07-.56,0-.12-.87-.27-1.07h.53Z"/>
  <path class="st1" d="M46.31,566.28c.2.14,1.08-.29,1.07.27,0,.48-.65.24-1.07.27v-.53Z"/>
  <path class="st1" d="M235.05,566.28c.2.14,1.08-.29,1.07.27,0,.48-.65.24-1.07.27v-.53Z"/>
  <path class="st1" d="M520.03,566.28v.53c-.42-.03-1.07.21-1.07-.27,0-.56.87-.12,1.07-.27Z"/>
  <path class="st1" d="M307.36,70.26c-.12,9.03,4.12,17.28,9.59,24.19-5.77,6.7-9.56,15.2-9.59,24.19-8.73-.18-17.46,3.54-23.74,9.51-7.15-5.3-14.96-9.57-24.15-9.75-.72-3.96-.99-7.6-2.36-11.46-1.65-4.64-4.57-8.64-7.54-12.5,5.66-6.75,9.4-14.73,9.64-23.69,6.72-.88,12.71-2.42,18.54-5.92,2.09-1.25,3.62-3.15,5.88-4.09,6.35,5.9,14.98,9.7,23.74,9.51Z"/>
  <path class="st1" d="M401.39,353.7c.95,9.14,4.18,17.1,10.04,24.12-3.6,4.29-6.69,9.04-8.22,14.5-.85,3.02-1.13,5.89-1.69,8.94-.99,1.27-3.11.52-4.52.8-7.34,1.45-13.58,4.42-19.19,9.38-7.03-5.86-14.99-9.09-24.13-10.04-.26-8.87-3.97-16.93-9.66-23.59,5.47-6.91,9.71-15.16,9.59-24.19,9.03.12,17.29-4.12,24.19-9.59,6.66,5.69,14.71,9.4,23.59,9.66Z"/>
  <path class="st1" d="M118.62,307.37c-9,.02-17.49,3.82-24.19,9.59-6.86-5.66-15.07-9.62-24.19-9.59.19-8.75-3.61-17.39-9.51-23.73,5.41-7.17,9.39-14.93,9.75-24.15,3-.71,6.05-.76,9.04-1.59,5.57-1.54,10.45-4.77,14.92-8.32,6.79,5.68,14.69,9.44,23.69,9.64.45.31.87,5.91,1.19,7.32,1.42,6.39,5.16,11.84,8.82,17.09-5.97,6.28-9.7,15.01-9.51,23.74Z"/>
  <path class="st1" d="M307.36,307.37c-9.06-.09-17.31,4.05-24.19,9.59-6.73-5.83-14.75-9.22-23.7-9.82-.45-.3-.87-5.91-1.19-7.32-1.39-6.24-4.95-11.67-8.74-16.65,3.6-4.29,6.69-9.04,8.22-14.5.85-3.02,1.13-5.89,1.69-8.94.99-1.27,3.11-.52,4.52-.8,7.34-1.45,13.58-4.42,19.19-9.38,6.83,5.49,14.72,9.44,23.7,9.66,1.14,9.03,3.99,17.1,10.09,23.96-5.54,6.89-9.67,15.13-9.59,24.19Z"/>
  <path class="st1" d="M93.97,60.75c7.31,5.28,14.84,9.47,24.15,9.74.67,2.51.78,5.1,1.39,7.65,1.48,6.24,4.7,11.28,8.5,16.31-5.49,6.86-9.32,14.73-9.63,23.69-.59.86-3.4.38-4.69.63-7.4,1.46-13.45,4.61-19.27,9.26-5.04-3.81-10.07-7.02-16.31-8.5-2.56-.61-5.14-.71-7.65-1.39-.28-9.31-4.47-16.84-9.74-24.15,6.03-6.21,9.24-14.63,9.74-23.24,8.74-1.06,17.13-3.7,23.5-10.01Z"/>
  <path class="st1" d="M212.72,164.37c.35,9.11,4.05,17.11,9.57,24.17-1.35,2.92-3.7,5.18-5.21,8.08-2.55,4.91-3.94,10.61-4.35,16.12-9.06-.21-17.08,4.32-24.11,9.51-6.57-5.57-14.96-9.57-23.74-9.5-.21-9.12-4.1-17.15-9.59-24.19,5.55-7.01,9.53-15.05,9.59-24.19,9.05.43,17.33-3.98,24.12-9.53,6.33,5.79,15.01,9.85,23.72,9.54Z"/>
  <path class="st1" d="M307.34,448.28c-.02,9.19,4.24,16.96,9.53,24.09-5.57,6.57-9.57,14.96-9.51,23.74-9.12.21-17.15,4.1-24.19,9.59-6.97-5.95-14.92-8.82-23.96-10.08-.33-8.6-3.8-17.04-9.76-23.24,5.64-6.79,9.47-14.63,9.77-23.62,8.99-1.58,16.86-4.2,23.95-10.08,7.28,5.42,14.91,9.13,24.17,9.6Z"/>
  <path class="st1" d="M496.11,70.26c.11,9.22,4.1,17.1,9.59,24.19-5.53,7.02-9.45,15.05-9.59,24.19-8.76-.23-17.37,3.68-23.73,9.53-7.01-5.44-14.93-9.86-24.12-9.54-.46-8.92-3.87-17.73-10.09-24.19,6.19-6.55,9.64-15.16,10.09-24.19,9.08.22,17.16-4.19,24.12-9.54,6.33,5.86,14.98,9.69,23.73,9.53Z"/>
  <path class="st1" d="M353.62,212.74c.08-9.19-4.23-16.98-9.51-24.11,5.57-6.57,9.57-14.96,9.51-23.74,9.12-.21,17.15-4.1,24.19-9.59,7,6.01,14.9,8.74,23.96,10.08.33,8.6,3.8,17.04,9.76,23.23-5.64,6.79-9.47,14.63-9.77,23.62-8.99,1.58-16.86,4.2-23.95,10.08-7.25-5.36-14.96-9.23-24.2-9.58Z"/>
  <path class="st1" d="M118.62,448.26c-.32,9.18,4.1,17.11,9.54,24.11-5.85,6.37-9.76,14.97-9.53,23.73-9.14.14-17.18,4.05-24.19,9.59-7.1-5.49-14.98-9.48-24.19-9.59.16-8.75-3.67-17.4-9.53-23.73,5.35-6.96,9.76-15.03,9.54-24.11,9.02-.45,17.63-3.9,24.19-10.09,6.41,6.29,15.29,9.58,24.19,10.09Z"/>
  <path class="st1" d="M496.11,307.37c-8.78-.07-17.17,3.93-23.74,9.5-7.13-5.3-14.89-9.56-24.09-9.53-.47-9.26-4.18-16.89-9.6-24.17,5.87-7.08,8.5-14.96,10.08-23.95,8.99-.3,16.83-4.13,23.62-9.77,6.19,5.96,14.64,9.43,23.24,9.76,1.3,9.03,4.05,17,10.09,23.96-5.49,7.04-9.38,15.08-9.59,24.19Z"/>
  <path class="st1" d="M212.72,353.63c.34,9.3,4.18,16.91,9.58,24.2-3.2,4.46-6.38,9.02-7.95,14.38-.93,3.18-.93,6.48-2.13,9.57-8.99.3-16.83,4.13-23.62,9.77-6.19-5.96-14.64-9.43-23.24-9.76-1.35-9.06-4.07-16.96-10.09-23.96,5.49-7.04,9.38-15.08,9.59-24.19,8.78.07,17.17-3.93,23.74-9.5,7.12,5.28,14.91,9.6,24.11,9.51Z"/>
  <path class="st1" d="M496.07,448.28c.39,8.88,3.85,16.96,9.61,23.62-5.28,7.24-9.42,14.96-9.57,24.2-9.24.15-16.96,4.29-24.2,9.57-6.66-5.76-14.74-9.22-23.62-9.61-.61-7.71-2.85-14.33-7.25-20.66-.8-1.15-2.53-1.89-2.38-3.47.06-.57,3.47-4.77,4.18-5.98,3.27-5.61,4.88-11.15,5.49-17.63,6.48-.62,12.02-2.22,17.63-5.49,1.21-.71,5.41-4.12,5.98-4.18,1.58-.15,2.33,1.58,3.48,2.38,6.33,4.4,12.94,6.64,20.66,7.25Z"/>
</svg>