<?xml version="1.0" encoding="UTF-8"?>
<svg id="Camada_1" xmlns="http://www.w3.org/2000/svg" version="1.1" viewBox="0 0 566.93 566.93">
  <!-- Generator: Adobe Illustrator 29.5.0, SVG Export Plug-In . SVG Version: 2.1.0 Build 137)  -->
  <defs>
    <style>
      .st0 {
        fill: #ebe0b3;
      }

      .st1 {
        fill: #86b4b3;
      }

      .st2 {
        fill: #005d64;
      }

      .st3 {
        fill: #8cb8bc;
      }
    </style>
  </defs>
  <rect class="st2" width="566.93" height="566.93"/>
  <g>
    <path class="st0" d="M566.37.61l-94.32,93.46L377.58.08c62.32.01,124.65.02,186.97-.03.92-.16,1.17.08,1.82.56Z"/>
    <path class="st0" d="M377.05,566.9c-62.74.01-125.52.01-188.26,0l94.4-94.55,93.86,94.55Z"/>
    <path class="st0" d="M188.26.08l-93.94,93.99L0,.61,1.81.05c62.15.05,124.3.04,186.44.03Z"/>
    <path class="st0" d="M377.05.08l-93.94,93.99L188.79.08c62.74-.01,125.52-.01,188.26,0Z"/>
    <path class="st0" d="M188.26,566.9c-62.74-.01-125.52,0-188.26,0l93.94-93.99,94.32,93.99Z"/>
    <path class="st0" d="M566.37,566.37c-.4.67-.63.49-1.28.56-62.33-.04-124.66-.04-186.98-.03l93.94-93.99,94.32,93.46Z"/>
    <path class="st1" d="M566.9,378.85l-1.06-.53c-1.42-.06-1.34-.58,0-1.06.06-.13.83-.32,1.06-.53,0,.71,0,1.42,0,2.12Z"/>
    <path class="st3" d="M566.9,190.26c-.5-.16-.52-.61-.53-1.06-.48-.1-.46-.28,0-.53.04-.46.01-.89.53-1.06,0,.89,0,1.77,0,2.66Z"/>
    <path class="st0" d="M377.58,377.78c-31.32,31.13-62.73,62.19-93.85,93.53l-1.01.46-93.9-94.18,94.36-93.85,1.09.52c31.25,31.03,62.16,62.41,93.31,93.53Z"/>
    <path class="st0" d="M565.84,377.25c-.09.19.06.74,0,1.06l-92.78,93-1.01.46c-31.53-31.29-63.05-62.6-94.47-93.99,31.5-31.31,63.02-62.61,94.47-93.99l93.79,93.46Z"/>
    <polygon class="st0" points="93.94 283.79 188.22 377.59 94.32 471.77 .04 377.98 93.94 283.79"/>
    <polygon class="st0" points="283.19 94.65 377.01 189.01 283.19 283.22 188.8 188.93 283.19 94.65"/>
    <polygon class="st0" points="93.94 94.68 188.25 188.93 94.32 282.66 .04 188.86 93.94 94.68"/>
    <path class="st0" d="M566.37,188.67c-.02.17,0,.36,0,.53l-94.32,93.46-93.9-94.18,94.28-93.8,93.94,93.99Z"/>
  </g>
</svg>