<?xml version="1.0" encoding="UTF-8"?>
<svg id="Camada_1" xmlns="http://www.w3.org/2000/svg" version="1.1" viewBox="0 0 566.93 566.93">
  <!-- Generator: Adobe Illustrator 29.5.0, SVG Export Plug-In . SVG Version: 2.1.0 Build 137)  -->
  <defs>
    <style>
      .st0 {
        fill: #30888c;
      }

      .st1 {
        fill: #a3d0cb;
      }
    </style>
  </defs>
  <path class="st0" d="M72.02.01l70.35,140.8L212.74.01h.53l70.1,141.33L353.98.01h1.06l70.36,140.79L495.76.01c.18,0,.35,0,.53,0l70.62,140.27c0,.71,0,1.42,0,2.13l-1.51,1.94-69.07,138.6,69.07,139.13,1.51,1.94c0,.71,0,1.42,0,2.13l-70.89,140.26-70.62-140.79-70.36,141.33c-.35,0-.71,0-1.06,0l-70.36-141.86-70.62,141.32-70.37-140.79-71.67,140.8L.87,426.13c0-.71,0-1.42,0-2.13l69.68-139.36.4-1.67L.87,142.94l-.53-2.66L70.96.01c.35,0,.71,0,1.06,0ZM425.66,424.53l69.69-139.89.4-1.67-70.09-141.1-70.89,140.8-71.15-140.26-70.35,140.56.4,1.67,69.69,139.89,71.41-140.8,70.89,140.8ZM142.64,424.53l70.06-141.59-69.42-139.31-1.43-1.23-70.24,140.98,69.85,140.47,1.18.68Z"/>
  <path class="st1" d="M353.98,566.93H.34s-.04-139-.04-139c0-.98.57-1.7.57-1.8l70.1,140.27,71.67-140.8,70.37,140.79,70.62-141.32,70.36,141.86Z"/>
  <path class="st1" d="M566.91,426.13c-.01,46.92,0,93.88,0,140.8-70.61,0-141.26-.01-211.87,0l70.36-141.33,70.62,140.79,70.89-140.26Z"/>
  <path class="st1" d="M.87,424c-.02-92.49-1.51-185.5-.54-278.15,0-.9-.34-2.36.54-2.91l70.09,140.04-.4,1.67L.87,424Z"/>
  <path class="st1" d="M566.91,424l-1.51-1.94-69.07-139.13,69.07-138.6,1.51-1.94c.02,93.86.02,187.74,0,281.6Z"/>
  <path class="st1" d="M353.98.01l-70.62,141.33L213.27.01C260.16,0,307.09,0,353.98.01Z"/>
  <path class="st1" d="M495.76.01l-70.36,140.79L355.04.01c46.9,0,93.82-.03,140.71,0Z"/>
  <path class="st1" d="M212.74.01l-70.36,140.8L72.02.01C118.92-.02,165.84.02,212.74.01Z"/>
  <path class="st1" d="M70.96.01L.34,140.28V0c23.53,0,47.09.02,70.62,0Z"/>
  <path class="st1" d="M496.29.01c23.53.01,47.09,0,70.63,0,0,46.75-.01,93.52,0,140.27L496.29.01Z"/>
  <polygon class="st1" points="425.66 424.53 354.77 283.73 283.37 424.53 213.68 284.64 213.27 282.98 283.63 142.41 354.77 282.67 425.66 141.87 495.75 282.98 495.35 284.64 425.66 424.53"/>
  <polygon class="st1" points="142.64 424.53 141.46 423.85 71.61 283.38 141.85 142.4 143.28 143.63 212.7 282.94 142.64 424.53"/>
</svg>