<?xml version="1.0" encoding="UTF-8"?>
<svg id="Camada_1" xmlns="http://www.w3.org/2000/svg" version="1.1" viewBox="0 0 566.93 566.93">
  <!-- Generator: Adobe Illustrator 29.5.0, SVG Export Plug-In . SVG Version: 2.1.0 Build 137)  -->
  <defs>
    <style>
      .st0 {
        fill: #f4f2f2;
      }

      .st1 {
        fill: #282a22;
      }
    </style>
  </defs>
  <path class="st1" d="M.04,1.07c36.85,1.25,74.3,8.48,108.61,21.87,99.54,38.87,163.5,127.59,173.75,233.46.16,1.67.42,13.55,1.33,13.53,3.08-54.14,20.16-107,51.41-151.31C388.11,43.54,475.69,3.84,566.89,1.07c.01,35.7-.01,71.42,0,107.12-37-.53-75.29,7.9-106.84,27.35-124.9,77.01-94.76,288.21,51.44,320.35,18.23,4.01,36.78,4.98,55.4,3.88-.02,35.7,0,71.42,0,107.12-8.19.23-16.34-.78-24.46-1.59-143.44-14.34-247.48-114.14-257.91-259.04l-1.32-5.58c-3.56,75.2-37.02,149.05-94.38,198.08-46.56,39.79-102.96,60.39-163.79,66.54-8.3.84-16.63,1.82-25,1.59,0-35.7.02-71.42,0-107.12,26.55,1.04,52.25-.98,77.24-10.21,125.1-46.19,146.29-232.27,38.32-308.4C82.12,117.56,40.84,107.76.04,108.19.05,72.49.03,36.77.04,1.07Z"/>
  <path class="st0" d="M.04,459.77C-.01,342.59-.01,225.38.04,108.19c40.8-.43,82.08,9.37,115.56,32.98,107.96,76.13,86.78,262.2-38.32,308.4-24.99,9.23-50.68,11.25-77.24,10.21Z"/>
  <path class="st0" d="M566.89,108.19c.05,117.19.05,234.4,0,351.58-18.62,1.11-37.18.13-55.4-3.88-146.19-32.14-176.34-243.35-51.44-320.35,31.55-19.45,69.84-27.89,106.84-27.35Z"/>
  <path class="st0" d="M.04,1.07L.35,0h566.22l.32,1.07c-91.2,2.77-178.78,42.47-231.75,117.56-31.25,44.3-48.33,97.16-51.41,151.31-.91.02-1.17-11.85-1.33-13.53-10.25-105.87-74.21-194.6-173.75-233.46C74.33,9.55,36.88,2.32.04,1.07Z"/>
  <path class="st0" d="M25.03,565.3c60.84-6.16,117.23-26.75,163.79-66.54,57.36-49.02,90.83-122.87,94.38-198.08l1.32,5.58c10.43,144.91,114.47,244.71,257.91,259.04l-1.84,1.06H26.87l-1.84-1.06Z"/>
</svg>