<?xml version="1.0" encoding="UTF-8"?>
<svg id="Camada_3" xmlns="http://www.w3.org/2000/svg" version="1.1" viewBox="0 0 566.93 566.93">
  <!-- Generator: Adobe Illustrator 29.5.0, SVG Export Plug-In . SVG Version: 2.1.0 Build 137)  -->
  <defs>
    <style>
      .st0 {
        fill: #ae4d3a;
      }

      .st1 {
        fill: #f9f9f9;
      }

      .st2 {
        fill: #8c9194;
      }

      .st3 {
        fill: #7291d1;
      }

      .st4 {
        fill: #d6ad43;
      }

      .st5 {
        fill: #9e6933;
      }
    </style>
  </defs>
  <rect class="st2" x="-.07" y="-.09" width="566.93" height="566.93" transform="translate(566.77 -.03) rotate(90)"/>
  <path class="st4" d="M256.69-.09H-.07s0,269.48,0,269.48l37.84-74.35,48.3,88.25,2.35-145.38,140.87,82.17s-83.74-141.65-79.83-142.43,144.78,1.57,144.78,1.57l-89.22-57.91L256.69-.09Z"/>
  <polyline class="st5" points="-.07 -.09 -.07 269.38 37.78 195.04 86.08 283.29 88.43 137.91 229.3 220.08"/>
  <path class="st3" d="M-.07-.09L97.2-.02S101.87,83.12.06,97.21C-.07,33.04-.07-.09-.07-.09Z"/>
  <path class="st4" d="M434.93,426.54c53.63-57.07,131.94-53.59,131.94-53.59l.13,193.81-132.06-140.21Z"/>
  <path class="st5" d="M434.93,426.54c-26.97,28.7-57.25,72.75-58.65,140.23,137.74.28,190.71-.02,190.71-.02l-132.06-140.21Z"/>
  <path class="st3" d="M469.84,566.88l97.02-.1v-97.04s-84.5,2.45-97.02,97.15Z"/>
  <path class="st1" d="M136.38,301.57l112.3,136.27-34.92,13.01s-28.08-69.16-119.15-110.93c33.55-32.87,41.77-38.35,41.77-38.35Z"/>
  <path class="st0" d="M90.5,376.21s59.58,23.97,95.18,89.02c-15.75,8.9-19.17,11.64-19.17,11.64,0,0-19.86-38.35-37.66-47.25-17.8-8.9-46.57-13.7-46.57-13.7,0,0-7.19-8.9,8.22-39.72Z"/>
  <polygon class="st1" points="56.95 476.87 94.61 513.85 37.78 545.35 37.78 513.85 56.95 476.87"/>
</svg>