<?xml version="1.0" encoding="UTF-8"?>
<svg xmlns="http://www.w3.org/2000/svg" version="1.1" viewBox="0 0 2390.32 2384.55">
  <!-- Generator: Adobe Illustrator 29.5.0, SVG Export Plug-In . SVG Version: 2.1.0 Build 137)  -->
  <defs>
    <style>
      .st0 {
        fill: none;
        stroke: #000;
        stroke-miterlimit: 10;
        stroke-width: .03px;
      }

      .st1 {
        fill: #1c1c1c;
      }

      .st2 {
        fill: #ba7f22;
      }

      .st3 {
        fill: #f8b652;
      }

      .st4 {
        fill: #63a669;
      }
    </style>
  </defs>
  <g id="Camada_1">
    <g>
      <polygon points="379.44 1327.71 384.95 1319.64 391.3 1321.01 409.44 1330.43 418.93 1337.14 422.9 1347.87 423.67 1353.26 415.79 1366.73 403.16 1372.06 377.07 1343.84 379.44 1327.71"/>
      <polygon points="212.46 1357.12 188.74 1326.22 191.11 1310.1 196.69 1302.03 202.97 1303.34 221.18 1312.76 230.66 1319.47 234.64 1330.26 235.41 1335.6 227.52 1349.06 214.83 1354.45 212.46 1357.12"/>
      <polygon class="st2" points="313.09 1391.33 311.96 1409.54 268.67 1389.02 261.86 1377.64 261.86 1368.56 277.81 1354.93 282.37 1352.61 291.44 1359.43 306.27 1374.26 313.09 1391.33"/>
      <polygon class="st4" points="655.52 1284.13 655.52 1361.39 577.84 1361.39 541.43 1347.22 522.16 1333.99 511.31 1315.91 524.6 1300.25 551.04 1293.08 611.7 1284.13 655.52 1284.13"/>
      <path class="st3" d="M577.84,1361.39h77.68v322.81h-77.68s-31.66.36-31.66.36l-40.32-5.75-76.37-7.53-30.6.24-41.57-21.35-34.45-26.21-30.36-33.8-65.34-5.75-24.07,3.62-11.44,15.18,15.59,47.5,11.03,20.22,8.66,9.25,24.31,22,13.87,11.56,12.75,8.12,30.66,19.63,19.09,7,13.87,1.13,84.5-.59,70.56,6.94,44.53,6.4,50.34-.59,20.28-.3h43.82v44.83H88.59v-566.99h566.93v44.83h-43.82s-60.66,8.95-60.66,8.95l-26.45,7.17-13.28,15.65,10.85,18.09,19.27,13.22,36.41,14.17ZM384.95,1319.64l-5.52,8.06-2.37,16.13,23.72,30.95,15-8.06,4.74-9.43,2.37-9.43-3.97-10.73-9.49-6.7-18.14-9.43-6.34-1.36ZM188.74,1326.22l23.72,30.89,15.06-8.06,4.74-9.43,2.37-9.37-3.97-10.79-9.49-6.7-18.2-9.43-6.29-1.3-5.57,8.07-2.37,16.13ZM311.96,1409.54l1.13-18.2-6.82-17.08-14.83-14.82-9.07-6.82-4.57,2.31-15.95,13.64v9.07s6.82,11.39,6.82,11.39l42.1,23.96,1.18-3.44ZM363.13,1462.78l23.96-42.1-21.64-2.31-17.08,6.82-14.82,14.82-6.82,9.13,2.31,4.51,13.64,15.95h9.13s11.33-6.82,11.33-6.82ZM473.54,1522.73l23.66,30.89,15.06-8.06,4.74-9.37,2.37-9.43-3.97-10.73-9.49-6.76-18.2-9.37-6.29-1.36-5.51,8.06-2.37,16.13ZM555.55,1524.04l42.16,23.9,2.25-21.58-6.82-17.08-14.83-14.82-9.07-6.82-4.57,2.25-15.95,13.7v9.07s6.82,11.38,6.82,11.38ZM563.37,1430.82l23.72,30.89,15-8.07,4.74-9.43,2.37-9.37-3.97-10.79-9.49-6.7-18.14-9.43-6.35-1.3-5.51,8.06-2.37,16.13ZM610.28,1628.16l-5.04-38.66-17.08-.53-8.77,5.81-4.74,1.9-2.02,5.04-1.96,11.32,4.86,10.56,11.03,17.2,4.8,4.33,8.84-4.21,10.08-12.75ZM517.54,1630.18l9.25-12.04-5.28-16.07-14.59-5.99h-10.61s-9.25,5.99-9.25,5.99l-9.31,11.09,7.95,14.05,13.34,9.13,18.5-6.17ZM405.89,1506.49l-8.84,5.75-4.74,1.9-2.01,5.04-1.96,11.33,4.86,10.56,11.03,17.25,4.8,4.33,8.84-4.27,10.14-12.75-5.1-38.6-17.02-.53Z"/>
      <polygon class="st4" points="655.52 1684.19 655.52 1761.46 611.7 1761.46 591.42 1761.75 541.08 1762.35 496.55 1755.94 425.99 1749.01 341.49 1749.6 327.61 1748.47 308.52 1741.47 277.87 1721.85 265.12 1713.72 251.24 1702.16 226.93 1680.16 218.27 1670.91 207.24 1650.69 191.65 1603.2 203.09 1588.02 227.17 1584.4 292.51 1590.15 322.87 1623.95 357.32 1650.16 398.89 1671.51 429.48 1671.27 505.86 1678.8 546.18 1684.55 577.84 1684.19 655.52 1684.19"/>
      <polygon class="st2" points="387.09 1420.68 363.13 1462.78 351.81 1469.6 342.67 1469.6 329.04 1453.65 326.72 1449.15 333.54 1440.01 348.37 1425.19 365.44 1418.37 383.65 1419.56 387.09 1420.68"/>
      <polygon class="st2" points="497.2 1553.63 473.54 1522.73 475.91 1506.6 481.43 1498.54 487.71 1499.9 505.92 1509.27 515.4 1516.03 519.38 1526.76 520.15 1532.16 512.26 1545.56 499.57 1550.96 497.2 1553.63"/>
      <polygon points="597.71 1547.93 555.55 1524.04 548.73 1512.65 548.73 1503.58 564.68 1489.88 569.24 1487.63 578.32 1494.45 593.14 1509.27 599.96 1526.35 598.83 1544.55 597.71 1547.93"/>
      <polygon points="587.09 1461.72 563.37 1430.82 565.75 1414.69 571.26 1406.63 577.61 1407.93 595.75 1417.36 605.24 1424.06 609.21 1434.86 609.98 1440.19 602.09 1453.65 589.46 1458.99 587.09 1461.72"/>
      <polygon points="605.24 1589.5 610.28 1628.16 600.2 1640.91 591.36 1645.12 586.56 1640.79 575.53 1623.59 570.67 1613.04 572.63 1601.71 574.64 1596.67 579.38 1594.78 588.16 1588.97 601.8 1590.69 605.24 1589.5"/>
      <polygon class="st1" points="526.79 1618.14 517.54 1630.18 499.04 1636.34 485.7 1627.21 477.75 1613.16 487.06 1602.07 496.31 1596.08 506.93 1596.08 521.51 1602.07 526.79 1618.14"/>
      <polygon points="397.05 1512.24 405.89 1506.49 419.52 1508.15 428 1545.62 417.86 1558.37 409.03 1562.64 404.22 1558.31 393.19 1541.06 388.33 1530.5 390.29 1519.17 392.31 1514.13 397.05 1512.24"/>
      <line class="st0" x1="655.52" y1="1361.39" x2="655.52" y2="1284.13"/>
      <line class="st0" x1="655.52" y1="1761.46" x2="655.52" y2="1684.19"/>
      <line class="st0" x1="655.52" y1="1806.29" x2="655.52" y2="1761.46"/>
      <line class="st0" x1="655.52" y1="1806.29" x2="88.59" y2="1806.29"/>
      <line class="st0" x1="88.59" y1="1239.3" x2="655.52" y2="1239.3"/>
      <line class="st0" x1="655.52" y1="1284.13" x2="655.52" y2="1239.3"/>
      <line class="st0" x1="655.52" y1="1684.19" x2="655.52" y2="1361.39"/>
      <line class="st0" x1="88.59" y1="1239.3" x2="88.59" y2="1806.29"/>
    </g>
    <g>
      <polygon points="942.94 1717.88 937.43 1725.94 931.08 1724.58 912.94 1715.15 903.45 1708.45 899.48 1697.72 898.71 1692.32 906.59 1678.86 919.22 1673.52 945.31 1701.75 942.94 1717.88"/>
      <polygon points="1109.92 1688.47 1133.64 1719.36 1131.27 1735.49 1125.69 1743.55 1119.41 1742.25 1101.2 1732.82 1091.72 1726.12 1087.74 1715.32 1086.97 1709.99 1094.86 1696.53 1107.55 1691.13 1109.92 1688.47"/>
      <polygon class="st2" points="1009.29 1654.25 1010.42 1636.05 1053.71 1656.56 1060.52 1667.95 1060.52 1677.02 1044.57 1690.66 1040.01 1692.97 1030.94 1686.15 1016.11 1671.33 1009.29 1654.25"/>
      <polygon class="st4" points="666.86 1761.46 666.86 1684.19 744.54 1684.19 780.95 1698.37 800.22 1711.59 811.07 1729.68 797.78 1745.33 771.34 1752.5 710.68 1761.46 666.86 1761.46"/>
      <path class="st3" d="M744.54,1684.19h-77.68v-322.81h77.68s31.66-.36,31.66-.36l40.32,5.75,76.37,7.53,30.6-.24,41.57,21.35,34.45,26.21,30.36,33.8,65.34,5.75,24.07-3.62,11.44-15.18-15.59-47.5-11.03-20.22-8.66-9.25-24.31-22-13.87-11.56-12.75-8.12-30.66-19.63-19.09-7-13.87-1.13-84.5.59-70.56-6.94-44.53-6.4-50.34.59-20.28.3h-43.82v-44.83h566.93v566.99h-566.93v-44.83h43.82s60.66-8.95,60.66-8.95l26.45-7.17,13.28-15.65-10.85-18.09-19.27-13.22-36.41-14.17ZM937.43,1725.94l5.52-8.06,2.37-16.13-23.72-30.95-15,8.06-4.74,9.43-2.37,9.43,3.97,10.73,9.49,6.7,18.14,9.43,6.34,1.36ZM1133.64,1719.36l-23.72-30.89-15.06,8.06-4.74,9.43-2.37,9.37,3.97,10.79,9.49,6.7,18.2,9.43,6.29,1.3,5.57-8.07,2.37-16.13ZM1010.42,1636.05l-1.13,18.2,6.82,17.08,14.83,14.82,9.07,6.82,4.57-2.31,15.95-13.64v-9.07s-6.82-11.39-6.82-11.39l-42.1-23.96-1.18,3.44ZM959.25,1582.8l-23.96,42.1,21.64,2.31,17.08-6.82,14.82-14.82,6.82-9.13-2.31-4.51-13.64-15.95h-9.13s-11.33,6.82-11.33,6.82ZM848.84,1522.85l-23.66-30.89-15.06,8.06-4.74,9.37-2.37,9.43,3.97,10.73,9.49,6.76,18.2,9.37,6.29,1.36,5.51-8.06,2.37-16.13ZM766.83,1521.55l-42.16-23.9-2.25,21.58,6.82,17.08,14.83,14.82,9.07,6.82,4.57-2.25,15.95-13.7v-9.07s-6.82-11.38-6.82-11.38ZM759.01,1614.76l-23.72-30.89-15,8.07-4.74,9.43-2.37,9.37,3.97,10.79,9.49,6.7,18.14,9.43,6.35,1.3,5.51-8.06,2.37-16.13ZM712.1,1417.42l5.04,38.66,17.08.53,8.77-5.81,4.74-1.9,2.02-5.04,1.96-11.32-4.86-10.56-11.03-17.2-4.8-4.33-8.84,4.21-10.08,12.75ZM804.84,1415.41l-9.25,12.04,5.28,16.07,14.59,5.99h10.61s9.25-5.99,9.25-5.99l9.31-11.09-7.95-14.05-13.34-9.13-18.5,6.17ZM916.49,1539.1l8.84-5.75,4.74-1.9,2.01-5.04,1.96-11.33-4.86-10.56-11.03-17.25-4.8-4.33-8.84,4.27-10.14,12.75,5.1,38.6,17.02.53Z"/>
      <polygon class="st4" points="666.86 1361.39 666.86 1284.13 710.68 1284.13 730.96 1283.83 781.3 1283.24 825.83 1289.64 896.39 1296.58 980.89 1295.99 994.77 1297.11 1013.86 1304.11 1044.51 1323.74 1057.26 1331.86 1071.14 1343.42 1095.45 1365.42 1104.11 1374.67 1115.14 1394.89 1130.73 1442.39 1119.29 1457.57 1095.21 1461.18 1029.87 1455.43 999.51 1421.63 965.06 1395.42 923.49 1374.08 892.9 1374.31 816.52 1366.79 776.2 1361.03 744.54 1361.39 666.86 1361.39"/>
      <polygon class="st2" points="935.29 1624.9 959.25 1582.8 970.57 1575.98 979.71 1575.98 993.34 1591.93 995.66 1596.44 988.84 1605.57 974.01 1620.39 956.94 1627.21 938.73 1626.03 935.29 1624.9"/>
      <polygon class="st2" points="825.18 1491.96 848.84 1522.85 846.47 1538.98 840.95 1547.04 834.67 1545.68 816.46 1536.31 806.98 1529.55 803 1518.82 802.23 1513.42 810.12 1500.02 822.81 1494.63 825.18 1491.96"/>
      <polygon points="724.67 1497.65 766.83 1521.55 773.65 1532.93 773.65 1542 757.7 1555.7 753.14 1557.96 744.06 1551.14 729.24 1536.31 722.42 1519.24 723.55 1501.03 724.67 1497.65"/>
      <polygon points="735.29 1583.87 759.01 1614.76 756.63 1630.89 751.12 1638.95 744.77 1637.65 726.63 1628.22 717.14 1621.52 713.17 1610.73 712.4 1605.39 720.29 1591.93 732.92 1586.6 735.29 1583.87"/>
      <polygon points="717.14 1456.09 712.1 1417.42 722.18 1404.67 731.02 1400.46 735.82 1404.79 746.85 1421.99 751.71 1432.55 749.75 1443.87 747.74 1448.91 743 1450.81 734.22 1456.62 720.58 1454.9 717.14 1456.09"/>
      <polygon class="st1" points="795.59 1427.44 804.84 1415.41 823.34 1409.24 836.68 1418.37 844.63 1432.42 835.32 1443.51 826.07 1449.5 815.45 1449.5 800.87 1443.51 795.59 1427.44"/>
      <polygon points="925.33 1533.35 916.49 1539.1 902.86 1537.44 894.38 1499.96 904.52 1487.22 913.35 1482.95 918.16 1487.27 929.19 1504.53 934.05 1515.08 932.09 1526.41 930.07 1531.45 925.33 1533.35"/>
      <line class="st0" x1="666.86" y1="1684.19" x2="666.86" y2="1761.46"/>
      <line class="st0" x1="666.86" y1="1284.13" x2="666.86" y2="1361.39"/>
      <line class="st0" x1="666.86" y1="1239.3" x2="666.86" y2="1284.13"/>
      <line class="st0" x1="666.86" y1="1239.3" x2="1233.79" y2="1239.3"/>
      <line class="st0" x1="1233.79" y1="1806.29" x2="666.86" y2="1806.29"/>
      <line class="st0" x1="666.86" y1="1761.46" x2="666.86" y2="1806.29"/>
      <line class="st0" x1="666.86" y1="1361.39" x2="666.86" y2="1684.19"/>
      <line class="st0" x1="1233.79" y1="1806.29" x2="1233.79" y2="1239.3"/>
    </g>
    <g>
      <polygon points="2099.48 561.34 2093.96 569.4 2087.62 568.04 2069.47 558.61 2059.99 551.91 2056.01 541.18 2055.24 535.78 2063.13 522.32 2075.76 516.99 2101.85 545.21 2099.48 561.34"/>
      <polygon points="2266.45 531.93 2290.17 562.82 2287.8 578.95 2282.23 587.02 2275.94 585.71 2257.74 576.28 2248.25 569.58 2244.28 558.79 2243.51 553.45 2251.39 539.99 2264.08 534.6 2266.45 531.93"/>
      <polygon class="st2" points="2165.83 497.72 2166.96 479.51 2210.24 500.03 2217.06 511.41 2217.06 520.48 2201.11 534.12 2196.54 536.44 2187.47 529.62 2172.65 514.79 2165.83 497.72"/>
      <polygon class="st4" points="1823.39 604.92 1823.39 527.66 1901.07 527.66 1937.48 541.83 1956.75 555.05 1967.6 573.14 1954.32 588.8 1927.87 595.97 1867.22 604.92 1823.39 604.92"/>
      <path class="st3" d="M1901.07,527.66h-77.68V204.85h77.68s31.66-.36,31.66-.36l40.32,5.75,76.37,7.53,30.6-.24,41.57,21.35,34.45,26.21,30.36,33.8,65.34,5.75,24.07-3.62,11.44-15.18-15.59-47.5-11.03-20.22-8.66-9.25-24.31-22-13.87-11.56-12.75-8.12-30.66-19.63-19.09-7-13.87-1.13-84.5.59-70.56-6.94-44.53-6.4-50.34.59-20.28.3h-43.82v-44.83h566.93v566.99h-566.93v-44.83h43.82s60.66-8.95,60.66-8.95l26.45-7.17,13.28-15.65-10.85-18.09-19.27-13.22-36.41-14.17ZM2093.96,569.4l5.52-8.06,2.37-16.13-23.72-30.95-15,8.06-4.74,9.43-2.37,9.43,3.97,10.73,9.49,6.7,18.14,9.43,6.34,1.36ZM2290.17,562.82l-23.72-30.89-15.06,8.06-4.74,9.43-2.37,9.37,3.97,10.79,9.49,6.7,18.2,9.43,6.29,1.3,5.57-8.07,2.37-16.13ZM2166.96,479.51l-1.13,18.2,6.82,17.08,14.83,14.82,9.07,6.82,4.57-2.31,15.95-13.64v-9.07s-6.82-11.39-6.82-11.39l-42.1-23.96-1.18,3.44ZM2115.78,426.26l-23.96,42.1,21.64,2.31,17.08-6.82,14.82-14.82,6.82-9.13-2.31-4.51-13.64-15.95h-9.13s-11.33,6.82-11.33,6.82ZM2005.37,366.32l-23.66-30.89-15.06,8.06-4.74,9.37-2.37,9.43,3.97,10.73,9.49,6.76,18.2,9.37,6.29,1.36,5.51-8.06,2.37-16.13ZM1923.37,365.01l-42.16-23.9-2.25,21.58,6.82,17.08,14.83,14.82,9.07,6.82,4.57-2.25,15.95-13.7v-9.07s-6.82-11.38-6.82-11.38ZM1915.54,458.22l-23.72-30.89-15,8.07-4.74,9.43-2.37,9.37,3.97,10.79,9.49,6.7,18.14,9.43,6.35,1.3,5.51-8.06,2.37-16.13ZM1868.64,260.89l5.04,38.66,17.08.53,8.77-5.81,4.74-1.9,2.02-5.04,1.96-11.32-4.86-10.56-11.03-17.2-4.8-4.33-8.84,4.21-10.08,12.75ZM1961.38,258.87l-9.25,12.04,5.28,16.07,14.59,5.99h10.61s9.25-5.99,9.25-5.99l9.31-11.09-7.95-14.05-13.34-9.13-18.5,6.17ZM2073.03,382.56l8.84-5.75,4.74-1.9,2.01-5.04,1.96-11.33-4.86-10.56-11.03-17.25-4.8-4.33-8.84,4.27-10.14,12.75,5.1,38.6,17.02.53Z"/>
      <polygon class="st4" points="1823.39 204.85 1823.39 127.59 1867.22 127.59 1887.49 127.29 1937.84 126.7 1982.37 133.1 2052.93 140.04 2137.43 139.45 2151.3 140.58 2170.39 147.57 2201.05 167.2 2213.8 175.32 2227.67 186.89 2251.99 208.89 2260.64 218.13 2271.67 238.36 2287.27 285.85 2275.82 301.03 2251.75 304.65 2186.4 298.9 2156.05 265.1 2121.59 238.89 2080.03 217.54 2049.43 217.78 1973.06 210.25 1932.74 204.5 1901.07 204.85 1823.39 204.85"/>
      <polygon class="st2" points="2091.83 468.36 2115.78 426.26 2127.11 419.45 2136.24 419.45 2149.88 435.4 2152.19 439.9 2145.37 449.04 2130.55 463.86 2113.47 470.68 2095.27 469.49 2091.83 468.36"/>
      <polygon class="st2" points="1981.71 335.42 2005.37 366.32 2003 382.44 1997.49 390.51 1991.2 389.15 1973 379.78 1963.51 373.02 1959.54 362.28 1958.77 356.89 1966.65 343.49 1979.34 338.09 1981.71 335.42"/>
      <polygon points="1881.21 341.12 1923.37 365.01 1930.19 376.4 1930.19 385.47 1914.24 399.17 1909.67 401.42 1900.6 394.6 1885.77 379.78 1878.95 362.7 1880.08 344.49 1881.21 341.12"/>
      <polygon points="1891.82 427.33 1915.54 458.22 1913.17 474.35 1907.66 482.42 1901.31 481.11 1883.16 471.68 1873.68 464.98 1869.7 454.19 1868.93 448.86 1876.82 435.4 1889.45 430.06 1891.82 427.33"/>
      <polygon points="1873.68 299.55 1868.64 260.89 1878.72 248.14 1887.55 243.93 1892.36 248.26 1903.38 265.45 1908.25 276.01 1906.29 287.33 1904.27 292.37 1899.53 294.27 1890.76 300.08 1877.12 298.36 1873.68 299.55"/>
      <polygon class="st1" points="1952.13 270.91 1961.38 258.87 1979.88 252.7 1993.22 261.84 2001.16 275.89 1991.85 286.98 1982.6 292.97 1971.99 292.97 1957.4 286.98 1952.13 270.91"/>
      <polygon points="2081.87 376.81 2073.03 382.56 2059.39 380.9 2050.91 343.43 2061.05 330.68 2069.89 326.41 2074.69 330.74 2085.72 347.99 2090.58 358.55 2088.63 369.87 2086.61 374.91 2081.87 376.81"/>
      <line class="st0" x1="1823.39" y1="527.66" x2="1823.39" y2="604.92"/>
      <line class="st0" x1="1823.39" y1="127.59" x2="1823.39" y2="204.85"/>
      <line class="st0" x1="1823.39" y1="82.76" x2="1823.39" y2="127.59"/>
      <line class="st0" x1="1823.39" y1="82.76" x2="2390.32" y2="82.76"/>
      <line class="st0" x1="2390.32" y1="649.75" x2="1823.39" y2="649.75"/>
      <line class="st0" x1="1823.39" y1="604.92" x2="1823.39" y2="649.75"/>
      <line class="st0" x1="1823.39" y1="204.85" x2="1823.39" y2="527.66"/>
      <line class="st0" x1="2390.32" y1="649.75" x2="2390.32" y2="82.76"/>
    </g>
    <g>
      <polygon points="2099.48 2296.14 2093.96 2304.21 2087.62 2302.84 2069.47 2293.42 2059.99 2286.72 2056.01 2275.98 2055.24 2270.59 2063.13 2257.13 2075.76 2251.79 2101.85 2280.02 2099.48 2296.14"/>
      <polygon points="2266.45 2266.73 2290.17 2297.63 2287.8 2313.75 2282.23 2321.82 2275.94 2320.52 2257.74 2311.09 2248.25 2304.39 2244.28 2293.59 2243.51 2288.26 2251.39 2274.8 2264.08 2269.4 2266.45 2266.73"/>
      <polygon class="st2" points="2165.83 2232.52 2166.96 2214.32 2210.24 2234.83 2217.06 2246.22 2217.06 2255.29 2201.11 2268.93 2196.54 2271.24 2187.47 2264.42 2172.65 2249.6 2165.83 2232.52"/>
      <polygon class="st4" points="1823.39 2339.73 1823.39 2262.46 1901.07 2262.46 1937.48 2276.63 1956.75 2289.86 1967.6 2307.94 1954.32 2323.6 1927.87 2330.77 1867.22 2339.73 1823.39 2339.73"/>
      <path class="st3" d="M1901.07,2262.46h-77.68v-322.81h77.68s31.66-.36,31.66-.36l40.32,5.75,76.37,7.53,30.6-.24,41.57,21.35,34.45,26.21,30.36,33.8,65.34,5.75,24.07-3.62,11.44-15.18-15.59-47.5-11.03-20.22-8.66-9.25-24.31-22-13.87-11.56-12.75-8.12-30.66-19.63-19.09-7-13.87-1.13-84.5.59-70.56-6.94-44.53-6.4-50.34.59-20.28.3h-43.82v-44.83h566.93v566.99h-566.93v-44.83h43.82s60.66-8.95,60.66-8.95l26.45-7.17,13.28-15.65-10.85-18.09-19.27-13.22-36.41-14.17ZM2093.96,2304.21l5.52-8.06,2.37-16.13-23.72-30.95-15,8.06-4.74,9.43-2.37,9.43,3.97,10.73,9.49,6.7,18.14,9.43,6.34,1.36ZM2290.17,2297.63l-23.72-30.89-15.06,8.06-4.74,9.43-2.37,9.37,3.97,10.79,9.49,6.7,18.2,9.43,6.29,1.3,5.57-8.07,2.37-16.13ZM2166.96,2214.32l-1.13,18.2,6.82,17.08,14.83,14.82,9.07,6.82,4.57-2.31,15.95-13.64v-9.07s-6.82-11.39-6.82-11.39l-42.1-23.96-1.18,3.44ZM2115.78,2161.07l-23.96,42.1,21.64,2.31,17.08-6.82,14.82-14.82,6.82-9.13-2.31-4.51-13.64-15.95h-9.13s-11.33,6.82-11.33,6.82ZM2005.37,2101.12l-23.66-30.89-15.06,8.06-4.74,9.37-2.37,9.43,3.97,10.73,9.49,6.76,18.2,9.37,6.29,1.36,5.51-8.06,2.37-16.13ZM1923.37,2099.81l-42.16-23.9-2.25,21.58,6.82,17.08,14.83,14.82,9.07,6.82,4.57-2.25,15.95-13.7v-9.07s-6.82-11.38-6.82-11.38ZM1915.54,2193.03l-23.72-30.89-15,8.07-4.74,9.43-2.37,9.37,3.97,10.79,9.49,6.7,18.14,9.43,6.35,1.3,5.51-8.06,2.37-16.13ZM1868.64,1995.69l5.04,38.66,17.08.53,8.77-5.81,4.74-1.9,2.02-5.04,1.96-11.32-4.86-10.56-11.03-17.2-4.8-4.33-8.84,4.21-10.08,12.75ZM1961.38,1993.67l-9.25,12.04,5.28,16.07,14.59,5.99h10.61s9.25-5.99,9.25-5.99l9.31-11.09-7.95-14.05-13.34-9.13-18.5,6.17ZM2073.03,2117.37l8.84-5.75,4.74-1.9,2.01-5.04,1.96-11.33-4.86-10.56-11.03-17.25-4.8-4.33-8.84,4.27-10.14,12.75,5.1,38.6,17.02.53Z"/>
      <polygon class="st4" points="1823.39 1939.66 1823.39 1862.39 1867.22 1862.39 1887.49 1862.1 1937.84 1861.51 1982.37 1867.91 2052.93 1874.85 2137.43 1874.25 2151.3 1875.38 2170.39 1882.38 2201.05 1902 2213.8 1910.13 2227.67 1921.69 2251.99 1943.69 2260.64 1952.94 2271.67 1973.16 2287.27 2020.66 2275.82 2035.83 2251.75 2039.45 2186.4 2033.7 2156.05 1999.9 2121.59 1973.69 2080.03 1952.35 2049.43 1952.58 1973.06 1945.05 1932.74 1939.3 1901.07 1939.66 1823.39 1939.66"/>
      <polygon class="st2" points="2091.83 2203.17 2115.78 2161.07 2127.11 2154.25 2136.24 2154.25 2149.88 2170.2 2152.19 2174.71 2145.37 2183.84 2130.55 2198.66 2113.47 2205.48 2095.27 2204.3 2091.83 2203.17"/>
      <polygon class="st2" points="1981.71 2070.23 2005.37 2101.12 2003 2117.25 1997.49 2125.31 1991.2 2123.95 1973 2114.58 1963.51 2107.82 1959.54 2097.09 1958.77 2091.69 1966.65 2078.29 1979.34 2072.89 1981.71 2070.23"/>
      <polygon points="1881.21 2075.92 1923.37 2099.81 1930.19 2111.2 1930.19 2120.27 1914.24 2133.97 1909.67 2136.22 1900.6 2129.4 1885.77 2114.58 1878.95 2097.5 1880.08 2079.3 1881.21 2075.92"/>
      <polygon points="1891.82 2162.13 1915.54 2193.03 1913.17 2209.16 1907.66 2217.22 1901.31 2215.92 1883.16 2206.49 1873.68 2199.79 1869.7 2189 1868.93 2183.66 1876.82 2170.2 1889.45 2164.86 1891.82 2162.13"/>
      <polygon points="1873.68 2034.35 1868.64 1995.69 1878.72 1982.94 1887.55 1978.73 1892.36 1983.06 1903.38 2000.26 1908.25 2010.81 1906.29 2022.14 1904.27 2027.18 1899.53 2029.07 1890.76 2034.89 1877.12 2033.17 1873.68 2034.35"/>
      <polygon class="st1" points="1952.13 2005.71 1961.38 1993.67 1979.88 1987.51 1993.22 1996.64 2001.16 2010.69 1991.85 2021.78 1982.6 2027.77 1971.99 2027.77 1957.4 2021.78 1952.13 2005.71"/>
      <polygon points="2081.87 2111.61 2073.03 2117.37 2059.39 2115.7 2050.91 2078.23 2061.05 2065.48 2069.89 2061.21 2074.69 2065.54 2085.72 2082.8 2090.58 2093.35 2088.63 2104.68 2086.61 2109.72 2081.87 2111.61"/>
      <line class="st0" x1="1823.39" y1="2262.46" x2="1823.39" y2="2339.73"/>
      <line class="st0" x1="1823.39" y1="1862.39" x2="1823.39" y2="1939.66"/>
      <line class="st0" x1="1823.39" y1="1817.57" x2="1823.39" y2="1862.39"/>
      <line class="st0" x1="1823.39" y1="1817.57" x2="2390.32" y2="1817.57"/>
      <line class="st0" x1="2390.32" y1="2384.55" x2="1823.39" y2="2384.55"/>
      <line class="st0" x1="1823.39" y1="2339.73" x2="1823.39" y2="2384.55"/>
      <line class="st0" x1="1823.39" y1="1939.66" x2="1823.39" y2="2262.46"/>
      <line class="st0" x1="2390.32" y1="2384.55" x2="2390.32" y2="1817.57"/>
    </g>
    <g>
      <polygon points="1535.97 561.34 1541.49 569.4 1547.83 568.04 1565.98 558.61 1575.46 551.91 1579.44 541.18 1580.21 535.78 1572.32 522.32 1559.69 516.99 1533.6 545.21 1535.97 561.34"/>
      <polygon points="1369 531.93 1345.28 562.82 1347.65 578.95 1353.22 587.02 1359.51 585.71 1377.71 576.28 1387.2 569.58 1391.17 558.79 1391.94 553.45 1384.06 539.99 1371.37 534.6 1369 531.93"/>
      <polygon class="st2" points="1469.62 497.72 1468.49 479.51 1425.21 500.03 1418.39 511.41 1418.39 520.48 1434.34 534.12 1438.91 536.44 1447.98 529.62 1462.8 514.79 1469.62 497.72"/>
      <polygon class="st4" points="1812.06 604.92 1812.06 527.66 1734.38 527.66 1697.97 541.83 1678.7 555.05 1667.85 573.14 1681.13 588.8 1707.58 595.97 1768.24 604.92 1812.06 604.92"/>
      <path class="st3" d="M1697.97,541.83l-19.27,13.22-10.85,18.09,13.28,15.65,26.45,7.17,60.66,8.95h43.82s0,44.83,0,44.83h-566.93s0-566.99,0-566.99h566.93s0,44.83,0,44.83h-43.82s-20.28-.3-20.28-.3l-50.34-.59-44.53,6.4-70.56,6.94-84.5-.59-13.87,1.13-19.09,7-30.66,19.63-12.75,8.12-13.87,11.56-24.31,22-8.66,9.25-11.03,20.22-15.59,47.5,11.44,15.18,24.07,3.62,65.34-5.75,30.36-33.8,34.45-26.21,41.57-21.35,30.6.24,76.37-7.53,40.32-5.75,31.66.36h77.68s0,322.81,0,322.81h-77.68s-36.41,14.17-36.41,14.17ZM1547.83,568.04l18.14-9.43,9.49-6.7,3.97-10.73-2.37-9.43-4.74-9.43-15-8.06-23.72,30.95,2.37,16.13,5.52,8.06,6.34-1.36ZM1347.65,578.95l5.57,8.07,6.29-1.3,18.2-9.43,9.49-6.7,3.97-10.79-2.37-9.37-4.74-9.43-15.06-8.06-23.72,30.89,2.37,16.13ZM1467.31,476.07l-42.1,23.96-6.82,11.39v9.07s15.95,13.64,15.95,13.64l4.57,2.31,9.07-6.82,14.83-14.82,6.82-17.08-1.13-18.2-1.18-3.44ZM1508.34,419.45h-9.13s-13.64,15.95-13.64,15.95l-2.31,4.51,6.82,9.13,14.82,14.82,17.08,6.82,21.64-2.31-23.96-42.1-11.33-6.82ZM1632.45,382.44l5.51,8.06,6.29-1.36,18.2-9.37,9.49-6.76,3.97-10.73-2.37-9.43-4.74-9.37-15.06-8.06-23.66,30.89,2.37,16.13ZM1705.26,376.4v9.07s15.95,13.7,15.95,13.7l4.57,2.25,9.07-6.82,14.83-14.82,6.82-17.08-2.25-21.58-42.16,23.9-6.82,11.38ZM1722.28,474.35l5.51,8.06,6.35-1.3,18.14-9.43,9.49-6.7,3.97-10.79-2.37-9.37-4.74-9.43-15-8.07-23.72,30.89,2.37,16.13ZM1756.73,248.14l-8.84-4.21-4.8,4.33-11.03,17.2-4.86,10.56,1.96,11.32,2.02,5.04,4.74,1.9,8.77,5.81,17.08-.53,5.04-38.66-10.08-12.75ZM1655.57,252.7l-13.34,9.13-7.95,14.05,9.31,11.09,9.25,5.99h10.61s14.59-5.99,14.59-5.99l5.28-16.07-9.25-12.04-18.5-6.17ZM1579.44,382.03l5.1-38.6-10.14-12.75-8.84-4.27-4.8,4.33-11.03,17.25-4.86,10.56,1.96,11.33,2.01,5.04,4.74,1.9,8.84,5.75,17.02-.53Z"/>
      <polygon class="st4" points="1812.06 204.85 1812.06 127.59 1768.24 127.59 1747.96 127.29 1697.61 126.7 1653.08 133.1 1582.52 140.04 1498.03 139.45 1484.15 140.58 1465.06 147.57 1434.4 167.2 1421.65 175.32 1407.78 186.89 1383.46 208.89 1374.81 218.13 1363.78 238.36 1348.18 285.85 1359.63 301.03 1383.7 304.65 1449.05 298.9 1479.41 265.1 1513.86 238.89 1555.42 217.54 1586.02 217.78 1662.39 210.25 1702.71 204.5 1734.38 204.85 1812.06 204.85"/>
      <polygon class="st2" points="1543.62 468.36 1519.67 426.26 1508.34 419.45 1499.21 419.45 1485.57 435.4 1483.26 439.9 1490.08 449.04 1504.9 463.86 1521.98 470.68 1540.18 469.49 1543.62 468.36"/>
      <polygon class="st2" points="1653.74 335.42 1630.08 366.32 1632.45 382.44 1637.96 390.51 1644.25 389.15 1662.45 379.78 1671.94 373.02 1675.91 362.28 1676.68 356.89 1668.8 343.49 1656.11 338.09 1653.74 335.42"/>
      <polygon points="1754.24 341.12 1712.08 365.01 1705.26 376.4 1705.26 385.47 1721.21 399.17 1725.78 401.42 1734.85 394.6 1749.68 379.78 1756.5 362.7 1755.37 344.49 1754.24 341.12"/>
      <polygon points="1743.63 427.33 1719.91 458.22 1722.28 474.35 1727.8 482.42 1734.14 481.11 1752.29 471.68 1761.77 464.98 1765.75 454.19 1766.52 448.86 1758.63 435.4 1746 430.06 1743.63 427.33"/>
      <polygon points="1761.77 299.55 1766.81 260.89 1756.73 248.14 1747.9 243.93 1743.1 248.26 1732.07 265.45 1727.2 276.01 1729.16 287.33 1731.18 292.37 1735.92 294.27 1744.69 300.08 1758.33 298.36 1761.77 299.55"/>
      <polygon class="st1" points="1683.32 270.91 1674.07 258.87 1655.57 252.7 1642.23 261.84 1634.29 275.89 1643.6 286.98 1652.85 292.97 1663.46 292.97 1678.05 286.98 1683.32 270.91"/>
      <polygon points="1553.59 376.81 1562.42 382.56 1576.06 380.9 1584.54 343.43 1574.4 330.68 1565.56 326.41 1560.76 330.74 1549.73 347.99 1544.87 358.55 1546.83 369.87 1548.84 374.91 1553.59 376.81"/>
      <line class="st0" x1="1812.06" y1="527.66" x2="1812.06" y2="604.92"/>
      <line class="st0" x1="1812.06" y1="127.59" x2="1812.06" y2="204.85"/>
      <line class="st0" x1="1812.06" y1="82.76" x2="1812.06" y2="127.59"/>
      <line class="st0" x1="1812.06" y1="82.76" x2="1245.13" y2="82.76"/>
      <line class="st0" x1="1245.13" y1="649.75" x2="1812.06" y2="649.75"/>
      <line class="st0" x1="1812.06" y1="604.92" x2="1812.06" y2="649.75"/>
      <line class="st0" x1="1812.06" y1="204.85" x2="1812.06" y2="527.66"/>
      <line class="st0" x1="1245.13" y1="649.75" x2="1245.13" y2="82.76"/>
    </g>
    <g>
      <polygon points="1535.97 1905.98 1541.49 1897.91 1547.83 1899.28 1565.98 1908.7 1575.46 1915.4 1579.44 1926.14 1580.21 1931.53 1572.32 1944.99 1559.69 1950.33 1533.6 1922.1 1535.97 1905.98"/>
      <polygon points="1369 1935.39 1345.28 1904.49 1347.65 1888.36 1353.22 1880.3 1359.51 1881.6 1377.71 1891.03 1387.2 1897.73 1391.17 1908.53 1391.94 1913.86 1384.06 1927.32 1371.37 1932.72 1369 1935.39"/>
      <polygon class="st2" points="1469.62 1969.6 1468.49 1987.8 1425.21 1967.29 1418.39 1955.9 1418.39 1946.83 1434.34 1933.19 1438.91 1930.88 1447.98 1937.7 1462.8 1952.52 1469.62 1969.6"/>
      <polygon class="st4" points="1812.06 1862.39 1812.06 1939.66 1734.38 1939.66 1697.97 1925.48 1678.7 1912.26 1667.85 1894.18 1681.13 1878.52 1707.58 1871.35 1768.24 1862.39 1812.06 1862.39"/>
      <path class="st3" d="M1734.38,1939.66h77.68v322.81h-77.68s-31.66.36-31.66.36l-40.32-5.75-76.37-7.53-30.6.24-41.57-21.35-34.45-26.21-30.36-33.8-65.34-5.75-24.07,3.62-11.44,15.18,15.59,47.5,11.03,20.22,8.66,9.25,24.31,22,13.87,11.56,12.75,8.12,30.66,19.63,19.09,7,13.87,1.13,84.5-.59,70.56,6.94,44.53,6.4,50.34-.59,20.28-.3h43.82v44.83h-566.93v-566.99h566.93v44.83h-43.82s-60.66,8.95-60.66,8.95l-26.45,7.17-13.28,15.65,10.85,18.09,19.27,13.22,36.41,14.17ZM1541.49,1897.91l-5.52,8.06-2.37,16.13,23.72,30.95,15-8.06,4.74-9.43,2.37-9.43-3.97-10.73-9.49-6.7-18.14-9.43-6.34-1.36ZM1345.28,1904.49l23.72,30.89,15.06-8.06,4.74-9.43,2.37-9.37-3.97-10.79-9.49-6.7-18.2-9.43-6.29-1.3-5.57,8.07-2.37,16.13ZM1468.49,1987.8l1.13-18.2-6.82-17.08-14.83-14.82-9.07-6.82-4.57,2.31-15.95,13.64v9.07s6.82,11.39,6.82,11.39l42.1,23.96,1.18-3.44ZM1519.67,2041.05l23.96-42.1-21.64-2.31-17.08,6.82-14.82,14.82-6.82,9.13,2.31,4.51,13.64,15.95h9.13s11.33-6.82,11.33-6.82ZM1630.08,2101l23.66,30.89,15.06-8.06,4.74-9.37,2.37-9.43-3.97-10.73-9.49-6.76-18.2-9.37-6.29-1.36-5.51,8.06-2.37,16.13ZM1712.08,2102.3l42.16,23.9,2.25-21.58-6.82-17.08-14.83-14.82-9.07-6.82-4.57,2.25-15.95,13.7v9.07s6.82,11.38,6.82,11.38ZM1719.91,2009.09l23.72,30.89,15-8.07,4.74-9.43,2.37-9.37-3.97-10.79-9.49-6.7-18.14-9.43-6.35-1.3-5.51,8.06-2.37,16.13ZM1766.81,2206.43l-5.04-38.66-17.08-.53-8.77,5.81-4.74,1.9-2.02,5.04-1.96,11.32,4.86,10.56,11.03,17.2,4.8,4.33,8.84-4.21,10.08-12.75ZM1674.07,2208.44l9.25-12.04-5.28-16.07-14.59-5.99h-10.61s-9.25,5.99-9.25,5.99l-9.31,11.09,7.95,14.05,13.34,9.13,18.5-6.17ZM1562.42,2084.75l-8.84,5.75-4.74,1.9-2.01,5.04-1.96,11.33,4.86,10.56,11.03,17.25,4.8,4.33,8.84-4.27,10.14-12.75-5.1-38.6-17.02-.53Z"/>
      <polygon class="st4" points="1812.06 2262.46 1812.06 2339.73 1768.24 2339.73 1747.96 2340.02 1697.61 2340.61 1653.08 2334.21 1582.52 2327.27 1498.03 2327.87 1484.15 2326.74 1465.06 2319.74 1434.4 2300.12 1421.65 2291.99 1407.78 2280.43 1383.46 2258.43 1374.81 2249.18 1363.78 2228.96 1348.18 2181.46 1359.63 2166.29 1383.7 2162.67 1449.05 2168.42 1479.41 2202.22 1513.86 2228.43 1555.42 2249.77 1586.02 2249.54 1662.39 2257.07 1702.71 2262.82 1734.38 2262.46 1812.06 2262.46"/>
      <polygon class="st2" points="1543.62 1998.95 1519.67 2041.05 1508.34 2047.87 1499.21 2047.87 1485.57 2031.92 1483.26 2027.41 1490.08 2018.28 1504.9 2003.46 1521.98 1996.64 1540.18 1997.82 1543.62 1998.95"/>
      <polygon class="st2" points="1653.74 2131.89 1630.08 2101 1632.45 2084.87 1637.96 2076.81 1644.25 2078.17 1662.45 2087.54 1671.94 2094.3 1675.91 2105.03 1676.68 2110.43 1668.8 2123.83 1656.11 2129.23 1653.74 2131.89"/>
      <polygon points="1754.24 2126.2 1712.08 2102.3 1705.26 2090.92 1705.26 2081.85 1721.21 2068.15 1725.78 2065.9 1734.85 2072.72 1749.68 2087.54 1756.5 2104.62 1755.37 2122.82 1754.24 2126.2"/>
      <polygon points="1743.63 2039.98 1719.91 2009.09 1722.28 1992.96 1727.8 1984.9 1734.14 1986.2 1752.29 1995.63 1761.77 2002.33 1765.75 2013.12 1766.52 2018.46 1758.63 2031.92 1746 2037.26 1743.63 2039.98"/>
      <polygon points="1761.77 2167.77 1766.81 2206.43 1756.73 2219.18 1747.9 2223.39 1743.1 2219.06 1732.07 2201.86 1727.2 2191.31 1729.16 2179.98 1731.18 2174.94 1735.92 2173.04 1744.69 2167.23 1758.33 2168.95 1761.77 2167.77"/>
      <polygon class="st1" points="1683.32 2196.41 1674.07 2208.44 1655.57 2214.61 1642.23 2205.48 1634.29 2191.43 1643.6 2180.34 1652.85 2174.35 1663.46 2174.35 1678.05 2180.34 1683.32 2196.41"/>
      <polygon points="1553.59 2090.5 1562.42 2084.75 1576.06 2086.41 1584.54 2123.89 1574.4 2136.64 1565.56 2140.91 1560.76 2136.58 1549.73 2119.32 1544.87 2108.77 1546.83 2097.44 1548.84 2092.4 1553.59 2090.5"/>
      <line class="st0" x1="1812.06" y1="1939.66" x2="1812.06" y2="1862.39"/>
      <line class="st0" x1="1812.06" y1="2339.73" x2="1812.06" y2="2262.46"/>
      <line class="st0" x1="1812.06" y1="2384.55" x2="1812.06" y2="2339.73"/>
      <line class="st0" x1="1812.06" y1="2384.55" x2="1245.13" y2="2384.55"/>
      <line class="st0" x1="1245.13" y1="1817.57" x2="1812.06" y2="1817.57"/>
      <line class="st0" x1="1812.06" y1="1862.39" x2="1812.06" y2="1817.57"/>
      <line class="st0" x1="1812.06" y1="2262.46" x2="1812.06" y2="1939.66"/>
      <line class="st0" x1="1245.13" y1="1817.57" x2="1245.13" y2="2384.55"/>
    </g>
  </g>
  <g id="Camada_2">
    <g>
      <g>
        <polygon class="st3" points="197.93 528.01 238.25 522.26 314.63 514.79 345.28 514.97 386.79 493.62 421.24 467.41 451.6 433.62 464.05 415 472.59 405.15 473.6 366.25 472.59 327.42 464.05 306.01 437.67 268 413.65 244.58 397.64 232.66 377.06 217.36 314.63 217.78 238.25 210.25 197.93 204.49 166.27 204.85 107.62 204.85 88.59 204.85 88.59 527.66 166.27 527.66 197.93 528.01"/>
        <polygon class="st3" points="132.41 127.59 152.69 127.29 203.03 126.76 247.56 133.1 318.18 140.04 402.62 139.45 416.5 140.63 435.59 147.57 447.86 155.46 466.25 167.26 478.99 175.32 492.87 186.88 517.18 208.88 522.4 214.46 536.87 238.41 541.61 252.82 552.64 288.22 555.37 338.51 555.37 394.06 552.47 446.72 536.87 494.16 525.84 514.38 517.18 523.63 492.87 545.63 478.99 557.19 466.25 565.31 435.59 585 416.5 591.94 402.62 593.06 346.41 592.71 340.89 594.72 327.02 595.85 286.94 595.55 247.56 599.47 203.03 605.81 152.69 605.22 132.41 604.92 88.59 604.92 88.59 649.75 655.52 649.75 655.52 82.82 88.59 82.82 88.59 127.59 132.41 127.59"/>
      </g>
      <polygon class="st4" points="437.67 268 413.65 244.58 397.64 232.66 377.06 217.36 314.63 217.78 238.25 210.25 197.93 204.49 166.27 204.85 107.62 204.85 88.59 204.85 88.59 127.59 132.41 127.59 152.69 127.29 203.03 126.76 247.56 133.1 318.18 140.04 402.62 139.45 416.5 140.63 435.59 147.57 447.86 155.46 466.25 167.26 478.99 175.32 492.87 186.88 517.18 208.88 522.4 214.46 536.87 238.41 541.61 252.82 552.64 288.22 555.37 338.5 555.37 394.06 552.47 446.72 536.87 494.16 525.84 514.38 517.18 523.63 492.87 545.63 478.99 557.19 466.25 565.31 435.59 585 416.5 591.94 402.62 593.06 346.41 592.71 340.89 594.72 327.02 595.85 286.94 595.55 247.56 599.47 203.03 605.81 152.69 605.22 132.41 604.92 88.59 604.92 88.59 527.66 166.27 527.66 197.93 528.01 238.25 522.26 314.63 514.79 345.28 514.97 386.79 493.62 421.24 467.41 451.6 433.62 464.05 415 472.59 405.15 473.6 366.25 472.59 327.42 464.05 306.01 437.67 268"/>
      <polygon points="182.04 361.75 170.95 369.64 121.38 379.95 112.48 368.86 117.23 356.23 126.72 350.66 140.95 349.12 164.61 351.49 182.04 361.75"/>
      <polygon points="333.54 412.33 320.85 406.28 316.82 399.28 314.86 392.29 318.18 384.28 326.19 379.3 341.55 372.3 346.82 371.29 351.51 377.28 353.52 389.32 333.54 412.33"/>
      <polygon class="st2" points="381.93 420.15 387.44 400.17 402.56 392.7 413.53 392.7 423.14 400.17 432.74 413.93 424.5 431.42 410.75 442.81 391.53 435.16 381.93 420.15"/>
      <polygon points="108.87 274.82 108.51 268.65 115.33 251.57 130.1 236.75 139.23 229.93 143.79 232.19 159.69 245.88 159.69 254.95 152.87 266.34 148 269.13 108.87 274.82"/>
      <polygon class="st2" points="195.08 271.2 202.91 277.96 210.8 290.3 204.04 306.01 192.77 316.27 177.12 309.39 169.23 295.93 173.74 277.96 186.07 271.2 195.08 271.2"/>
      <polygon points="280.83 454.78 274.01 466.17 231.91 490.07 229.6 468.42 236.41 451.34 251.24 436.58 260.37 429.7 264.88 432.01 280.83 445.65 280.83 454.78"/>
      <polygon points="261.73 385.76 248.45 394.9 229.89 388.73 220.64 376.69 225.92 360.62 240.51 354.63 251.12 354.63 260.37 360.62 269.68 371.71 261.73 385.76"/>
      <polygon class="st2" points="154.35 437.88 159.92 445.95 162.23 462.08 138.58 492.97 123.51 484.91 118.77 475.48 116.4 466.11 120.37 455.32 129.86 448.62 148.06 439.19 154.35 437.88"/>
      <polygon points="259.36 294.33 273.18 295.69 293.1 256.73 286.82 248.85 284.43 246.12 284.44 246.12 284.39 246.08 284.12 245.77 277.69 241.26 263.22 247.07 255.86 253.35 252.6 261.54 248.75 273.1 246.85 280.81 259.36 294.33"/>
      <g>
        <polygon points="395.21 267.29 369.06 278.08 403.16 265.98 395.21 267.29"/>
        <polygon points="369.06 278.08 360.34 282.82 355.36 293.14 358.33 302.21 364.32 311.29 383.23 319.05 389.87 312.41 413.12 289.29 408.79 272.27 403.16 265.98 396.64 266.99 369.06 278.08"/>
      </g>
    </g>
    <rect class="st3" x="88.59" y="1817.62" width="566.93" height="566.93"/>
    <rect class="st3" x="88.59" y="661.09" width="566.93" height="566.93"/>
    <rect class="st3" x="666.86" y="82.82" width="566.93" height="566.93"/>
    <g>
      <g>
        <polygon class="st3" points="1354.47 1106.28 1394.79 1100.53 1471.16 1093.06 1501.82 1093.24 1543.33 1071.89 1577.78 1045.68 1608.14 1011.88 1620.59 993.26 1629.13 983.42 1630.14 944.52 1629.13 905.68 1620.59 884.28 1594.2 846.27 1570.19 822.85 1554.18 810.93 1533.6 795.63 1471.16 796.04 1394.79 788.51 1354.47 782.76 1322.8 783.12 1264.16 783.12 1245.13 783.12 1245.13 1105.93 1322.8 1105.93 1354.47 1106.28"/>
        <polygon class="st3" points="1288.94 705.86 1309.22 705.56 1359.57 705.02 1404.1 711.37 1474.72 718.31 1559.16 717.71 1573.03 718.9 1592.13 725.84 1604.4 733.72 1622.78 745.53 1635.53 753.59 1649.41 765.15 1673.72 787.15 1678.94 792.72 1693.41 816.68 1698.15 831.09 1709.18 866.49 1711.9 916.77 1711.9 972.33 1709 1024.99 1693.41 1072.43 1682.38 1092.64 1673.72 1101.89 1649.41 1123.89 1635.53 1135.46 1622.78 1143.58 1592.13 1163.27 1573.03 1170.2 1559.16 1171.33 1502.94 1170.97 1497.43 1172.99 1483.56 1174.12 1443.47 1173.82 1404.1 1177.73 1359.57 1184.08 1309.22 1183.49 1288.94 1183.19 1245.13 1183.19 1245.13 1228.02 1812.06 1228.02 1812.06 661.09 1245.13 661.09 1245.13 705.86 1288.94 705.86"/>
      </g>
      <polygon class="st4" points="1594.2 846.27 1570.19 822.85 1554.18 810.93 1533.6 795.63 1471.16 796.04 1394.79 788.51 1354.47 782.76 1322.8 783.12 1264.16 783.12 1245.13 783.12 1245.13 705.86 1288.94 705.86 1309.22 705.56 1359.57 705.02 1404.1 711.37 1474.72 718.31 1559.16 717.71 1573.03 718.9 1592.13 725.84 1604.4 733.72 1622.78 745.53 1635.53 753.59 1649.41 765.15 1673.72 787.15 1678.94 792.72 1693.41 816.68 1698.15 831.09 1709.18 866.49 1711.9 916.77 1711.9 972.33 1709 1024.99 1693.41 1072.43 1682.38 1092.64 1673.72 1101.89 1649.41 1123.89 1635.53 1135.46 1622.78 1143.58 1592.13 1163.27 1573.03 1170.2 1559.16 1171.33 1502.94 1170.97 1497.43 1172.99 1483.56 1174.12 1443.47 1173.82 1404.1 1177.73 1359.57 1184.08 1309.22 1183.49 1288.94 1183.19 1245.13 1183.19 1245.13 1105.93 1322.8 1105.93 1354.47 1106.28 1394.79 1100.53 1471.16 1093.06 1501.82 1093.24 1543.33 1071.89 1577.78 1045.68 1608.14 1011.88 1620.59 993.26 1629.13 983.42 1630.14 944.52 1629.13 905.68 1620.59 884.28 1594.2 846.27"/>
      <polygon points="1338.58 940.01 1327.49 947.9 1277.92 958.22 1269.02 947.13 1273.77 934.5 1283.25 928.93 1297.48 927.39 1321.14 929.76 1338.58 940.01"/>
      <polygon points="1490.08 990.6 1477.39 984.55 1473.36 977.55 1471.4 970.55 1474.72 962.55 1482.73 957.57 1498.08 950.57 1503.36 949.56 1508.04 955.55 1510.06 967.59 1490.08 990.6"/>
      <polygon class="st2" points="1538.46 998.42 1543.98 978.44 1559.1 970.97 1570.07 970.97 1579.68 978.44 1589.28 992.2 1581.04 1009.69 1567.28 1021.07 1548.07 1013.42 1538.46 998.42"/>
      <polygon points="1265.4 853.09 1265.05 846.92 1271.87 829.84 1286.63 815.02 1295.76 808.2 1300.33 810.45 1316.22 824.15 1316.22 833.22 1309.4 844.61 1304.54 847.4 1265.4 853.09"/>
      <polygon class="st2" points="1351.62 849.47 1359.45 856.23 1367.33 868.57 1360.57 884.28 1349.31 894.54 1333.65 887.66 1325.77 874.2 1330.27 856.23 1342.61 849.47 1351.62 849.47"/>
      <polygon points="1437.36 1033.05 1430.54 1044.44 1388.44 1068.33 1386.13 1046.69 1392.95 1029.61 1407.77 1014.85 1416.91 1007.97 1421.41 1010.28 1437.36 1023.92 1437.36 1033.05"/>
      <polygon points="1418.27 964.03 1404.99 973.16 1386.43 967 1377.18 954.96 1382.45 938.89 1397.04 932.9 1407.65 932.9 1416.91 938.89 1426.22 949.98 1418.27 964.03"/>
      <polygon class="st2" points="1310.88 1016.15 1316.46 1024.22 1318.77 1040.35 1295.11 1071.24 1280.05 1063.17 1275.31 1053.75 1272.93 1044.38 1276.91 1033.58 1286.39 1026.88 1304.6 1017.46 1310.88 1016.15"/>
      <polygon points="1415.9 872.6 1429.71 873.96 1449.64 835 1443.35 827.12 1440.96 824.39 1440.98 824.39 1440.93 824.35 1440.66 824.04 1434.22 819.53 1419.75 825.34 1412.4 831.62 1409.14 839.81 1405.28 851.37 1403.39 859.08 1415.9 872.6"/>
      <g>
        <polygon points="1551.75 845.56 1525.6 856.35 1559.69 844.25 1551.75 845.56"/>
        <polygon points="1525.6 856.35 1516.88 861.09 1511.9 871.41 1514.86 880.48 1520.85 889.55 1539.77 897.32 1546.41 890.68 1569.65 867.56 1565.33 850.54 1559.69 844.25 1553.17 845.26 1525.6 856.35"/>
      </g>
    </g>
    <g>
      <g>
        <polygon class="st3" points="1124.45 782.83 1084.13 788.58 1007.75 796.05 977.1 795.87 935.59 817.22 901.14 843.43 870.78 877.22 858.33 895.84 849.79 905.69 848.78 944.59 849.79 983.42 858.33 1004.83 884.71 1042.84 908.73 1066.26 924.74 1078.18 945.31 1093.48 1007.75 1093.06 1084.13 1100.59 1124.45 1106.35 1156.11 1105.99 1214.76 1105.99 1233.79 1105.99 1233.79 783.18 1156.11 783.18 1124.45 782.83"/>
        <polygon class="st3" points="1189.97 1183.25 1169.69 1183.55 1119.35 1184.08 1074.82 1177.74 1004.19 1170.8 919.76 1171.39 905.88 1170.21 886.79 1163.27 874.51 1155.38 856.13 1143.58 843.38 1135.52 829.51 1123.96 805.2 1101.96 799.98 1096.38 785.51 1072.43 780.77 1058.02 769.74 1022.62 767.01 972.34 767.01 916.78 769.91 864.12 785.51 816.68 796.54 796.46 805.2 787.21 829.51 765.21 843.38 753.65 856.13 745.53 886.79 725.84 905.88 718.9 919.76 717.78 975.97 718.13 981.48 716.12 995.36 714.99 1035.44 715.29 1074.82 711.37 1119.35 705.03 1169.69 705.62 1189.97 705.92 1233.79 705.92 1233.79 661.09 666.86 661.09 666.86 1228.02 1233.79 1228.02 1233.79 1183.25 1189.97 1183.25"/>
      </g>
      <polygon class="st4" points="884.71 1042.84 908.73 1066.26 924.74 1078.18 945.31 1093.48 1007.75 1093.06 1084.13 1100.59 1124.45 1106.35 1156.11 1105.99 1214.76 1105.99 1233.79 1105.99 1233.79 1183.25 1189.97 1183.25 1169.69 1183.55 1119.35 1184.08 1074.82 1177.74 1004.19 1170.8 919.76 1171.39 905.88 1170.21 886.79 1163.27 874.51 1155.38 856.13 1143.58 843.38 1135.52 829.51 1123.96 805.2 1101.96 799.98 1096.38 785.51 1072.43 780.77 1058.02 769.74 1022.62 767.01 972.34 767.01 916.78 769.91 864.12 785.51 816.68 796.54 796.46 805.2 787.21 829.51 765.21 843.38 753.65 856.13 745.53 886.79 725.84 905.88 718.9 919.76 717.78 975.97 718.13 981.48 716.12 995.36 714.99 1035.44 715.29 1074.82 711.37 1119.35 705.03 1169.69 705.62 1189.97 705.92 1233.79 705.92 1233.79 783.18 1156.11 783.18 1124.45 782.83 1084.13 788.58 1007.75 796.05 977.1 795.87 935.59 817.22 901.14 843.43 870.78 877.22 858.33 895.84 849.79 905.69 848.78 944.59 849.79 983.42 858.33 1004.83 884.71 1042.84"/>
      <polygon points="1140.34 949.09 1151.43 941.2 1201 930.89 1209.89 941.98 1205.15 954.61 1195.66 960.18 1181.43 961.72 1157.77 959.35 1140.34 949.09"/>
      <polygon points="988.84 898.51 1001.53 904.56 1005.56 911.56 1007.51 918.55 1004.19 926.56 996.19 931.54 980.83 938.54 975.55 939.55 970.87 933.56 968.86 921.52 988.84 898.51"/>
      <polygon class="st2" points="940.45 890.69 934.94 910.67 919.82 918.14 908.85 918.14 899.24 910.67 889.64 896.91 897.88 879.42 911.63 868.03 930.84 875.68 940.45 890.69"/>
      <polygon points="1213.51 1036.02 1213.87 1042.19 1207.05 1059.27 1192.28 1074.09 1183.15 1080.91 1178.58 1078.65 1162.69 1064.96 1162.69 1055.89 1169.51 1044.5 1174.38 1041.71 1213.51 1036.02"/>
      <polygon class="st2" points="1127.29 1039.64 1119.47 1032.88 1111.58 1020.54 1118.34 1004.83 1129.61 994.57 1145.26 1001.45 1153.15 1014.91 1148.64 1032.88 1136.31 1039.64 1127.29 1039.64"/>
      <polygon points="1041.55 856.06 1048.37 844.67 1090.47 820.77 1092.78 842.42 1085.96 859.5 1071.14 874.26 1062.01 881.14 1057.5 878.83 1041.55 865.19 1041.55 856.06"/>
      <polygon points="1060.64 925.08 1073.93 915.95 1092.49 922.11 1101.74 934.15 1096.46 950.22 1081.87 956.21 1071.26 956.21 1062.01 950.22 1052.7 939.13 1060.64 925.08"/>
      <polygon class="st2" points="1168.03 872.96 1162.46 864.89 1160.14 848.76 1183.8 817.87 1198.86 825.93 1203.61 835.36 1205.98 844.73 1202.01 855.52 1192.52 862.22 1174.32 871.65 1168.03 872.96"/>
      <polygon points="1063.01 1016.51 1049.2 1015.15 1029.28 1054.11 1035.56 1061.99 1037.95 1064.72 1037.93 1064.72 1037.99 1064.76 1038.26 1065.07 1044.69 1069.58 1059.16 1063.77 1066.51 1057.49 1069.78 1049.3 1073.63 1037.74 1075.53 1030.03 1063.01 1016.51"/>
      <g>
        <polygon points="927.17 1043.55 953.32 1032.76 919.22 1044.86 927.17 1043.55"/>
        <polygon points="953.32 1032.76 962.03 1028.02 967.02 1017.7 964.05 1008.63 958.06 999.55 939.15 991.79 932.5 998.43 909.26 1021.55 913.59 1038.57 919.22 1044.86 925.74 1043.85 953.32 1032.76"/>
      </g>
    </g>
    <rect class="st3" x="666.86" y="1817.62" width="566.93" height="566.93"/>
    <rect class="st3" x="1245.13" y="1239.36" width="566.93" height="566.93"/>
    <rect class="st3" x="1823.39" y="1239.36" width="566.93" height="566.93"/>
    <rect class="st3" x="1823.39" y="661.09" width="566.93" height="566.93"/>
  </g>
</svg>