<?xml version="1.0" encoding="UTF-8"?>
<svg id="Camada_1" xmlns="http://www.w3.org/2000/svg" version="1.1" viewBox="0 0 566.93 566.93">
  <!-- Generator: Adobe Illustrator 29.5.0, SVG Export Plug-In . SVG Version: 2.1.0 Build 137)  -->
  <defs>
    <style>
      .st0 {
        fill: #90482f;
      }

      .st1 {
        fill: #d6ad43;
      }

      .st2 {
        fill: #262523;
      }
    </style>
  </defs>
  <rect class="st1" x=".88" y=".1" width="566.93" height="566.93"/>
  <path class="st0" d="M184.94,129.09s-26.52-9.24-33.15-7.48-13.26-1.76-42.43,22.01c-29.17,23.77-36.24,90.25-28.29,110.5,7.96,20.25,16.79,38.74,42.87,53.71,26.08,14.97,83.97-9.69,92.81-18.05,8.84-8.36,25.19-31.7,28.29-44.46,3.09-12.77,2.21-34.78,0-46.22s-29.17-54.15-60.11-70Z"/>
  <path class="st0" d="M302.5,97.39s-8.84-22.45,11.05-35.66,14.58-12.33,42.87-13.21c28.29-.88,53.66-5.28,70.46,29.06l18.37,47.98s-15.91,54.59-39.78,56.79c-23.87,2.2-33.15,8.8-57.9-7.92s-51.27-58.55-45.08-77.04Z"/>
  <path class="st0" d="M445.25,349.64s14.58-12.77,26.52-13.21c11.93-.44,33.15,4.84,40.22,13.21,7.07,8.36,27.4,36.98,22.1,56.79-5.3,19.81-1.77,35.22-22.54,51.07-20.77,15.85-46.85,17.17-57.01,9.69-10.16-7.48-20.77-16.29-23.87-24.21-3.09-7.92-8.4-21.6-7.51-38.97.88-17.38,5.75-46.43,22.1-54.36Z"/>
  <path class="st0" d="M174.78,514.73s-12.37,7.92-20.77,10.57c-8.4,2.64-7.96,9.24-22.54,0-14.58-9.24-18.56-12.33-29.17-27.73-10.61-15.41-20.77-30.82-21.21-43.14s-3.54-22.45,1.77-28.17c5.3-5.72,7.96-4.84,16.35-11.45,8.4-6.6,12.37-7.92,17.68-12.77,5.3-4.84,3.98-6.6,19.45-4.84,15.47,1.76,32.7,5.28,47.73,16.29,15.03,11.01,26.52,11.89,33.15,35.66,6.63,23.77,11.93,24.65-3.54,36.98s-38.89,28.61-38.89,28.61Z"/>
  <path class="st2" d="M54.66,73.57s-11.45-5.49-13.57-13.09c-2.12-7.6-3.82-31.67,18.23-24.92,22.05,6.76,11.78,18.41,11.78,18.41,0,0-14.13,22.2-16.44,19.6Z"/>
  <path class="st2" d="M107.93,113.12s-17.09-6.85-22.98-22.3,16.89-24.75,23.67-25.24,16.2,4.4,13.65,18.78c-2.55,14.38-4.91,15.07-6.09,20.93s-3.44,9.49-8.25,7.83Z"/>
  <path class="st2" d="M48.61,150.88s-4.52,0-7.86-4.21c-3.34-4.21-9.13-10.66-9.53-15.16s1.28-7.73,3.24-11.15,2.65-5.67,7.95-5.48c5.3.2,7.37-.01,7.37-.01,0,0,5.89-.87,7.56,1.87s5.21,5.97,5.4,10.08-4.42,10.47-4.42,10.47c-3.44,5.18-4.22,8.9-5.4,11.35s-4.32,2.25-4.32,2.25Z"/>
  <path class="st2" d="M192.83,88.05c-.22-.7-3.7-12.68-3.47-16.36s1.62-16.36,3.47-21.67,2.31-7.61,10.88-7.14c8.56.46,17.59-1.61,18.97,9.45,1.39,11.06,2.31,13.6,2.78,17.98s3.7,9.45-2.31,15.21c-6.02,5.76-8.79,11.06-17.12,11.29-8.33.23-11.09-1.95-13.19-8.76Z"/>
  <path class="st2" d="M241.42,121.47s.23-11.99-1.16-17.06-.93-10.37,4.4-12.22,5.78-2.07,10.18-5.53,10.64-6.25,16.2,2.87c5.55,9.12,10.18,17.88,5.55,25.02-4.63,7.14-5.32,12.22-14.58,16.13s-14.58,4.84-17.59,1.38c-3.01-3.46-4.63-5.07-3.01-10.6Z"/>
  <path class="st2" d="M455.92,250.08c-.69-.46-11.11-7.61-12.73-13.37-1.62-5.76-1.16-14.98,1.62-19.82,2.78-4.84,10.64-14.98,23.14-8.3,12.49,6.68,24.53,19.13,17.12,31.81-7.4,12.68-8.56,13.6-8.56,13.6,0,0-3.7,4.84-9.26,2.54-5.55-2.3-11.34-6.45-11.34-6.45Z"/>
  <path class="st2" d="M501.27,249.62v-15.21c0-10.14-2.78-11.99,6.25-11.29,9.02.69,14.58-.46,22.44,10.83s14.81,20.05,9.49,24.89c-5.32,4.84-11.57,8.76-15.97,9.91s-9.02,3.46-12.73-2.3c-3.7-5.76-9.49-9.45-9.49-16.83Z"/>
  <path class="st2" d="M420.29,406.12s-3.01-8.07,0-19.36,10.18-28.12,15.73-32.73c5.55-4.61,14.58-5.07,19.44-3.69,4.86,1.38,5.09,3.69,4.63,9.45-.46,5.76-1.62,10.37-1.39,14.52.23,4.15-.93,11.06-7.64,14.98-6.71,3.92-12.03,9.45-15.04,13.14-3.01,3.69-5.32,7.14-7.64,8.76-2.31,1.61-5.32,1.15-8.1-5.07Z"/>
  <path class="st2" d="M438.1,425.02s1.62-9.68,6.48-14.75c4.86-5.07,5.78-6.91,5.78-6.91,0,0,6.11-3,9.88,2.77s4.46,14.75,4.46,18.9-.69,8.53-6.25,12.22c-5.55,3.69-13.42,4.61-17.12,1.38s-4.4-7.84-3.24-13.6Z"/>
  <path class="st2" d="M467.49,477.8c9.72,3,18.51,3,25.22,1.15,6.71-1.84,13.42-8.3,16.89-13.83,3.47-5.53,5.09-10.37,3.47-14.75s-6.25-6.91-10.18-8.3c-3.93-1.38-11.57.69-11.57.69,0,0,0-12.45-10.18-12.22-10.18.23-12.49,11.52-14.11,15.9-1.62,4.38-1.85,2.77-5.32,5.99-3.47,3.23-8.56,10.6-8.56,10.6,0,0-4.16,7.14,1.39,9.68,5.55,2.54,12.96,5.07,12.96,5.07Z"/>
  <path class="st2" d="M495.26,367.86c.71.94,1.85,2.07-1.85,6.91-3.7,4.84-8.04,9.91-10.73,16.36-2.69,6.45-2.86,12.91,0,14.52,2.86,1.61,2.86,3.69,11.66,2.77,8.79-.92,12.73-3.92,17.12-12.22,1.62-3.46,4.63,2.77,4.63,2.77,0,0,1.62,1.61,3.7,1.84,2.08.23,11.11-.92,13.42-.46s5.09-2.54,6.48-8.76c1.39-6.22,4.86-15.9-3.93-23.74-8.79-7.84-35.17-26.04-35.86-25.81s-6.48-4.84-6.94,2.77c-.46,7.61-.23,8.07,0,12.91.23,4.84.93,8.3,2.31,10.14Z"/>
  <path class="st2" d="M327.73,487.25s-5.32-3.46,0-10.37c5.32-6.91,7.17-8.76,13.65-9.45s15.97-3.69,20.13,2.07c4.16,5.76,7.17,13.37,4.86,22.59-2.31,9.22-3.47,15.44-13.65,10.14-10.18-5.3-23.6-13.14-24.99-14.98Z"/>
  <path class="st2" d="M322.64,413.5c3.61-2.23,7.17-5.53,10.88-13.6,3.7-8.07,10.41-4.84,10.41-4.84,0,0,6.48,3,14.11,10.37,7.64,7.38,8.79,7.14,7.7,9.45-1.1,2.3-.99,4.15-.06,16.83.93,12.68-9.02,11.29-9.02,11.29l-23.93-7.28-1.06-.32s-7.17-2.54-9.02-4.84c-1.85-2.3-11.57-9.91,0-17.05Z"/>
  <path class="st2" d="M312.69,380.82s-3.7,2.94-7.87-1.21c-4.16-4.15-8.79-5.53-15.27-16.13-6.48-10.6-8.79-16.59-1.39-20.51,7.4-3.92,8.35-4.84,9.96-6.91,1.61-2.07,13.18-8.3,17.34-2.07,4.16,6.22,8.56,12.22,9.72,20.05,1.16,7.84,1.16,7.14-1.85,11.06s-4.86,7.54-5.32,9.53-2.32,5.19-5.32,6.19Z"/>
  <path class="st2" d="M73.21,461.21c.29-1.52.37-2.51.37-2.51,0,0-.37-.94,6.81-1.63,7.17-.69,13.42-2.3,21.75-1.15,8.33,1.15,19.44,5.3,19.44,5.3,0,0,8.79,4.84,1.62,8.53-7.17,3.69-13.19,8.07-12.96,13.83s6.71,12.68,8.1,15.9,6.48,13.14.69,14.98c-5.78,1.84-11.34,1.84-12.73,3-1.39,1.15-7.64,3.69-13.65-3.23s-11.34-10.37-11.8-17.98-1.85-12.45-4.16-18.44c-2.31-5.99-4.63-10.6-3.47-16.59Z"/>
  <path class="st2" d="M129.03,421.08c.38.15,6.63,2.56,5.41,3.91s-.95,3.64-3.52,4.18-4.19-.81-7.57,2.96c-3.38,3.77-4.6,5.79-2.97,8.35s7.03,7.27,11.76,6.47c4.73-.81,8.38-1.89,9.6-5.52s.54-7.45,2.84-7.36c2.3.09,10.14,4.53,12.98,5.75s9.74,3.5,14.6-.13,10.01-6.73,12.44-13.07c2.43-6.33,3.79-10.78-1.76-15.35-5.54-4.58-24.88-16.57-28.26-16.16-3.38.4-3.52.4-7.03,1.21-3.52.81-5.54-.13-8.38.13-2.84.27-7.84,1.35-12.17,9.16-4.33,7.81-4.87,12.66,2.03,15.49Z"/>
  <path class="st2" d="M164.73,509.85s-4.87-6.33,0-14.41c4.87-8.08,7.57-13.33,0-15.35s-19.88,1.35-19.2-7.41,1.89-19.66,15.82-15.09c13.93,4.58,21.64,11.99,31.64,8.89,10.01-3.1,14.47-12.53,20.15-12.66,5.68-.13,9.6,3.1,10.14,10.37s-.14,17.24-5.54,21.82c-5.41,4.58-41.78,28.55-45.97,30.31-3.79-2.69-7.03-6.47-7.03-6.47Z"/>
  <path class="st2" d="M40.12,368.97s7.39,11.8,9.1,15.74,6.01,10.64,12.19,10.37c6.18-.28,11.51-3.87,13.91-7.29s6.35-8.9-.69-26.18c-7.04-17.28-17.69-20.53-24.73-15.91s-8.07,8.38-10.65,11.12-.86,4.79-.69,6.67.74,4.18,1.55,5.47Z"/>
  <path class="st2" d="M20.89,416.53s1.03-10.78,1.2-13.34,1.37-4.28,5.5-5.3c4.12-1.03,8.07-5.3,13.91,0,5.84,5.3,14.6,13.34,16.75,18.65,2.15,5.3,5.41,10.61-.95,15.74-6.35,5.13-9.16,10.44-16.35,9.41-7.18-1.03-21.03-14.75-20.06-25.15Z"/>
  <path class="st2" d="M122.73,315.94s7.73,5.65,21.3,9.92c13.57,4.28,29.88,5.13,40.88,2.74,10.99-2.4,14.77-10.95,19.75-17.96s7.39-12.66,7.73-15.4-2.06-3.76-4.64-10.61c-2.58-6.84-8.93-9.41-13.22-8.9-4.29.51-8.93,1.37-14.6.51-5.67-.86-1.2-9.92-6.35-15.05-5.15-5.13-12.71-2.74-18.72,0-6.01,2.74-9.96,16.42-11.16,21.04s-2.58,4.79-8.42,9.41c-5.84,4.62-5.67,5.65-5.67,9.58s-5.15,5.3-5.15,5.3c0,0-4.98,2.05-1.72,9.41Z"/>
  <path class="st2" d="M100.41,262.56s1.72-14.37,2.75-19.16,1.55-8.73,4.64-12.32c3.09-3.59,4.98-7.01,6.35-8.9s3.61-3.42,9.62-1.2c6.01,2.22,11.16,3.42,12.19,8.9,1.03,5.47,2.92,17.45,2.58,23.61-.34,6.16.86,13.69-8.93,16.59s-16.66,2.05-21.98,0-6.87-3.59-7.21-7.53Z"/>
  <path class="st2" d="M78.6,229.54s-4.12-8.73-4.81-11.98-1.72-8.73,0-20.53,3.61-14.2,7.21-21.56c3.61-7.36,7.73-14.54,12.19-20.53s7.07-9.92,10.15-10.44,6,.17,7.2-.86c1.2-1.03,11.34-1.03,14.6.86s7.56,2.4,6.35,9.58-3.09,19.5-2.92,24.12c.17,4.62,3.43,8.9-4.81,14.03s-23.01,15.05-24.73,19.16-4.47,12.15-7.73,14.71-9.67,10.32-12.71,3.42Z"/>
  <path class="st2" d="M176.84,185.92s8.42-1.03,10.3-5.99,1.89-3.42-1.89-11.98c-3.78-8.55-6.35-41.06.52-39.01,6.87,2.05,40.7,21.56,47.57,26s15.11,11.46,18.72,16.25,5.32,14.71,4.81,21.04,1.37,18.65-5.15,21.04c-6.53,2.4-15.97,4.45-28.68.86-12.71-3.59-19.92-8.9-21.47-5.99-1.55,2.91.52,7.01-1.37,10.26s-4.12,11.12-15.29,11.63-20.09,1.2-20.95-9.07.69-17.96,4.64-25.32c3.95-7.36,4.38-8.82,8.24-9.75Z"/>
  <path class="st2" d="M338.83,47.12s5.86-2.43,14.99-4.3c9.12-1.87,28.02-3.81,33.88-4.46,5.86-.65,22.48,9.41,26.39,15.58,3.91,6.17,2.61,4.22,0,6.49s-10.75,11.68-18.24,14.6c-7.49,2.92-11.08,4.22-23.46-2.6s-39.92-23.16-33.56-25.31Z"/>
  <path class="st2" d="M312.77,88.98s-16.29,8.82-15.64,19.82,2.26,22.69,7.81,29.83,15.32,16.87,23.14,21.42c5.54-.65,5.21-13.3,6.52-19.15,1.3-5.84,3.98-17.85,3.29-21.74s.94-6.81-3.62-11.68c-4.56-4.87-16.8-21.56-21.5-18.5Z"/>
  <path class="st2" d="M354.14,88.61s1.63-12.61,14.33-7.09c12.71,5.52,11.4,4.87,16.29,8.76s13.36,12.06,7.82,18.52c-5.54,6.46-10.85,11.01-15.36,11.98s-8.75-.27-13.96-11.98c-5.21-11.71-9.99-17.19-9.12-20.19Z"/>
  <path class="st2" d="M350.56,128.85s10.42-7.75,18.24-1.91c7.82,5.84,16.61,12.9,17.92,16.02,1.3,3.12,6.19,6.37-3.58,14.8-9.77,8.44-14.66,12.98-20.52,3.89-5.86-9.09-12.05-17.2-12.05-17.2,0,0-6.37-12.41,0-15.62Z"/>
  <path class="st2" d="M403.34,169.78s3.91-4.22,0-13.3c-3.91-9.09-12.71-12.66-7.49-20.44,5.21-7.79,12.05-4.87,22.15-4.54,10.1.32,9.12-6.17,11.73-9.09s15.96,0,15.96,0c0,0,4.24,9.09,5.54,15.58s3.58,16.55-2.93,23.36c-6.52,6.81-11.73,13.75-21.5,18.23-9.77,4.48-14.01,6.43-18.24,4.16-.98-6.17-9.77-9.41-5.21-13.95Z"/>
</svg>