<?xml version="1.0" encoding="UTF-8"?>
<svg id="Camada_2" xmlns="http://www.w3.org/2000/svg" version="1.1" viewBox="0 0 566.93 566.93">
  <!-- Generator: Adobe Illustrator 29.5.0, SVG Export Plug-In . SVG Version: 2.1.0 Build 137)  -->
  <defs>
    <style>
      .st0 {
        fill: #93621d;
      }

      .st1 {
        fill: #fff;
      }

      .st2 {
        fill: #deca8b;
      }

      .st3 {
        fill: #9e6933;
      }
    </style>
  </defs>
  <rect class="st2" x="-3.68" y=".95" width="566.93" height="566.93" transform="translate(559.56 568.83) rotate(-180)"/>
  <g id="Camada_3">
    <polygon class="st1" points="563.24 .95 279.78 567.88 -3.68 .95 563.24 .95"/>
  </g>
  <polygon class="st3" points="563.24 567.88 279.78 .95 -3.68 567.88 563.24 567.88"/>
  <path class="st1" d="M322.01,537.86h-66.92s15.21-157.52,15.21-157.52l-64.63,10.3v-51.48s58.17,13.38,58.17,13.38l-29.34-46.33s-18.53-28.83,9.27-59.71c27.8-30.89,52.51-24.71,78.25-9.27,25.74,15.44,24.71,54.57,16.47,70.01s-30.89,44.27-30.89,44.27l59.71-11.33v49.42s-61.77-8.44-61.77-8.44l16.47,156.7Z"/>
  <path class="st0" d="M258.72,295.41l27.07,43.32,28.88-37.9s11.69-12.39,4.51-27.98c-8.98-19.48-28.87-23.46-28.87-23.46,0,0-22.57-3.61-31.6,15.34-9.02,18.95,0,30.68,0,30.68Z"/>
</svg>