<?xml version="1.0" encoding="UTF-8"?>
<svg id="Camada_1" xmlns="http://www.w3.org/2000/svg" version="1.1" viewBox="0 0 3631.3 3651.03">
  <!-- Generator: Adobe Illustrator 29.5.0, SVG Export Plug-In . SVG Version: 2.1.0 Build 137)  -->
  <defs>
    <style>
      .st0 {
        fill: #c37a2e;
      }

      .st1 {
        fill: #889f82;
      }

      .st2 {
        fill: #e08e82;
      }

      .st3 {
        fill: #e3bbb1;
      }

      .st4 {
        fill: #691b18;
      }

      .st5 {
        fill: #522019;
      }

      .st6 {
        fill: #d6ad43;
      }

      .st7 {
        fill: #6d1d1a;
      }

      .st8 {
        fill: #701e13;
      }
    </style>
  </defs>
  <g id="Camada_4">
    <path class="st6" d="M2378.53,2983.61v566.93h-565.93v-566.93h565.93ZM2253.33,3013.89c-11.35,1.44-24.86,8.29-30.58,18.41-5.74,10.13-3.33,15.35-4.2,25.79-1.61,19.33-4.79,49.77,16.33,60.68,35.53,18.35,60.89-39.14,59.66-66.66-1.06-23.81-15.97-41.43-41.2-38.22h0ZM1944.34,3017.86c-18.27,2.49-32.67,15.38-33.79,34.29-.13,2.17,1.18,4.2,1.04,5.95-1.49,18.84-4.83,27.94,1.98,47.01,3.82,10.7,11.51,19.19,23.51,20.49,28.56,3.1,42.92-31.92,48.45-54.55,7.1-29.07-8.2-57.67-41.18-53.18h-.01ZM1899.94,3410.2c16.46,17.32,39.22,11.34,52.08-6.71,8.56-12.03,9.67-27.22,13.23-40.77,9.28-35.39,17.49-61.01,19.32-98.66.97-19.91-1.57-72.66-9.13-89.84-13.22-30.02-46.97-32.95-65.27-5.56-20.98,31.4-33.46,85.91-38.45,123.53-2.08,15.72,1.8,53.46,5.11,69.63,2.21,10.78,15.74,40.63,23.11,48.38h0ZM2239.9,3161.94c-10.3,10.51-23.72,39.41-27.67,53.82-9.92,36.12-14.83,81.89-13.71,119.35.82,27.54,6.34,47.56,21.24,70.75,9.39,14.61,30.1,21.43,44.82,10.22,20.73-15.79,21.89-43.7,28.03-66.96,1.45-5.48,4.37-11.48,5.88-17.11,11.64-43.21,11.81-96.32,5.8-140.67-4.33-31.97-38.53-55.79-64.38-29.4h-.01ZM1966.92,3483.21c0-21.11-17.11-38.22-38.22-38.22s-38.22,17.11-38.22,38.22,17.11,38.22,38.22,38.22,38.22-17.11,38.22-38.22h0ZM2248.32,3446.83c-19.74,2.14-35.95,18.99-34.75,39.2,3,50.39,83.1,46.59,77.96-5.98-2.13-21.77-22.07-35.51-43.21-33.22h0Z"/>
    <rect class="st0" x="2378.53" y="2983.61" width="1" height="566.93"/>
    <path class="st8" d="M1899.94,3410.2c-7.37-7.75-20.9-37.6-23.11-48.38-3.31-16.17-7.19-53.91-5.11-69.63,4.99-37.62,17.46-92.13,38.45-123.53,18.3-27.39,52.04-24.45,65.27,5.56,7.57,17.18,10.1,69.93,9.13,89.84-1.83,37.66-10.04,63.28-19.32,98.66-3.55,13.55-4.66,28.74-13.23,40.77-12.86,18.05-35.62,24.03-52.08,6.71h0Z"/>
    <circle class="st5" cx="1928.7" cy="3483.21" r="38.22"/>
    <path class="st3" d="M2253.33,3013.89c25.23-3.21,40.14,14.41,41.2,38.22,1.23,27.53-24.13,85.01-59.66,66.66-21.12-10.91-17.94-41.35-16.33-60.68.87-10.44-1.53-15.66,4.2-25.79,5.73-10.12,19.23-16.97,30.58-18.41h.01Z"/>
    <path class="st3" d="M1944.34,3017.86c32.98-4.49,48.28,24.11,41.18,53.18-5.53,22.63-19.89,57.65-48.45,54.55-11.99-1.3-19.68-9.78-23.51-20.49-6.81-19.07-3.47-28.16-1.98-47.01.14-1.75-1.17-3.79-1.04-5.95,1.12-18.9,15.52-31.8,33.79-34.29h.01Z"/>
    <path class="st8" d="M2239.9,3161.94c25.85-26.39,60.06-2.56,64.38,29.4,6,44.34,5.84,97.46-5.8,140.67-1.52,5.63-4.44,11.64-5.88,17.11-6.14,23.26-7.3,51.17-28.03,66.96-14.72,11.21-35.43,4.39-44.82-10.22-14.9-23.19-20.42-43.21-21.24-70.75-1.11-37.46,3.8-83.24,13.71-119.35,3.95-14.4,17.38-43.31,27.67-53.82h.01Z"/>
    <path class="st5" d="M2248.32,3446.83c21.14-2.29,41.08,11.45,43.21,33.22,5.14,52.57-74.96,56.37-77.96,5.98-1.2-20.2,15.01-37.06,34.75-39.2h0Z"/>
  </g>
  <g id="Camada_2">
    <g>
      <path class="st6" d="M77.29,670.54h567.93v566.93H77.29v-566.93h0ZM546.23,734.09c0-21.34-17.3-38.63-38.63-38.63s-38.63,17.3-38.63,38.63,17.3,38.63,38.63,38.63,38.63-17.3,38.63-38.63ZM506.55,801.23c-21.87,1.69-31.96,26.27-33.9,45.42-3.91,38.62-8.16,77.63-4.02,116.37,2.06,19.27,7.9,42.41,12.9,61.35,5,18.94,11.22,38.22,30.96,45.3,41.26,14.79,54.04-39.43,59.46-68.52-.57-26.96,5.41-56.61,4.02-83.26-1.05-20-14.66-65.05-25.26-82.1-9.72-15.63-23.45-36.15-44.16-34.56h0ZM370.93,1189.95c16.67-17.7,21.12-62.28,7.2-82.24-7.38-10.58-20.71-20.65-33.44-11.73-23.96,16.79-46.81,71.11-22.61,94.87.99.97,5.94,4.71,7.01,5.04,3.11.96,28.92,1.08,32.62.4,1.84-.34,7.85-4.87,9.22-6.33h0ZM186.4,1097.23c-15.18,2.84-26.29,24.19-30.86,37.37-4.53,13.06-7.18,22.74-4.55,36.7,7.64,40.57,67.57,32.79,70.81-4.61,1.06-12.25,2.32-31.95-.49-43.64-4.24-17.61-15.56-29.44-34.91-25.82h0ZM520.55,1097.25c-31.5,4.11-52.56,68.62-35.71,93.39,10.88,15.99,37.84,20.78,52.07,7.24,3.96-3.77,16.84-30.53,17.9-36.29,4.44-24.2.23-68.85-34.25-64.35h-.01Z"/>
      <g>
        <path class="st7" d="M520.55,1097.25c34.48-4.5,38.69,40.14,34.25,64.35-1.06,5.75-13.93,32.52-17.9,36.29-14.22,13.53-41.19,8.74-52.07-7.24-16.85-24.76,4.21-89.28,35.71-93.39h.01Z"/>
        <g>
          <path class="st7" d="M370.93,1189.95c-1.38,1.46-7.38,5.99-9.22,6.33-3.7.68-29.51.57-32.62-.4-1.06-.33-6.02-4.06-7.01-5.04-24.21-23.76-1.36-78.07,22.61-94.87,12.73-8.92,26.06,1.15,33.44,11.73,13.92,19.97,9.47,64.54-7.2,82.24h0Z"/>
          <path class="st4" d="M186.4,1097.23c19.35-3.62,30.67,8.22,34.91,25.82,2.81,11.68,1.56,31.38.49,43.64-3.24,37.4-63.17,45.18-70.81,4.61-2.63-13.96.02-23.64,4.55-36.7,4.57-13.18,15.68-34.53,30.86-37.37h0Z"/>
        </g>
      </g>
      <g>
        <path class="st2" d="M506.55,801.23c20.71-1.6,34.45,18.93,44.16,34.56,10.6,17.05,24.22,62.1,25.26,82.1,1.39,26.65-4.59,56.3-4.02,83.26-5.42,29.09-18.2,83.32-59.46,68.52-19.74-7.08-26.17-27.12-30.96-45.3s-10.84-42.08-12.9-61.35c-4.14-38.74.11-77.75,4.02-116.37,1.94-19.16,12.03-43.74,33.9-45.42h0Z"/>
        <circle class="st1" cx="507.6" cy="734.09" r="38.63"/>
      </g>
    </g>
  </g>
  <g id="Camada_5">
    <rect class="st6" x="1234.33" y="2405.34" width="566.93" height="566.93"/>
  </g>
  <g id="Camada_21" data-name="Camada_2">
    <g>
      <path class="st6" d="M2968.88,3550.79v-567.93h566.93v567.93h-566.93s0,0,0,0ZM3032.43,3081.85c-21.34,0-38.63,17.3-38.63,38.63,0,21.33,17.3,38.63,38.63,38.63,21.33,0,38.63-17.3,38.63-38.63,0-21.33-17.3-38.63-38.63-38.63ZM3099.57,3121.53c1.69,21.87,26.27,31.96,45.42,33.9,38.62,3.91,77.63,8.16,116.37,4.02,19.27-2.06,42.41-7.9,61.35-12.9s38.22-11.22,45.3-30.96c14.79-41.26-39.43-54.04-68.52-59.46-26.96.57-56.61-5.41-83.26-4.02-20,1.05-65.05,14.66-82.1,25.26-15.63,9.72-36.15,23.45-34.56,44.16h0ZM3488.29,3257.15c-17.7-16.67-62.28-21.12-82.24-7.2-10.58,7.38-20.65,20.71-11.73,33.44,16.79,23.96,71.11,46.81,94.87,22.61.97-.99,4.71-5.94,5.04-7.01.96-3.11,1.08-28.92.4-32.62-.34-1.84-4.87-7.85-6.33-9.22h-.01ZM3395.57,3441.68c2.84,15.18,24.19,26.29,37.37,30.86,13.06,4.53,22.74,7.18,36.7,4.55,40.57-7.64,32.79-67.57-4.61-70.81-12.25-1.06-31.95-2.32-43.64.49-17.61,4.24-29.44,15.56-25.82,34.91h0ZM3395.59,3107.53c4.11,31.5,68.62,52.56,93.39,35.71,15.99-10.88,20.78-37.84,7.24-52.07-3.77-3.96-30.53-16.84-36.29-17.9-24.2-4.44-68.85-.23-64.35,34.25h.01Z"/>
      <g>
        <path class="st7" d="M3395.59,3107.53c-4.5-34.48,40.14-38.69,64.35-34.25,5.75,1.06,32.52,13.93,36.29,17.9,13.53,14.22,8.74,41.19-7.24,52.07-24.76,16.85-89.28-4.21-93.39-35.71h-.01Z"/>
        <g>
          <path class="st7" d="M3488.29,3257.15c1.46,1.38,5.99,7.38,6.33,9.22.68,3.7.57,29.51-.4,32.62-.33,1.06-4.06,6.02-5.04,7.01-23.76,24.21-78.07,1.36-94.87-22.61-8.92-12.73,1.15-26.06,11.73-33.44,19.97-13.92,64.54-9.47,82.24,7.2h.01Z"/>
          <path class="st4" d="M3395.57,3441.68c-3.62-19.35,8.22-30.67,25.82-34.91,11.68-2.81,31.38-1.56,43.64-.49,37.4,3.24,45.18,63.17,4.61,70.81-13.96,2.63-23.64-.02-36.7-4.55-13.18-4.57-34.53-15.68-37.37-30.86h0Z"/>
        </g>
      </g>
      <g>
        <path class="st2" d="M3099.57,3121.53c-1.6-20.71,18.93-34.45,34.56-44.16,17.05-10.6,62.1-24.22,82.1-25.26,26.65-1.39,56.3,4.59,83.26,4.02,29.09,5.42,83.32,18.2,68.52,59.46-7.08,19.74-27.12,26.17-45.3,30.96-18.18,4.79-42.08,10.84-61.35,12.9-38.74,4.14-77.75-.11-116.37-4.02-19.16-1.94-43.74-12.03-45.42-33.9h0Z"/>
        <circle class="st1" cx="3032.43" cy="3120.48" r="38.63"/>
      </g>
    </g>
  </g>
  <g id="Camada_3">
    <g>
      <path class="st6" d="M2390.61,2405.09h566.93v566.93h-566.93v-566.93ZM2761.56,2832.04c7.01,23.7,29.49,43.16,48.52,57.96,41.97,32.64,111.43-4.21,115.44-56.48,2.28-29.72-27.02-64.04-49.98-80.47,5.07-6.05,9.04-15.28,11.74-22.75,24.16-66.89-1.11-135.98-64.75-167.71-73.43-23.21-154.91-79.13-234.2-67.25-88.51,13.26-168.47,76.67-157.73,174.22,13.97,126.82,182.17,181.17,291.44,172.47,13.09-1.04,27.1-5.94,39.51-9.98h0Z"/>
      <path class="st3" d="M2875.55,2753.05c-55.17-39.51-134.51,9.61-113.99,78.99-12.41,4.04-26.42,8.94-39.51,9.98-109.27,8.7-277.47-45.66-291.44-172.47-10.74-97.54,69.22-160.96,157.73-174.22,79.29-11.88,160.77,44.04,234.2,67.25,63.64,31.73,88.91,100.81,64.75,167.71-2.7,7.48-6.67,16.71-11.74,22.75h0Z"/>
      <path class="st1" d="M2875.55,2753.05c22.95,16.44,52.26,50.76,49.98,80.47-4.01,52.26-73.47,89.12-115.44,56.48-19.04-14.8-41.51-34.26-48.52-57.96-20.52-69.38,58.81-118.5,113.99-78.99h0Z"/>
    </g>
  </g>
  <g id="Camada_51" data-name="Camada_5">
    <rect class="st6" x="2390.61" y="2983.36" width="566.93" height="566.93" transform="translate(-592.75 5940.91) rotate(-90)"/>
  </g>
  <g id="Camada_41" data-name="Camada_4">
    <path class="st6" d="M1222.74,3549.79h-566.93v-565.93h566.93v565.93h0ZM1192.46,3424.59c-1.44-11.35-8.29-24.86-18.41-30.58-10.13-5.74-15.35-3.33-25.79-4.2-19.33-1.61-49.77-4.79-60.68,16.33-18.35,35.53,39.14,60.89,66.66,59.66,23.81-1.06,41.43-15.97,38.22-41.2h0ZM1188.49,3115.6c-2.49-18.27-15.38-32.67-34.29-33.79-2.17-.13-4.2,1.18-5.95,1.04-18.84-1.49-27.94-4.83-47.01,1.98-10.7,3.82-19.19,11.51-20.49,23.51-3.1,28.56,31.92,42.92,54.55,48.45,29.07,7.1,57.67-8.2,53.18-41.18h.01ZM796.15,3071.2c-17.32,16.46-11.34,39.22,6.71,52.08,12.03,8.56,27.22,9.67,40.77,13.23,35.39,9.28,61.01,17.49,98.66,19.32,19.91.97,72.66-1.57,89.84-9.13,30.02-13.22,32.95-46.97,5.56-65.27-31.4-20.98-85.91-33.46-123.53-38.45-15.72-2.08-53.46,1.8-69.63,5.11-10.78,2.21-40.63,15.74-48.38,23.11h0ZM1044.41,3411.16c-10.51-10.3-39.41-23.72-53.82-27.67-36.12-9.92-81.89-14.83-119.35-13.71-27.54.82-47.56,6.34-70.75,21.24-14.61,9.39-21.43,30.1-10.22,44.82,15.79,20.73,43.7,21.89,66.96,28.03,5.48,1.45,11.48,4.37,17.11,5.88,43.21,11.64,96.32,11.81,140.67,5.8,31.97-4.33,55.79-38.53,29.4-64.38h0ZM723.14,3138.18c21.11,0,38.22-17.11,38.22-38.22,0-21.11-17.11-38.22-38.22-38.22s-38.22,17.11-38.22,38.22c0,21.11,17.11,38.22,38.22,38.22h0ZM759.52,3419.58c-2.14-19.74-18.99-35.95-39.2-34.75-50.39,3-46.59,83.1,5.98,77.96,21.77-2.13,35.51-22.07,33.22-43.21h0Z"/>
    <rect class="st0" x="938.77" y="3266.83" width="1" height="566.93" transform="translate(4489.57 2611.02) rotate(90)"/>
    <path class="st8" d="M796.15,3071.2c7.75-7.37,37.6-20.9,48.38-23.11,16.17-3.31,53.91-7.19,69.63-5.11,37.62,4.99,92.13,17.46,123.53,38.45,27.39,18.3,24.45,52.04-5.56,65.27-17.18,7.57-69.93,10.1-89.84,9.13-37.66-1.83-63.28-10.04-98.66-19.32-13.55-3.55-28.74-4.66-40.77-13.23-18.05-12.86-24.03-35.62-6.71-52.08h0Z"/>
    <circle class="st5" cx="723.14" cy="3099.96" r="38.22"/>
    <path class="st3" d="M1192.46,3424.59c3.21,25.23-14.41,40.14-38.22,41.2-27.53,1.23-85.01-24.13-66.66-59.66,10.91-21.12,41.35-17.94,60.68-16.33,10.44.87,15.66-1.53,25.79,4.2,10.12,5.73,16.97,19.23,18.41,30.58h0Z"/>
    <path class="st3" d="M1188.49,3115.6c4.49,32.98-24.11,48.28-53.18,41.18-22.63-5.53-57.65-19.89-54.55-48.45,1.3-11.99,9.78-19.68,20.49-23.51,19.07-6.81,28.16-3.47,47.01-1.98,1.75.14,3.79-1.17,5.95-1.04,18.9,1.12,31.8,15.52,34.29,33.79h-.01Z"/>
    <path class="st8" d="M1044.41,3411.16c26.39,25.85,2.56,60.06-29.4,64.38-44.34,6-97.46,5.84-140.67-5.8-5.63-1.52-11.64-4.44-17.11-5.88-23.26-6.14-51.17-7.3-66.96-28.03-11.21-14.72-4.39-35.43,10.22-44.82,23.19-14.9,43.21-20.42,70.75-21.24,37.46-1.11,83.24,3.8,119.35,13.71,14.4,3.95,43.31,17.38,53.82,27.67h0Z"/>
    <path class="st5" d="M759.52,3419.58c2.29,21.14-11.45,41.08-33.22,43.21-52.57,5.14-56.37-74.96-5.98-77.96,20.2-1.2,37.06,15.01,39.2,34.75h0Z"/>
  </g>
  <g id="Camada_31" data-name="Camada_3">
    <g>
      <path class="st6" d="M644.47,3550.79H77.54v-566.93h566.93v566.93ZM273.52,3123.84c-7.01-23.7-29.49-43.16-48.52-57.96-41.97-32.64-111.43,4.21-115.44,56.48-2.28,29.72,27.02,64.04,49.98,80.47-5.07,6.05-9.04,15.28-11.74,22.75-24.16,66.89,1.11,135.98,64.75,167.71,73.43,23.21,154.91,79.13,234.2,67.25,88.51-13.26,168.47-76.67,157.73-174.22-13.97-126.82-182.17-181.17-291.44-172.47-13.09,1.04-27.1,5.94-39.51,9.98h0Z"/>
      <path class="st3" d="M159.53,3202.83c55.17,39.51,134.51-9.61,113.99-78.99,12.41-4.04,26.42-8.94,39.51-9.98,109.27-8.7,277.47,45.66,291.44,172.47,10.74,97.54-69.22,160.96-157.73,174.22-79.29,11.88-160.77-44.04-234.2-67.25-63.64-31.73-88.91-100.81-64.75-167.71,2.7-7.48,6.67-16.71,11.74-22.75h0Z"/>
      <path class="st1" d="M159.53,3202.83c-22.95-16.44-52.26-50.76-49.98-80.47,4.01-52.26,73.47-89.12,115.44-56.48,19.04,14.8,41.51,34.26,48.52,57.96,20.52,69.38-58.81,118.5-113.99,78.99h0Z"/>
    </g>
  </g>
  <g id="Camada_52" data-name="Camada_5">
    <rect class="st6" x="655.81" y="2405.59" width="566.93" height="566.93" transform="translate(3628.33 1749.78) rotate(90)"/>
  </g>
  <g id="Camada_42" data-name="Camada_4">
    <path class="st6" d="M2378.53,1827.08v566.93h-565.93v-566.93h565.93ZM2253.33,1857.36c-11.35,1.44-24.86,8.29-30.58,18.41-5.74,10.13-3.33,15.35-4.2,25.79-1.61,19.33-4.79,49.77,16.33,60.68,35.53,18.35,60.89-39.14,59.66-66.66-1.06-23.81-15.97-41.43-41.2-38.22h0ZM1944.34,1861.33c-18.27,2.49-32.67,15.38-33.79,34.29-.13,2.17,1.18,4.2,1.04,5.95-1.49,18.84-4.83,27.94,1.98,47.01,3.82,10.7,11.51,19.19,23.51,20.49,28.56,3.1,42.92-31.92,48.45-54.55,7.1-29.07-8.2-57.67-41.18-53.18h-.01ZM1899.94,2253.67c16.46,17.32,39.22,11.34,52.08-6.71,8.56-12.03,9.67-27.22,13.23-40.77,9.28-35.39,17.49-61.01,19.32-98.66.97-19.91-1.57-72.66-9.13-89.84-13.22-30.02-46.97-32.95-65.27-5.56-20.98,31.4-33.46,85.91-38.45,123.53-2.08,15.72,1.8,53.46,5.11,69.63,2.21,10.78,15.74,40.63,23.11,48.38h0ZM2239.9,2005.41c-10.3,10.51-23.72,39.41-27.67,53.82-9.92,36.12-14.83,81.89-13.71,119.35.82,27.54,6.34,47.56,21.24,70.75,9.39,14.61,30.1,21.43,44.82,10.22,20.73-15.79,21.89-43.7,28.03-66.96,1.45-5.48,4.37-11.48,5.88-17.11,11.64-43.21,11.81-96.32,5.8-140.67-4.33-31.97-38.53-55.79-64.38-29.4h-.01ZM1966.92,2326.68c0-21.11-17.11-38.22-38.22-38.22s-38.22,17.11-38.22,38.22,17.11,38.22,38.22,38.22,38.22-17.11,38.22-38.22h0ZM2248.32,2290.3c-19.74,2.14-35.95,18.99-34.75,39.2,3,50.39,83.1,46.59,77.96-5.98-2.13-21.77-22.07-35.51-43.21-33.22h0Z"/>
    <rect class="st0" x="2378.53" y="1827.08" width="1" height="566.93"/>
    <path class="st8" d="M1899.94,2253.67c-7.37-7.75-20.9-37.6-23.11-48.38-3.31-16.17-7.19-53.91-5.11-69.63,4.99-37.62,17.46-92.13,38.45-123.53,18.3-27.39,52.04-24.45,65.27,5.56,7.57,17.18,10.1,69.93,9.13,89.84-1.83,37.66-10.04,63.28-19.32,98.66-3.55,13.55-4.66,28.74-13.23,40.77-12.86,18.05-35.62,24.03-52.08,6.71h0Z"/>
    <circle class="st5" cx="1928.7" cy="2326.68" r="38.22"/>
    <path class="st3" d="M2253.33,1857.36c25.23-3.21,40.14,14.41,41.2,38.22,1.23,27.53-24.13,85.01-59.66,66.66-21.12-10.91-17.94-41.35-16.33-60.68.87-10.44-1.53-15.66,4.2-25.79,5.73-10.12,19.23-16.97,30.58-18.41h.01Z"/>
    <path class="st3" d="M1944.34,1861.33c32.98-4.49,48.28,24.11,41.18,53.18-5.53,22.63-19.89,57.65-48.45,54.55-11.99-1.3-19.68-9.78-23.51-20.49-6.81-19.07-3.47-28.16-1.98-47.01.14-1.75-1.17-3.79-1.04-5.95,1.12-18.9,15.52-31.8,33.79-34.29h.01Z"/>
    <path class="st8" d="M2239.9,2005.41c25.85-26.39,60.06-2.56,64.38,29.4,6,44.34,5.84,97.46-5.8,140.67-1.52,5.63-4.44,11.64-5.88,17.11-6.14,23.26-7.3,51.17-28.03,66.96-14.72,11.21-35.43,4.39-44.82-10.22-14.9-23.19-20.42-43.21-21.24-70.75-1.11-37.46,3.8-83.24,13.71-119.35,3.95-14.4,17.38-43.31,27.67-53.82h.01Z"/>
    <path class="st5" d="M2248.32,2290.3c21.14-2.29,41.08,11.45,43.21,33.22,5.14,52.57-74.96,56.37-77.96,5.98-1.2-20.2,15.01-37.06,34.75-39.2h0Z"/>
  </g>
  <g id="Camada_53" data-name="Camada_5">
    <rect class="st6" x="1234.33" y="1248.81" width="566.93" height="566.93"/>
  </g>
  <g id="Camada_22" data-name="Camada_2">
    <g>
      <path class="st6" d="M2968.38,1826.83h567.93v566.93h-567.93v-566.93s0,0,0,0ZM3437.32,1890.38c0-21.34-17.3-38.63-38.63-38.63-21.33,0-38.63,17.3-38.63,38.63,0,21.33,17.3,38.63,38.63,38.63,21.33,0,38.63-17.3,38.63-38.63ZM3397.64,1957.52c-21.87,1.69-31.96,26.27-33.9,45.42-3.91,38.62-8.16,77.63-4.02,116.37,2.06,19.27,7.9,42.41,12.9,61.35,5,18.94,11.22,38.22,30.96,45.3,41.26,14.79,54.04-39.43,59.46-68.52-.57-26.96,5.41-56.61,4.02-83.26-1.05-20-14.66-65.05-25.26-82.1-9.72-15.63-23.45-36.15-44.16-34.56h0ZM3262.02,2346.24c16.67-17.7,21.12-62.28,7.2-82.24-7.38-10.58-20.71-20.65-33.44-11.73-23.96,16.79-46.81,71.11-22.61,94.87.99.97,5.94,4.71,7.01,5.04,3.11.96,28.92,1.08,32.62.4,1.84-.34,7.85-4.87,9.22-6.33h0ZM3077.49,2253.52c-15.18,2.84-26.29,24.19-30.86,37.37-4.53,13.06-7.18,22.74-4.55,36.7,7.64,40.57,67.57,32.79,70.81-4.61,1.06-12.25,2.32-31.95-.49-43.64-4.24-17.61-15.56-29.44-34.91-25.82h0ZM3411.64,2253.54c-31.5,4.11-52.56,68.62-35.71,93.39,10.88,15.99,37.84,20.78,52.07,7.24,3.96-3.77,16.84-30.53,17.9-36.29,4.44-24.2.23-68.85-34.25-64.35h-.01Z"/>
      <g>
        <path class="st7" d="M3411.64,2253.54c34.48-4.5,38.69,40.14,34.25,64.35-1.06,5.75-13.93,32.52-17.9,36.29-14.22,13.53-41.19,8.74-52.07-7.24-16.85-24.76,4.21-89.28,35.71-93.39h.01Z"/>
        <g>
          <path class="st7" d="M3262.02,2346.24c-1.38,1.46-7.38,5.99-9.22,6.33-3.7.68-29.51.57-32.62-.4-1.06-.33-6.02-4.06-7.01-5.04-24.21-23.76-1.36-78.07,22.61-94.87,12.73-8.92,26.06,1.15,33.44,11.73,13.92,19.97,9.47,64.54-7.2,82.24h0Z"/>
          <path class="st4" d="M3077.49,2253.52c19.35-3.62,30.67,8.22,34.91,25.82,2.81,11.68,1.56,31.38.49,43.64-3.24,37.4-63.17,45.18-70.81,4.61-2.63-13.96.02-23.64,4.55-36.7,4.57-13.18,15.68-34.53,30.86-37.37h0Z"/>
        </g>
      </g>
      <g>
        <path class="st2" d="M3397.64,1957.52c20.71-1.6,34.45,18.93,44.16,34.56,10.6,17.05,24.22,62.1,25.26,82.1,1.39,26.65-4.59,56.3-4.02,83.26-5.42,29.09-18.2,83.32-59.46,68.52-19.74-7.08-26.17-27.12-30.96-45.3-4.79-18.18-10.84-42.08-12.9-61.35-4.14-38.74.11-77.75,4.02-116.37,1.94-19.16,12.03-43.74,33.9-45.42h0Z"/>
        <circle class="st1" cx="3398.69" cy="1890.38" r="38.63"/>
      </g>
    </g>
  </g>
  <g id="Camada_54" data-name="Camada_5">
    <rect class="st6" x="2390.61" y="1826.83" width="566.93" height="566.93" transform="translate(563.78 4784.37) rotate(-90)"/>
  </g>
  <g id="Camada_43" data-name="Camada_4">
    <path class="st6" d="M656.81,2394.26v-566.93h565.93v566.93h-565.93ZM782.01,2363.98c11.35-1.44,24.86-8.29,30.58-18.41,5.74-10.13,3.33-15.35,4.2-25.79,1.61-19.33,4.79-49.77-16.33-60.68-35.53-18.35-60.89,39.14-59.66,66.66,1.06,23.81,15.97,41.43,41.2,38.22h0ZM1091,2360.01c18.27-2.49,32.67-15.38,33.79-34.29.13-2.17-1.18-4.2-1.04-5.95,1.49-18.84,4.83-27.94-1.98-47.01-3.82-10.7-11.51-19.19-23.51-20.49-28.56-3.1-42.92,31.92-48.45,54.55-7.1,29.07,8.2,57.67,41.18,53.18h.01ZM1135.4,1967.67c-16.46-17.32-39.22-11.34-52.08,6.71-8.56,12.03-9.67,27.22-13.23,40.77-9.28,35.39-17.49,61.01-19.32,98.66-.97,19.91,1.57,72.66,9.13,89.84,13.22,30.02,46.97,32.95,65.27,5.56,20.98-31.4,33.46-85.91,38.45-123.53,2.08-15.72-1.8-53.46-5.11-69.63-2.21-10.78-15.74-40.63-23.11-48.38h0ZM795.44,2215.93c10.3-10.51,23.72-39.41,27.67-53.82,9.92-36.12,14.83-81.89,13.71-119.35-.82-27.54-6.34-47.56-21.24-70.75-9.39-14.61-30.1-21.43-44.82-10.22-20.73,15.79-21.89,43.7-28.03,66.96-1.45,5.48-4.37,11.48-5.88,17.11-11.64,43.21-11.81,96.32-5.8,140.67,4.33,31.97,38.53,55.79,64.38,29.4h.01ZM1068.42,1894.66c0,21.11,17.11,38.22,38.22,38.22,21.11,0,38.22-17.11,38.22-38.22,0-21.11-17.11-38.22-38.22-38.22-21.11,0-38.22,17.11-38.22,38.22h0ZM787.02,1931.04c19.74-2.14,35.95-18.99,34.75-39.2-3-50.39-83.1-46.59-77.96,5.98,2.13,21.77,22.07,35.51,43.21,33.22h0Z"/>
    <rect class="st0" x="655.81" y="1827.33" width="1" height="566.93" transform="translate(1312.62 4221.59) rotate(-180)"/>
    <path class="st8" d="M1135.4,1967.67c7.37,7.75,20.9,37.6,23.11,48.38,3.31,16.17,7.19,53.91,5.11,69.63-4.99,37.62-17.46,92.13-38.45,123.53-18.3,27.39-52.04,24.45-65.27-5.56-7.57-17.18-10.1-69.93-9.13-89.84,1.83-37.66,10.04-63.28,19.32-98.66,3.55-13.55,4.66-28.74,13.23-40.77,12.86-18.05,35.62-24.03,52.08-6.71h0Z"/>
    <circle class="st5" cx="1106.64" cy="1894.66" r="38.22"/>
    <path class="st3" d="M782.01,2363.98c-25.23,3.21-40.14-14.41-41.2-38.22-1.23-27.53,24.13-85.01,59.66-66.66,21.12,10.91,17.94,41.35,16.33,60.68-.87,10.44,1.53,15.66-4.2,25.79-5.73,10.12-19.23,16.97-30.58,18.41h-.01Z"/>
    <path class="st3" d="M1091,2360.01c-32.98,4.49-48.28-24.11-41.18-53.18,5.53-22.63,19.89-57.65,48.45-54.55,11.99,1.3,19.68,9.78,23.51,20.49,6.81,19.07,3.47,28.16,1.98,47.01-.14,1.75,1.17,3.79,1.04,5.95-1.12,18.9-15.52,31.8-33.79,34.29h-.01Z"/>
    <path class="st8" d="M795.44,2215.93c-25.85,26.39-60.06,2.56-64.38-29.4-6-44.34-5.84-97.46,5.8-140.67,1.52-5.63,4.44-11.64,5.88-17.11,6.14-23.26,7.3-51.17,28.03-66.96,14.72-11.21,35.43-4.39,44.82,10.22,14.9,23.19,20.42,43.21,21.24,70.75,1.11,37.46-3.8,83.24-13.71,119.35-3.95,14.4-17.38,43.31-27.67,53.82h-.01Z"/>
    <path class="st5" d="M787.02,1931.04c-21.14,2.29-41.08-11.45-43.21-33.22-5.14-52.57,74.96-56.37,77.96-5.98,1.2,20.2-15.01,37.06-34.75,39.2h0Z"/>
  </g>
  <g id="Camada_32" data-name="Camada_3">
    <g>
      <path class="st6" d="M655.81,1249.06h566.93v566.93h-566.93v-566.93ZM1026.76,1676.01c7.01,23.7,29.49,43.16,48.52,57.96,41.97,32.64,111.43-4.21,115.44-56.48,2.28-29.72-27.02-64.04-49.98-80.47,5.07-6.05,9.04-15.28,11.74-22.75,24.16-66.89-1.11-135.98-64.75-167.71-73.43-23.21-154.91-79.13-234.2-67.25-88.51,13.26-168.47,76.67-157.73,174.22,13.97,126.82,182.17,181.17,291.44,172.47,13.09-1.04,27.1-5.94,39.51-9.98h0Z"/>
      <path class="st3" d="M1140.75,1597.02c-55.17-39.51-134.51,9.61-113.99,78.99-12.41,4.04-26.42,8.94-39.51,9.98-109.27,8.7-277.47-45.66-291.44-172.47-10.74-97.54,69.22-160.96,157.73-174.22,79.29-11.88,160.77,44.04,234.2,67.25,63.64,31.73,88.91,100.81,64.75,167.71-2.7,7.48-6.67,16.71-11.74,22.75h0Z"/>
      <path class="st1" d="M1140.75,1597.02c22.95,16.44,52.26,50.76,49.98,80.47-4.01,52.26-73.47,89.12-115.44,56.48-19.04-14.8-41.51-34.26-48.52-57.96-20.52-69.38,58.81-118.5,113.99-78.99h0Z"/>
    </g>
  </g>
  <g id="Camada_55" data-name="Camada_5">
    <rect class="st6" x="77.54" y="1827.33" width="566.93" height="566.93" transform="translate(2471.8 1749.78) rotate(90)"/>
  </g>
  <g id="Camada_44" data-name="Camada_4">
    <path class="st6" d="M1234.83,659.2V92.27h565.93v566.93h-565.93ZM1360.03,628.92c11.35-1.44,24.86-8.29,30.58-18.41,5.74-10.13,3.33-15.35,4.2-25.79,1.61-19.33,4.79-49.77-16.33-60.68-35.53-18.35-60.89,39.14-59.66,66.66,1.06,23.81,15.97,41.43,41.2,38.22h0ZM1669.02,624.95c18.27-2.49,32.67-15.38,33.79-34.29.13-2.17-1.18-4.2-1.04-5.95,1.49-18.84,4.83-27.94-1.98-47.01-3.82-10.7-11.51-19.19-23.51-20.49-28.56-3.1-42.92,31.92-48.45,54.55-7.1,29.07,8.2,57.67,41.18,53.18h.01ZM1713.42,232.61c-16.46-17.32-39.22-11.34-52.08,6.71-8.56,12.03-9.67,27.22-13.23,40.77-9.28,35.39-17.49,61.01-19.32,98.66-.97,19.91,1.57,72.66,9.13,89.84,13.22,30.02,46.97,32.95,65.27,5.56,20.98-31.4,33.46-85.91,38.45-123.53,2.08-15.72-1.8-53.46-5.11-69.63-2.21-10.78-15.74-40.63-23.11-48.38h0ZM1373.46,480.87c10.3-10.51,23.72-39.41,27.67-53.82,9.92-36.12,14.83-81.89,13.71-119.35-.82-27.54-6.34-47.56-21.24-70.75-9.39-14.61-30.1-21.43-44.82-10.22-20.73,15.79-21.89,43.7-28.03,66.96-1.45,5.48-4.37,11.48-5.88,17.11-11.64,43.21-11.81,96.32-5.8,140.67,4.33,31.97,38.53,55.79,64.38,29.4h.01ZM1646.44,159.6c0,21.11,17.11,38.22,38.22,38.22,21.11,0,38.22-17.11,38.22-38.22,0-21.11-17.11-38.22-38.22-38.22-21.11,0-38.22,17.11-38.22,38.22h0ZM1365.04,195.98c19.74-2.14,35.95-18.99,34.75-39.2-3-50.39-83.1-46.59-77.96,5.98,2.13,21.77,22.07,35.51,43.21,33.22h0Z"/>
    <rect class="st0" x="1233.83" y="92.27" width="1" height="566.93" transform="translate(2468.65 751.48) rotate(-180)"/>
    <path class="st8" d="M1713.42,232.61c7.37,7.75,20.9,37.6,23.11,48.38,3.31,16.17,7.19,53.91,5.11,69.63-4.99,37.62-17.46,92.13-38.45,123.53-18.3,27.39-52.04,24.45-65.27-5.56-7.57-17.18-10.1-69.93-9.13-89.84,1.83-37.66,10.04-63.28,19.32-98.66,3.55-13.55,4.66-28.74,13.23-40.77,12.86-18.05,35.62-24.03,52.08-6.71h0Z"/>
    <circle class="st5" cx="1684.66" cy="159.6" r="38.22"/>
    <path class="st3" d="M1360.03,628.92c-25.23,3.21-40.14-14.41-41.2-38.22-1.23-27.53,24.13-85.01,59.66-66.66,21.12,10.91,17.94,41.35,16.33,60.68-.87,10.44,1.53,15.66-4.2,25.79-5.73,10.12-19.23,16.97-30.58,18.41h-.01Z"/>
    <path class="st3" d="M1669.02,624.95c-32.98,4.49-48.28-24.11-41.18-53.18,5.53-22.63,19.89-57.65,48.45-54.55,11.99,1.3,19.68,9.78,23.51,20.49,6.81,19.07,3.47,28.16,1.98,47.01-.14,1.75,1.17,3.79,1.04,5.95-1.12,18.9-15.52,31.8-33.79,34.29h-.01Z"/>
    <path class="st8" d="M1373.46,480.87c-25.85,26.39-60.06,2.56-64.38-29.4-6-44.34-5.84-97.46,5.8-140.67,1.52-5.63,4.44-11.64,5.88-17.11,6.14-23.26,7.3-51.17,28.03-66.96,14.72-11.21,35.43-4.39,44.82,10.22,14.9,23.19,20.42,43.21,21.24,70.75,1.11,37.46-3.8,83.24-13.71,119.35-3.95,14.4-17.38,43.31-27.67,53.82h-.01Z"/>
    <path class="st5" d="M1365.04,195.98c-21.14,2.29-41.08-11.45-43.21-33.22-5.14-52.57,74.96-56.37,77.96-5.98,1.2,20.2-15.01,37.06-34.75,39.2h0Z"/>
  </g>
  <g id="Camada_23" data-name="Camada_2">
    <g>
      <path class="st6" d="M2379.53,1237.47h-567.93v-566.93h567.93v566.93s0,0,0,0ZM1910.59,1173.92c0,21.34,17.3,38.63,38.63,38.63,21.33,0,38.63-17.3,38.63-38.63s-17.3-38.63-38.63-38.63c-21.33,0-38.63,17.3-38.63,38.63ZM1950.27,1106.78c21.87-1.69,31.96-26.27,33.9-45.42,3.91-38.62,8.16-77.63,4.02-116.37-2.06-19.27-7.9-42.41-12.9-61.35-5-18.94-11.22-38.22-30.96-45.3-41.26-14.79-54.04,39.43-59.46,68.52.57,26.96-5.41,56.61-4.02,83.26,1.05,20,14.66,65.05,25.26,82.1,9.72,15.63,23.45,36.15,44.16,34.56h0ZM2085.89,718.06c-16.67,17.7-21.12,62.28-7.2,82.24,7.38,10.58,20.71,20.65,33.44,11.73,23.96-16.79,46.81-71.11,22.61-94.87-.99-.97-5.94-4.71-7.01-5.04-3.11-.96-28.92-1.08-32.62-.4-1.84.34-7.85,4.87-9.22,6.33h0ZM2270.42,810.78c15.18-2.84,26.29-24.19,30.86-37.37,4.53-13.06,7.18-22.74,4.55-36.7-7.64-40.57-67.57-32.79-70.81,4.61-1.06,12.25-2.32,31.95.49,43.64,4.24,17.61,15.56,29.44,34.91,25.82h0ZM1936.27,810.76c31.5-4.11,52.56-68.62,35.71-93.39-10.88-15.99-37.84-20.78-52.07-7.24-3.96,3.77-16.84,30.53-17.9,36.29-4.44,24.2-.23,68.85,34.25,64.35h.01Z"/>
      <g>
        <path class="st7" d="M1936.27,810.76c-34.48,4.5-38.69-40.14-34.25-64.35,1.06-5.75,13.93-32.52,17.9-36.29,14.22-13.53,41.19-8.74,52.07,7.24,16.85,24.76-4.21,89.28-35.71,93.39h-.01Z"/>
        <g>
          <path class="st7" d="M2085.89,718.06c1.38-1.46,7.38-5.99,9.22-6.33,3.7-.68,29.51-.57,32.62.4,1.06.33,6.02,4.06,7.01,5.04,24.21,23.76,1.36,78.07-22.61,94.87-12.73,8.92-26.06-1.15-33.44-11.73-13.92-19.97-9.47-64.54,7.2-82.24h0Z"/>
          <path class="st4" d="M2270.42,810.78c-19.35,3.62-30.67-8.22-34.91-25.82-2.81-11.68-1.56-31.38-.49-43.64,3.24-37.4,63.17-45.18,70.81-4.61,2.63,13.96-.02,23.64-4.55,36.7-4.57,13.18-15.68,34.53-30.86,37.37h0Z"/>
        </g>
      </g>
      <g>
        <path class="st2" d="M1950.27,1106.78c-20.71,1.6-34.45-18.93-44.16-34.56-10.6-17.05-24.22-62.1-25.26-82.1-1.39-26.65,4.59-56.3,4.02-83.26,5.42-29.09,18.2-83.32,59.46-68.52,19.74,7.08,26.17,27.12,30.96,45.3,4.79,18.18,10.84,42.08,12.9,61.35,4.14,38.74-.11,77.75-4.02,116.37-1.94,19.16-12.03,43.74-33.9,45.42h0Z"/>
        <circle class="st1" cx="1949.22" cy="1173.92" r="38.63"/>
      </g>
    </g>
  </g>
  <g id="Camada_33" data-name="Camada_3">
    <g>
      <path class="st6" d="M1233.83,1237.47v-566.93h566.93v566.93h-566.93ZM1660.78,866.52c23.7-7.01,43.16-29.49,57.96-48.52,32.64-41.97-4.21-111.43-56.48-115.44-29.72-2.28-64.04,27.02-80.47,49.98-6.05-5.07-15.28-9.04-22.75-11.74-66.89-24.16-135.98,1.11-167.71,64.75-23.21,73.43-79.13,154.91-67.25,234.2,13.26,88.51,76.67,168.47,174.22,157.73,126.82-13.97,181.17-182.17,172.47-291.44-1.04-13.09-5.94-27.1-9.98-39.51h-.01Z"/>
      <path class="st3" d="M1581.79,752.53c-39.51,55.17,9.61,134.51,78.99,113.99,4.04,12.41,8.94,26.42,9.98,39.51,8.7,109.27-45.66,277.47-172.47,291.44-97.54,10.74-160.96-69.22-174.22-157.73-11.88-79.29,44.04-160.77,67.25-234.2,31.73-63.64,100.81-88.91,167.71-64.75,7.48,2.7,16.71,6.67,22.75,11.74h0Z"/>
      <path class="st1" d="M1581.79,752.53c16.44-22.95,50.76-52.26,80.47-49.98,52.26,4.01,89.12,73.47,56.48,115.44-14.8,19.04-34.26,41.51-57.96,48.52-69.38,20.52-118.5-58.81-78.99-113.99h0Z"/>
    </g>
  </g>
  <g id="Camada_56" data-name="Camada_5">
    <rect class="st6" x="1812.1" y="92.28" width="566.93" height="566.93" transform="translate(4191.12 751.48) rotate(-180)"/>
  </g>
  <g id="Camada_57" data-name="Camada_5">
    <rect class="st6" x="655.81" y="92.52" width="566.93" height="566.93" transform="translate(1315.26 -563.29) rotate(90)"/>
  </g>
  <g id="Camada_45" data-name="Camada_4">
    <path class="st6" d="M2968.88,93.02h566.93v565.93h-566.93V93.02h0ZM2999.16,218.22c1.44,11.35,8.29,24.86,18.41,30.58,10.13,5.74,15.35,3.33,25.79,4.2,19.33,1.61,49.77,4.79,60.68-16.33,18.35-35.53-39.14-60.89-66.66-59.66-23.81,1.06-41.43,15.97-38.22,41.2h0ZM3003.13,527.21c2.49,18.27,15.38,32.67,34.29,33.79,2.17.13,4.2-1.18,5.95-1.04,18.84,1.49,27.94,4.83,47.01-1.98,10.7-3.82,19.19-11.51,20.49-23.51,3.1-28.56-31.92-42.92-54.55-48.45-29.07-7.1-57.67,8.2-53.18,41.18h-.01ZM3395.47,571.61c17.32-16.46,11.34-39.22-6.71-52.08-12.03-8.56-27.22-9.67-40.77-13.23-35.39-9.28-61.01-17.49-98.66-19.32-19.91-.97-72.66,1.57-89.84,9.13-30.02,13.22-32.95,46.97-5.56,65.27,31.4,20.98,85.91,33.46,123.53,38.45,15.72,2.08,53.46-1.8,69.63-5.11,10.78-2.21,40.63-15.74,48.38-23.11h0ZM3147.21,231.65c10.51,10.3,39.41,23.72,53.82,27.67,36.12,9.92,81.89,14.83,119.35,13.71,27.54-.82,47.56-6.34,70.75-21.24,14.61-9.39,21.43-30.1,10.22-44.82-15.79-20.73-43.7-21.89-66.96-28.03-5.48-1.45-11.48-4.37-17.11-5.88-43.21-11.64-96.32-11.81-140.67-5.8-31.97,4.33-55.79,38.53-29.4,64.38h0ZM3468.48,504.63c-21.11,0-38.22,17.11-38.22,38.22s17.11,38.22,38.22,38.22,38.22-17.11,38.22-38.22-17.11-38.22-38.22-38.22h0ZM3432.1,223.23c2.14,19.74,18.99,35.95,39.2,34.75,50.39-3,46.59-83.1-5.98-77.96-21.77,2.13-35.51,22.07-33.22,43.21h0Z"/>
    <rect class="st0" x="3251.85" y="-190.94" width="1" height="566.93" transform="translate(3159.82 3344.87) rotate(-90)"/>
    <path class="st8" d="M3395.47,571.61c-7.75,7.37-37.6,20.9-48.38,23.11-16.17,3.31-53.91,7.19-69.63,5.11-37.62-4.99-92.13-17.46-123.53-38.45-27.39-18.3-24.45-52.04,5.56-65.27,17.18-7.57,69.93-10.1,89.84-9.13,37.66,1.83,63.28,10.04,98.66,19.32,13.55,3.55,28.74,4.66,40.77,13.23,18.05,12.86,24.03,35.62,6.71,52.08h0Z"/>
    <circle class="st5" cx="3468.48" cy="542.85" r="38.22"/>
    <path class="st3" d="M2999.16,218.22c-3.21-25.23,14.41-40.14,38.22-41.2,27.53-1.23,85.01,24.13,66.66,59.66-10.91,21.12-41.35,17.94-60.68,16.33-10.44-.87-15.66,1.53-25.79-4.2-10.12-5.73-16.97-19.23-18.41-30.58h0Z"/>
    <path class="st3" d="M3003.13,527.21c-4.49-32.98,24.11-48.28,53.18-41.18,22.63,5.53,57.65,19.89,54.55,48.45-1.3,11.99-9.78,19.68-20.49,23.51-19.07,6.81-28.16,3.47-47.01,1.98-1.75-.14-3.79,1.17-5.95,1.04-18.9-1.12-31.8-15.52-34.29-33.79h.01Z"/>
    <path class="st8" d="M3147.21,231.65c-26.39-25.85-2.56-60.06,29.4-64.38,44.34-6,97.46-5.84,140.67,5.8,5.63,1.52,11.64,4.44,17.11,5.88,23.26,6.14,51.17,7.3,66.96,28.03,11.21,14.72,4.39,35.43-10.22,44.82-23.19,14.9-43.21,20.42-70.75,21.24-37.46,1.11-83.24-3.8-119.35-13.71-14.4-3.95-43.31-17.38-53.82-27.67h0Z"/>
    <path class="st5" d="M3432.1,223.23c-2.29-21.14,11.45-41.08,33.22-43.21,52.57-5.14,56.37,74.96,5.98,77.96-20.2,1.2-37.06-15.01-39.2-34.75h0Z"/>
  </g>
  <g id="Camada_34" data-name="Camada_3">
    <g>
      <path class="st6" d="M2390.61,92.02h566.93v566.93h-566.93V92.02ZM2761.56,518.97c7.01,23.7,29.49,43.16,48.52,57.96,41.97,32.64,111.43-4.21,115.44-56.48,2.28-29.72-27.02-64.04-49.98-80.47,5.07-6.05,9.04-15.28,11.74-22.75,24.16-66.89-1.11-135.98-64.75-167.71-73.43-23.21-154.91-79.13-234.2-67.25-88.51,13.26-168.47,76.67-157.73,174.22,13.97,126.82,182.17,181.17,291.44,172.47,13.09-1.04,27.1-5.94,39.51-9.98h0Z"/>
      <path class="st3" d="M2875.55,439.98c-55.17-39.51-134.51,9.61-113.99,78.99-12.41,4.04-26.42,8.94-39.51,9.98-109.27,8.7-277.47-45.66-291.44-172.47-10.74-97.54,69.22-160.96,157.73-174.22,79.29-11.88,160.77,44.04,234.2,67.25,63.64,31.73,88.91,100.81,64.75,167.71-2.7,7.48-6.67,16.71-11.74,22.75h0Z"/>
      <path class="st1" d="M2875.55,439.98c22.95,16.44,52.26,50.76,49.98,80.47-4.01,52.26-73.47,89.12-115.44,56.48-19.04-14.8-41.51-34.26-48.52-57.96-20.52-69.38,58.81-118.5,113.99-78.99h0Z"/>
    </g>
  </g>
  <g id="Camada_58" data-name="Camada_5">
    <rect class="st6" x="2390.61" y="670.29" width="566.93" height="566.93" transform="translate(1720.32 3627.83) rotate(-90)"/>
  </g>
  <g id="Camada_59" data-name="Camada_5">
    <rect class="st6" x="77.54" y="1249.06" width="566.93" height="566.93" transform="translate(1893.53 1171.52) rotate(90)"/>
  </g>
  <g id="Camada_510" data-name="Camada_5">
    <rect class="st6" x="77.54" y="92.52" width="566.93" height="566.93" transform="translate(737 14.98) rotate(90)"/>
  </g>
  <g id="Camada_511" data-name="Camada_5">
    <rect class="st6" x="1234.08" y="2983.86" width="566.93" height="566.93" transform="translate(4784.87 1749.78) rotate(90)"/>
  </g>
  <g id="Camada_512" data-name="Camada_5">
    <rect class="st6" x="655.81" y="670.79" width="566.93" height="566.93" transform="translate(1893.53 14.98) rotate(90)"/>
  </g>
  <g id="Camada_513" data-name="Camada_5">
    <rect class="st6" x="1812.35" y="1249.06" width="566.93" height="566.93" transform="translate(3628.33 -563.29) rotate(90)"/>
  </g>
  <g id="Camada_514" data-name="Camada_5">
    <rect class="st6" x="2390.61" y="1249.06" width="566.93" height="566.93" transform="translate(4206.6 -1141.56) rotate(90)"/>
  </g>
  <g id="Camada_515" data-name="Camada_5">
    <rect class="st6" x="2968.88" y="1249.06" width="566.93" height="566.93" transform="translate(4784.87 -1719.82) rotate(90)"/>
  </g>
  <g id="Camada_516" data-name="Camada_5">
    <rect class="st6" x="2968.88" y="2405.59" width="566.93" height="566.93" transform="translate(5941.41 -563.29) rotate(90)"/>
  </g>
  <g id="Camada_517" data-name="Camada_5">
    <rect class="st6" x="1812.35" y="2405.59" width="566.93" height="566.93" transform="translate(4784.87 593.25) rotate(90)"/>
  </g>
  <g id="Camada_518" data-name="Camada_5">
    <rect class="st6" x="77.54" y="2405.59" width="566.93" height="566.93" transform="translate(3050.07 2328.05) rotate(90)"/>
  </g>
  <g id="Camada_519" data-name="Camada_5">
    <rect class="st6" x="1234.08" y="1827.33" width="566.93" height="566.93" transform="translate(3628.33 593.25) rotate(90)"/>
  </g>
  <g id="Camada_520" data-name="Camada_5">
    <rect class="st6" x="2968.88" y="670.79" width="566.93" height="566.93" transform="translate(4206.6 -2298.09) rotate(90)"/>
  </g>
</svg>