<?xml version="1.0" encoding="UTF-8"?>
<svg id="Camada_1" xmlns="http://www.w3.org/2000/svg" version="1.1" viewBox="0 0 566.93 566.93">
  <!-- Generator: Adobe Illustrator 29.5.0, SVG Export Plug-In . SVG Version: 2.1.0 Build 137)  -->
  <defs>
    <style>
      .st0 {
        fill: #ebe0b3;
      }

      .st1 {
        fill: #be9714;
      }

      .st2 {
        fill: #404759;
      }
    </style>
  </defs>
  <path class="st1" d="M284.65,76.52c2.7-2.83,7.27-5.15,10.75-7.03C378.31,24.82,471.14.33,565.86,1.07c1.32,99.19-26.28,197.03-74.45,282.93,43.32,77.07,69.22,162.43,74.44,251.14v31.78s-33.39,0-33.39,0l-40.25-4.46c-73.41-9.73-145.01-33.43-208.63-70.98,85.49-49.47,158.2-121.33,206.8-207.48-11.19-20.45-24.22-40.08-38.28-58.65-34.99-46.23-78.73-88.36-126.16-121.69-13.48-9.47-27.79-17.73-41.28-27.14Z"/>
  <path class="st1" d="M282.49,491.48c-54.24,32.93-115.35,54.37-177.75,66.31l-65.75,9.14H.21c.48-10.64-.65-21.75,0-32.33,5.34-87.28,32.12-174.57,75.42-250.05,50.07,85.43,121.4,156.91,206.86,206.94Z"/>
  <path class="st1" d="M282.49,76.52c-84.57,50.1-157.57,121.56-206.86,206.94C36.71,216.9,12.33,141.94,3.57,65.07c-1.08-9.46-.63-19.3-3.37-28.43V1.08c76.18-.27,152.04,15.15,221.91,44.76,20.75,8.8,41.22,18.84,60.37,30.68Z"/>
  <path class="st0" d="M.21,1.08V0h566.72v566.93h-1.08v-31.78c-5.23-88.71-31.13-174.07-74.45-251.14,48.18-85.9,75.77-183.74,74.45-282.93-94.72-.74-187.54,23.75-270.46,68.42-3.48,1.87-8.05,4.2-10.75,7.03h-2.15c-19.15-11.85-39.62-21.89-60.37-30.68C152.25,16.23,76.38.81.21,1.08Z"/>
  <path class="st0" d="M75.63,283.46c-.16.27.15.81,0,1.08C32.33,360.02,5.54,447.32.21,534.59V36.65c2.74,9.13,2.29,18.97,3.37,28.43,8.76,76.86,33.14,151.82,72.05,218.39Z"/>
  <path class="st0" d="M532.45,566.93H38.99l65.75-9.14c62.4-11.94,123.51-33.38,177.75-66.31h1.08c63.62,37.56,135.23,61.25,208.63,70.98l40.25,4.46Z"/>
  <path class="st2" d="M284.65,76.52c13.5,9.42,27.8,17.67,41.28,27.14,47.44,33.33,91.18,75.46,126.16,121.69,14.06,18.57,27.09,38.2,38.28,58.65-48.6,86.15-121.32,158.01-206.8,207.48h-1.08c-85.47-50.03-156.79-121.51-206.86-206.94.15-.27-.16-.81,0-1.08,49.29-85.38,122.29-156.84,206.86-206.94h2.15Z"/>
</svg>