<?xml version="1.0" encoding="UTF-8"?>
<svg id="Camada_1" xmlns="http://www.w3.org/2000/svg" version="1.1" viewBox="0 0 566.93 566.93">
  <!-- Generator: Adobe Illustrator 29.5.0, SVG Export Plug-In . SVG Version: 2.1.0 Build 137)  -->
  <defs>
    <style>
      .st0 {
        fill: #f9f9f9;
      }

      .st1 {
        fill: #e3bbb1;
      }
    </style>
  </defs>
  <polygon class="st0" points="37.98 141.73 37.98 425.2 283.46 566.93 528.95 425.2 528.95 141.73 283.46 0 37.98 141.73"/>
  <path class="st1" d="M267.87,558.32c-76.86-43.57-153.1-88.25-229.69-132.31.04-88.88-1.86-177.94-.52-266.8,3.72.76,6.94,3.47,10.02,5.58,129.1,88.35,213.31,236.31,220.19,393.53Z"/>
  <path class="st1" d="M528.2,159.21c1.36,88.87-.58,177.93-.52,266.8-76.3,44.54-153.34,87.87-229.69,132.31,6.92-157.04,91.02-305.47,220.19-393.53,3.09-2.1,6.29-4.82,10.02-5.58Z"/>
  <path class="st1" d="M509.91,132.32c-139.31,71.86-314.67,71.87-453.97,0C126.64,90.71,197.4,47.91,269.29,8.42c2.66-1.46,11.93-7.27,13.99-7.1,75.77,43.26,151.32,86.97,226.63,131Z"/>
</svg>