<?xml version="1.0" encoding="UTF-8"?>
<svg xmlns="http://www.w3.org/2000/svg" version="1.1" viewBox="0 0 566.93 566.93">
  <!-- Generator: Adobe Illustrator 29.5.0, SVG Export Plug-In . SVG Version: 2.1.0 Build 137)  -->
  <defs>
    <style>
      .st0 {
        fill: #bfb7b4;
      }

      .st1 {
        fill: #f9f9f9;
      }

      .st2 {
        fill: #bfced5;
      }
    </style>
  </defs>
  <g id="Camada_3">
    <polygon class="st0" points="37.98 141.73 37.98 425.2 283.46 566.93 528.95 425.2 528.95 141.73 283.46 0 37.98 141.73"/>
    <polygon class="st1" points="69.43 159.89 69.43 407.04 283.46 530.61 497.5 407.04 497.5 159.89 283.46 36.32 69.43 159.89"/>
    <polygon class="st0" points="102.69 179.1 102.69 387.83 283.46 492.2 464.24 387.83 464.24 179.1 283.46 74.73 102.69 179.1"/>
  </g>
  <g id="Camada_5">
    <polygon class="st2" points="123.06 190.85 123.06 376.08 283.46 468.69 443.87 376.08 443.87 190.85 283.46 98.24 123.06 190.85"/>
  </g>
  <g id="Camada_5_cópia">
    <path class="st1" d="M321.31,419.53c0-22.93,18.59-41.53,41.53-41.53,16.4,0,30.58,9.51,37.32,23.31l7.39-4.27c-4.34-6.56-6.87-14.42-6.87-22.88,0-22.93,18.59-41.53,41.53-41.53.56,0,1.11.02,1.67.04v-7.74c-.55.02-1.11.04-1.67.04-22.93,0-41.53-18.59-41.53-41.53s18.59-41.53,41.53-41.53c.56,0,1.11.02,1.67.04v-7.74c-.55.02-1.11.04-1.67.04-22.93,0-41.53-18.59-41.53-41.53,0-8.45,2.53-16.31,6.87-22.88l-7.39-4.27c-6.75,13.8-20.92,23.31-37.32,23.31-22.93,0-41.53-18.59-41.53-41.53,0-8.6,2.61-16.59,7.09-23.22l-7.43-4.29c-6.67,14-20.96,23.68-37.5,23.68s-30.83-9.68-37.5-23.68l-7.43,4.29c4.48,6.63,7.09,14.62,7.09,23.22,0,22.93-18.59,41.53-41.53,41.53-16.4,0-30.58-9.51-37.32-23.31l-14.25,8.23c5.07,6.88,8.06,15.38,8.06,24.58,0,21.58-16.47,39.32-37.53,41.33v8.05c21.06,2.01,37.53,19.75,37.53,41.33s-16.47,39.32-37.53,41.33v8.05c21.06,2.01,37.53,19.75,37.53,41.33,0,5.69-1.15,11.11-3.22,16.04l9.4,5.43c6.75-13.8,20.92-23.31,37.32-23.31,22.93,0,41.53,18.59,41.53,41.53,0,8.6-2.61,16.59-7.09,23.22l7.43,4.29c6.67-14,20.96-23.68,37.5-23.68s30.83,9.68,37.5,23.68l7.43-4.29c-4.48-6.63-7.09-14.62-7.09-23.22ZM404.36,328.82c0,22.93-18.59,41.53-41.53,41.53s-41.53-18.59-41.53-41.53,18.59-41.53,41.53-41.53,41.53,18.59,41.53,41.53ZM283.46,324.99c-22.93,0-41.53-18.59-41.53-41.53s18.59-41.53,41.53-41.53,41.53,18.59,41.53,41.53-18.59,41.53-41.53,41.53ZM362.83,196.58c22.93,0,41.53,18.59,41.53,41.53s-18.59,41.53-41.53,41.53-41.53-18.59-41.53-41.53,18.59-41.53,41.53-41.53ZM283.46,151.23c22.93,0,41.53,18.59,41.53,41.53s-18.59,41.53-41.53,41.53-41.53-18.59-41.53-41.53,18.59-41.53,41.53-41.53ZM204.09,196.58c22.93,0,41.53,18.59,41.53,41.53s-18.59,41.53-41.53,41.53-41.53-18.59-41.53-41.53,18.59-41.53,41.53-41.53ZM204.09,370.34c-22.93,0-41.53-18.59-41.53-41.53s18.59-41.53,41.53-41.53,41.53,18.59,41.53,41.53-18.59,41.53-41.53,41.53ZM283.46,415.7c-22.93,0-41.53-18.59-41.53-41.53s18.59-41.53,41.53-41.53,41.53,18.59,41.53,41.53-18.59,41.53-41.53,41.53Z"/>
  </g>
</svg>