<?xml version="1.0" encoding="UTF-8"?>
<svg id="Camada_1" xmlns="http://www.w3.org/2000/svg" version="1.1" viewBox="0 0 595.28 841.89">
  <!-- Generator: Adobe Illustrator 29.5.0, SVG Export Plug-In . SVG Version: 2.1.0 Build 137)  -->
  <defs>
    <style>
      .st0 {
        fill: #b5beab;
      }

      .st1 {
        fill: #899f82;
      }

      .st2 {
        fill: #475042;
      }
    </style>
  </defs>
  <path class="st1" d="M586.03,195.58c.33,20.42-.44,40.98,0,61.39.09,3.93-.09,7.88,0,11.81-38.79,34.13-66.71,78.31-95.65,120.43-31.38-2.17-62.15-6.9-90.9-20.04-8.45-21.24-15.7-43.7-18.8-66.43-1-7.35.19-14.83-.29-22.15,25.81-19.21,54.99-36.8,80.04-56.74,9.51-7.56,23.05-17.13,27.56-28.27h98.04Z"/>
  <path class="st2" d="M167.58,195.58c-20.22,75.99-74.72,141.61-148.25,172.37.04-40.1-.19-80.33,0-120.43l71.73-51.95h76.52Z"/>
  <path class="st2" d="M487.99,195.58c-4.52,11.14-18.06,20.71-27.56,28.27-25.05,19.93-54.23,37.53-80.04,56.74-.03-.42-2.39-2.63-2.49-5.72-.85-27.23,5.45-52.68,9.66-79.29h100.43Z"/>
  <polygon class="st1" points="91.06 195.58 19.33 247.53 19.33 195.58 91.06 195.58"/>
  <path class="st1" d="M29,588.4c1.78-3.47,6.18-17.65,7.75-22.61,17.6-55.8,21.58-118.39,20.86-176.58,29.74,2.94,51.7,15.72,72.97,35.46,1.94,1.8,5.65,2.01,5.92,2.32,13.12,14.68,20.08,41.88,26.44,60.08,5.18,14.81,13.02-5.17,18.94-11.73,26.45-29.31,69.99-59.46,107.66-69.6,5.12-1.38,26.17-4.2,32.32-4.68,14.35-1.12,29.74.74,44.21-.05,2.62,25.09,1.15,50.83-4.79,75.58-11.66,48.51-45.52,93-86.06,121.64-1.05,4.6,1.74,3.43,4.79,4.57,23.6,8.84,41.88,11.35,62.15,29.63,19.78,17.84,33.96,49.64,38.25,75.55-59.44-.86-120.5,1.79-177.46,19.57-9.21,2.88-25.03,6.18-28.17,15.86,1.1-7.08-2.74-4.91-7.34-3.72-13.8,3.55-33.68,15.03-45.78,22.61H19.33c.01-48.4.07-96.88-.1-145.31l.1-13.36,9.67-15.22Z"/>
  <path class="st2" d="M392.35,762.29l7.17-14.17c24.47-72.83,108.98-136.93,184.12-151.12h2.39c-1.08,16.3,2.18,46.59-2.39,61.39-4.11,13.29-25.78,41.62-34.93,54.05-12.1,16.42-28.09,36.41-43.3,49.85h-113.06Z"/>
  <path class="st2" d="M361.26,476.57c28.6,8.49,57.74,17.4,87.57,20.96,19.05,2.28,38,1.91,57.12,2.65,2.89.11,8.89-1.78,8.33,2.33-68.49,22.66-130.51,71.84-172.15,129.9-20.27-18.28-38.54-20.79-62.15-29.63-3.05-1.14-5.83.03-4.79-4.57,40.55-28.64,74.4-73.13,86.06-121.64Z"/>
  <path class="st2" d="M289.53,405.73c-37.67,10.14-81.21,40.29-107.66,69.6-5.92,6.56-13.76,26.54-18.94,11.73-6.36-18.2-13.32-45.4-26.44-60.08,56.2-45.76,105.14-100.89,129.15-170,3.93-.63,2.22,3.19,2.36,5.85.64,11.71-.83,23.76.02,35.44,2.68,36.62,12.22,72.16,21.5,107.46Z"/>
  <path class="st2" d="M586.03,377.4l-59.78,11.81h-4.78c-1.59.09-3.19-.06-4.78,0h-2.39c-7.78.05-16.25.53-23.91,0,28.93-42.12,56.85-86.29,95.65-120.43v108.62Z"/>
  <path class="st2" d="M121.62,762.29c12.1-7.58,31.99-19.06,45.78-22.61,4.6-1.19,8.45-3.36,7.34,3.72l-2.39,18.89h-50.74Z"/>
  <path class="st1" d="M586.04,649.2v113.1c-23.58-.25-47.22.22-70.83.16-4.39-.01-9.38-.17-9.8-.17,15.21-13.43,31.2-33.42,43.3-49.85,9.16-12.43,32.65-50.15,37.34-63.25Z"/>
  <path class="st0" d="M586.03,377.4v219.6c-75.14,14.19-162.04,78.3-186.51,151.12l-7.17,14.17c-68.5-.52-137.14.69-205.64,0-3.96-.04-8.02.25-11.96,0-.82-.05-1.7.15-2.39,0v-2.36c1.53-4.66,1.11-12.56,2.39-16.53,3.14-9.68,18.96-12.99,28.17-15.86,56.96-17.78,118.02-20.43,177.46-19.57-4.29-25.9-18.47-57.71-38.25-75.55,41.64-58.06,103.65-107.23,172.15-129.9.56-4.11-5.44-2.22-8.33-2.33-19.12-.74-38.06-.38-57.12-2.65-29.83-3.56-58.98-12.47-87.57-20.96,5.95-24.75,7.41-50.49,4.79-75.58-14.47.79-29.86-1.06-44.21.05-6.15.48-27.2,3.31-32.32,4.68-9.27-35.3-18.82-70.84-21.5-107.46-.85-11.68.62-23.72-.02-35.44-.14-2.66,1.57-6.48-2.36-5.85-24.01,69.1-72.95,124.23-129.15,170-.28-.31-3.98-.51-5.92-2.32-21.27-19.74-43.23-32.51-72.97-35.46.72,58.18-3.26,120.78-20.86,176.58-3.47,11-5.78,18.96-7.75,22.61-3.43,6.36-7.17,11.02-9.67,13.83v-234.28c73.53-30.77,128.03-96.38,148.25-172.37h219.98c-4.22,26.61-10.51,52.06-9.66,79.29.1,3.08,2.46,5.3,2.49,5.72.48,7.33-.71,14.81.29,22.15,3.1,22.73,10.35,45.18,18.8,66.43,28.74,13.14,59.51,17.87,90.9,20.04,7.67.53,16.13.05,23.91,0,.86,0,1.43.04,2.39,0,1.59-.06,3.2.09,4.78,0,.23-.01.69.35,2.5.21.87-.07,1.79-.16,2.28-.21l59.78-11.81c0,.79,0,1.57,0,2.36v-2.36Z"/>
</svg>