<?xml version="1.0" encoding="UTF-8"?>
<svg id="Camada_1" xmlns="http://www.w3.org/2000/svg" version="1.1" viewBox="0 0 566.93 566.93">
  <!-- Generator: Adobe Illustrator 29.5.0, SVG Export Plug-In . SVG Version: 2.1.0 Build 137)  -->
  <defs>
    <style>
      .st0 {
        fill: #889f82;
      }

      .st1 {
        fill: #bfb7b4;
      }

      .st2 {
        fill: #ebe0b3;
      }

      .st3 {
        fill: #701e13;
      }
    </style>
  </defs>
  <rect class="st1" width="566.93" height="566.93"/>
  <path class="st0" d="M183.23,71.14h-36.65c-.52,11.22-5.47,21.46-14.56,28.02-2.2-5.66-5.89-10.62-11.78-12.91-4.54,7.84-8.76,14.1-16.43,19.2-12.94,8.61-37.51,14.51-43.16-4.97-6.16-21.24,10.52-31.83,29.87-30.42-6.96-29.54-39.98-26.29-51.44-1.32-18.55,40.42,40.26,79.57,76.23,63.84v-18.32h66.82c23.86-98.92,161.46-110.29,200.99-15.07,2.04,4.9,2.71,10.54,5.41,15.07h64.13v18.32c37.4,16.7,98.53-28.45,72.42-68.65-13.82-21.28-42.79-20.38-48.71,6.13,19.61-1.8,36.42,10.12,29.66,31.29-6.84,21.39-38.5,10.33-50.19-1.59-2.28-2.32-8.42-13.26-9.22-13.45-3.6-.85-10.95,9.44-11.74,12.85-9.24-5.96-13.94-17.22-14.56-28.01h-36.65c11.82-15.18-15.47-51.37,6.95-59.33,19.98-7.09,4.76,16.3,4.08,22.45-2.34,21.25,22.01,17.3,34.97,12.28,14.22-5.5,21.17-17.61,35.93-23.35,19.05-7.41,55.52-7.03,74.35,1.06,5.27,2.26,8.45,12.7,9.98,18.05,8.05,28.24,2.16,58.61-13.16,83.29,9.82,7.87,19.87,14.84,8.56,26.92-1.79,1.92-7.84,4.91-8.44,6.65-.95,2.76.16,8.26-.19,11.67-1.75,16.91-15.04,25.02-31.24,21.02,15.17-39.72-19.09-55.11-52.34-42.09v29.23c61.61,15.79,95.58,80.08,73.62,140.32-11.9,32.65-40.23,57.48-73.96,65.62-.86,1.32-.54,29.92,0,31.51.79,2.31,16.51,4.82,19.76,5.03,31.24,2,41.6-17.82,34.04-46.34,14.4-4.06,27.71,4.01,29.85,19.09.57,4.03-.54,10.66.46,13.55.59,1.71,6.64,4.76,8.44,6.65,11.5,12.04,1.23,18.98-8.57,26.93,2.08,3.05,4,6.15,5.53,9.53,10.61,23.55,14.88,47.61,7.89,72.93-.97,3.53-4.43,13.72-6.49,16.15-2.81,3.31-14.93,5.32-19.71,6.16-22.3,3.92-48.07,4.04-68.12-7.72-6.68-3.92-10.69-9.38-16.88-13.3-11.85-7.51-46.19-17.72-44.47,6.66.42,5.95,15.06,27.53-1.44,24.18-26.43-5.38,2.54-45-9.41-60.13h36.65c.62-10.79,5.32-22.05,14.56-28.01,2.19,5.68,5.92,10.65,11.82,12.93,7.48-16.66,26.8-29.28,45.32-26.98,14.3,1.78,18.53,19.98,12.98,31.35-4.72,9.66-18.94,12.44-28.63,11.79,5.07,24.23,31.58,27.62,46.32,9.13,31.91-40.03-31.24-89.01-70.03-71.65v17.24h-64.67c-18.15,84.14-128.83,110.88-184.27,44.7-11.27-13.45-17.02-28.53-23.2-44.7h-65.21v-17.24c-21.13-7.03-42.22-2.69-59.29,11.3-17.73,14.54-28.06,35.98-14.21,57.35,13.5,20.83,43.23,20.17,48.71-6.13-19.34,1.41-36.04-9.18-29.87-30.42,6.53-22.48,38.33-11.58,50.4.72,3.86,3.94,5.94,9.15,9.18,13.51,5.87-2.29,9.58-7.25,11.77-12.91,9.24,5.96,13.94,17.22,14.56,28.01h36.65c-9.74,16.09,5.55,33.67,1.93,49.89-1.91,8.55-19.3,16.34-19.29,4.55,0-7.33,8.02-13.07,6.13-23.22-3.08-16.5-27.33-10.3-37.83-5.36-9.53,4.48-16.24,12.85-25.66,17.45-20.04,9.77-61.8,12.04-82.17,3.12-6.48-2.84-11.17-22.94-12.19-29.84-3.82-25.82,4.11-49,15.05-71.94-10.25-7.9-19.1-14.89-7.13-26.59,1.85-1.81,6.91-4.24,7.58-5.36,1.38-2.3.23-11.95,1.03-16.21,2.62-13.82,16.53-21.02,29.69-17.19-12.19,41.47,19.61,54.32,54.34,42.15l.52-32.36c-24.9-5.27-47.68-21.06-62.21-41.8-43.7-62.41-10.42-146.41,62.17-164.31l.19-28.25c-15.07-6.28-39.55-8.97-51.25,4.67-8.98,10.47-6.02,24.2-3.81,36.6-13.4,4.11-27.65-3.89-29.87-18-.68-4.34.66-11.46-.44-14.65-.57-1.66-6.62-4.8-8.43-6.65-12.23-12.51-.83-17.49,7.36-27.09-14.52-28.17-22.1-61.63-8.97-91.98,4.22-9.74,5.8-9,15.6-11.35,22.87-5.48,50.07-5.27,71.53,5.01,11.71,5.61,19.11,15.62,31.65,20.08,15.65,5.57,39.29,6.29,32.32-17.24-1.52-5.13-12.46-22.03,2.75-18.94,26.51,5.39-2.67,44.88,9.41,60.13Z"/>
  <path class="st1" d="M371.85,133.65h60.9c.11,0,1.62,1.5,1.62,1.62v59.28c3.61,2.43,9.24,2.22,13.82,3.42,22.89,5.99,41.84,19.38,53.87,39.9,32.89,56.11-4.35,124.43-67.69,130.74v63.05c0,.11-1.5,1.62-1.62,1.62h-60.9c-3.27,29.19-18.65,54.79-44.28,69.43-55.97,31.97-124.04-6.65-129.25-69.43h-61.97c-.11,0-1.62-1.5-1.62-1.62v-63.05c-60.27-4.49-99.28-65.81-74.22-122.18,13.23-29.75,42.05-48.42,74.22-51.35v-61.44h63.59c4.78-56.64,58.79-93.98,113.73-76.54,33.98,10.79,56.13,41.52,59.8,76.54Z"/>
  <path class="st3" d="M246.48,337.02c6.44-7.66.03-19.85-9.88-19.13-6.15.45-11.98,9.61-16.71,13.55-13.58,11.34-30.23,16.17-47.96,14.52-4.28-.4-23.89-5.58-25.17-9.32-1.54-4.48,1.38-18.94-.67-21.97-16.96-6.56-32.68-16.84-43.62-31.6,11.98-13.87,26.14-24.77,43.62-30.82,1.98-4.96-1.21-19.03,1.02-22.69.93-1.52,11.69-5.7,14.09-6.39,18.58-5.32,40.36-2.04,55.8,9.82,7.71,5.92,17.67,23.38,28.68,13.23,11.55-10.64-7-21.82-12.69-29.22-11.86-15.44-15.14-37.21-9.82-55.8.69-2.41,4.87-13.17,6.39-14.09,3.66-2.23,17.73.96,22.69-1.02,6.34-17.1,16.83-32.68,31.6-43.62,13.9,11.92,24.42,26.4,30.82,43.62l22.69,1.02c13.75,23.3,11.35,52.07-5.93,72.78-5.68,6.81-20.91,16.1-9.77,25.91,11.57,10.19,19.97-6.44,28.27-12.81,13.77-10.58,32.69-14.3,49.76-11.33,3.29.57,17.81,5.37,19.58,7.36,2.94,3.31-.38,18.17,1.56,23.23,16.99,6.39,32.66,16.95,43.62,31.6-11.88,13.98-26.46,24.26-43.62,30.82l-1.02,22.69c-25.24,14.83-55,10.54-76.53-8.64-2.79-2.49-5.5-8.33-9.44-9.95-9.82-4.04-19.11,5.27-15.08,15.08,1.49,3.62,11.85,11.76,15.16,16.08,15.1,19.66,16.25,48.8,3.43,69.89l-22.69,1.02c-6.56,17.16-16.84,31.74-30.82,43.62-14.65-10.96-25.21-26.62-31.6-43.62l-22.69-1.02c-13.22-21.52-11.53-51.32,4.35-71.13,3.46-4.31,9.61-8.15,12.57-11.68Z"/>
  <path class="st2" d="M276.74,246.02c52.66-7.68,60.17,69.39,11.46,75.05-50.24,5.84-57.48-68.34-11.46-75.05Z"/>
</svg>