<?xml version="1.0" encoding="UTF-8"?>
<svg id="Camada_1" xmlns="http://www.w3.org/2000/svg" version="1.1" viewBox="0 0 566.93 566.93">
  <!-- Generator: Adobe Illustrator 29.5.0, SVG Export Plug-In . SVG Version: 2.1.0 Build 137)  -->
  <defs>
    <style>
      .st0 {
        fill: #522019;
      }

      .st1 {
        fill: #d6ad43;
      }

      .st2 {
        fill: #94c0dd;
      }
    </style>
  </defs>
  <rect class="st0" x=".88" y=".1" width="566.91" height="566.91" transform="translate(567.89 -.78) rotate(90)"/>
  <polygon class="st1" points=".91 .12 .91 167.91 168.69 .12 .91 .12"/>
  <polygon class="st1" points="567.81 567.03 567.81 399.24 400.02 567.03 567.81 567.03"/>
  <path class="st2" d="M29,567.01h370.4c5.28-53.55-12.58-108.95-53.6-149.97-38.64-38.64-90.05-56.74-140.66-54.29,2.45-50.6-15.65-102.01-54.29-140.66C109.84,181.07,54.43,163.2.88,168.48v370.4"/>
  <path class="st2" d="M539.67.1H169.27c-5.28,53.55,12.58,108.95,53.6,149.97,38.64,38.64,90.05,56.74,140.66,54.29-2.45,50.6,15.65,102.01,54.29,140.66,41.02,41.02,96.42,58.88,149.97,53.6V28.22"/>
  <polygon class="st1" points="567.81 .12 400.02 .12 567.81 167.91 567.81 .12"/>
  <polygon class="st1" points=".91 567.03 168.69 567.03 .91 399.24 .91 567.03"/>
</svg>