<?xml version="1.0" encoding="UTF-8"?>
<svg id="Camada_1" xmlns="http://www.w3.org/2000/svg" version="1.1" viewBox="0 0 566.93 566.93">
  <!-- Generator: Adobe Illustrator 29.5.0, SVG Export Plug-In . SVG Version: 2.1.0 Build 137)  -->
  <defs>
    <style>
      .st0 {
        fill: #f9f9f9;
      }

      .st1 {
        fill: #262523;
      }
    </style>
  </defs>
  <path class="st0" d="M.08,552.94V0h566.84v566.93h-19.36l-33.54-4.64c-131.48-23.74-232.55-143.82-231.06-278.28,137.23-1.1,257.4,101.73,279.32,236.47l3.57,26.02V1.08c-86.67-.45-168.75,40.29-222,107.69-39.48,49.98-60.17,111.33-60.88,175.24C131.56,285.21,8.72,402,.08,552.94Z"/>
  <path class="st1" d="M282.97,284c.71-63.91,21.4-125.26,60.88-175.24C397.1,41.36,479.18.63,565.85,1.08v545.41l-3.57-26.02c-21.92-134.74-142.09-237.57-279.32-236.47-1.49,134.46,99.58,254.54,231.06,278.28l33.54,4.64H.08c.19-4.63-.26-9.37,0-13.98,8.64-150.94,131.47-267.73,282.88-268.94Z"/>
</svg>