<?xml version="1.0" encoding="UTF-8"?>
<svg id="Camada_1" xmlns="http://www.w3.org/2000/svg" version="1.1" viewBox="0 0 566.93 566.93">
  <!-- Generator: Adobe Illustrator 29.5.0, SVG Export Plug-In . SVG Version: 2.1.0 Build 137)  -->
  <defs>
    <style>
      .st0 {
        fill: #f9f9f9;
      }

      .st1 {
        fill: #262523;
      }
    </style>
  </defs>
  <path class="st1" d="M551.87,566.85c-169.98-9.63-293.42-164.03-264.3-332.56C310.66,100.64,429.75.16,565.86,1.07v565.77c-4.64-.19-9.37.26-13.99,0Z"/>
  <path class="st1" d="M12.91,566.85H0V1.08C130.64.43,246.92,94.55,274.87,221.56c38,172.64-86.87,335.12-261.96,345.28Z"/>
  <path class="st0" d="M0,1.08V0h566.93v566.85h-1.08V1.07c-136.1-.91-255.2,99.57-278.28,233.21-29.12,168.53,94.32,322.93,264.3,332.56H12.91c175.09-10.16,299.96-172.64,261.96-345.28C246.92,94.55,130.64.43,0,1.08Z"/>
</svg>