<?xml version="1.0" encoding="UTF-8"?>
<svg id="Camada_1" xmlns="http://www.w3.org/2000/svg" version="1.1" viewBox="0 0 566.93 566.93">
  <!-- Generator: Adobe Illustrator 29.5.0, SVG Export Plug-In . SVG Version: 2.1.0 Build 137)  -->
  <defs>
    <style>
      .st0 {
        fill: #ece0c6;
      }

      .st1 {
        fill: #d6ad43;
      }

      .st2 {
        fill: #8e877f;
      }

      .st3 {
        fill: #262523;
      }
    </style>
  </defs>
  <polygon class="st3" points="37.98 141.73 37.98 425.2 283.46 566.93 528.95 425.2 528.95 141.73 283.46 0 37.98 141.73"/>
  <polygon class="st2" points="52.71 150.24 52.71 416.69 283.46 549.92 514.22 416.69 514.22 150.24 283.46 17.01 52.71 150.24"/>
  <polygon class="st1" points="82.16 167.24 82.16 399.69 283.46 515.91 484.76 399.69 484.76 167.24 283.46 51.02 82.16 167.24"/>
  <polygon class="st0" points="114.32 185.81 114.32 381.12 283.46 478.78 452.61 381.12 452.61 185.81 283.46 88.15 114.32 185.81"/>
  <polygon class="st2" points="146.41 204.33 146.41 362.59 283.46 441.72 420.52 362.59 420.52 204.33 283.46 125.2 146.41 204.33"/>
</svg>