<?xml version="1.0" encoding="UTF-8"?>
<svg id="Camada_6" xmlns="http://www.w3.org/2000/svg" version="1.1" viewBox="0 0 566.93 566.93">
  <!-- Generator: Adobe Illustrator 29.5.0, SVG Export Plug-In . SVG Version: 2.1.0 Build 137)  -->
  <defs>
    <style>
      .st0 {
        fill: #fff;
      }

      .st1 {
        fill: #3f5a91;
      }

      .st2 {
        fill: #94c0dd;
      }

      .st3 {
        fill: none;
        stroke: #3458ae;
        stroke-linecap: round;
        stroke-linejoin: round;
      }
    </style>
  </defs>
  <polygon class="st0" points="283.46 566.93 566.93 566.93 425.2 472.44 283.46 566.93"/>
  <polygon class="st0" points="0 566.93 283.46 566.93 141.73 472.44 0 566.93"/>
  <polygon class="st0" points="283.46 0 0 0 141.73 94.49 283.46 0"/>
  <polygon class="st2" points="425.2 283.46 425.2 94.49 283.46 0 283.46 188.98 425.2 283.46"/>
  <polygon class="st1" points="425.2 283.46 566.93 188.98 566.93 0 425.2 94.49 425.2 283.46"/>
  <polygon class="st2" points="141.73 94.49 0 0 0 188.98 141.73 283.46 141.73 94.49"/>
  <polygon class="st1" points="141.73 283.46 283.46 188.98 283.46 0 141.73 94.49 141.73 283.46"/>
  <polygon class="st0" points="566.93 0 283.46 0 425.2 94.49 566.93 0"/>
  <polygon class="st2" points="141.73 283.46 141.73 472.44 283.46 566.93 283.46 377.95 141.73 283.46"/>
  <polygon class="st1" points="425.2 283.46 283.46 377.95 283.46 566.93 425.2 472.44 425.2 283.46"/>
  <polygon class="st1" points="141.73 283.46 0 377.95 0 566.93 141.73 472.44 141.73 283.46"/>
  <polygon class="st0" points="0 188.98 0 283.46 0 377.95 141.73 283.46 0 188.98"/>
  <polygon class="st0" points="283.46 188.98 141.73 283.46 283.46 377.95 425.2 283.46 283.46 188.98"/>
  <polygon class="st2" points="425.2 283.46 425.2 472.44 566.93 566.93 566.93 377.95 425.2 283.46"/>
  <line class="st3" x1="566.93" y1="377.95" x2="566.93" y2="566.93"/>
  <polygon class="st0" points="425.2 283.46 566.93 377.95 566.93 283.46 566.93 188.98 425.2 283.46"/>
</svg>