<?xml version="1.0" encoding="UTF-8"?>
<svg id="Camada_1" xmlns="http://www.w3.org/2000/svg" version="1.1" viewBox="0 0 566.93 566.93">
  <!-- Generator: Adobe Illustrator 29.5.0, SVG Export Plug-In . SVG Version: 2.1.0 Build 137)  -->
  <defs>
    <style>
      .st0 {
        fill: #889f82;
      }

      .st1 {
        fill: #f9f9f9;
      }

      .st2 {
        fill: #54627c;
      }
    </style>
  </defs>
  <polygon class="st1" points="566.93 566.93 0 566.93 0 440.47 8.66 440.11 17.19 439.04 25.67 437.32 33.97 434.83 41.98 431.69 49.74 427.9 57.15 423.45 64.21 418.47 70.79 412.9 76.9 406.79 82.47 400.15 87.51 393.15 91.9 385.74 95.69 377.97 98.84 369.91 101.33 361.67 103.11 353.19 104.17 344.59 104.53 336 104.17 327.34 103.11 318.8 101.33 310.32 98.84 302.08 95.69 294.02 91.9 286.25 87.51 278.84 82.47 271.79 76.9 265.21 70.79 259.1 64.21 253.52 57.15 248.48 49.74 244.1 41.98 240.3 33.97 237.16 25.67 234.67 17.19 232.89 8.66 231.82 0 231.47 0 191.45 12.87 191.98 25.67 193.58 38.3 196.19 50.63 199.87 62.61 204.55 74.23 210.24 85.26 216.82 95.75 224.29 105.59 232.65 114.73 241.72 123.03 251.57 130.5 262.06 137.14 273.15 142.77 284.71 147.45 296.69 151.13 309.08 152.43 315.36 153.38 320.22 154.09 325.15 154.57 330.13 154.87 335.05 154.92 340.03 154.81 345.01 154.45 349.93 153.92 354.85 153.15 359.77 149.59 374.24 144.31 393.15 139.51 408.21 134.29 423.09 128.66 437.8 122.55 452.32 115.97 466.67 109.03 480.84 101.62 494.71 93.79 508.47 85.61 521.93 102.81 515.41 119.47 507.58 135.54 498.63 150.89 488.43 165.42 477.11 179.05 464.77 191.74 451.37 203.36 437.14 213.92 422.02 223.35 406.2 231.53 389.71 238.4 372.64 244.04 355.09 248.31 337.18 251.27 319.04 252.81 300.72 253.05 282.28 251.86 263.9 249.25 245.7 245.34 227.67 240.12 210.06 234.55 209.23 229.21 207.46 224.35 204.73 219.96 201.17 213.5 192.1 211.61 186.82 210.66 181.31 210.66 175.67 211.72 170.16 213.74 164.94 216.64 160.14 206.45 144.84 195.06 130.32 182.67 116.74 169.33 104.05 154.98 92.49 139.86 82 124.03 72.63 107.49 64.51 90.42 57.63 81.46 63.8 76.31 65.63 70.97 66.64 65.52 66.76 60.12 65.93 54.96 64.21 50.1 61.72 45.77 58.4 39.01 49.92 36.76 44.94 18.44 43.4 0 43.28 0 0 566.93 0 566.93 43.28 548.49 43.4 530.17 44.94 527.92 49.92 524.89 54.43 516.77 61.72 511.97 64.21 506.81 65.93 501.41 66.76 495.96 66.64 490.56 65.63 485.47 63.8 480.72 61.07 459.44 64.51 442.89 72.63 427.01 82 411.89 92.49 397.6 104.05 384.2 116.74 377.68 123.92 369.2 133.76 361.19 144.01 353.84 154.69 346.96 165.77 340.74 177.16 335.17 188.9 330.13 200.87 325.8 213.15 322.12 225.6 319.1 238.23 317.62 245.7 316.73 251.03 315.07 263.9 313.88 282.28 314.06 300.72 315.66 319.04 318.56 337.18 322.89 355.09 328.52 372.64 335.4 389.71 343.58 406.2 352.95 422.02 363.51 437.14 375.19 451.37 387.87 464.77 401.51 477.11 416.04 488.43 431.33 498.63 447.4 507.58 464.12 515.41 481.31 521.93 473.13 508.47 465.31 494.71 457.9 480.84 450.96 466.67 444.38 452.32 438.27 437.8 432.58 423.09 427.36 408.21 422.62 393.15 418.29 378.03 414.44 362.74 413.01 354.85 412.48 349.93 412.12 345.01 411.95 340.03 412.06 335.05 412.36 330.13 412.83 325.15 413.55 320.22 414.44 315.36 415.8 309.08 419.48 296.69 424.16 284.71 429.79 273.15 436.37 262.06 443.9 251.57 452.2 241.72 461.33 232.65 471.18 224.29 481.61 216.82 492.7 210.24 504.26 204.55 516.3 199.87 528.63 196.19 541.26 193.58 554 191.98 566.93 191.45 566.93 231.47 558.27 231.82 549.68 232.89 541.26 234.67 532.96 237.16 524.89 240.3 517.19 244.1 509.71 248.48 502.72 253.52 496.14 259.1 490.03 265.21 484.46 271.79 479.42 278.84 474.97 286.25 471.18 294.02 468.03 302.08 465.6 310.32 463.82 318.8 462.76 327.34 462.4 336 462.76 344.59 463.82 353.19 465.6 361.67 468.03 369.91 471.18 377.97 474.97 385.74 479.42 393.15 484.46 400.15 490.03 406.79 496.14 412.9 502.72 418.47 509.71 423.45 517.19 427.9 524.89 431.69 532.96 434.83 541.26 437.32 549.68 439.04 558.27 440.11 566.93 440.47 566.93 566.93"/>
  <polygon class="st2" points="8.66 440.11 0 440.47 0 231.47 8.66 231.82 17.19 232.89 25.67 234.67 33.97 237.16 41.98 240.3 49.74 244.1 57.15 248.48 64.21 253.52 70.79 259.1 76.9 265.21 82.47 271.79 87.51 278.84 91.9 286.25 95.69 294.02 98.84 302.08 101.33 310.32 103.11 318.8 104.17 327.34 104.53 336 104.17 344.59 103.11 353.19 101.33 361.67 98.84 369.91 95.69 377.97 91.9 385.74 87.51 393.15 82.47 400.15 76.9 406.79 70.79 412.9 64.21 418.47 57.15 423.45 49.74 427.9 41.98 431.69 33.97 434.83 25.67 437.32 17.19 439.04 8.66 440.11"/>
  <polygon class="st0" points="12.87 191.98 0 191.45 0 43.28 18.44 43.4 36.76 44.94 39.01 49.92 42.04 54.43 50.1 61.72 54.96 64.21 60.12 65.93 65.52 66.76 70.97 66.64 76.31 65.63 81.46 63.8 86.21 61.07 107.49 64.51 124.03 72.63 139.86 82 154.98 92.49 169.33 104.05 182.67 116.74 195.06 130.32 206.45 144.84 216.64 160.14 213.74 164.94 211.72 170.16 210.66 175.67 210.66 181.31 211.61 186.82 213.5 192.1 216.35 196.9 224.35 204.73 229.21 207.46 234.55 209.23 240.12 210.06 245.34 227.67 249.25 245.7 251.86 263.9 253.05 282.28 252.81 300.72 251.27 319.04 248.31 337.18 244.04 355.09 238.4 372.64 231.53 389.71 223.35 406.2 213.92 422.02 203.36 437.14 191.74 451.37 179.05 464.77 165.42 477.11 150.89 488.43 135.54 498.63 119.47 507.58 102.81 515.41 85.61 521.93 93.79 508.47 101.62 494.71 109.03 480.84 115.97 466.67 122.55 452.32 128.66 437.8 134.29 423.09 139.51 408.21 144.31 393.15 148.64 378.03 150.95 369.49 152.14 364.63 153.15 359.77 153.92 354.85 154.45 349.93 154.81 345.01 154.92 340.03 154.87 335.05 154.57 330.13 154.09 325.15 153.38 320.22 152.43 315.36 151.13 309.08 147.45 296.69 142.77 284.71 137.14 273.15 130.5 262.06 123.03 251.57 114.73 241.72 105.59 232.65 95.75 224.29 85.26 216.82 74.23 210.24 62.61 204.55 50.63 199.87 38.3 196.19 25.67 193.58 12.87 191.98"/>
  <polygon class="st0" points="548.49 43.4 566.93 43.28 566.93 191.45 554 191.98 541.26 193.58 528.63 196.19 516.3 199.87 504.26 204.55 492.7 210.24 481.61 216.82 471.18 224.29 461.33 232.65 452.2 241.72 443.9 251.57 436.37 262.06 429.79 273.15 424.16 284.71 419.48 296.69 415.8 309.08 414.44 315.36 413.55 320.22 412.83 325.15 412.36 330.13 412.06 335.05 411.95 340.03 412.12 345.01 412.48 349.93 413.01 354.85 413.78 359.77 414.73 364.63 415.92 369.49 417.34 374.24 422.62 393.15 427.36 408.21 432.58 423.09 438.27 437.8 444.38 452.32 450.96 466.67 457.9 480.84 465.31 494.71 473.13 508.47 481.31 521.93 464.12 515.41 447.4 507.58 431.33 498.63 416.04 488.43 401.51 477.11 387.87 464.77 375.19 451.37 363.51 437.14 352.95 422.02 343.58 406.2 335.4 389.71 328.52 372.64 322.89 355.09 318.56 337.18 315.66 319.04 314.06 300.72 313.88 282.28 315.07 263.9 316.73 251.03 317.62 245.7 319.1 238.23 322.12 225.6 325.8 213.15 330.13 200.87 335.17 188.9 340.74 177.16 346.96 165.77 353.84 154.69 361.19 144.01 369.2 133.76 377.68 123.92 384.2 116.74 397.6 104.05 411.89 92.49 427.01 82 442.89 72.63 459.44 64.51 476.51 57.63 485.47 63.8 490.56 65.63 495.96 66.64 501.41 66.76 506.81 65.93 511.97 64.21 516.77 61.72 521.16 58.4 527.92 49.92 530.17 44.94 548.49 43.4"/>
  <polygon class="st2" points="558.27 231.82 566.93 231.47 566.93 440.47 558.27 440.11 549.68 439.04 541.26 437.32 532.96 434.83 524.89 431.69 517.19 427.9 509.71 423.45 502.72 418.47 496.14 412.9 490.03 406.79 484.46 400.15 479.42 393.15 474.97 385.74 471.18 377.97 468.03 369.91 465.6 361.67 463.82 353.19 462.76 344.59 462.4 336 462.76 327.34 463.82 318.8 465.6 310.32 468.03 302.08 471.18 294.02 474.97 286.25 479.42 278.84 484.46 271.79 490.03 265.21 496.14 259.1 502.72 253.52 509.71 248.48 517.19 244.1 524.89 240.3 532.96 237.16 541.26 234.67 549.68 232.89 558.27 231.82"/>
</svg>