<?xml version="1.0" encoding="UTF-8"?>
<svg id="Camada_1" xmlns="http://www.w3.org/2000/svg" version="1.1" viewBox="0 0 566.93 566.93">
  <!-- Generator: Adobe Illustrator 29.5.0, SVG Export Plug-In . SVG Version: 2.1.0 Build 137)  -->
  <defs>
    <style>
      .st0 {
        fill: #ae4d3a;
      }

      .st1 {
        fill: #fcd8a8;
      }

      .st2 {
        fill: #4a6441;
      }

      .st3 {
        fill: #404759;
      }
    </style>
  </defs>
  <rect class="st2" x="0" width="566.93" height="566.93"/>
  <polygon class="st1" points="0 329.47 90.83 489.43 61.07 530.4 0 396.4 0 329.47"/>
  <polygon class="st1" points="22.15 235.79 4.01 55.25 48.89 34.74 48.89 176.2 156.68 86.38 165.34 137.96 22.15 235.79"/>
  <polygon class="st1" points="48 270.06 169.25 142.41 214.67 166.36 107.95 256.13 244.61 289.27 210.52 329.47 48 270.06"/>
  <polygon class="st3" points="38.1 313.22 208.03 336.76 220.42 387.63 86.01 353.89 148.74 485.69 97.81 485.69 38.1 313.22"/>
  <polygon class="st0" points="4.01 55.25 22.15 235.79 165.34 137.96 169.25 142.41 48 270.06 210.52 329.47 208.03 336.76 38.1 313.22 97.81 485.69 90.83 489.43 0 329.47 0 55.25 4.01 55.25"/>
  <polygon class="st1" points="566.93 329.47 476.1 489.43 505.86 530.4 566.93 396.4 566.93 329.47"/>
  <polygon class="st1" points="544.78 235.79 562.92 55.25 518.04 34.74 518.04 176.2 410.25 86.38 401.59 137.96 544.78 235.79"/>
  <polygon class="st3" points="518.93 270.06 397.68 142.41 352.26 166.36 458.98 256.13 322.32 289.27 356.41 329.47 518.93 270.06"/>
  <polygon class="st1" points="528.83 313.22 358.9 336.76 346.51 387.63 480.92 353.89 418.19 485.69 469.12 485.69 528.83 313.22"/>
  <polygon class="st0" points="562.92 55.25 544.78 235.79 401.59 137.96 397.68 142.41 518.93 270.06 356.41 329.47 358.9 336.76 528.83 313.22 469.12 485.69 476.1 489.43 566.93 329.47 566.93 55.25 562.92 55.25"/>
</svg>