<?xml version="1.0" encoding="UTF-8"?>
<svg id="Camada_2" xmlns="http://www.w3.org/2000/svg" version="1.1" viewBox="0 0 566.93 566.93">
  <!-- Generator: Adobe Illustrator 29.5.0, SVG Export Plug-In . SVG Version: 2.1.0 Build 137)  -->
  <defs>
    <style>
      .st0 {
        fill: #4a6441;
      }

      .st0, .st1, .st2, .st3 {
        fill-rule: evenodd;
      }

      .st4, .st1 {
        fill: #fff;
      }

      .st2 {
        fill: #262523;
      }

      .st5 {
        fill: #701e13;
      }

      .st3 {
        fill: #3f5a91;
      }
    </style>
  </defs>
  <rect class="st5" x=".06" y=".06" width="566.93" height="566.93"/>
  <path class="st4" d="M566.49-.06H-.06v69.81c8.77,27.54,31.29,91.36,42.96,118.27,8.41,19.39,11.02,39.53,24.17,53.74h2.69c6.92-3.61,17.11-34.77,24.17-53.74,13.02-34.98,31.07-100.89,53.7-126.28l1.96-5.27c.13-.34.58-.37.75-.05,13.71,25.67,38.25,47.5,53.67,72.49,23.75,38.49,35.91,86.32,58.46,124.49.48,0,.61,0,1.08,0,24.64-40.26,54.91-75.41,80.08-113.75,15.57-23.72,24.03-52.27,42.96-72.55,0-1.64,2.17-2.27,3.02-.86,10.75,17.91,12.63,42.66,21.15,62.66,8.71,20.46,23.1,42.23,32.22,64.48,7.32,17.86,7.28,35.5,18.8,48.36,0,1.25,1.39,1.97,2.43,1.28,16.41-10.94,27.31-43.55,36.67-61.57,16.35-31.5,52.16-66.09,65.62-116.96.63-2.4.34-52.43,0-64.56Z"/>
  <path class="st1" d="M-.06,416.4c46.15-.31,173.31-2.1,201.38,13.43,26.48,14.65,27.83,59.24,59.07,69.86,5.11-27.41,16.34-47.99,32.22-64.48,33.11,6.6,73.51.86,102.03-5.37,57.28-3.58,114.57-7.17,171.85-10.75v147.78H-.06v-150.46Z"/>
  <path class="st3" d="M-.06,357.29c242.89,6.14,239.66,6.15,284.62,5.37,42.88-.74,250.78-7.77,281.93-10.75-.47,17.57,0,32.24,0,32.24,0,0-16.55,2.75-37.59,5.37-21.04,2.63-40.72,4.94-91.29,8.06s-52.32,8.19-83.24,8.06c-30.92-.13-40.99-5.7-56.39-2.69s-40.31,4.23-48.33,34.93c-26.67-34.74-41-39.97-80.55-45.68C129.54,386.51-.06,386.85-.06,386.85v-29.56Z"/>
  <path class="st0" d="M-.06,416.4c46.15-.31,173.31-2.1,201.38,13.43,26.48,14.65,27.83,59.24,59.07,69.86,5.11-27.41,16.34-47.99,32.22-64.48,33.11,6.6,73.51.86,102.03-5.37,57.28-3.58,114.57-7.17,171.85-10.75v-34.93s-16.55,2.75-37.59,5.37c-21.04,2.63-40.72,4.94-91.29,8.06s-52.32,8.19-83.24,8.06c-30.92-.13-40.99-5.7-56.39-2.69s-40.31,4.23-48.33,34.93c-26.67-34.74-41-39.97-80.55-45.68C129.54,386.51-.06,386.85-.06,386.85v29.56Z"/>
  <path class="st2" d="M260.52,81.24c-6,17.24-2.89,37.38,13.25,43.54,2.91,1.11,6.21.48,8.55-1.57,1.66-1.45,3.26-2.78,4.92-5.05,4.81-6,5.51-14.46,5.43-25.26-.02-2.58-1.19-5.01-3.2-6.62-6.57-5.25-8.76-9.33-19.84-10.66-3.99-.48-7.8,1.84-9.12,5.63Z"/>
  <path class="st2" d="M55.99,82.43c-3.51,5.2-6.09,9.2-7.29,18.05-.33,2.42.27,4.89,1.73,6.83,4.11,5.46,4.91,9.91,13.01,13.17.6.24,1.19.54,1.72.9.92.62,1.48.93,2.25,1.15,2.67.79,5.56.23,7.84-1.36.42-.29.85-.57,1.3-.84,2.54-1.55,4.19-4.22,4.45-7.18.73-8.32.47-13.83-.18-22.69-.2-2.78-1.63-5.34-3.91-6.96-3.69-2.62-5.7-4.26-11.84-5.12-3.55-.5-7.09,1.06-9.09,4.04Z"/>
  <path class="st2" d="M461.77,77.86c-4.2,4.83-5.28,3.44-8.06,10.75-12.32,16.73,2.07,31.67,18.29,34.46,3.06.53,5.88-1.8,5.88-4.91h0c7.45-9.24,4.01-18.94,2.69-32.24-7.32-4.59-6.71-6.81-18.8-8.06Z"/>
  <path class="st2" d="M147.62,174.58s16.72-8.99,24.17,5.37c7.44,14.37,9.74,37.96-2.69,37.62s-24.83-7.93-26.85-24.18c-2.02-16.25-.14-13.98,5.37-18.81Z"/>
  <path class="st2" d="M370.48,182.64c6.92-1.56,27-4.43,29.54,13.43,2.54,17.87-.22,25.94-13.43,26.87-13.2.93-23.51-12.79-24.17-24.18-.65-11.39,5.39-15.52,8.06-16.12Z"/>
</svg>