<?xml version="1.0" encoding="UTF-8"?>
<svg id="Camada_2_cópia" xmlns="http://www.w3.org/2000/svg" version="1.1" viewBox="0 0 566.93 566.93">
  <!-- Generator: Adobe Illustrator 29.5.0, SVG Export Plug-In . SVG Version: 2.1.0 Build 137)  -->
  <defs>
    <style>
      .st0 {
        fill: #bfb7b4;
      }

      .st1 {
        fill: #54627c;
      }

      .st2 {
        fill: #474546;
      }

      .st3 {
        fill: #262523;
      }
    </style>
  </defs>
  <rect class="st0" x="0" y="0" width="566.93" height="566.93"/>
  <path class="st2" d="M296.12,143.92c-1.56-14.69-1.49-92.5-9.92-98.09-11.98-7.95-22.63,11.79-26.23,21.23-4.39,11.51-20.72,90.32-15.87,95.65l52.01-18.8ZM326.62,295.15c55.04-39.1,14.6-113.14-45.08-93.67-33.75,11.01-42.96,61-19.21,86.06,15.58,16.44,46.73,20.09,64.29,7.61Z"/>
  <path class="st3" d="M391.08,566.93s2.06-61.04,102.36-154.86c.57-6.76-2.77-13.02-2.84-19.69-.1-9.51,6.8-39.23,18.59-40.67-33.2-43.46-66.05-77.12-103.28-117.19-8.42-9.06-18.47-17.13-22.71-32.41,13.23,2.13,26.79-6.31,36.83-14.37,6.16-4.95,26.72-24.77,22.4-32.88-36.42-26.99-87.55-17.09-130.08-15.74-.36-16.06-12.82-115.03-21.42-120.28-3.11-1.9-11.61-.65-15.28.92-16.9,7.24-51.46,102.9-64.38,124.67-2,3.37.48,6.63-6.51,5.17L207.35,0H0v566.93h209.97c-.68-59.16-13.45-119.96,1.22-178.57,2.39-9.54,6.83-25.58,14.5-31.41,6.83,65.99,31.4,132.39,81.35,179.83,16.79,15.94,44.66,30.15,44.66,30.15h39.37Z"/>
  <path class="st1" d="M326.62,295.15c-17.56,12.48-48.7,8.83-64.29-7.61-23.75-25.05-14.53-75.05,19.21-86.06,59.68-19.47,100.12,54.57,45.08,93.67Z"/>
  <path class="st1" d="M296.12,143.92l-52.01,18.8c-4.86-5.34,11.48-84.15,15.87-95.65,3.6-9.45,14.25-29.19,26.23-21.23,8.43,5.59,8.35,83.4,9.92,98.09Z"/>
  <path class="st1" d="M509.19,351.71c.28.36,3.24,3.8,5.03,6.21,5.22,7.01,25.34,29.15,23.49,36.55-3.91,15.65-33.77,15.02-44.27,17.61.57-6.76-2.77-13.02-2.84-19.69-.1-9.51,6.8-39.23,18.59-40.67Z"/>
</svg>