<?xml version="1.0" encoding="UTF-8"?>
<svg id="Camada_1" xmlns="http://www.w3.org/2000/svg" version="1.1" viewBox="0 0 566.93 566.93">
  <!-- Generator: Adobe Illustrator 29.5.0, SVG Export Plug-In . SVG Version: 2.1.0 Build 137)  -->
  <defs>
    <style>
      .st0 {
        fill: #ebe0b3;
      }

      .st1 {
        fill: #d6ad43;
      }
    </style>
  </defs>
  <rect class="st1" x=".88" y=".1" width="566.93" height="566.93" transform="translate(567.91 -.78) rotate(90)"/>
  <path class="st0" d="M296.8,424.4c-.75-2.73-4.43-3.39-6.67-1.65-31.71,24.58-54.75,74.34-71.05,96.99-3.57,4.97-9.5,9.96-9.83-1.98-.69-25.6-2.06-71.74,10.74-116.89.69-2.44-1.8-4.57-4.09-3.48-48.65,23.12-103.62,56.12-119.46,65.78-2.06,1.26-4.68-.33-4.5-2.74,1.07-14.68,10.94-58.66,82.98-130.17,1.85-1.84.6-5-2.01-5.05-41.05-.81-101.63-2.9-129.08-3.88-5.45-.19-7.79-7-3.61-10.5,20.33-17,68.66-50.16,140.1-54.19,2.29-.13,3.56-2.69,2.29-4.6-22.99-34.54-75.54-75.1-100.99-94.87-4.37-3.39-1.6-10.38,3.91-9.88,25.43,2.29,76.11,10.64,124.36,31.17,1.96.83,4.13-.58,4.14-2.71.26-52.07-4.75-96.24-13.52-117.6-1.06-2.57,1.69-5.04,4.13-3.72,16.52,8.93,39.31,38.28,81.32,118.44,1.08,2.06,3.45,1.68,5.16.11,11.28-10.29,24.58-61.07,34.55-132.34.36-2.59,3.92-3.18,5.37-1,34.05,51.25,34.17,127.15,29.3,151.05-.54,2.65,2.49,4.57,4.66,2.95,54.38-40.71,85.01-72.02,94.6-87.92,1.54-2.55,5.45-1.47,5.48,1.51.27,30.43-9.99,112.84-65.68,148.59-2.29,1.47-1.5,5.01,1.2,5.39,24.1,3.35,101.51,7.72,126.85,5.76,2.52-.19,4.1,2.69,2.58,4.71-12.24,16.21-83.55,62.3-130.16,65.52-2.36.16-3.58,2.88-2.13,4.75,27.09,34.9,73.85,82.69,97.99,100.52,2.38,1.76.96,5.54-1.99,5.31-21.49-1.66-84.15-15.2-134.68-50.85-2.12-1.49-4.96.63-4.41,3.16,7.12,32.61,10.14,95.4,19.93,126.24.54,1.69-1.29,3.04-2.82,2.15-14.45-8.36-56.38-36.77-74.95-104.12Z"/>
</svg>