<?xml version="1.0" encoding="UTF-8"?>
<svg xmlns="http://www.w3.org/2000/svg" version="1.1" viewBox="0 0 566.93 566.93">
  <!-- Generator: Adobe Illustrator 29.5.0, SVG Export Plug-In . SVG Version: 2.1.0 Build 137)  -->
  <defs>
    <style>
      .st0 {
        fill: #ebe0b3;
      }

      .st0, .st1 {
        fill-rule: evenodd;
      }

      .st2 {
        fill: #3f5a91;
      }

      .st1 {
        fill: #d6ad43;
      }
    </style>
  </defs>
  <g id="Camada_1">
    <rect class="st2" x="-.08" y="-.13" width="566.93" height="566.93"/>
  </g>
  <g id="Camada_4">
    <path class="st0" d="M296.51,406.7s-.35-17.6,13.12-31.5c13.47-13.9,55.12-68.24,55.12-68.24,0,0,120.74,157.1,181.1,228.35-157-81.02-249.34-128.61-249.34-128.61Z"/>
    <path class="st0" d="M170.52,338.46l21,209.97,48.58-86.93c.86-1.53,1.94-2.92,3.21-4.13l50.58-48.05-123.36-70.87Z"/>
    <polygon class="st0" points="160.02 225.59 262.39 191.47 131.15 5.12 160.02 225.59"/>
  </g>
  <g id="Camada_3">
    <path class="st1" d="M157.4,228.22l10.5,107.61s-82.65-39.79-97.11-41.99-42.35,4.31-49.87,7.87c-7.52,3.57,15.32-16.69,47.24-34.12,31.93-17.43,62.76-34.46,89.24-39.37Z"/>
    <path class="st1" d="M265.01,194.1l99.74,110.24s43.33-61.34,57.74-81.36c14.41-20.03,49.33-88.94,76.12-133.86s47.24-76.12,47.24-76.12c0,0-75.59,64.73-115.49,97.11-39.9,32.39-77.42,51.13-104.99,60.37s-48.14,15.11-60.37,23.62Z"/>
  </g>
</svg>