<?xml version="1.0" encoding="UTF-8"?>
<svg id="Camada_1" xmlns="http://www.w3.org/2000/svg" version="1.1" viewBox="0 0 566.93 566.93">
  <!-- Generator: Adobe Illustrator 29.5.0, SVG Export Plug-In . SVG Version: 2.1.0 Build 137)  -->
  <defs>
    <style>
      .st0 {
        fill: #ae4d3a;
      }

      .st1 {
        fill: #4a6441;
      }

      .st2 {
        fill: #fdfdfd;
      }
    </style>
  </defs>
  <path class="st2" d="M230.97-.68l-38.97,37.71c7.99,12.6,21.43,19.05,31.28,28.49,100.97,96.83,202.43,195.03,304.16,290.08-22.38,14.16-45.12,28.28-66.93,43.32-42.95,29.62-84.44,62.67-125.52,94.51-26.72,20.71-55.37,40.45-81.45,62.88-3.46,2.97-7.16,4.13-6.97,9.94H106.14c2.27-25.04,12.51-46.4,19.57-70.16,12.85-43.25,26.01-93.85,42.84-135.29,18.72-46.07,39.53-95.87,59.6-139.9,3.19-7,6.13-16.36,8-23.93-2.8-2.6-28.71,11.6-33.85,14.23-43.85,22.45-87.63,46.44-129.97,71.57-8.16,4.84-13.83,10.04-23.41,13,5.07-42.29,11.2-83.13,18.2-124.83,9.01-53.59,20.81-105.79,31.84-159.32.83-4.05,4.43-7.79,4.56-12.31h127.43Z"/>
  <path class="st1" d="M431.21-.68c2.46,6.78,12.61,14.61,18.17,19.54,22.89,20.32,48.13,39.01,68.91,61.01l48.16,36.48v267.86c-11.5-4.17-19.6-16.41-28.76-24.62-3.24-2.91-9.59-3.37-10.25-3.98-101.73-95.05-203.19-193.25-304.16-290.08-9.84-9.44-23.28-15.89-31.28-28.49L230.97-.68h200.25Z"/>
  <path class="st0" d="M566.44,384.21v182.04h-150.83l-80.62-72.82c41.07-31.84,82.57-64.89,125.52-94.51,21.81-15.04,44.55-29.16,66.93-43.32.66.62,7.01,1.08,10.25,3.98,9.16,8.21,17.25,20.45,28.76,24.62Z"/>
  <path class="st0" d="M168.55,360.8c-16.83,41.43-29.99,92.04-42.84,135.29-7.06,23.76-17.3,45.11-19.57,70.16H-.49v-166.44l28.55,24.77,6.6-1.31c7.03-23.81,3.97-50.39,6.49-74.13,1.87-17.7,5.65-35.66,7.77-53.35,9.57-2.96,15.24-8.16,23.41-13l96.22,78.02Z"/>
  <path class="st1" d="M67.13,170.96c-7.01,41.7-13.14,82.54-18.2,124.83-2.12,17.69-5.89,35.65-7.77,53.35-2.51,23.74.54,50.32-6.49,74.13l-6.6,1.31L-.49,399.81V124.15c20.46,7.26,39.72,37.32,56.38,46.58,4.29,2.38,6.89,1.87,11.24.23Z"/>
  <path class="st0" d="M103.54-.68c-.14,4.52-3.73,8.27-4.56,12.31-11.03,53.54-22.84,105.73-31.84,159.32-4.35,1.64-6.95,2.15-11.24-.23-16.66-9.26-35.92-39.32-56.38-46.58V-.68h104.02Z"/>
  <path class="st0" d="M431.21-.68h135.23v117.03l-48.16-36.48c-20.77-21.99-46.02-40.69-68.91-61.01-5.55-4.93-15.71-12.77-18.17-19.54Z"/>
  <path class="st1" d="M334.99,493.43l80.62,72.82h-169.04c-.19-5.81,3.51-6.96,6.97-9.94,26.08-22.43,54.73-42.17,81.45-62.88Z"/>
  <path class="st1" d="M72.33,282.78c42.34-25.13,86.12-49.13,129.97-71.57,5.14-2.63,31.06-16.83,33.85-14.23-1.87,7.56-4.81,16.92-8,23.93-20.07,44.03-40.88,93.82-59.6,139.9l-96.22-78.02Z"/>
</svg>