<?xml version="1.0" encoding="UTF-8"?>
<svg id="Camada_1" xmlns="http://www.w3.org/2000/svg" version="1.1" viewBox="0 0 635.48 666.78">
  <!-- Generator: Adobe Illustrator 29.5.0, SVG Export Plug-In . SVG Version: 2.1.0 Build 137)  -->
  <defs>
    <style>
      .st0 {
        fill: #f9f9f9;
      }

      .st1 {
        fill: #3f5a91;
      }
    </style>
  </defs>
  <path class="st0" d="M62.01,85.56c.62-4.49,13.04-14.44,16.19-10.12.47.65,2.5,9.33,2.64,10.79.91,9.22-2.33,15.9-4.35,24.49l8.37,13c1.84-5.46,3.3-11.06,6.32-16.07,1.33-2.21,5.71-9.03,8.58-7.35,9.65,14.59,8.03,29.63,1.43,45.04l10.97,16.55,6.47-25.45,8.63-12.67c2.81-.63,6.8,11.1,7.48,13.67,3.97,15.02,1.81,30.29-2.37,44.98l19.33,24.37c1.06-19.04.05-38.33,2.78-57.24,2.13-2.32,12.89,14.2,13.83,15.8,11.39,19.41,15.21,40.38,7.44,62.04l30.53,25.41c-3.19-27.19-1.32-54.7-.56-81.92,2.07-.35,3.22,1.46,4.48,2.77,22.88,23.83,28.53,64.8,20.1,95.88l33.9,22.58c-.86-17.4-3.96-34.79-5.01-52.21-1.03-17.05-.53-35.04-1.12-52.19,3.28-3.69,20.89,21.25,22.46,23.94,16.76,28.65,18.36,63.32,12.2,95.41l32.73,25.45c.32-13.62-1.25-27.34-.61-41.02.85-18.28,5.77-54.79,12.9-71.25.39-.91.32-3.17,2.17-2.23,1.22.62,10.15,14.15,11.49,16.49,16.37,28.65,23.51,66.75,20.45,99.47l31.57,35.59-3.95-37.56c.24-24.95,3.57-49.7,10.63-73.58,1.55-5.25,4.94-17.56,7.5-21.63.87-1.39,1.01-2.38,3.06-1.94,31.02,50.99,46.22,113.8,33.6,173.19l38.28,44.58c2.54.42,1.57-.86,1.4-2.53-.91-8.89-3.97-19.13-5.16-28.49-7.24-56.93-2.92-111.63,13.22-166.55l3.2.12c37.21,78.16,50.75,166.64,29.31,251.65,20.16,26.5,41.13,52.66,56.42,82.49l-17.64,28.94-2.78-.63c-16.24-26.21-33.67-51.79-52.5-76.19-61.42-79.59-135.79-149.14-222.45-200.14-30.63-18.02-63.32-32.45-92.89-52.31C126.1,237.59,74.82,158.57,48.79,70.25c-.55-2.7,1.38-1.59,2.68-.43,4.52,4.02,5.39,12.03,10.54,15.74ZM495.28,456.02v-2.23h-1.09v2.23h1.09Z"/>
  <path class="st1" d="M604.45,57.49v566.93H37.52V57.49h566.93ZM62.01,85.56c-5.15-3.71-6.02-11.72-10.54-15.74-1.3-1.16-3.23-2.26-2.68.43,26.02,88.32,77.31,167.34,153.88,218.76,29.57,19.86,62.26,34.29,92.89,52.31,86.66,50.99,161.04,120.55,222.45,200.14,18.82,24.39,36.25,49.97,52.5,76.19l2.78.63,17.64-28.94c-15.3-29.83-36.26-55.99-56.42-82.49,21.44-85.01,7.91-173.48-29.31-251.65l-3.2-.12c-16.14,54.92-20.46,109.62-13.22,166.55,1.19,9.36,4.25,19.61,5.16,28.49.17,1.67,1.14,2.95-1.4,2.53l-38.28-44.58c12.63-59.39-2.58-122.2-33.6-173.19-2.05-.44-2.19.55-3.06,1.94-2.56,4.07-5.95,16.38-7.5,21.63-7.06,23.88-10.39,48.62-10.63,73.58l3.95,37.56-31.57-35.59c3.06-32.71-4.08-70.82-20.45-99.47-1.34-2.34-10.27-15.88-11.49-16.49-1.86-.94-1.78,1.32-2.17,2.23-7.13,16.45-12.04,52.96-12.9,71.25-.64,13.68.93,27.4.61,41.02l-32.73-25.45c6.16-32.1,4.56-66.76-12.2-95.41-1.57-2.69-19.18-27.63-22.46-23.94.59,17.15.09,35.13,1.12,52.19,1.05,17.42,4.14,34.81,5.01,52.21l-33.9-22.58c8.43-31.08,2.77-72.05-20.1-95.88-1.26-1.31-2.4-3.12-4.48-2.77-.75,27.23-2.62,54.73.56,81.92l-30.53-25.41c7.77-21.66,3.96-42.63-7.44-62.04-.94-1.6-11.7-18.12-13.83-15.8-2.73,18.91-1.72,38.2-2.78,57.24l-19.33-24.37c4.18-14.69,6.34-29.96,2.37-44.98-.68-2.57-4.67-14.3-7.48-13.67l-8.63,12.67-6.47,25.45-10.97-16.55c6.6-15.42,8.21-30.46-1.43-45.04-2.87-1.68-7.24,5.14-8.58,7.35-3.02,5.01-4.48,10.61-6.32,16.07l-8.37-13c2.01-8.59,5.25-15.28,4.35-24.49-.14-1.47-2.17-10.15-2.64-10.79-3.15-4.33-15.57,5.63-16.19,10.12Z"/>
</svg>