<?xml version="1.0" encoding="UTF-8"?>
<svg id="Camada_1" xmlns="http://www.w3.org/2000/svg" version="1.1" viewBox="0 0 566.93 566.93">
  <!-- Generator: Adobe Illustrator 29.5.0, SVG Export Plug-In . SVG Version: 2.1.0 Build 137)  -->
  <defs>
    <style>
      .st0 {
        fill: #889f82;
      }

      .st1 {
        fill: #bc825c;
      }

      .st2 {
        fill: #b5beab;
      }

      .st3 {
        fill: #4a6441;
      }
    </style>
  </defs>
  <rect class="st1" x=".88" y=".1" width="566.93" height="566.93" transform="translate(568.7 567.13) rotate(180)"/>
  <rect class="st2" x=".88" y=".1" width="198.12" height="566.93" transform="translate(199.89 567.13) rotate(180)"/>
  <path class="st3" d="M81.61,48.42s-25.04,84.52-26.61,466.43c263.79,20.8,362.7,9.45,444.52-3.13C263.04,441.83,110.57,233.82,81.61,48.42Z"/>
  <path class="st2" d="M521.44,48.42s-212.87,15.65-324,142.43c-111.13,126.78-134.61,217.57-142.43,324,120.52-37.57,413.22-322.43,466.43-466.43Z"/>
  <path class="st0" d="M419.7,121.98s-134.61,184.7-288,283.3c23.48-122.09,142.43-248.87,288-283.3Z"/>
</svg>