<?xml version="1.0" encoding="UTF-8"?>
<svg id="Camada_1" xmlns="http://www.w3.org/2000/svg" version="1.1" viewBox="0 0 1145.2 1145.2">
  <!-- Generator: Adobe Illustrator 29.5.0, SVG Export Plug-In . SVG Version: 2.1.0 Build 137)  -->
  <defs>
    <style>
      .st0 {
        fill: #2e74df;
      }

      .st1 {
        fill: none;
        stroke: #000;
        stroke-miterlimit: 10;
        stroke-width: .03px;
      }

      .st2 {
        fill: #ffa860;
      }

      .st3 {
        fill: #d0d6d6;
      }
    </style>
  </defs>
  <g>
    <polygon class="st2" points="162.4 359.99 162.63 367.22 161.21 374.52 158.48 381.33 154.57 387.32 149.65 392.25 143.96 395.92 137.73 398.17 131.21 398.94 124.69 398.17 118.46 395.92 112.77 392.25 107.85 387.32 103.93 381.33 101.21 374.52 99.79 367.22 97.53 310.42 95.87 262.5 95.46 208.25 98.36 160.04 100.02 140.89 100.02 120.67 98.78 76.85 96.29 30.42 96.7 20.99 96.7 0 163.64 0 164.06 114.44 168.27 147.88 165.72 232.74 162.4 359.99"/>
    <polygon class="st3" points="162.81 363.6 165.72 232.74 168.27 147.88 164.06 114.44 163.64 0 244.04 0 242.91 96.77 247.89 139.23 245.88 190.64 244.93 240.62 248.84 294.7 251.45 415.55 251.45 423.55 253.11 431.02 256.43 437.96 261.23 443.95 267.22 448.75 274.16 452.07 281.98 453.85 286.9 453.02 294.14 450.47 300.66 446.38 306.06 440.98 310.15 434.46 312.63 427.23 313.52 419.58 315.9 294.58 319.81 240.51 318.8 190.52 316.85 139.11 322.77 88.82 322.77 0 403.23 0 402.87 102.64 398.67 132.76 401.16 209.2 404.54 323.88 404.3 330.28 405.66 336.74 408.33 342.79 412.24 348.13 417.16 352.57 422.86 355.84 429.14 357.91 435.72 358.56 442.3 357.91 448.59 355.84 454.28 352.57 459.2 348.13 463.05 342.79 465.78 336.74 467.15 330.28 469.4 279.11 471.06 236 471.47 187.2 468.57 143.73 466.85 126.48 466.85 108.22 468.15 68.72 470.64 26.98 470.23 18.44 470.23 0 527.92 0 527.92 284.5 526.38 314.15 521.28 343.39 512.62 371.73 500.58 398.89 485.41 424.38 467.2 447.86 446.28 468.91 422.97 487.3 397.66 502.71 370.62 514.99 342.28 523.82 313.11 529.22 283.47 531 253.82 529.22 224.65 523.82 196.31 514.99 169.27 502.71 143.96 487.3 120.66 468.91 99.73 447.86 81.52 424.38 66.35 398.89 54.31 371.73 45.65 343.39 40.55 314.15 39.01 284.5 39.01 0 96.7 0 96.7 20.99 96.29 30.42 98.78 76.85 100.02 120.67 100.02 140.89 98.36 160.04 95.46 208.25 95.87 262.5 97.53 310.42 99.61 363.31 100.32 370.9 102.39 378.01 105.71 384.42 110.22 389.93 115.56 394.26 121.55 397.23 127.95 398.71 134.47 398.71 140.87 397.23 146.86 394.26 152.2 389.93 156.7 384.42 160.02 378.01 162.1 370.9 162.81 363.6"/>
    <polygon class="st2" points="468.15 68.72 466.85 108.22 466.85 126.48 468.57 143.73 471.47 187.2 471.06 236 469.4 279.11 467.32 326.84 466.61 333.54 464.6 339.83 461.28 345.58 456.83 350.44 451.49 354.35 445.45 357.02 438.98 358.38 432.4 358.38 425.94 357.02 419.89 354.35 414.56 350.44 410.17 345.58 406.85 339.83 404.77 333.54 404.12 327.14 401.16 209.2 398.67 132.76 402.87 102.64 403.23 0 470.23 0 470.23 18.44 470.64 26.98 468.15 68.72"/>
    <polygon class="st2" points="318.8 190.52 319.81 240.51 315.9 294.58 313.29 415.43 313.29 423.44 311.63 430.91 308.31 437.84 303.5 443.83 297.52 448.63 290.58 451.96 281.98 453.85 274.16 452.07 267.22 448.75 261.23 443.95 256.43 437.96 253.11 431.02 251.45 423.55 251.45 415.55 248.84 294.7 244.93 240.62 245.88 190.64 247.89 139.23 242.91 96.77 244.04 0 322.77 0 322.77 88.82 316.85 139.11 318.8 190.52"/>
    <polygon class="st0" points="527.92 284.5 527.92 0 566.93 0 566.93 566.93 0 566.93 0 0 39.01 0 39.01 284.5 40.55 314.15 45.65 343.39 54.31 371.73 66.35 398.89 81.52 424.38 99.73 447.86 120.66 468.91 143.96 487.3 169.27 502.71 196.31 514.99 224.65 523.82 253.82 529.22 283.47 531 313.11 529.22 342.28 523.82 370.62 514.99 397.66 502.71 422.97 487.3 446.28 468.91 467.2 447.86 485.41 424.38 500.58 398.89 512.62 371.73 521.28 343.39 526.38 314.15 527.92 284.5"/>
    <line class="st1" x1="96.7" y1="0" x2="163.64" y2="0"/>
    <line class="st1" x1="403.23" y1="0" x2="470.23" y2="0"/>
    <line class="st1" x1="322.77" y1="0" x2="403.23" y2="0"/>
    <line class="st1" x1="470.23" y1="0" x2="527.92" y2="0"/>
    <line class="st1" x1="39.01" y1="0" x2="96.7" y2="0"/>
    <line class="st1" x1="163.64" y1="0" x2="244.04" y2="0"/>
    <line class="st1" x1="244.04" y1="0" x2="322.77" y2="0"/>
    <line class="st1" x1="527.92" y1="0" x2="566.93" y2="0"/>
    <line class="st1" x1="566.93" y1="0" x2="566.93" y2="566.93"/>
    <line class="st1" x1="566.93" y1="566.93" x2="0" y2="566.93"/>
    <line class="st1" x1="0" y1="566.93" x2="0" y2="0"/>
    <line class="st1" x1="0" y1="0" x2="39.01" y2="0"/>
  </g>
  <g>
    <polygon class="st0" points="822.45 566.93 741.93 566.93 742.34 464.29 746.49 434.16 744 357.73 740.68 243.05 740.92 236.65 739.55 230.19 736.83 224.14 732.97 218.8 728.05 214.36 722.36 211.09 716.07 209.02 709.49 208.37 702.91 209.02 696.62 211.09 690.93 214.36 686.01 218.8 682.1 224.14 679.43 230.19 678.06 236.65 675.81 287.76 674.09 330.87 673.68 379.73 676.64 423.14 678.3 440.45 678.3 458.71 677.05 498.21 674.57 539.95 674.98 548.49 674.98 566.93 578.27 566.93 578.27 0 1145.2 0 1145.2 566.93 1048.55 566.93 1048.55 545.94 1048.96 536.51 1046.47 490.08 1045.16 446.26 1045.16 426.04 1046.88 406.89 1049.79 358.68 1049.37 304.43 1047.72 256.52 1045.64 203.62 1044.93 196.03 1042.85 188.92 1039.47 182.45 1035.02 177 1029.69 172.67 1023.7 169.71 1017.3 168.22 1010.77 168.22 1004.37 169.71 998.32 172.67 992.98 177 988.54 182.45 985.22 188.92 983.08 196.03 982.43 203.33 979.46 334.19 976.97 419.05 981.12 452.49 981.54 566.93 901.19 566.93 902.32 470.16 897.34 427.7 899.3 376.29 900.3 326.31 896.33 272.23 893.72 151.38 893.78 143.38 892.06 135.91 888.74 128.97 884 122.98 877.95 118.18 871.07 114.86 863.19 113.08 858.32 113.91 851.09 116.46 844.57 120.55 839.11 125.94 835.08 132.47 832.53 139.7 831.7 147.35 829.33 272.35 825.41 326.42 826.36 376.41 828.38 427.82 822.45 478.1 822.45 566.93"/>
    <polygon class="st2" points="742.34 464.29 741.93 566.93 674.98 566.93 674.98 548.49 674.57 539.95 677.05 498.21 678.3 458.71 678.3 440.45 676.64 423.14 673.68 379.73 674.09 330.87 675.81 287.76 677.88 240.09 678.54 233.39 680.61 227.1 683.93 221.35 688.32 216.49 693.66 212.58 699.71 209.91 706.17 208.54 712.81 208.54 719.27 209.91 725.26 212.58 730.6 216.49 735.05 221.35 738.37 227.1 740.38 233.39 741.09 239.79 744 357.73 746.49 434.16 742.34 464.29"/>
    <polygon class="st2" points="1048.55 545.94 1048.55 566.93 981.54 566.93 981.12 452.49 976.97 419.05 979.46 334.19 982.84 206.94 982.61 199.71 983.97 192.42 986.7 185.6 990.61 179.61 995.59 174.69 1001.29 171.01 1007.51 168.76 1014.03 167.98 1020.5 168.76 1026.72 171.01 1032.48 174.69 1037.4 179.61 1041.31 185.6 1044.04 192.42 1045.46 199.71 1047.72 256.52 1049.37 304.43 1049.79 358.68 1046.88 406.89 1045.16 426.04 1045.16 446.26 1046.47 490.08 1048.96 536.51 1048.55 545.94"/>
    <polygon class="st3" points="902.32 470.16 901.19 566.93 822.45 566.93 822.45 478.1 828.38 427.82 826.36 376.41 825.41 326.42 829.33 272.35 831.94 151.5 831.88 143.5 833.6 136.03 836.92 129.09 841.72 123.1 847.71 118.3 854.65 114.97 863.19 113.08 871.07 114.86 877.95 118.18 884 122.98 888.74 128.97 892.06 135.91 893.78 143.38 893.72 151.38 896.33 272.23 900.3 326.31 899.3 376.29 897.34 427.7 902.32 470.16"/>
    <line class="st1" x1="822.45" y1="566.93" x2="741.93" y2="566.93"/>
    <line class="st1" x1="674.98" y1="566.93" x2="578.27" y2="566.93"/>
    <line class="st1" x1="578.27" y1="566.93" x2="578.27" y2="0"/>
    <line class="st1" x1="578.27" y1="0" x2="1145.2" y2="0"/>
    <line class="st1" x1="1145.2" y1="566.93" x2="1048.55" y2="566.93"/>
    <line class="st1" x1="981.54" y1="566.93" x2="901.19" y2="566.93"/>
    <line class="st1" x1="901.19" y1="566.93" x2="822.45" y2="566.93"/>
    <line class="st1" x1="741.93" y1="566.93" x2="674.98" y2="566.93"/>
    <line class="st1" x1="1048.55" y1="566.93" x2="981.54" y2="566.93"/>
    <line class="st1" x1="1145.2" y1="0" x2="1145.2" y2="566.93"/>
  </g>
  <rect class="st0" y="578.27" width="566.93" height="566.93"/>
  <g>
    <polygon class="st0" points="901.02 578.27 981.54 578.27 981.12 680.91 976.97 711.03 979.46 787.46 982.78 902.14 982.55 908.55 983.91 915.01 986.64 921.06 990.49 926.39 995.42 930.84 1001.11 934.1 1007.39 936.18 1013.97 936.83 1020.56 936.18 1026.84 934.1 1032.53 930.84 1037.46 926.39 1041.37 921.06 1044.04 915.01 1045.4 908.55 1047.65 857.43 1049.37 814.32 1049.79 765.46 1046.82 722.06 1045.16 704.75 1045.16 686.48 1046.41 646.99 1048.9 605.25 1048.48 596.71 1048.48 578.27 1145.2 578.27 1145.2 1145.2 578.27 1145.2 578.27 578.27 674.92 578.27 674.92 599.26 674.5 608.69 677 655.11 678.3 698.94 678.3 719.16 676.58 738.31 673.67 786.52 674.09 840.77 675.75 888.68 677.83 941.57 678.54 949.16 680.61 956.28 683.99 962.74 688.44 968.2 693.78 972.53 699.76 975.49 706.17 976.97 712.69 976.97 719.1 975.49 725.14 972.53 730.48 968.2 734.93 962.74 738.25 956.28 740.38 949.16 741.03 941.87 744 811.01 746.49 726.15 742.34 692.71 741.93 578.27 822.27 578.27 821.14 675.04 826.12 717.5 824.17 768.9 823.16 818.89 827.13 872.97 829.74 993.81 829.68 1001.82 831.4 1009.29 834.72 1016.23 839.47 1022.22 845.51 1027.02 852.39 1030.34 860.28 1032.12 865.14 1031.29 872.38 1028.74 878.9 1024.65 884.35 1019.25 888.38 1012.73 890.94 1005.49 891.76 997.85 894.14 872.85 898.05 818.77 897.1 768.79 895.09 717.38 901.02 667.09 901.02 578.27"/>
    <polygon class="st3" points="981.12 680.91 981.54 578.27 1048.48 578.27 1048.48 596.71 1048.9 605.25 1046.41 646.99 1045.16 686.48 1045.16 704.75 1046.82 722.06 1049.79 765.46 1049.37 814.32 1047.65 857.43 1045.58 905.11 1044.93 911.81 1042.85 918.09 1039.53 923.84 1035.14 928.71 1029.81 932.62 1023.76 935.29 1017.29 936.65 1010.65 936.65 1004.19 935.29 998.2 932.62 992.87 928.71 988.42 923.84 985.1 918.09 983.08 911.81 982.37 905.4 979.46 787.46 976.97 711.03 981.12 680.91"/>
    <polygon class="st3" points="674.92 599.26 674.92 578.27 741.93 578.27 742.34 692.71 746.49 726.15 744 811.01 740.62 938.25 740.86 945.49 739.49 952.78 736.76 959.6 732.85 965.59 727.87 970.51 722.18 974.19 715.95 976.44 709.43 977.21 702.97 976.44 696.74 974.19 690.99 970.51 686.07 965.59 682.15 959.6 679.43 952.78 678 945.49 675.75 888.68 674.09 840.77 673.67 786.52 676.58 738.31 678.3 719.16 678.3 698.94 677 655.11 674.5 608.69 674.92 599.26"/>
    <polygon class="st2" points="821.14 675.04 822.27 578.27 901.02 578.27 901.02 667.09 895.09 717.38 897.1 768.79 898.05 818.77 894.14 872.85 891.53 993.7 891.59 1001.7 889.87 1009.17 886.55 1016.11 881.74 1022.1 875.76 1026.9 868.82 1030.22 860.28 1032.12 852.39 1030.34 845.51 1027.02 839.47 1022.22 834.72 1016.23 831.4 1009.29 829.68 1001.82 829.74 993.81 827.13 872.97 823.16 818.89 824.17 768.9 826.12 717.5 821.14 675.04"/>
    <line class="st1" x1="901.02" y1="578.27" x2="981.54" y2="578.27"/>
    <line class="st1" x1="1048.48" y1="578.27" x2="1145.2" y2="578.27"/>
    <line class="st1" x1="1145.2" y1="578.27" x2="1145.2" y2="1145.2"/>
    <line class="st1" x1="1145.2" y1="1145.2" x2="578.27" y2="1145.2"/>
    <line class="st1" x1="578.27" y1="578.27" x2="674.92" y2="578.27"/>
    <line class="st1" x1="741.93" y1="578.27" x2="822.27" y2="578.27"/>
    <line class="st1" x1="822.27" y1="578.27" x2="901.02" y2="578.27"/>
    <line class="st1" x1="981.54" y1="578.27" x2="1048.48" y2="578.27"/>
    <line class="st1" x1="674.92" y1="578.27" x2="741.93" y2="578.27"/>
    <line class="st1" x1="578.27" y1="1145.2" x2="578.27" y2="578.27"/>
  </g>
</svg>