<?xml version="1.0" encoding="UTF-8"?>
<svg id="Camada_1" xmlns="http://www.w3.org/2000/svg" version="1.1" viewBox="0 0 566.93 566.93">
  <!-- Generator: Adobe Illustrator 29.5.0, SVG Export Plug-In . SVG Version: 2.1.0 Build 137)  -->
  <defs>
    <style>
      .st0 {
        fill: #889f82;
      }

      .st1 {
        fill: #ede4db;
      }
    </style>
  </defs>
  <polygon class="st0" points="0 0 70.87 141.73 141.73 0 0 0"/>
  <polygon class="st0" points="141.73 0 212.6 141.73 283.46 0 141.73 0"/>
  <polygon class="st0" points="283.46 0 354.33 141.73 425.2 0 283.46 0"/>
  <polygon class="st0" points="425.2 0 496.06 141.73 566.93 0 425.2 0"/>
  <polygon class="st0" points="566.93 566.93 496.06 425.2 425.2 566.93 566.93 566.93"/>
  <polygon class="st0" points="425.2 566.93 354.33 425.2 283.46 566.93 425.2 566.93"/>
  <polygon class="st0" points="283.46 566.93 212.6 425.2 141.73 566.93 283.46 566.93"/>
  <polygon class="st0" points="141.73 566.93 70.87 425.2 0 566.93 141.73 566.93"/>
  <polygon class="st0" points="70.87 141.73 141.73 283.46 70.87 425.2 0 283.46 70.87 141.73"/>
  <polygon class="st0" points="212.6 141.73 283.46 283.46 212.6 425.2 141.73 283.46 212.6 141.73"/>
  <polygon class="st0" points="354.33 141.73 425.2 283.46 354.33 425.2 283.46 283.46 354.33 141.73"/>
  <polygon class="st0" points="496.06 141.73 566.93 283.46 496.06 425.2 425.2 283.46 496.06 141.73"/>
  <polygon class="st1" points="141.73 0 212.6 141.73 141.73 283.46 70.87 141.73 141.73 0"/>
  <polygon class="st1" points="283.46 0 354.33 141.73 283.46 283.46 212.6 141.73 283.46 0"/>
  <polygon class="st1" points="425.2 0 496.06 141.73 425.2 283.46 354.33 141.73 425.2 0"/>
  <polygon class="st1" points="425.2 283.47 496.06 425.2 425.2 566.93 354.33 425.2 425.2 283.47"/>
  <polygon class="st1" points="283.46 283.47 354.33 425.2 283.46 566.93 212.6 425.2 283.46 283.47"/>
  <polygon class="st1" points="141.73 283.47 212.6 425.2 141.73 566.93 70.87 425.2 141.73 283.47"/>
  <polygon class="st1" points="0 566.93 70.87 425.2 0 283.47 0 566.93"/>
  <polygon class="st1" points="0 283.46 70.87 141.73 0 0 0 283.46"/>
  <polygon class="st1" points="566.93 566.93 496.06 425.2 566.93 283.47 566.93 566.93"/>
  <polygon class="st1" points="566.93 283.46 496.06 141.73 566.93 0 566.93 283.46"/>
</svg>