<?xml version="1.0" encoding="UTF-8"?>
<svg id="Camada_2" xmlns="http://www.w3.org/2000/svg" version="1.1" viewBox="0 0 566.93 566.93">
  <!-- Generator: Adobe Illustrator 29.5.0, SVG Export Plug-In . SVG Version: 2.1.0 Build 137)  -->
  <defs>
    <style>
      .st0 {
        fill: #ae4d3a;
      }

      .st1 {
        fill: #3f5a91;
      }

      .st2 {
        fill: #d6ad43;
      }

      .st3 {
        fill: #faedcd;
      }
    </style>
  </defs>
  <rect class="st1" x="0" y="0" width="566.93" height="566.93"/>
  <polygon class="st3" points="566.63 418.71 438.92 291 27.71 291 27.71 27.71 427.44 27.71 566.63 166.9 566.63 127.71 438.92 0 0 0 0 566.93 27.71 566.93 27.71 318.71 427.44 318.71 566.63 457.9 566.63 418.71"/>
  <polygon class="st2" points="566.63 457.9 140.31 457.9 27.71 318.71 427.44 318.71 566.63 457.9"/>
  <polygon class="st0" points="27.71 566.93 27.71 318.71 140.31 457.9 140.31 566.93 27.71 566.93"/>
  <polygon class="st0" points="566.93 0 566.63 127.71 438.92 0 566.93 0"/>
  <polygon class="st2" points="566.63 166.9 140.31 166.9 27.71 27.71 427.44 27.71 566.63 166.9"/>
  <polygon class="st0" points="27.71 27.71 140.31 166.9 140.31 291 27.71 291 27.71 27.71"/>
</svg>