<?xml version="1.0" encoding="UTF-8"?>
<svg id="Camada_1" xmlns="http://www.w3.org/2000/svg" version="1.1" viewBox="0 0 566.93 566.93">
  <!-- Generator: Adobe Illustrator 29.5.0, SVG Export Plug-In . SVG Version: 2.1.0 Build 137)  -->
  <defs>
    <style>
      .st0 {
        fill: #e1e1e1;
      }

      .st1 {
        fill: #1c1c1f;
      }

      .st2 {
        fill: #6d6d6e;
      }
    </style>
  </defs>
  <polygon class="st0" points="160.56 70.87 282.99 141.91 406.05 70.87 282.99 0 160.56 70.87"/>
  <polygon class="st2" points="160.56 70.87 160.88 212.42 37.82 283.46 37.98 141.46 160.56 70.87"/>
  <polygon class="st1" points="528.79 283.46 529.11 141.91 406.05 70.87 406.21 212.87 528.79 283.46"/>
  <polygon class="st1" points="282.83 141.82 160.56 70.87 160.56 212.78 160.72 212.69 282.99 283.65 282.99 141.73 282.83 141.82"/>
  <polygon class="st2" points="405.89 212.69 283.62 283.65 283.62 141.73 283.78 141.82 406.05 70.87 406.05 212.78 405.89 212.69"/>
  <polygon class="st2" points="282.83 425.11 160.56 496.06 160.56 354.15 160.72 354.24 282.99 283.28 282.99 425.2 282.83 425.11"/>
  <polygon class="st1" points="405.89 354.24 283.62 283.28 283.62 425.2 283.78 425.11 406.05 496.06 406.05 354.15 405.89 354.24"/>
  <polygon class="st0" points="37.82 283.46 160.25 354.51 283.31 283.46 160.25 212.6 37.82 283.46"/>
  <polygon class="st0" points="283.31 283.46 405.73 354.51 528.79 283.46 405.73 212.6 283.31 283.46"/>
  <polygon class="st0" points="160.56 496.06 282.99 425.01 406.05 496.06 282.99 566.93 160.56 496.06"/>
  <polygon class="st1" points="160.56 496.06 160.88 354.51 37.82 283.46 37.98 425.47 160.56 496.06"/>
  <polygon class="st2" points="528.79 283.46 529.11 425.01 406.05 496.06 406.21 354.06 528.79 283.46"/>
</svg>