<?xml version="1.0" encoding="UTF-8"?>
<svg id="Camada_2" xmlns="http://www.w3.org/2000/svg" version="1.1" viewBox="0 0 566.93 566.93">
  <!-- Generator: Adobe Illustrator 29.5.0, SVG Export Plug-In . SVG Version: 2.1.0 Build 137)  -->
  <defs>
    <style>
      .st0 {
        fill: #bfb7b4;
      }

      .st1 {
        fill: #8e877f;
      }

      .st2 {
        fill: #262523;
      }
    </style>
  </defs>
  <polygon class="st2" points="284.1 283.92 283.47 566.74 528.08 424.97 528.08 424.97 528.08 142.14 283.46 283.56 284.1 283.92"/>
  <polygon class="st1" points="528.08 142.14 528.71 141.78 528.08 141.41 528.08 141.41 364.97 47.36 283.47 .36 283.46 .36 283.15 .18 282.83 0 38.22 141.78 283.46 283.56 528.08 142.14"/>
  <polygon class="st0" points="38.53 425.04 38.53 425.57 283.36 566.75 283.1 566.9 283.14 566.93 283.46 566.75 283.47 566.74 284.1 283.92 283.46 283.56 38.22 141.78 38.41 316.53 38.53 425.04"/>
</svg>