<?xml version="1.0" encoding="UTF-8"?>
<svg id="Camada_5" xmlns="http://www.w3.org/2000/svg" version="1.1" viewBox="0 0 566.93 566.93">
  <!-- Generator: Adobe Illustrator 29.5.0, SVG Export Plug-In . SVG Version: 2.1.0 Build 137)  -->
  <defs>
    <style>
      .st0 {
        fill: #ede4db;
      }

      .st1 {
        fill: #8c9194;
      }

      .st2 {
        fill: #262523;
      }
    </style>
  </defs>
  <polygon class="st2" points="283.43 141.76 283.58 83.52 283.62 47.35 188.95 0 189.07 94.69 283.43 141.76"/>
  <polygon class="st2" points=".12 94.57 71.64 130.53 94.08 141.72 94.23 141.64 94.23 47.25 94.11 47.32 0 0 0 94.63 .12 94.57"/>
  <polygon class="st1" points="94.72 47.25 94.72 141.64 188.71 94.51 188.83 94.57 188.83 94.57 188.84 94.57 188.95 94.63 188.95 0 94.84 47.32 94.72 47.25"/>
  <polygon class="st1" points="94.23 141.64 94.08 141.72 94.16 141.76 60.4 158.65 .12 188.96 0 188.9 0 283.4 94.23 236.15 94.23 236.15 94.23 141.88 94.23 141.64"/>
  <polygon class="st2" points="188.95 189.02 188.71 189.14 94.72 141.89 94.72 236.27 94.84 236.21 157.33 267.63 188.95 283.4 188.95 283.4 188.95 189.02"/>
  <polygon class="st0" points="188.95 189.02 189.07 188.96 189.07 188.83 283.43 141.76 189.07 94.69 188.95 94.63 188.84 94.57 188.83 94.57 188.71 94.51 94.72 141.64 94.48 141.76 94.72 141.89 188.71 189.14 188.95 189.02"/>
  <polygon class="st1" points="189.07 188.96 188.95 283.4 189.07 283.46 189.09 283.46 188.99 283.4 283.22 236.15 283.45 236.26 283.62 236.17 283.58 200.01 283.43 141.76 189.07 188.83 189.07 188.96"/>
  <polygon class="st0" points="94.11 330.72 94.23 330.66 94.23 330.78 188.83 283.46 188.95 283.4 157.33 267.63 94.23 236.15 94.23 236.15 0 283.4 0 283.4 94.11 330.72"/>
  <polygon class="st2" points="283.62 330.76 283.45 330.67 283.22 330.78 196.33 287.1 189.07 283.46 188.95 283.4 188.95 283.4 188.95 283.4 188.95 283.53 189.07 378.09 283.43 425.17 283.58 366.55 283.62 330.76"/>
  <polygon class="st2" points="93.99 425.17 94.23 425.04 94.23 330.78 94.23 330.66 94.11 330.72 0 283.4 0 378.03 .12 377.97 93.99 425.17"/>
  <polygon class="st1" points="188.83 377.97 188.83 377.97 188.84 377.98 188.95 378.03 188.95 283.53 188.95 283.4 188.83 283.46 94.84 330.72 94.72 330.66 94.72 425.04 188.71 377.91 188.83 377.97"/>
  <polygon class="st1" points="94.23 519.67 94.23 425.29 94.23 425.04 93.99 425.17 93.58 425.37 94.16 425.66 0 472.76 0 566.93 94.11 519.61 94.23 519.67"/>
  <polygon class="st2" points="188.71 472.54 94.72 425.29 94.72 519.67 94.84 519.61 188.95 566.93 188.95 472.42 188.71 472.54"/>
  <polygon class="st0" points="188.95 378.03 188.84 377.98 188.83 377.97 188.71 377.91 94.72 425.04 94.48 425.17 94.72 425.29 188.71 472.54 188.95 472.42 189.07 472.36 189.07 472.24 283.43 425.17 189.07 378.09 188.95 378.03"/>
  <polygon class="st1" points="283.58 483.79 283.43 425.17 189.07 472.24 189.07 472.36 188.95 566.93 283.62 519.58 283.58 483.79"/>
  <polygon class="st1" points="283.62 47.35 283.58 83.52 283.5 141.76 377.73 94.51 377.86 94.57 377.98 94.51 377.98 0 283.62 47.07 283.62 47.35"/>
  <polygon class="st2" points="377.98 94.63 377.98 94.63 378.1 94.57 409.38 110.29 472.21 141.64 472.21 141.64 472.21 47.25 472.09 47.32 377.98 0 377.98 94.51 377.98 94.63"/>
  <polygon class="st1" points="472.82 47.32 472.7 47.25 472.7 141.64 472.94 141.76 566.81 94.57 566.93 94.63 566.93 .01 562.22 2.37 472.82 47.32"/>
  <polygon class="st1" points="378.22 189.14 377.98 283.4 472.21 236.15 472.21 236.15 472.21 141.88 377.98 189.02 378.22 189.14"/>
  <polygon class="st2" points="566.93 188.99 566.84 188.94 566.81 188.96 472.94 141.76 472.7 141.64 472.7 141.88 472.7 236.27 472.81 236.09 566.55 283.21 566.93 283.4 566.93 188.99"/>
  <polygon class="st0" points="472.21 141.88 472.45 141.76 472.21 141.64 472.21 141.64 409.38 110.29 377.98 94.63 377.98 94.63 377.86 94.57 377.73 94.51 283.5 141.76 377.98 189.02 472.21 141.88"/>
  <polygon class="st2" points="377.98 283.4 377.98 283.4 377.98 283.43 377.98 283.4"/>
  <polygon class="st2" points="283.62 236.17 283.62 236.35 377.94 283.4 377.84 283.46 377.85 283.46 377.98 283.4 377.98 283.4 378.22 189.14 377.98 189.02 283.5 141.76 283.58 200.01 283.62 236.17"/>
  <polygon class="st0" points="377.98 283.4 377.98 283.4 377.98 283.4 377.98 283.4 472.09 330.72 472.21 330.66 472.21 330.78 566.93 283.4 566.93 283.4 566.55 283.21 472.21 236.15 472.21 236.15 377.98 283.4"/>
  <polygon class="st1" points="377.86 377.97 377.98 377.91 377.98 283.43 377.98 283.4 377.85 283.46 363.29 290.73 283.62 330.58 283.62 330.76 283.58 366.55 283.5 425.17 377.73 377.91 377.86 377.97"/>
  <polygon class="st2" points="472.09 330.72 377.98 283.4 377.98 283.4 377.98 283.43 377.98 377.91 377.98 378.03 377.98 378.03 378.1 377.97 409.37 393.69 472.21 425.04 472.21 425.04 472.21 330.78 472.21 330.66 472.09 330.72"/>
  <polygon class="st1" points="472.7 330.66 472.7 425.04 472.94 425.17 566.81 377.97 566.93 378.03 566.93 283.4 472.82 330.72 472.7 330.66"/>
  <polygon class="st1" points="472.21 519.67 472.21 425.29 472.21 425.29 377.98 472.42 378.22 472.54 377.98 566.93 472.09 519.61 472.21 519.67"/>
  <polygon class="st2" points="473 425.66 473.46 425.43 472.94 425.17 472.7 425.04 472.7 425.29 472.7 519.67 472.82 519.61 566.93 566.93 566.93 472.88 473 425.66"/>
  <polygon class="st0" points="409.37 393.69 377.98 378.03 377.98 378.03 377.86 377.97 377.73 377.91 283.5 425.17 377.98 472.42 472.21 425.29 472.45 425.17 472.21 425.04 472.21 425.04 409.37 393.69"/>
  <polygon class="st2" points="377.98 472.42 283.5 425.17 283.58 483.79 283.62 519.58 283.62 519.86 377.98 566.93 378.22 472.54 377.98 472.42"/>
  <polygon class="st0" points="363.29 290.73 377.84 283.46 377.94 283.4 283.62 236.35 283.45 236.26 283.22 236.15 188.99 283.4 189.09 283.46 196.33 287.1 283.22 330.78 283.45 330.67 283.62 330.58 363.29 290.73"/>
  <polygon class="st0" points="94.16 141.76 94.08 141.72 71.64 130.53 0 94.79 0 188.86 60.4 158.65 94.16 141.76"/>
  <polygon class="st0" points="566.84 188.94 566.93 188.99 566.93 188.99 566.93 94.66 473 141.76 566.84 188.94"/>
  <polygon class="st0" points="93.58 425.37 0 378.68 0 472.3 0 472.76 94.16 425.66 93.58 425.37"/>
  <polygon class="st0" points="473 425.66 566.93 472.88 566.93 472.88 566.93 378.56 473.46 425.43 473 425.66"/>
  <polygon class="st0" points="1.19 566.93 187.44 566.93 94.08 520.35 1.19 566.93"/>
  <polygon class="st0" points="190.46 566.93 376.7 566.93 283.34 520.35 190.46 566.93"/>
  <polygon class="st0" points="379.72 566.93 565.97 566.93 472.6 520.35 379.72 566.93"/>
  <polygon class="st0" points="188.43 0 .21 0 94.08 47.19 188.43 0"/>
  <polygon class="st0" points="377.69 0 189.48 0 283.34 47.19 377.69 0"/>
  <polygon class="st0" points="562.22 2.37 566.93 .01 566.93 0 378.74 0 472.6 47.19 562.22 2.37"/>
</svg>