<?xml version="1.0" encoding="UTF-8"?>
<svg id="Camada_2" xmlns="http://www.w3.org/2000/svg" version="1.1" viewBox="0 0 566.93 566.93">
  <!-- Generator: Adobe Illustrator 29.5.0, SVG Export Plug-In . SVG Version: 2.1.0 Build 137)  -->
  <defs>
    <style>
      .st0 {
        fill: #f0d287;
      }

      .st1 {
        fill: #96bde6;
      }

      .st2 {
        fill: #e4e3e6;
      }
    </style>
  </defs>
  <path class="st0" d="M51.93,265.13c7.67-.76,6.78-1.1,8.63,5.57,4.74,17.05,3.69,41.43,8.15,59.57,14.73,59.87,52.42,87.46,94.78,126.27,12.2,11.18,26.02,33.89,44.48,32.24-1.53,6.86,3.58,4.97,7.57,6.59,42.45,17.32,90.54,38.21,122.46,71.42H-.08v-283.46c10.01,1.79,21.77,7.74,31.96,4.68,4.54-1.36,17.24-18.27,20.05-22.88Z"/>
  <path class="st1" d="M361.4-.13c-1.48,10.38-10.21,17.75-15.6,26.01-38.63,25.96-90.15,17.29-132.61,35.13-43.5,18.28-100.53,82.58-123.27,123.78-13.37,24.21-23.32,56.32-37.99,80.34-2.81,4.61-15.51,21.52-20.05,22.88-10.19,3.06-21.95-2.89-31.96-4.68V-.13h361.48Z"/>
  <path class="st1" d="M566.85,283.34v283.46h-228.85c-31.92-33.21-80.01-54.11-122.46-71.42-3.99-1.63-9.1.26-7.57-6.59,4.52-.4,8.39-2.84,16.86-2.58,18.52.56,25.39,10.33,46.65,7.58,34.76-4.51,65.52-11.79,99.72-19.88,22.06-5.22,39.55-11.1,60.18-23.06,10.1-5.85,32.65-27.27,38.88-36.53,19.83-29.46,34.59-76.31,54.97-104.96,7.09-9.97,28.3-26.58,41.61-26.01Z"/>
  <path class="st0" d="M345.43,24.77c6.99-6.95,14.48-14.52,15.97-24.89h205.45v283.46c-13.31-.57-34.52,16.04-41.61,26.01-6.97.33-6.73-3.62-8.27-8.64-4.78-15.59-3.46-38.09-8.62-56.39-8.43-29.88-33.73-66.47-54.46-91.13-35.78-42.57-67.33-67.11-122.71-77.59-18.51-3.5-36.71-7.34-57.17-10.44-9.24-1.4-36.85-7.23-46.43-9.47,10.87-3.62,65.13-11.11,69.1-11.42,0,0,36.41-7.24,48.76-19.5Z"/>
  <path class="st2" d="M226.83,55.43c9.58,2.24,37.94,8.32,47.18,9.73,20.47,3.1,38.66,6.94,57.17,10.44,55.39,10.48,86.94,35.02,122.71,77.59,20.72,24.66,46.03,61.24,54.46,91.13,5.16,18.3,3.84,40.8,8.62,56.39,1.54,5.02,1.3,8.97,8.27,8.64-20.38,28.66-35.15,75.5-54.97,104.96-6.23,9.26-28.79,30.68-38.88,36.53-20.63,11.96-38.12,17.84-60.18,23.06-34.21,8.09-64.97,15.37-99.72,19.88-21.26,2.76-28.13-7.02-46.65-7.58-8.47-.26-12.34,2.18-16.86,2.58-18.46,1.65-32.28-21.06-44.48-32.24-42.36-38.81-80.05-66.4-94.78-126.27-4.46-18.14-3.41-42.52-8.15-59.57-1.85-6.67-.96-6.33-8.63-5.57,14.67-24.02,24.62-56.12,37.99-80.34,22.74-41.2,79.78-105.5,123.27-123.78"/>
</svg>