<?xml version="1.0" encoding="UTF-8"?>
<svg id="Camada_2" xmlns="http://www.w3.org/2000/svg" version="1.1" viewBox="0 0 566.93 566.93">
  <!-- Generator: Adobe Illustrator 29.5.0, SVG Export Plug-In . SVG Version: 2.1.0 Build 137)  -->
  <defs>
    <style>
      .st0 {
        fill: #bfb7b4;
      }

      .st1 {
        fill: #3f5a91;
      }

      .st2 {
        fill: #522019;
      }

      .st3 {
        fill: #d6ad43;
      }

      .st4 {
        fill: #9e6933;
      }
    </style>
  </defs>
  <rect class="st4" x="0" y="0" width="566.93" height="566.93"/>
  <polygon class="st2" points="141.24 283.46 92.82 193.97 0 193.97 0 371.6 91.81 371.6 141.24 283.46"/>
  <polygon class="st2" points="425.69 282.1 474.11 371.6 566.93 371.6 566.93 193.96 475.12 193.96 425.69 282.1"/>
  <polygon class="st3" points="190.85 193.97 378.82 193.97 425.69 282.1 381.85 371.6 190.85 371.6 141.24 283.46 190.85 193.97"/>
  <polygon class="st0" points="0 0 3.82 0 282.47 0 217.12 138.59 70.08 138.59 0 0"/>
  <polygon class="st0" points="566.93 0 563.11 0 284.46 0 349.81 138.59 496.85 138.59 566.93 0"/>
  <polygon class="st1" points="0 566.93 3.82 566.93 282.47 566.93 217.12 428.34 70.08 428.34 0 566.93"/>
  <polygon class="st1" points="566.93 566.93 563.11 566.93 284.46 566.93 349.81 428.34 496.85 428.34 566.93 566.93"/>
</svg>