<?xml version="1.0" encoding="UTF-8"?>
<svg id="Camada_2" xmlns="http://www.w3.org/2000/svg" version="1.1" viewBox="0 0 1024 1024">
  <!-- Generator: Adobe Illustrator 29.5.0, SVG Export Plug-In . SVG Version: 2.1.0 Build 137)  -->
  <defs>
    <style>
      .st0 {
        fill: #bfb7b4;
      }

      .st1 {
        fill: #ebe0b3;
      }

      .st2 {
        fill: #f9f9f9;
      }

      .st3 {
        fill: #be9714;
      }

      .st4 {
        fill: #d6ad43;
      }
    </style>
  </defs>
  <polygon class="st2" points="378.5 298.93 378.5 865.86 661.96 582.4 378.5 298.93"/>
  <polygon class="st0" points="945.42 298.93 378.5 298.93 661.96 582.4 945.42 298.93"/>
  <polygon class="st2" points="945.42 865.86 945.42 298.93 661.96 582.4 945.42 865.86"/>
  <path class="st0" d="M945.42,865.86l-212.09-212.09c14.61-18.76,33.32-36.46,52.84-49.3,7.31-4.81,20.79-8.49,14.51-20.05-4.97-9.16-16.74-6.14-24.77-3.57-16.92,5.41-35.72,17.69-47.62,30.86-5.19,5.75-11.63,18.88-21.02,16.01l-3.17-3.17c-.3-2.21.99-5.02,1.64-7,2.94-9.01,7.26-18.61,11.04-27.36,19.48-45.04,41.66-89.01,61.42-133.94,1.63-3.71,6.62-13.42,6.63-16.79.01-7.95-10.05-13.22-16.72-8.88-3.8,2.47-7.72,11.4-9.96,15.64-14.88,28.1-28.12,57.15-42.49,85.53-5.43,11.13-20.5,4.97-15.91-6.45,14.5-32.97,30.15-65.5,44.5-98.54,1.81-4.16,7.25-14.92,7.58-18.63.6-6.7-5.32-12.83-11.84-12.95-8.64-.17-11.47,7.24-14.68,13.75-16.79,34.1-30.41,70-47.3,104.09-4.11,8.62-16.87,4.16-15.55-4.97l49.13-111.73c4.43-14.79-15.73-22.37-22.64-8.72l-52.13,118.18c-3.13,4.96-7.25,9.31-13.58,7.26-5.65-1.83-5.73-6.05-5.44-11.24,1.56-27.99,7.21-57.02,8.89-85.17.37-6.25.34-12.52-6.68-15.02-8.51-3.02-13.05,3.12-14.39,10.65-4.61,25.79-5.93,53.81-9.62,79.99-4.39,31.18-21.99,59.92-31.24,90.1-6.65,21.71-8.68,44.74-15.98,66.39-6.17,18.3-13.86,38.13-21.46,55.91-3.27,7.66-6.75,15.23-10.39,22.74l-138.48,138.48h566.93Z"/>
  <path class="st4" d="M735.86,449.71l16.82-39.03c3.39-15.88-16.25-24.17-25.5-8.8-6.28,10.43-11.78,25.51-17.08,36.93-.29.63-.37,1.32-.49,1.99l-14.43-2.18c4.08-12.76,11.5-24.97,16.24-37.47,2.17-5.72,3.63-10.25.2-15.98-4.64-7.75-17.29-8.35-22.46-.72l-24.05,53.31c-1.45,1.24-3.39.67-5.11,1.01-11.82,2.32-23.73,4.65-34.66,9.86-.52-.69-.33-2.18-.27-3.05.76-10.17,2.97-21.09,3.33-31.18.62-17.37-18.98-20.51-23.87-4.95l-6.43,53.68c-.57,1.84-7.8,6.76-9.78,8.59-37.4,34.6-52.67,83.78-40.25,133.77,1.08,4.33,5.88,16.14,5.7,19.21-.68,12-10.61,35.23-15.12,47.25-7.21,19.19-15,38.13-23.8,56.63-.85.2-.89-.13-1.35-.59-10.33-10.36-21.95-25.7-29.82-38.08-64.32-101.07-34.33-235.56,66.85-298.85,127.9-80.01,299.85-6.39,327.05,142.06,26.62,145.33-94.23,274.67-241.02,256.05-11.36-1.44-23.77-3.81-34.3-7.99,7.33-15.14,14.72-30.28,21.79-45.55,3.87-8.36,7.61-19.87,12.03-27.48.94-1.61,2.69-3.38,4.53-3.82,3.55-.85,13.31,1.92,17.65,2.46,102.87,12.89,183.43-85.65,146.59-183.88-7.17-19.12-19.23-34.61-32.73-49.6l13.42-29.8c3.66-12.84-12.2-21.97-21.05-11.59-2.89,3.39-12.53,25.27-13.95,25.6l-14.67-7.83Z"/>
  <path class="st3" d="M587.77,811.52l13.72-28.43c10.66,2.82,21.33,5.66,32.28,7.2,125.41,17.64,239.64-75.21,248.46-201.1,8.01-114.39-72.68-214.57-186.28-230.09-157.14-21.46-281.68,122.09-239.25,274.87,10.14,36.52,31.17,68.83,56.98,96.13l-14.68,28.54c-40.21-36.25-68.68-86.53-78.02-140.14-29.61-169.93,111.1-316.06,282.2-290.55,137.2,20.46,228.91,146.68,208.45,283.96-12.94,86.82-72.28,160.55-153,193.75-54.08,22.25-115.24,23.64-170.85,5.86Z"/>
  <g>
    <path class="st1" d="M808.57,539.8c-6.25-25.41-19.27-46.42-37.41-65-21.12,48.07-44.89,95.03-64.29,143.87-2.78,6.31-.65,8.99,6.15,7.26,5.22-1.33,11.15-11.93,15-16.17,10.11-11.15,26.36-21.92,40.27-27.63,9.4-3.86,27.55-10.45,33.67,1.59,6.27,12.34-5.12,15.58-12.99,20.76-22.46,14.77-44.6,35.32-59.94,57.49-7.33,10.6-6.4,13.54-19.78,18.63-20.65,7.85-42.18,13.8-62.8,21.79l-.78,1.16c22.02,4.23,43.54,3.69,65.24-1.83,71.44-18.14,115.45-89.63,97.68-161.92Z"/>
    <path class="st1" d="M594.18,468.69c-6.51,5.08-13.94,12.8-19.2,19.2-29.83,36.28-38.18,88.51-20.33,132.17,1.94-7.89,3.1-16.04,4.99-23.95,7.28-30.45,21.94-58.96,32.42-88.36l5.73-41.3c-.46-.38-3.02,1.78-3.6,2.23Z"/>
    <path class="st1" d="M624.77,450.3l-5.72,54.83c.96,9.72,12.19,8.55,15.92,1.02l29.6-66.41c-13.65,1.67-27.22,5.05-39.81,10.56Z"/>
    <path class="st1" d="M714.02,531.75l36.27-73.09-15.58-7.8-34.55,78.22c1.46,8.29,9.03,9.75,13.85,2.67Z"/>
    <path class="st1" d="M677.04,512.03l31.5-69.24-14.11-3.02-30.02,66.85c-2.97,8.61,8.65,13.67,12.64,5.4Z"/>
  </g>
</svg>