<?xml version="1.0" encoding="UTF-8"?>
<svg id="Camada_2" xmlns="http://www.w3.org/2000/svg" version="1.1" viewBox="0 0 566.93 566.93">
  <!-- Generator: Adobe Illustrator 29.5.0, SVG Export Plug-In . SVG Version: 2.1.0 Build 137)  -->
  <defs>
    <style>
      .st0 {
        fill: #f9f9f9;
      }

      .st1 {
        fill: #e3bbb1;
      }
    </style>
  </defs>
  <rect class="st0" x="0" y="0" width="566.93" height="566.93"/>
  <g>
    <path class="st1" d="M307.85,329.14c6.47-2.23,12.8-8.37,17.11-13.58,1.66-2,4.75-9.17,6.82-8.99,18.38,9.26,38.14,17.4,55.52,28.46,10.25,6.52,20.65,14.08,24.24,26.32,10.26,35.05-25.72,64.52-57.42,46.66-15.49-8.72-32.2-44.66-39.74-61.38-1.14-2.54-7.55-16.09-6.53-17.5Z"/>
    <path class="st1" d="M237.75,307.6c2.51,6.52,8.71,13.15,14.18,17.58,6.43,5.21,9.46,1.39,5.8,11.37-5.65,15.41-28.57,59.55-40.86,68.87-34.76,26.35-80.24-15.88-57.38-53.07,8.55-13.91,45.13-31.08,60.76-38.21,2.51-1.15,16.13-7.55,17.5-6.53Z"/>
    <path class="st1" d="M333.65,299.94c2.66-11.88,2.62-22.39.04-34.26,24.72-6.65,59.45-25.05,85.15-21.34,28.55,4.12,41.34,40.24,23.85,63.1-25.57,33.4-77.92.45-109.04-7.49Z"/>
    <path class="st1" d="M233.46,266.74c-2.71,11.87-2.38,22.41.03,34.27-20.86,6.44-42.07,15.74-63.61,19.76-12.39,2.31-19.95,3.55-31.75-2.29-20.62-10.21-28.02-35.52-16.25-55.39,23.37-39.46,79.55-5.22,111.58,3.65Z"/>
    <path class="st1" d="M301.26,333.4c5.1,16.39,11.71,32.34,16.11,48.98,5.9,22.35,11.5,44.52-10.32,60.51-28.98,21.23-66.19-2.4-62.45-37.71,2.49-23.56,15.8-49.06,22.36-71.8,11.73,3.15,22.56,2.39,34.3.01Z"/>
    <path class="st1" d="M300.18,233.26c-11.7-3.02-22.63-2.68-34.32,0-5.62-24.29-24.69-59.26-21.28-84.13,3.89-28.43,38.63-42.69,62.05-26.03,35.3,25.12,1.97,78.58-6.45,110.16Z"/>
    <path class="st1" d="M329.14,259.08c-2.23-6.47-8.37-12.8-13.58-17.11-2-1.66-9.17-4.75-8.99-6.82,9.26-18.38,17.4-38.14,28.46-55.52,6.52-10.25,14.08-20.65,26.32-24.24,35.05-10.26,64.52,25.72,46.66,57.42-8.72,15.49-44.66,32.2-61.38,39.74-2.54,1.14-16.09,7.55-17.5,6.53Z"/>
    <path class="st1" d="M259.08,237.79c-6.47,2.23-12.8,8.37-17.11,13.58-1.66,2-4.75,9.17-6.82,8.99-18.38-9.26-38.14-17.4-55.52-28.46-10.25-6.52-20.65-14.08-24.24-26.32-10.26-35.05,25.72-64.52,57.42-46.66,15.49,8.72,32.2,44.66,39.74,61.38,1.14,2.54,7.55,16.09,6.53,17.5Z"/>
  </g>
</svg>