<?xml version="1.0" encoding="UTF-8"?>
<svg id="Camada_1" xmlns="http://www.w3.org/2000/svg" version="1.1" viewBox="0 0 566.93 566.93">
  <!-- Generator: Adobe Illustrator 29.5.0, SVG Export Plug-In . SVG Version: 2.1.0 Build 137)  -->
  <defs>
    <style>
      .st0 {
        fill: #f9f9f9;
      }

      .st1 {
        fill: #7291d1;
      }
    </style>
  </defs>
  <path class="st1" d="M566.93,0v566.93H0V0h566.93ZM385.95,45.99l-102.49,95.02-102.49-95.02v134.98H45.99l95.02,102.49-95.02,102.49h134.98v134.98l102.49-95.02,102.49,95.02v-134.98h134.98l-95.02-102.49,95.02-102.49h-134.98V45.99Z"/>
  <polygon class="st0" points="385.95 45.99 385.95 180.98 520.93 180.98 425.91 283.46 520.93 385.95 385.95 385.95 385.95 520.93 283.46 425.91 180.98 520.93 180.98 385.95 45.99 385.95 141.02 283.46 45.99 180.98 180.98 180.98 180.98 45.99 283.46 141.02 385.95 45.99"/>
</svg>