<?xml version="1.0" encoding="UTF-8"?>
<svg id="Camada_3" xmlns="http://www.w3.org/2000/svg" version="1.1" viewBox="0 0 595.28 841.89">
  <!-- Generator: Adobe Illustrator 29.5.0, SVG Export Plug-In . SVG Version: 2.1.0 Build 137)  -->
  <defs>
    <style>
      .st0 {
        fill: #4a6442;
      }

      .st1 {
        fill: #be9714;
      }

      .st2 {
        fill: #e3bbb1;
      }
    </style>
  </defs>
  <rect class="st2" x="125.3" y="215.16" width="386.22" height="386.22"/>
  <g id="Camada_2">
    <path class="st0" d="M249.6,286.37c-1.04,1.57-2.61,6.78-11.48,11.48s-27.13,20.87-30.78,24.52-9.39,9.91-15.65,20.35c-6.26,10.43-9.91,33.91-9.91,33.91-4.7,24.99,15.65,56.87,15.65,56.87,0,0,10.43-21.91,13.57-24.52s11.48-10.96,14.09-14.61,6.78-6.26,8.87-12.52c2.09-6.26,6.78-15.65,9.91-17.74s15.13-6.26,20.87-4.17,14.61,6.26,14.09,8.35-1.04,7.83-8.35,9.39-17.74,6.26-20.87,9.39-10.43,8.87-13.04,13.04-12,15.65-15.65,19.83-14.61,13.04-16.17,18.26,0,15.65,4.7,22.43c4.7,6.78,25.57,33.39,29.22,36s7.3-8.35,10.43-19.83c3.13-11.48,8.87-33.39,18.26-44.35,9.39-10.96,14.09-21.91,21.91-24.52s14.61-4.7,16.17,0,6.78,10.96,3.13,19.3c-3.65,8.35-13.57,14.09-18.26,18.78s-13.57,15.13-19.3,22.96c-5.74,7.83-12,16.95-15.65,28.04-3.65,11.09-5.74,13.18-5.74,16.31s4.17,9.39,12.52,15.13,20.35,15.65,26.61,20.87,14.09,10.43,17.74,8.87,7.83-16.7,8.35-24,5.74-31.83,3.13-41.22-3.13-25.57,8.87-28.7,18.78,7.3,19.3,14.09,6.26,20.87,2.61,28.7-7.83,18.26-10.43,25.57-7.83,25.04-7.3,29.22,10.43,10.43,21.39,12.52,28.17,6.78,33.39,5.22,9.39-4.7,8.35-9.39-2.09-4.17-5.22-19.83-3.65-12.52-7.3-25.57-5.74-33.91,1.04-32.87,20.35,13.57,22.96,18.78,15.65,15.65,19.3,27.13,7.3,18.26,12,18.26,15.13-2.09,21.91-8.87,22.96-19.3,23.48-47.48-2.61-28.7-26.09-29.22-42.78-14.61-40.17-19.83,18.26-6.26,21.39-4.7,44.92,14.61,44.92,14.61c0,0,9.86-1.04,4.12-20.35s-6.78-20.35-42.26-20.35-50.61-13.04-44.35-22.96,28.7-8.35,33.39-7.3,38.09,7.22,44.87,12.74,6.26-9.61,5.74-16.39,2.61-14.61-9.39-37.04c-7.83-5.74-23.48-3.65-32.87-6.26s-24.52-2.09-43.83,0-36.52,10.96-40.7,1.57.52-17.74,17.22-20.87,30.26-9.39,38.09-8.35,29.74,2.61,36,0,8.35-3.65,0-18.26-18.78-21.39-22.43-28.17-11.48-20.87-19.3-14.09-17.22,14.61-25.04,20.35-9.91,8.35-18.26,12-26.09,10.96-33.39,17.74-8.87,14.61-16.7,13.57-10.96-10.43-5.22-16.17,18.44-21.91,26.96-25.57,36.69-17.74,47.13-21.39,13.04-2.09,13.04-6.26-6.78-5.74-9.91-11.48-16.17-16.17-30.26-13.57-39.65,10.43-51.13,16.7-12,8.35-16.7,15.65c-4.7,7.3-14.09,19.83-17.74,19.3s-3.13-5.74-4.7-4.7-15.65,9.91-15.65,11.48.52,4.17.52,4.17Z"/>
  </g>
  <path class="st1" d="M209.82,411.59s0-7.43,2.74-18.39,7.83-29.74,10.17-47.35,7.04-43.43,7.04-43.43l9.78-5.48s-12.91,95.09-13.7,96.26-16.04,18.39-16.04,18.39Z"/>
  <path class="st1" d="M248.95,280.5l16.04-11.35s4.3,10.17,5.09,11.35,23.87,29.74,23.87,29.74h11.24s2.07,4.7,2.85,5.87,1.56.83,1.56.83l-8.6,3.87s33.26,52.43,35.61,56.74,6.65,12.91,7.83,13.3,4.7,4.3,12.91,0,23.87-11.35,38.74-9.78,27.39,7.83,27.39,7.83c0,0-14.09,1.17-15.65,1.96s-5.48,3.13-5.48,3.13c0,0-10.96-.39-19.17,0s-25.04,3.57-26.61,8.43,7.43,19.74,12.13,24.43,12.13,19.17,17.61,21.91,16.43,9.78,35.22,10.96c5.48,2.74,10.96,5.87,12.91,6.65s-2.35,4.3-6.26,4.7-20.35-.39-21.91,0-2.35,1.96,2.74,8.61,43.43,50.48,43.43,50.48l10.57,13.3-9.78,8.22s-5.87-6.65-7.83-9.78-48.91-59.09-54.39-63-12.52-8.61-16.43-3.91-10.17,40.3-12.52,48.52-10.57,50.09-10.57,50.09c0,0-9.39-.78-14.09-4.7,7.43-25.04,22.3-77.48,22.3-77.48,0,0,13.7-19.57-.78-47.35s-43.83-75.91-43.83-75.91c0,0-7.04,21.91-8.22,27s-3.13,10.96-3.13,10.96c0,0-5.09-2.74-14.09,1.96,8.22-14.48,12.52-39.13,12.52-43.83s2.35-16.04-5.09-21.91-47.74-57.13-47.74-57.13l-.39-4.7Z"/>
  <path class="st1" d="M284.56,452.29s2.74,12.13,0,23.87-13.3,45.78-21.52,53.22c5.87,3.91,8.61,6.65,8.61,6.65,0,0,6.65-9.78,9.39-16.04s15.65-45.39,16.43-57.91,0-22.09,0-22.09l-6.86,5.32-6.05,6.99Z"/>
  <path class="st1" d="M322.89,313.35s30.54-2.97,36.8-.88,29.74,7.83,29.74,7.83l15.65-4.38s-9.39.43-18.26-4.38-20.87-6.38-28.7-7.42-30.94,2.84-30.94,2.84l-4.29,6.39Z"/>
</svg>