<?xml version="1.0" encoding="UTF-8"?>
<svg id="Camada_1" xmlns="http://www.w3.org/2000/svg" version="1.1" viewBox="0 0 566.93 566.93">
  <!-- Generator: Adobe Illustrator 29.5.0, SVG Export Plug-In . SVG Version: 2.1.0 Build 137)  -->
  <defs>
    <style>
      .st0 {
        fill: #4a6442;
      }

      .st1 {
        fill: #be9714;
      }

      .st2 {
        fill: #e3bbb1;
      }
    </style>
  </defs>
  <rect class="st2" x="-.39" y=".21" width="566.93" height="566.93"/>
  <path class="st0" d="M182.08,104.75c-1.53,2.3-3.83,9.96-16.85,16.85-13.02,6.89-39.82,30.63-45.19,36-5.36,5.36-13.79,14.55-22.98,29.87-9.19,15.32-14.55,49.78-14.55,49.78-6.89,36.69,22.98,83.48,22.98,83.48,0,0,15.32-32.17,19.91-36s16.85-16.08,20.68-21.44c3.83-5.36,9.96-9.19,13.02-18.38,3.06-9.19,9.96-22.98,14.55-26.04,4.6-3.06,22.21-9.19,30.63-6.13,8.42,3.06,21.44,9.19,20.68,12.25s-1.53,11.49-12.25,13.79c-10.72,2.3-26.04,9.19-30.63,13.79s-15.32,13.02-19.15,19.15-17.61,22.98-22.98,29.1c-5.36,6.13-21.44,19.15-23.74,26.81-2.3,7.66,0,22.98,6.89,32.93,6.89,9.96,37.53,49.02,42.89,52.84s10.72-12.25,15.32-29.1c4.6-16.85,13.02-49.02,26.81-65.1,13.79-16.08,20.68-32.17,32.17-36s21.44-6.89,23.74,0,9.96,16.08,4.6,28.34c-5.36,12.25-19.91,20.68-26.81,27.57-6.89,6.89-19.91,22.21-28.34,33.7-8.42,11.49-17.61,24.88-22.98,41.16-5.36,16.28-8.42,19.34-8.42,23.94s6.13,13.79,18.38,22.21c12.25,8.42,29.87,22.98,39.06,30.63,9.19,7.66,20.68,15.32,26.04,13.02,5.36-2.3,11.49-24.51,12.25-35.23s8.42-46.72,4.6-60.5c-3.83-13.79-4.6-37.53,13.02-42.12s27.57,10.72,28.34,20.68,9.19,30.63,3.83,42.12-11.49,26.81-15.32,37.53-11.49,36.76-10.72,42.89c.77,6.13,15.32,15.32,31.4,18.38s41.36,9.96,49.02,7.66c7.66-2.3,13.79-6.89,12.25-13.79s-3.06-6.13-7.66-29.1c-4.6-22.98-5.36-18.38-10.72-37.53s-8.42-49.78,1.53-48.25c9.96,1.53,29.87,19.91,33.7,27.57s22.98,22.98,28.34,39.82,10.72,26.81,17.61,26.81,22.21-3.06,32.17-13.02,33.7-28.34,34.46-69.69-3.83-42.12-38.29-42.89-62.8-21.44-58.97-29.1,26.81-9.19,31.4-6.89,65.94,21.44,65.94,21.44c0,0,14.48-1.53,6.05-29.87-8.42-28.34-9.96-29.87-62.03-29.87s-74.29-19.15-65.1-33.7c9.19-14.55,42.12-12.25,49.02-10.72,6.89,1.53,55.91,10.59,65.86,18.7,9.96,8.11,9.19-14.1,8.42-24.06s3.83-21.44-13.79-54.38c-11.49-8.42-34.46-5.36-48.25-9.19-13.79-3.83-36-3.06-64.33,0s-53.61,16.08-59.74,2.3.77-26.04,25.27-30.63,44.42-13.79,55.91-12.25c11.49,1.53,43.65,3.83,52.84,0s12.25-5.36,0-26.81c-12.25-21.44-27.57-31.4-32.93-41.36s-16.85-30.63-28.34-20.68c-11.49,9.96-25.27,21.44-36.76,29.87-11.49,8.42-14.55,12.25-26.81,17.61-12.25,5.36-38.29,16.08-49.02,26.04-10.72,9.96-13.02,21.44-24.51,19.91-11.49-1.53-16.08-15.32-7.66-23.74,8.42-8.42,27.07-32.17,39.58-37.53,12.5-5.36,53.86-26.04,69.18-31.4s19.15-3.06,19.15-9.19-9.96-8.42-14.55-16.85c-4.6-8.42-23.74-23.74-44.42-19.91-20.68,3.83-58.21,15.32-75.05,24.51-16.85,9.19-17.61,12.25-24.51,22.98-6.89,10.72-20.68,29.1-26.04,28.34s-4.6-8.42-6.89-6.89-22.98,14.55-22.98,16.85.77,6.13.77,6.13Z"/>
  <path class="st1" d="M123.68,288.55s0-10.91,4.02-27,11.49-43.65,14.93-69.5c3.45-25.85,10.34-63.76,10.34-63.76l14.36-8.04s-18.96,139.58-20.1,141.3-23.55,27-23.55,27Z"/>
  <path class="st1" d="M181.12,96.13l23.55-16.66s6.32,14.93,7.47,16.66,35.04,43.65,35.04,43.65h16.49s3.03,6.89,4.18,8.62,2.28,1.21,2.28,1.21l-12.62,5.68s48.82,76.97,52.27,83.29c3.45,6.32,9.76,18.96,11.49,19.53s6.89,6.32,18.96,0c12.06-6.32,35.04-16.66,56.87-14.36s40.21,11.49,40.21,11.49c0,0-20.68,1.72-22.98,2.87s-8.04,4.6-8.04,4.6c0,0-16.08-.57-28.15,0s-36.76,5.23-39.06,12.38c-2.3,7.15,10.91,28.98,17.81,35.87,6.89,6.89,17.81,28.15,25.85,32.17,8.04,4.02,24.12,14.36,51.7,16.08,8.04,4.02,16.08,8.62,18.96,9.76s-3.45,6.32-9.19,6.89c-5.74.57-29.87-.57-32.17,0s-3.45,2.87,4.02,12.64,63.76,74.1,63.76,74.1l15.51,19.53-14.36,12.06s-8.62-9.76-11.49-14.36-71.8-86.73-79.84-92.48-18.38-12.64-24.12-5.74-14.93,59.16-18.38,71.23-15.51,73.52-15.51,73.52c0,0-13.79-1.15-20.68-6.89,10.91-36.76,32.74-113.73,32.74-113.73,0,0,20.1-28.72-1.15-69.5-21.25-40.78-64.33-111.43-64.33-111.43,0,0-10.34,32.17-12.06,39.63s-4.6,16.08-4.6,16.08c0,0-7.47-4.02-20.68,2.87,12.06-21.25,18.38-57.44,18.38-64.33s3.45-23.55-7.47-32.17-70.08-83.86-70.08-83.86l-.57-6.89Z"/>
  <path class="st1" d="M233.38,348.3s4.03,17.8,0,35.03-19.53,67.2-31.59,78.12c8.62,5.74,12.64,9.76,12.64,9.76,0,0,9.76-14.36,13.79-23.55s22.98-66.63,24.12-85.01c1.15-18.38,0-32.43,0-32.43l-10.07,7.82-8.88,10.25Z"/>
  <path class="st1" d="M289.66,144.34s44.82-4.36,54.01-1.3c9.19,3.06,43.65,11.49,43.65,11.49l22.98-6.42s-13.79.64-26.81-6.42c-13.02-7.06-30.63-9.36-42.12-10.89-11.49-1.53-45.42,4.17-45.42,4.17l-6.3,9.38Z"/>
</svg>