<?xml version="1.0" encoding="UTF-8"?>
<svg id="Camada_1" xmlns="http://www.w3.org/2000/svg" version="1.1" viewBox="0 0 566.93 566.93">
  <!-- Generator: Adobe Illustrator 29.5.0, SVG Export Plug-In . SVG Version: 2.1.0 Build 137)  -->
  <defs>
    <style>
      .st0 {
        fill: #fff;
      }

      .st1 {
        fill: #2d2e27;
      }
    </style>
  </defs>
  <rect class="st0" width="566.93" height="566.93"/>
  <path class="st1" d="M142.08,425.06c.13,20.17-3.59,40.23-11.78,58.64-21.69,48.74-72,81.83-125.97,79.51-.21-26.59,6.55-52.33,20.52-74.88,24.78-39.98,69.74-64.96,117.23-63.28Z"/>
  <path class="st1" d="M282.4,285.05c.6,31.1-9.2,61.39-27.98,86.02-19.83,26.02-50.14,44.74-82.55,50.36-3.97.69-24.51,3.08-26.72,1.53-.72-.5-.57-2.37-.52-3.24.57-11.87,1.8-23.52,4.86-35.01,15.79-59.4,71-101.52,132.92-99.67Z"/>
  <path class="st1" d="M142,423.47c-24.57.11-48.76-5.74-70.03-17.98C29.75,381.21,3.09,333.71,4.78,284.79c23.39-.44,46.54,5.11,67.02,16.2,44.11,23.86,71.97,72.1,70.19,122.49Z"/>
  <path class="st1" d="M281.86,562.68c-28.78.77-57.09-8.07-80.48-24.54-36.23-25.52-58.1-69.08-56.74-113.61,75.78-3.4,140.43,62.86,137.22,138.15Z"/>
  <path class="st1" d="M424.85,141.87c-.13-20.17,3.59-40.23,11.78-58.64C458.32,34.49,508.63,1.4,562.6,3.72c.21,26.59-6.55,52.33-20.52,74.88-24.78,39.98-69.74,64.96-117.23,63.28Z"/>
  <path class="st1" d="M284.53,281.88c-.6-31.1,9.2-61.39,27.98-86.02,19.83-26.02,50.14-44.74,82.55-50.36,3.97-.69,24.51-3.08,26.72-1.53.72.5.57,2.37.52,3.24-.57,11.87-1.8,23.52-4.86,35.01-15.79,59.4-71,101.52-132.92,99.67Z"/>
  <path class="st1" d="M424.93,143.46c24.57-.11,48.76,5.74,70.03,17.98,42.22,24.28,68.88,71.78,67.19,120.71-23.39.44-46.54-5.11-67.02-16.2-44.11-23.86-71.97-72.1-70.19-122.49Z"/>
  <path class="st1" d="M285.06,4.25c28.78-.77,57.09,8.07,80.48,24.54,36.23,25.52,58.1,69.08,56.74,113.61-75.78,3.4-140.43-62.86-137.22-138.15Z"/>
  <path class="st1" d="M142.08,141.87c.13-20.17-3.59-40.23-11.78-58.64C108.61,34.49,58.3,1.4,4.33,3.72c-.21,26.59,6.55,52.33,20.52,74.88,24.78,39.98,69.74,64.96,117.23,63.28Z"/>
  <path class="st1" d="M282.4,281.88c.6-31.1-9.2-61.39-27.98-86.02-19.83-26.02-50.14-44.74-82.55-50.36-3.97-.69-24.51-3.08-26.72-1.53-.72.5-.57,2.37-.52,3.24.57,11.87,1.8,23.52,4.86,35.01,15.79,59.4,71,101.52,132.92,99.67Z"/>
  <path class="st1" d="M142,143.46c-24.57-.11-48.76,5.74-70.03,17.98C29.75,185.72,3.09,233.22,4.78,282.14c23.39.44,46.54-5.11,67.02-16.2,44.11-23.86,71.97-72.1,70.19-122.49Z"/>
  <path class="st1" d="M281.86,4.25c-28.78-.77-57.09,8.07-80.48,24.54-36.23,25.52-58.1,69.08-56.74,113.61,75.78,3.4,140.43-62.86,137.22-138.15Z"/>
  <path class="st1" d="M424.85,425.06c-.13,20.17,3.59,40.23,11.78,58.64,21.69,48.74,72,81.83,125.97,79.51.21-26.59-6.55-52.33-20.52-74.88-24.78-39.98-69.74-64.96-117.23-63.28Z"/>
  <path class="st1" d="M284.53,285.05c-.6,31.1,9.2,61.39,27.98,86.02,19.83,26.02,50.14,44.74,82.55,50.36,3.97.69,24.51,3.08,26.72,1.53.72-.5.57-2.37.52-3.24-.57-11.87-1.8-23.52-4.86-35.01-15.79-59.4-71-101.52-132.92-99.67Z"/>
  <path class="st1" d="M424.93,423.47c24.57.11,48.76-5.74,70.03-17.98,42.22-24.28,68.88-71.78,67.19-120.71-23.39-.44-46.54,5.11-67.02,16.2-44.11,23.86-71.97,72.1-70.19,122.49Z"/>
  <path class="st1" d="M285.06,562.68c28.78.77,57.09-8.07,80.48-24.54,36.23-25.52,58.1-69.08,56.74-113.61-75.78-3.4-140.43,62.86-137.22,138.15Z"/>
</svg>