<?xml version="1.0" encoding="UTF-8"?>
<svg id="Camada_1" xmlns="http://www.w3.org/2000/svg" version="1.1" viewBox="0 0 1145.2 1145.2">
  <!-- Generator: Adobe Illustrator 29.5.0, SVG Export Plug-In . SVG Version: 2.1.0 Build 137)  -->
  <defs>
    <style>
      .st0 {
        fill: #466140;
      }

      .st1 {
        fill: #cc864b;
      }
    </style>
  </defs>
  <g>
    <rect class="st1" x="578.45" y="578.48" width="566.93" height="566.93"/>
    <path class="st0" d="M1145.38,861.94v-283.46s-566.93,0-566.93,0v566.93s57.36,0,57.36,0l69.01-257.76s22.33-78.15,36.54-112.65c14.21-34.51,60.16-124.83,111.78-176.59,49.59,23.34,189.82,97.78,292.24,263.54Z"/>
  </g>
  <g>
    <rect class="st0" x="578.45" y=".21" width="566.93" height="566.93"/>
    <path class="st1" d="M578.45,567.14V.21h294.7l-108.82,311.25s-59.03,179.02-185.88,255.68Z"/>
  </g>
  <g>
    <rect class="st0" x=".19" y="578.48" width="566.93" height="566.93"/>
    <path class="st1" d="M403.68,1074.29h163.43v71.12H.19v-566.93h64.91l98.37,321.24s42.57,178.87,240.22,174.58Z"/>
  </g>
  <g>
    <rect class="st0" x=".19" y=".21" width="566.93" height="566.93"/>
    <path class="st1" d="M.19,567.14h566.93V.21h-270.47l-101.27,287.1S142.91,482.88.19,567.14Z"/>
  </g>
</svg>