<?xml version="1.0" encoding="UTF-8"?>
<svg id="Camada_1" xmlns="http://www.w3.org/2000/svg" version="1.1" viewBox="0 0 566.93 566.93">
  <!-- Generator: Adobe Illustrator 29.5.0, SVG Export Plug-In . SVG Version: 2.1.0 Build 137)  -->
  <defs>
    <style>
      .st0 {
        fill: #fafafa;
      }

      .st1 {
        fill: #7290ca;
      }
    </style>
  </defs>
  <rect class="st0" x="0" width="566.93" height="566.93"/>
  <g>
    <path class="st1" d="M560.57,41.06c-3.5-11.39,3.12-38.4-16.84-40.54-6.62-.71-52.83-.8-57.55.33-4.63,1.1-8.56,8.04-11.25,9.63-3.54,2.09-18.31,7.15-22.92,8.01-18.93,3.52-40.14,6.33-57.71,11.54-3.72,1.11-6.01,4.19-9.86,5.16l-2.14-.43c-7.24-10.39-23.41-18.45-36.95-10.4-2.67,1.59-15.75,12.93-16.86,14.87-1.08,1.87.7,11.94,1.57,14.17,2.8,7.21,17.06,11.27,11.32,20.57-1.03,1.67-4.21,1.91-5.19,2.87-1.66,1.64-1.12,3.84-2.06,5.1-1.29,1.72-4.57,1.4-4.88,4.17-.78,7.13,5.11,15.88,15.18,14.8,1.74-.19,12.96-3.73,13.82-4.45,2.57-2.14,1.24-6.63,5.54-9.71,6.58-4.73,18.94-4.23,25.67-12.88,3.67-4.72,1.51-6.63,2.48-10.88,1.04-4.53,25.38-13.92,30.51-7.69l-3.33,6.33,9.32,7.45c3.57,4.91-2.16,6.09-2.77,7.04-1.11,1.73-1.25,4.16-2.49,5.5-2.16,2.34-7.78,4.29-9.49,7.81-5.71,11.72,12.4,8,18.34,10.92,1.72.85,2.2,3.4,4.03,4.49,9.13,5.47,11.08,2.44,19.16,2.65,8.7.23,21.02,4.67,31.44,2.48-4.38,7.82-.85,14.9,0,23.15l-16.73-3.75-7.36,12.77-10.41-1.35c-.1,10.68-12.26-5.47-12.99-7.6-.82-2.39,2.63-14.2.94-15.51l-8.59-.05c-3.1,3.5-2.41,7.13-5.86,11-7.31,8.21-17.35,2.49-17.8,18.01-.05,1.68,1.35,10.16,2.09,10.72,1.34,1.02,6.52-.48,6.08,6.65,9.32-3.16,7.48.45,12.02,3.86,2.55,1.92,6.9,2.32,7.25,5.8.17,1.67-1.72,3.77-1.37,5.02.37,1.35,9.97,5.36,11.07,11.6.35,2,.38,6.92-.13,8.82-.24.91-11.93,10.77-14.15,14.63-3.55,6.17-3.82,26.84-1.54,32.98,1.2,3.23,13.16,9,12.44,11.7l-14.35,7.21c-.67-.39-2.59-7.08-3.24-8.38-.74-1.5,1.23-2.43-3.19-1.91-1.33,4.78-4.71,13.28-8.95,16.69-1.43,1.15-4.07.95-5.03,1.7-1.04.81-8.1,12.98-8.41,14.49-.63,3.05-.73,13.63.24,16.37.22.61,7.6,10.39,8.16,10.83.94.73,3.58.51,5.01,1.71,11.11,9.31,3.91,17.29,7.02,28.52-.65,2.6-10.28,12.92-13.01,14.77-13.6,9.22-9.91,2.01-20.31,16.54-8.48,11.85-32.86,12.05-41.29,26.19-.74.19-14.12-1.1-15.44-1.43-3.27-.82-4.31-4.48-8.45-4.92-3.3-.35-7.3,1.32-11.08,1.38-4.69.07-24.87-1.7-26.23-1.06-1.31.61-18.15,17.93-18.77,19.04-.42.76-3.66,14.29-3.94,16.19-1.6,11.08,5.31,8.71,9.36,14.16,7,9.41,3.77,18.7,1.71,28.74l-7.97.06c2.43,9.43-10.08,14.42-17.18,20.42-3.16.65-18.42-6.36-20.64-8.75-1.43-1.55-6.86-12.82-7.19-14.82-.76-4.5-.54-17.93,3.76-20.91,1.7-1.18,4.62-.62,7.58-3.57,7.08-7.06,10.62-21.21,6.46-29.67l-16.74-1.87-1.02-3.23c14.01-6.37,34.49-6.36,20-22.43-10.48-11.63-24.43-13.9-34.86-.93-9.77,3.43-12.29-15.32-14.88-19.69-1.88-3.17-10.6-10.38-12.41-13.26-10.05-15.95,5.54-11.62,13.38-16.95,4.99-3.39,3.31-7.63,7.23-11,13.34.72,12.21,11.17,19.35,17.95,4.04-1.79,14.03-1.95,16.67-3.17.93-.43,10.24-11.43,12.95-13.76,7.91-6.82,20.11-11.26,20.79-21.61-3.31,2.33-14.18-6.52-14.47-7.36-2.66-7.84,5.78-14.43,1.62-22.23,4.32-1.05,2.41,1.85,4.38,2.51,2.79.93,5.74.64,9.6,2.36,2.93,1.31,6.01,4.82,8.01,5.23,4.74.98,14.2-6.2,18.95.19-.75,3.61,3.48,8.99,3.72,11.16.19,1.75-3.44,3.47-2.96,7.37.37,3,3.41,4.5,4.48,6.87.93,2.06-.35,5.25.62,6.57.27.37,6.41,1.89,8.32,2.98,23.79,13.57,11.91,24.12-.51,38.72-1.11,1.31-3.9,1.42-4.61,3.05-4.9,11.4,24.71,30.12,33.35,20.32,2.41-2.73,3.25-20.19,5.01-25.34l12.49-9.56c2.11-6.02-4.27-9.94-2.07-15.75,1.76-4.63,6.76-3.72,9.72-6.38,4.34-3.9,5.14-4.45,9.49-7.84,15.3-11.95,22.66-24.03,20.17-41.91-.69-4.93-4.87-7.64-3.01-12.51,1.2-3.14,17.51-13.71,21.43-17.58,1.89-1.86,2.41-3.95,3.94-5.85.52-.64,9.6-8.55,1.6-5.16-3.76,1.6-13.88,6.96-17.55,9.1-6.23,3.62-11.27,10.95-19.17,11.09l-.3,3.47c-9.16-1.52-8.97,5.64-18.43,5.38-1.22-.03-18.53-4.6-19.19-5.22-1.36-1.27-3.58-10.11-3.86-12.36-.33-2.65,3.23-4.95-1-6.94l-32.39,11.38-2.07-.37c-1.96-1.75-3.16-4.7-5.61-6.01-1.43-.77-9.95.55-.74-3.15-5.65-11.23,3.54-21.86,3.46-33.11l22.96-22.78c6.95,2.43,4.29,9.87,15.23,7.72.7.46-8.14,11.21-9.12,12.56-.94,1.3-3.41,1.53-3.67,2.49-.86,3.09-.48,8.64,1.47,11.39.72,1.01,19.09,13.14,20.39,13.31,1.91.24,3.8-2.25,6.24-2.45,5.2-.42,10.64,4.19,14.87-3.47l5.13-36.39-17.29-1.59c-3.75-4.03-6.43-8.77-9.95-12.89-1.1-1.29-4.17-1.78-4.79-2.93-2.19-4.03,3.61-2.92,6.51-4.99,9.03-6.44-.28-12.49,1.57-16.7.92-2.09,4.57-1.5,6.4-3.01,3.12-2.58,7.92-9.59,8.85-13.15,1.14-4.37.29-20.27-2.37-23.67-4.46-5.7-25.54-4.94-32.7-3.15-2.87.72-12.27,9.79-13.76,12.13-8.12,12.76,3.21,21.49,9.39,32.62l-26.37-11.66c-5.91,9.97-20.72,9.74-23.29,22.68-1.64,8.27,3.45,13.06,3.19,19.19-.2,4.68-5.32,8.69-2.49,13.53.87,1.49,4.02,2.52,4.83,3.88,3.81,6.34-9.19,4.94-13.74,8.39l.08,4.47c-8.8-3.39-12.02,2.53-18.93,4.78-11.26,3.67-24.5,3.26-34.94,8-6.54,2.97-8.02,7.06-6.14,12.81.15.47,4.95,8.24,5.32,8.64.97,1.06,3.69,1.21,4.49,2.16.3.36,3.58,7.7,3.65,8.13.76,4.41-5.19,11.37-8.81,14.69-8.73,7.98-15.37,7.14-20.84,19.32-2.08,4.63-1.68,9.73-4.92,14.07-2.25,3.01-8.84,8.22-13.59,5.86-.88-.43-11.48-11.64-12.61-13.07-2.6-3.29-3.41-7.98-6.5-11.22,7.09-5.31,11.14-13.71,13.84-21.14,2.05-5.65-.61-14.03,7.01-17.54,6.74-3.11,7.36-4.54,12.11-7.02,4.15-2.16,11.36-1.99,14.36-3.92,7.18-4.63-.04-13.66-.94-19.4l-12.02,6.41c-.89.03-5.25-12-5.53-13.55-1.83-10.15,4.16-11.05,4.7-13.05,1.39-5.13-1.77-12.6-1.08-16.26.59-3.17,4.13-8.6,3.88-13.37-.17-3.18-5.38-5.64-5.74-7.66-.31-1.75,3.73-3.75,3.07-6.09-3.59-4.13-9.04-3.94-12.58-5.52-1.8-.81-1.82-2.21-3.21-2.87-1.58-.75-6.59-1.16-6.8-1.39-.5-.55,2.14-3.48.85-6.33-1.59-3.5-7.73-6.76-10.24-9.93-.2-.82,5.1-9.05,6.16-10.13,1.79-1.83,5.36-2.26,7.19-4.53,3.81-4.72.78-11.59,12.15-9.49,6.98-14.02-4.2-8.53-9.74-11.67-1.41-.8-1.08-2.99-2.09-4.09-1.38-1.5-8.22-5.44-4.07-9.29.63-.58,14.16-3.5,18-5.51,5.89-3.08,8.67-9.31,13.03-11.45,3.73-1.83,9.35-.2,8.77-5.73-.26-2.44-4.59-4.95-3.09-8.34h8.04c1.96-4.73-2.88-7.19-4.06-10.27-2.36-6.19-2.7-13.76-4.69-19.4-2.36-6.69-8.46-12.16-9.7-19.24-4.08-4.54-21.97,5.43-24.49,10.01-3.51,6.38-.65,15-6.85,21.49,2.4,2.87,7.95.28,6.41,5.17-6.02,2.81-12.2,2.74-18.78,5.53-21.17,8.98-8.22,19.06-6.88,33.72-11.2-1.85-17.17,12.15-20.78,18.74.32,7.06-.87,14.8-.07,21.76.65,5.68,6.14,13.58,4.5,17.79-1.52,3.89-8.37,2.69-10.57,6.99-1.2,2.34-6.75,20.51-6.86,22.92-.13,2.78,2.5,9.73,1.54,10.76-.5.54-3.87.48-5.16,1.3-1.59,1.01-1.93,3.44-3.74,3.84-2.2.48-5.93-1.38-9.29-1.17-6.08.39-22.46,10.63-24.31,15.36-5.12,13.06,10.78,16.71,10.15,22.37-2.26,8.09-12.87,16.12-9.26,24.02l-4.93.7-.17,8.09-4.52,1.51c-1.82-2.87-.81-6.9-1.71-9.36-.39-1.06-2.57-.81-3.02-1.89-1.33-3.19.37-6.51-3.41-9.9-6.5-5.83-17.5-3.62-25.54-7.25-1.55-3.43,4.7-6.79,4.79-7.22.75-3.42-3.55-11.28-1.65-15.84l-6.3.1c-1.26,11.58,1.24,20.14-8.19,30.11-1.7,1.8-11.2,8.4-11.2,9.04v26.38c5.73-1.29,9.43,3.18,13.72,3.82,13.54,2.01,24.77-6.75,37.64-7.68-2.24,7.33,3.85,6.77,7.21,10.31,9.35,9.84,7.35,19.49,25.94,28.1,1.91.88,17.38,4.92,18.33,4.78,7.47-1.11,11.97-15.84,11.18-20.61-.6-3.57-18.47-15.81-22.38-19.52,6.72-9.97,13.53-17.14,9.16-29.17-.79-2.19-4.79-3.63-5.75-6.97-1.36-4.72.88-10.84-.34-14.97-.34-1.14-4.26-.36-3.19-2.76,2.36-5.3,5.76,3.43,7.13,4.55,5.49,4.49,15.78,7.04,23.45,5.61,2.47,8.21,5.27,14.26,10.19,21.47,1.04,1.53.81,3.75,1.82,4.97,2.11,2.56,9.69,2.26,11.95,5.83-5.38,4.13-15.29,3.23-18.84,9.32-6.95,11.92-1.86,20.33,5.82,30.39-4.37,4.59-10.9,10.09-12.25,15.93-.81,3.51.36,17.66-.46,18.29-.9.7-8.39-1.27-9.57,4.63-1.07,5.36,4.6,9.24,3.23,14.72l6.89-1.1c2.56.78,3.77,2.26,4.28,4.36.85,3.48-.63,17.95-1.57,21.82-.96,3.95-7.61,5.34-4.53,12.72.68,1.64,3.48,1.75,4.59,3.04,3.05,3.57,5.55,7.97,9.74,11.16,4.04,3.07,16.67,8.34,19.24,11.6,4.31,5.46-3.01,8.64,13.52,8.58,21.62-.08,14.49-15.61,24.12-16.91,5.4-.73,13.32,7.36,16.88,11,0,2-11.94,10.17-14.02,10.68-8.14,2-18.56-2.82-25.41-2.36-3.69.25-3.32,3.18-5.09,3.98-3.03,1.35-6.89,1.24-10.02,3.23-7.9,5.03-4.28,13.79-1.17,20.08,4.33,8.74,11.91,10.09,4.05,20.82-.92,1.26-14.75,13.54-16.31,14.58-6.13,4.08-20.9,8.41-29.2,13.27-10.53,6.17-15.94,15.97-32.92,12.87-3.69-11.3,8.65-17.47,11.98-25.84,1.57-3.96-2.08-9.13-6.67-9.99-3.12-.58-11.57,2.01-17.39,1.1-6.61-1.03-9.9-9.47-7.17-14.16l-7.94-.09c-3.35-9.61-6.7-20.11,1.54-28.86,9.64-10.24,14.61-2.43,25.71-3.74,8.54-1.01,14.14-6.82,22.02-8.82,1.02-6.28,9.66-13.32,2.16-18.45-.87-.6-19.52-7.8-20.64-7.99-8.12-1.33-7.26,4.68-9.36,7.34-3.22,4.08-6.76,7.02-9.33,11.82-2.15,4,1.03,7.38-6.56,7.72-12.3.55-7.96-16.53-21.3-19.18-5.8-1.15-5.93,2.27-9.59,3.33-2.5.73-14.29,1.15-14.89,1.59,1.72,3.74,1.15,7.91,2.29,11.67.79,2.61,3.65,4.75,4.11,7.09,1.46,7.38-5.79,16.79-16.03,15.97v99.07c6.52,1.84,8.82-3.06,10.78-3.85,10.39-4.18,22.22-6.62,32.85-10.45,2.42-.87,2.99-3.51,8.72-4.86,3.73-.88,12.16-2.2,15.62-1.22,3.99,1.12,2.04,6.38,11.5,6.36,12.93-.02,33.5-18.9,40.95,1.15-8.71-1.52-11.68,5.24-17.05,7.57-2.82,1.23-6.88,1.08-8.62,2.1-2.26,1.32-6.06,10.79-12.94,11.61-1.21,5.49,13.16,5.7,11.28,12.12-3.19,3.96-30.62-2.66-35.28,3.92h65.82c.36,0,.13-3.64,1.77-5.64.41-.5,10.41-7.62,11.09-7.86,8-2.81,21.65-2.13,29.53-8.5,1.95-1.58,3.37-5.3,4.61-5.96,3.17-1.69,19.74-2.14,20.54.39-1.18,9.12-11.82,11.25-8.23,22.35-1.1.84-16.18,1.83-17.56,5.22h202.29c1.28-7.56-.67-7.82-8.02-11.01-.87-2.38,2.9-4.23,3.19-6.4.58-4.49-6.33-18.28,5.78-18.58,11.68-.28,1.86,11.72,2.59,14.58.13.53,6.46,7.13,7.02,7.23,2.28-1.44,15.42-6.98,15.99-7.64,4.55-5.31-3.28-9-4.05-12.28-.64-2.73,1.01-7.5-.35-9.38-.78-1.08-7.85-2.22-9.03-4.98-.63-1.48-1.46-13.48-1.72-16.64-.23-2.74,1.81-4.87,1.15-8.52-1.42-7.8-11.22-10.86-12.25-13.39-2.37-5.78,1.41-25.15,13.9-22.17,2.14,5.81,6.65,8.2,11.04,11.86.77.64-.01,2.59,1.46,3.5,2.09,1.29,14.74,3.54,16.52,2.35,1.66-6.5,3.63-12.94,5.45-19.42,1.13-4,8.22-17.87,2.76-21-1.38-.79-4.52-.53-6.39-1.31-5.77-2.42-2.15-8.71-3.28-12.61-.32-1.13-4.26-.38-3.2-2.75,5.55-7,10.68.85,18.09-.89,5.14-1.2,9.31-10.84,16.47-11.42l4.86,4.01c3.17.45,13.95-9.25,15.84-11.76.99-1.32,4.64-9.83,4.14-10.19-2.53.28-8.79-.05-8.03-3.2.66-2.75,7.85-1.56,10.11-1.97.48-.09,4.5-4.33,7.63-4.68.29-7.66-.76-15.29-1.8-22.87-1.22-8.87-5-16.81-3.19-27.17.9-5.14,5.76-10.57,3.3-17.3l17.65,2.57c2.73-5.49-2.57-7.48-3.09-8.69-1.05-2.45-.33-5.85-3.34-8.65,4.01-4.33,10.17-.31,15.28-.55,3.45-.17,5.18-2.11,8.09-2.63,3.66-.66,7.76.93,11.31-1.23,3-1.83,2.54-5.95,3.89-8.14,1.42-2.3,6.98-3.28,5.5-10.09l5.5-1.34c1.39-1.25-1.99-5.91,2.76-8.74,7.94-4.73,9.96,3.72,11.23,3.85,2.94.32,11.56-5.05,18.33-1.39V44.34c-3.98.19-5.32.1-6.35-3.27Z"/>
    <path class="st1" d="M561.01,520.67c-13.28-5.17-34.42-.45-48.66-.29l3.21-10.28c-21.85-1.8-15.26,7.58-18.03,18.37-1.12,4.34-5.36,5.92-6.16,11.78-1.48,10.76,2.86,15.62,6.54,25.18,4.19.64,6.21-2.69,10.23-2.58,3.32.09,7.23,2.42,11.48,2.65,5.84.32,11.33,1.06,15.92,1.28,10.28.51,21.06-.52,31.39-.08v-42.46c-3.79.7-3.23-2.53-5.91-3.58Z"/>
    <path class="st1" d="M554.27,342.92l-.29,1.81c-.86,9.83,4.92,7.36,8.26,11.52,2.14,2.66-.31,6.66,4.69,5.89v-42.46c-5.08,6.66-7.97,15.31-8.21,23.08l-4.44.16Z"/>
    <path class="st1" d="M.41,133.59c1.97,14.39,11.4,10.06,17.24,18.35,1.42,2.02,6.04,14.45,4.85,15.77-.55.61-4.81.74-6.31,2.03-1.84,1.59-.96,3.66-1.71,4.8-.79,1.2-2.74,1.13-2.98,1.94-3.54,11.81,9.35,22.01,22.33,13.82,4.97-3.14,9.16-12.39,14.07-14.45,6.31-2.65,14.66-1.05,21.71-1.9,7.98-.95,19.2-4.39,27.4-6.03l4.13-6.06-3.07-3.55c.3-4.27,4.66-4.61,4.81-5.41.52-2.76-.82-8.85.14-12.67.6-2.38,2.94-3.03,3.16-5.18-6.8-.54-11.85,2.95-15.29,7.05l-2.37.02c1.06-4.21-3.51-4.52-5.47-6.57-4.88-5.11-5.5-11.18-17.02-7.57-5.63-7.89,5.68-11.5,6.46-16.16.14-.83-1.61-12.79-1.98-13.83-1.78-5.05-13.55-3.08-18.87-4.82-1.57-4.96,3.62-7.69,5.55-11.51,6.09-12.07,10.48-23.67,14.07-36.32.45-1.6,2.39-3.29,2.48-4.44.09-1.16-5.07-11.84-5.36-14.54-16.93-7.47-31.25-6.89-49.43-2.8C11.15,18.7,12.83,10.45.2,10.89v20.59c0,.45,5.61,1.7,8.72,5.24,7.72,8.8,4.99,20.31-8.46,23.26-.13,17.24-.68,34.69-.35,51.98.05,2.48,2.63,4.1,2.7,5.1.19,2.86-3.35,9.53-2.39,16.53Z"/>
    <path class="st1" d="M243.32,88.17c5.28,3.08,12.51.98,16.98,1.81,6.33,1.17,16.7,7.58,23.25,3.23,5.5-3.65,10.22-20.68,10.1-26.36-.22-10.86-10.27-18.71-24.12-17.15-2.89.33-18.87,3.76-21.62,4.66-4.02,1.32-6.41,3.72-9.15,6.18-1.02.92-3.27,1.11-3.88,2.63-.43,1.07-1.84,9.96-1.78,11.29.15,3.08,7.35,12.03,10.21,13.7Z"/>
    <path class="st1" d="M530.38,410.69c5.37-1.74,13.84-18.82,14.22-23.41.24-2.89-.65-8.75-2.14-11.32-1.64-2.82-3.81-2.51-5.49-3.96-4.61-3.95-8.19-7.5-15.89-8.49-14.7-1.9-28.06-.04-29.61,13.43-1.06,9.24,4.91,19.62,10.67,27.48,6.71,9.16,15.71,10.35,28.25,6.28Z"/>
    <path class="st1" d="M461.74,524.27c3.36,6.1-3.35,16.05,10.08,17.74,18.93,2.38,9.08-12.76,10.32-19.43.84-4.55,13.18-11.31,11.91-20.21-1.31-9.2-5.37-5.16-12.68-6.69-3.2-.67-5.08-3.03-8.41-3.56-3.04-.48-7.97.68-10.07-.31-.59-.28-8.44-5.6-10.06-6.72-4.14-2.86-5.15-8.53-13.32-8.19-5.76.91-3.06,14.23-2.21,18.06,1.78,8.07,7.33,16.07,14.05,22.2,2.48,2.26,8.84,4.26,10.4,7.1Z"/>
    <path class="st1" d="M27.55,295.78c.29-2.55-5.46-12.36-9.26-13.2-3.42-.76-18.09,1.5-18.09,4.29v55.97c4.58-.72,9.78-5.49,12.89-8.33,16.03-14.63,8.42-17.23,11.27-33.42.35-1.99,3-3.52,3.2-5.31Z"/>
    <path class="st1" d="M98.88,340.96c-1.56-1.44-1.89-2.87-4.71-3.3-10.47-1.6-25.44-.74-30.18,8.11-3.08,5.75,11.51,19.95,14.84,26.04,3.56,3.52,15.79-5.16,16.89-7.11,1.75-3.11.31-7.16,1.17-10.64,1.47-5.94,8.07-7.48,1.99-13.1Z"/>
    <path class="st1" d="M85.43,445.24c-3.66,1.69-11.79,9.32-11.43,12.66.15,1.36,6.53,9.82,8.06,10.4,5.36,2.03,20.56,1.62,26.06-.7,1.69-.71,1.93-2.68,3.92-3.57,5.57-2.48,15.5-2.58,15-10.54-12.82.9-30.49-13.38-41.6-8.26Z"/>
    <path class="st1" d="M402.23,199.96c16.09-1.69,11.98-16.05,1.48-21.61-3.48-1.84-8.07-2.24-11.09-4.03-1.48-.88-1.84-3.25-2.61-3.62-11.85-5.7-17.97,12.53-15,19.08,10.68,3.47,13.97,11.58,27.22,10.18Z"/>
    <path class="st1" d="M464.88,556.37l-8.73,10.34h35.32c-1.2-9.08-17.91-21.91-26.59-10.34Z"/>
    <path class="st1" d="M239.9,116.19c9.34-3.54,3.19-16.32-4.91-9.77-1.77,1.43-2.59,5.93-1.82,7.84,1.15,2.42,3.97,2.55,6.73,1.93Z"/>
  </g>
</svg>