<?xml version="1.0" encoding="UTF-8"?>
<svg id="Camada_1" xmlns="http://www.w3.org/2000/svg" version="1.1" viewBox="0 0 566.93 566.93">
  <!-- Generator: Adobe Illustrator 29.5.0, SVG Export Plug-In . SVG Version: 2.1.0 Build 137)  -->
  <defs>
    <style>
      .st0 {
        fill: #ede4db;
      }

      .st1 {
        fill: #3f5a91;
      }

      .st2 {
        fill: #d6ad43;
      }
    </style>
  </defs>
  <polygon class="st2" points="0 566.93 0 0 283.46 283.46 0 566.93"/>
  <polygon class="st1" points="0 413.54 0 153.39 130.07 283.46 0 413.54"/>
  <polygon class="st2" points="566.93 0 566.93 566.93 283.46 283.46 566.93 0"/>
  <polygon class="st1" points="566.93 153.39 566.93 413.54 436.86 283.46 566.93 153.39"/>
  <polygon class="st0" points="0 0 566.93 0 283.46 283.46 0 0"/>
  <polygon class="st1" points="153.39 0 413.54 0 283.46 130.07 153.39 0"/>
  <polygon class="st0" points="0 566.93 566.93 566.93 283.46 283.46 0 566.93"/>
  <polygon class="st1" points="153.39 566.93 413.54 566.93 283.46 436.86 153.39 566.93"/>
</svg>