<?xml version="1.0" encoding="UTF-8"?>
<svg id="Camada_1" xmlns="http://www.w3.org/2000/svg" version="1.1" viewBox="0 0 566.93 566.93">
  <!-- Generator: Adobe Illustrator 29.5.0, SVG Export Plug-In . SVG Version: 2.1.0 Build 137)  -->
  <defs>
    <style>
      .st0 {
        fill: #ae4d3a;
      }

      .st1 {
        fill: #f9f9f9;
      }
    </style>
  </defs>
  <g id="_x31_">
    <rect class="st1" x=".14" y="-.13" width="566.93" height="566.93"/>
    <path class="st0" d="M227.48,455.61s20.37-5.98,24.13-6.87c3.76-.89,16.16-1.77,20.37,1.33,4.21,3.1,10.18,3.1,14.61.89,4.43-2.21,13.06-1.11,19.26,1.99,6.2,3.1,23.69,9.08,23.69,9.08,0,0,.89,1.11-3.98,6.87-4.87,5.76-12.18,15.95-19.04,17.06-6.86,1.11-10.85,1.33-25.9.22-15.05-1.11-25.24-3.54-28.34-3.32s-6.64-5.54-9.08-7.75c-2.28-2.07-19.04-19.05-15.72-19.49Z"/>
    <path class="st0" d="M271.75,407.76c-.89,0,0,.22-8.41-2.66s-17.49-10.19-18.6-13.51c-1.11-3.32,2.44-9.97,7.53-7.31,5.09,2.66,17.71,18.16,17.71,18.16,0,0,4.65,5.32,1.77,5.32Z"/>
    <path class="st0" d="M287.69,396.02s3.98-1.77,5.98-3.54c1.99-1.77,10.63-5.76,14.17-2.88,3.54,2.88,5.09,7.31.89,9.75-4.21,2.44-7.75,5.09-12.62,3.32-4.87-1.77-9.52-3.99-8.41-6.64Z"/>
    <path class="st0" d="M161.61,437.56s-1.33,32.89-1.33,40.2,1.99,9.64-3.98,15.28c-5.98,5.65-3.32,8.31-15.94,3.65s-21.25-9.3-29.22-7.64c-7.97,1.66-9.3,8.31-18.26,2.33-8.97-5.98-26.23-19.27-27.23-19.27s-3.98-2.99-8.97-2.33-4.32-1.33-13.28-9.64c-8.97-8.31-22.58-22.93-14.28-36.55,8.3-13.62,17.6-43.86,18.93-55.15s4.98-14.95-.66-17.94c-5.65-2.99-14.61,10.96-14.61,10.96,0,0-4.32,0-.66-11.96,3.65-11.96,8.97-36.21,12.62-43.86,3.65-7.64,6.97-11.96,7.31-15.62s-.33-7.97-4.98-8.97c-4.65-1-1-3.99,1.33-7.97,2.32-3.99,7.31-12.63,6.97-17.61s-.33-18.61,6.64-27.24c6.97-8.64,17.6-20.6,19.92-27.58,2.32-6.98,8.97-24.92,10.29-30.23,1.33-5.32,11.29-23.92,21.58-43.19,10.29-19.27,11.62-27.24,19.26-37.21,7.64-9.97,24.57-33.22,51.47-42.2s48.15-7.31,60.11-4.65,14.94,6.64,17.93,5.98,4.98-.33,7.97-2.33c2.99-1.99,26.57-10.3,37.19-8.31,10.63,1.99,37.86,7.31,63.43,33.89,25.57,26.58,49.81,48.18,64.42,79.07,14.61,30.9,14.28,38.87,19.26,48.84,4.98,9.97,7.31,14.29,11.62,19.27,4.32,4.98,4.98,10.3,3.32,12.63-1.66,2.33,11.62,20.93,17.93,33.56,6.31,12.63,14.94,25.25,16.6,27.91s4.32,2.33-1.33,8.31c-5.65,5.98-10.63,7.31-10.63,9.64s7.64,10.3,12.95,16.28c5.31,5.98,12.95,14.29,12.95,14.29,0,0,8.97,9.3,1.66,8.64s-12.29-.33-10.29,6.31c1.99,6.64,5.98,16.94,5.98,16.94,0,0-3.32,4.98-8.3,2.99-4.98-1.99-10.96-1.33-7.64,4.98,3.32,6.31,13.28,22.93,18.6,31.23,5.31,8.31,7.64,12.63,8.97,15.28,1.33,2.66,5.65,7.31,1.66,10.63-3.98,3.32-6.31,6.98-5.31,9.3,1,2.33-.66.33-5.98,1.33s-12.95,2.33-20.59,11.3c-7.64,8.97-16.94,20.6-16.94,20.6,0,0-1.99,3.99-19.59,4.98-17.6,1-23.25,11.3-28.89,13.62-5.65,2.33-14.28,7.31-24.57,3.65-10.29-3.65-27.23-6.98-29.89-6.31-2.66.66-5.31-6.98-2.66-12.96s10.29-28.91,9.3-43.52c-1-14.62,0-30.57,2.66-40.2,2.66-9.64,9.96-31.56,9.63-36.55-.33-4.98-1.33-23.59-1.66-29.57-.33-5.98-2.32-21.6-4.32-25.25-1.99-3.65-6.31-8.64-8.97.66-2.66,9.3-2.32,14.62-4.32,14.95-1.99.33-4.98-7.64-4.98-13.29s-3.98-28.24-17.6-35.88c-8.63-3.99-8.3.66-14.61-1s-9.96-7.31-16.94-4.32c-6.97,2.99-6.97-.33-10.63.33-3.65.66-6.97,2.99-18.6-.66-11.62-3.65-12.62,1.33-19.92,1.66-7.31.33-10.96-6.64-16.94-4.65-5.98,1.99-4.32,5.32-14.28,4.98-9.96-.33-11.95-2.66-16.6-1s-5.65-3.99-15.94-2.66c-10.29,1.33-.33,5.65-14.61,3.65-14.28-1.99-21.92,2.33-22.91,5.65-1,3.32-.33,15.95-7.31,19.6-6.97,3.65-14.94,0-18.26,17.61-3.32,17.61,1.33,52.83,7.64,68.11,6.31,15.28,14.61,40.2,14.61,40.2l2.32,7.31s1,1.99-4.32,2.66-4.65,1-5.31,3.99Z"/>
  </g>
</svg>