<?xml version="1.0" encoding="UTF-8"?>
<svg id="Camada_1" xmlns="http://www.w3.org/2000/svg" version="1.1" viewBox="0 0 566.93 566.93">
  <!-- Generator: Adobe Illustrator 29.5.0, SVG Export Plug-In . SVG Version: 2.1.0 Build 137)  -->
  <defs>
    <style>
      .st0 {
        fill: #fff;
      }

      .st1 {
        fill: #3f5a91;
      }
    </style>
  </defs>
  <rect class="st1" x="0" y="0" width="566.93" height="566.93"/>
  <path class="st0" d="M28.61,64.08c25.46,28.33,55.07,35.04,65.08,32.9,10.01-2.15,42.91-4.29,48.63-36.47,5.72-32.18-5.72-41.48-25.03-50.78s-42.2-4.29-57.21,0-31.47,24.32-31.47,24.32c0,0-14.35,14.07,0,30.04Z"/>
  <path class="st0" d="M120.15,128.45c.2-2.14.72-37.19,46.49-80.81,22.89-18.59,52.92-45.06,78.67-25.75,25.75,19.31,40.76,53.64,23.6,82.96-17.16,29.32-72.23,64.37-97.98,67.94-25.75,3.58-54.62-3.55-50.78-44.34Z"/>
  <path class="st0" d="M290.36,81.96s11.44-35.04,10.73-47.2c-.72-12.16,22.17-40.76,45.77,0,23.6,40.76,35.04,50.78,46.49,65.8s23.6,29.32,5.01,55.07-32.9,24.32-58.64,9.3c-25.75-15.02-55.78-44.34-49.35-82.96Z"/>
  <path class="st0" d="M376.18,41.91s-1.43-21.35,27.89-26.76c29.32-5.42,53.64,36.06,54.35,46.07.72,10.01,0,38.64-32.18,36.13-32.18-2.52-52.92-26.83-50.06-55.44Z"/>
  <path class="st0" d="M453.42,139.17s10.73-82.96,26.46-94.4c15.73-11.44,23.6-24.32,41.48-18.59s34.33,12.18,35.76,55.8c1.43,43.61-7.87,92.24-34.33,110.12s-52.21,6.44-60.79-10.01c-8.58-16.45-11.25-25.12-8.58-42.91Z"/>
  <path class="st0" d="M185.23,194.24s.72-19.31,35.76-35.04,73.66-20.02,109.42,8.58,58.64,40.76,68.66,47.92c10.01,7.15,17.16,35.04-17.88,45.77s-64.7,2.86-91.71,8.58-49.9,11.44-68.49,0-47.92-34.33-35.76-75.81Z"/>
  <path class="st0" d="M22.23,283.46s14.96-43.5,47.14-71.72c32.18-28.23,49.35-31.09,69.37-18.21,20.02,12.87,11.44,41.48-3.58,62.94s-42.09,58.64-52.15,89.4c-10.07,30.75-22.94,51.49-50.11,40.76s-29.2-45.41-10.67-103.16Z"/>
  <path class="st0" d="M146.94,269.74s16.83-17.22,30.52-9.78c13.7,7.43,27.39,26.61,25.04,41.48s-14.09,44.61-42.65,53.22c-11.35,4.7-34.83-2.74-36-21.13-1.17-18.39-3.91-35.22,23.09-63.78Z"/>
  <path class="st0" d="M189.98,344.87s10.96-23.09,28.17-30.52c17.22-7.43,33.65-4.3,45.39,3.91,11.74,8.22,25.83,33.65,10.17,61.04-15.65,27.39-28.57,31.3-49.3,29.35-20.74-1.96-30.52-20.35-34.43-31.3-3.91-10.96-5.09-23.68,0-32.48Z"/>
  <path class="st0" d="M13.89,175.7s-14.87-21.4,0-46.05c14.87-24.65,45.1-39.52,69.12-23.09,7.19,5.09,19.71,10.08,11.49,40.26-8.22,30.18-15.65,47.4-37.96,52.48s-32.09-10.42-42.65-23.6Z"/>
  <path class="st0" d="M12.33,461.48s10.57-36.39,34.04-56.74,43.04-37.96,64.57-40.7c21.52-2.74,34.04-2.74,49.3,10.96,15.26,13.7,17.22,33.26,14.87,48.13s-14.87,61.43-30.52,89.22c-15.65,27.78-23.48,39.13-62.22,36.39-38.74-2.74-50.48-12.52-63.78-34.43s-6.26-52.83-6.26-52.83Z"/>
  <path class="st0" d="M184.11,461.09s20.35-30.91,69.26-39.13c48.91-8.22,83.74,13.05,88.04,33.92,4.3,20.86-.39,36.91-9.78,54.91-9.39,18-37.17,34.45-81.78,38.35-44.61,3.91-60.56-7.44-73.91-31.31-13.35-23.87-1.41-45.99,8.17-56.74Z"/>
  <path class="st0" d="M355.5,522.91c14.53,22.25,47.46,31.98,60.65,33.65,11.42,1.45,29.74-10.17,43.43-36,13.7-25.83,1.57-54.39-3.13-59.87-4.7-5.48-22.3-25.04-57.91-16.83-35.61,8.22-47.35,43.43-47.35,43.43,0,0-6.83,18.56,4.3,35.61Z"/>
  <path class="st0" d="M497.94,450.91c13.76-10.7,37.17-.39,52.43,8.22s-4.3,52.83-16.04,70.43c-11.74,17.61-23.87,17.22-30.13,15.65s-15.65-1.57-27.78-19.96c-12.13-18.39,0-42.65,0-42.65,0,0,10.96-23.48,21.52-31.7Z"/>
  <path class="st0" d="M502.24,427.05c35.22-17.61,38.74-36,40.3-41.87,1.57-5.87,7.83-30.13-17.22-38.74-25.04-8.61-56.74,19.57-68.48,28.57s-25.83,33.26-2.35,48.13c23.48,14.87,38.59,6.65,38.59,6.65l9.14-2.74Z"/>
  <path class="st0" d="M404.81,298.31s-4.3-30.91,21.91-54.39c26.22-23.48,62.22-35.61,89.22-21.91s38.35,20.49,23.87,54.66c-14.48,34.17-43.83,54.52-76.3,61.95-32.48,7.43-56.35-25.04-58.7-40.3Z"/>
  <path class="st0" d="M291.72,331.18s-1.17-44.22,45-39.91c46.17,4.3,70.83,32.48,85.7,64.76,14.87,32.28,10.79,56.93-15.15,71.8-25.94,14.87-43.94,16.43-76.81-10.96-32.87-27.39-39.13-61.04-38.74-85.7Z"/>
</svg>