<?xml version="1.0" encoding="UTF-8"?>
<svg id="Camada_1" xmlns="http://www.w3.org/2000/svg" version="1.1" viewBox="0 0 566.93 566.93">
  <!-- Generator: Adobe Illustrator 29.5.0, SVG Export Plug-In . SVG Version: 2.1.0 Build 137)  -->
  <defs>
    <style>
      .st0 {
        fill: #a8cce4;
      }

      .st1 {
        fill: #262523;
      }
    </style>
  </defs>
  <polygon class="st0" points="398.48 66.19 290.27 3.72 53.5 399.33 398.48 66.19"/>
  <polygon class="st0" points="38.12 141.61 38.12 409.82 283.4 0 38.12 141.61"/>
  <polygon class="st0" points="38.12 425.07 283.61 566.8 529.1 425.07 529.1 425.05 38.12 425.05 38.12 425.07"/>
  <polygon class="st0" points="521.26 137.08 405.52 70.26 61.35 402.62 521.26 137.08"/>
  <polygon class="st0" points="529.08 141.59 66.08 408.9 529.1 276.13 529.1 141.61 529.08 141.59"/>
  <polygon class="st0" points="529.1 417.23 529.1 284.26 65.36 417.23 529.1 417.23"/>
  <polygon class="st1" points="529.1 276.13 66.08 408.9 529.08 141.59 521.26 137.08 61.35 402.62 405.52 70.26 398.48 66.19 53.5 399.33 290.27 3.72 283.61 -.13 283.4 0 38.12 409.82 38.12 425.03 38.12 425.05 38.12 425.05 529.1 425.05 529.1 417.23 65.36 417.23 529.1 284.26 529.1 276.13"/>
</svg>