<?xml version="1.0" encoding="UTF-8"?>
<svg id="Camada_1" xmlns="http://www.w3.org/2000/svg" version="1.1" viewBox="0 0 566.93 566.93">
  <!-- Generator: Adobe Illustrator 29.5.0, SVG Export Plug-In . SVG Version: 2.1.0 Build 137)  -->
  <defs>
    <style>
      .st0 {
        fill: #b26e12;
      }

      .st1 {
        fill: #759b8b;
      }
    </style>
  </defs>
  <rect class="st1" x="496.98" y="425.3" width="70.87" height="141.73"/>
  <rect class="st0" x="426.12" y="425.3" width="70.87" height="141.73"/>
  <rect class="st1" x="355.25" y="425.3" width="70.87" height="141.73"/>
  <rect class="st0" x="284.38" y="425.3" width="70.87" height="141.73"/>
  <rect class="st1" x="213.52" y="425.3" width="70.87" height="141.73"/>
  <rect class="st0" x="142.65" y="425.3" width="70.87" height="141.73"/>
  <rect class="st1" x="71.78" y="425.3" width="70.87" height="141.73"/>
  <rect class="st0" x=".92" y="425.3" width="70.87" height="141.73"/>
  <rect class="st0" x="496.98" y="283.57" width="70.87" height="141.73"/>
  <rect class="st1" x="426.12" y="283.57" width="70.87" height="141.73"/>
  <rect class="st0" x="355.25" y="283.57" width="70.87" height="141.73"/>
  <rect class="st1" x="284.38" y="283.57" width="70.87" height="141.73"/>
  <rect class="st0" x="213.52" y="283.57" width="70.87" height="141.73"/>
  <rect class="st1" x="142.65" y="283.57" width="70.87" height="141.73"/>
  <rect class="st0" x="71.78" y="283.57" width="70.87" height="141.73"/>
  <rect class="st1" x=".92" y="283.57" width="70.87" height="141.73"/>
  <rect class="st1" x="496.98" y="141.83" width="70.87" height="141.73"/>
  <rect class="st0" x="426.12" y="141.83" width="70.87" height="141.73"/>
  <rect class="st1" x="355.25" y="141.83" width="70.87" height="141.73"/>
  <rect class="st0" x="284.38" y="141.83" width="70.87" height="141.73"/>
  <rect class="st1" x="213.52" y="141.83" width="70.87" height="141.73"/>
  <rect class="st0" x="142.65" y="141.83" width="70.87" height="141.73"/>
  <rect class="st1" x="71.78" y="141.83" width="70.87" height="141.73"/>
  <rect class="st0" x=".92" y="141.83" width="70.87" height="141.73"/>
  <rect class="st0" x="496.98" y=".1" width="70.87" height="141.73"/>
  <rect class="st1" x="426.12" y=".1" width="70.87" height="141.73"/>
  <rect class="st0" x="355.25" y=".1" width="70.87" height="141.73"/>
  <rect class="st1" x="284.38" y=".1" width="70.87" height="141.73"/>
  <rect class="st0" x="213.52" y=".1" width="70.87" height="141.73"/>
  <rect class="st1" x="142.65" y=".1" width="70.87" height="141.73"/>
  <rect class="st0" x="71.78" y=".1" width="70.87" height="141.73"/>
  <rect class="st1" x=".92" y=".1" width="70.87" height="141.73"/>
</svg>