<?xml version="1.0" encoding="UTF-8"?>
<svg id="Camada_2" data-name="Camada 2" xmlns="http://www.w3.org/2000/svg" viewBox="0 0 566.93 566.93">
  <defs>
    <style>
      .cls-1 {
        fill: #ba7f22;
      }

      .cls-2 {
        fill: #f8b652;
      }

      .cls-3 {
        fill: #63a669;
      }
    </style>
  </defs>
  <g>
    <polygon class="cls-2" points="457.59 121.74 417.27 127.49 340.89 134.96 310.24 134.78 268.73 156.13 234.28 182.34 203.92 216.13 191.47 234.75 182.93 244.6 181.92 283.5 182.93 322.33 191.47 343.74 217.85 381.75 241.87 405.17 257.88 417.09 278.46 432.39 340.89 431.98 417.27 439.51 457.59 445.26 489.25 444.9 547.9 444.9 566.93 444.9 566.93 122.09 489.25 122.09 457.59 121.74"/>
    <polygon class="cls-2" points="523.11 522.16 502.83 522.46 452.49 522.99 407.96 516.65 337.34 509.71 252.9 510.3 239.02 509.12 219.93 502.18 207.66 494.3 189.27 482.49 176.53 474.43 162.65 462.87 138.34 440.87 133.12 435.29 118.65 411.34 113.91 396.93 102.88 361.53 100.15 311.25 100.15 255.69 103.06 203.03 118.65 155.59 129.68 135.37 138.34 126.12 162.65 104.12 176.53 92.56 189.27 84.44 219.93 64.75 239.02 57.81 252.9 56.69 309.11 57.05 314.63 55.03 328.5 53.9 368.58 54.2 407.96 50.28 452.49 43.94 502.83 44.53 523.11 44.83 566.93 44.83 566.93 0 0 0 0 566.93 566.93 566.93 566.93 522.16 523.11 522.16"/>
  </g>
  <polygon class="cls-3" points="217.85 381.75 241.87 405.17 257.88 417.09 278.46 432.39 340.89 431.98 417.27 439.51 457.59 445.26 489.25 444.9 547.9 444.9 566.93 444.9 566.93 522.16 523.11 522.16 502.83 522.46 452.49 522.99 407.96 516.65 337.34 509.71 252.9 510.3 239.02 509.12 219.93 502.18 207.66 494.3 189.27 482.49 176.53 474.43 162.65 462.87 138.34 440.87 133.12 435.29 118.65 411.34 113.91 396.93 102.88 361.53 100.15 311.25 100.15 255.69 103.06 203.03 118.65 155.59 129.68 135.37 138.34 126.12 162.65 104.13 176.53 92.56 189.27 84.44 219.93 64.75 239.02 57.81 252.9 56.69 309.11 57.05 314.63 55.03 328.5 53.9 368.58 54.2 407.96 50.28 452.49 43.94 502.83 44.53 523.11 44.83 566.93 44.83 566.93 122.09 489.25 122.09 457.59 121.74 417.27 127.49 340.89 134.96 310.24 134.78 268.73 156.13 234.28 182.34 203.92 216.13 191.47 234.75 182.93 244.6 181.92 283.5 182.93 322.33 191.47 343.74 217.85 381.75"/>
  <polygon points="473.48 288 484.57 280.12 534.14 269.8 543.04 280.89 538.29 293.52 528.8 299.09 514.57 300.63 490.91 298.26 473.48 288"/>
  <polygon points="321.98 237.42 334.67 243.47 338.7 250.47 340.66 257.47 337.34 265.47 329.33 270.45 313.97 277.45 308.7 278.46 304.01 272.47 302 260.43 321.98 237.42"/>
  <polygon class="cls-1" points="273.59 229.6 268.08 249.58 252.96 257.05 241.99 257.05 232.38 249.58 222.78 235.82 231.02 218.33 244.77 206.95 263.99 214.59 273.59 229.6"/>
  <polygon points="546.65 374.93 547.01 381.1 540.19 398.18 525.42 413 516.29 419.82 511.73 417.56 495.84 403.87 495.84 394.8 502.65 383.41 507.52 380.62 546.65 374.93"/>
  <polygon class="cls-1" points="460.44 378.55 452.61 371.79 444.72 359.45 451.48 343.74 462.75 333.48 478.4 340.36 486.29 353.82 481.78 371.79 469.45 378.55 460.44 378.55"/>
  <polygon points="374.69 194.97 381.51 183.58 423.61 159.68 425.92 181.33 419.11 198.41 404.28 213.17 395.15 220.05 390.64 217.74 374.69 204.1 374.69 194.97"/>
  <polygon points="393.79 263.99 407.07 254.86 425.63 261.02 434.88 273.06 429.6 289.13 415.01 295.12 404.4 295.12 395.15 289.13 385.84 278.04 393.79 263.99"/>
  <polygon class="cls-1" points="501.17 211.87 495.6 203.8 493.29 187.67 516.94 156.78 532.01 164.84 536.75 174.27 539.12 183.64 535.15 194.43 525.66 201.13 507.46 210.56 501.17 211.87"/>
  <polygon points="396.16 355.42 382.34 354.06 362.42 393.02 368.71 400.9 371.09 403.63 371.08 403.63 371.13 403.67 371.4 403.98 377.83 408.49 392.3 402.68 399.66 396.4 402.92 388.21 406.77 376.65 408.67 368.94 396.16 355.42"/>
  <g>
    <polygon points="260.31 382.46 286.46 371.67 252.36 383.77 260.31 382.46"/>
    <polygon points="286.46 371.67 295.18 366.93 300.16 356.61 297.19 347.54 291.2 338.46 272.29 330.7 265.65 337.34 242.4 360.46 246.73 377.48 252.36 383.77 258.88 382.76 286.46 371.67"/>
  </g>
</svg>