<?xml version="1.0" encoding="UTF-8"?>
<svg id="Camada_3" xmlns="http://www.w3.org/2000/svg" version="1.1" viewBox="0 0 566.93 566.93">
  <!-- Generator: Adobe Illustrator 29.5.0, SVG Export Plug-In . SVG Version: 2.1.0 Build 137)  -->
  <defs>
    <style>
      .st0 {
        fill: #978e41;
      }

      .st1 {
        fill: #d6ad43;
      }
    </style>
  </defs>
  <rect class="st1" x="0" y="0" width="566.93" height="566.93"/>
  <path class="st0" d="M0,269.1l186.74,7.9,3.65,3.66c5.07,5.07,7.64,12.11,7.1,19.26-1.36,17.79-1.78,36.38-4.82,53.42-5.37,30.15-18.8,70.08-32.71,95.25-19.79,35.82-56.63,76.22-88.12,102.66-5.42,4.55-12.36,10.66-16.98,15.68H0v-297.83Z"/>
  <path class="st0" d="M566.93,566.93h-60.09c-9.62-11.28-22.57-26.05-32.72-36.51-54.43-56.07-106.14-153.53-97.89-233.88,1.34-13.06,3.71-17.57,17.23-19.35l173.48-5.55v295.29Z"/>
</svg>