<?xml version="1.0" encoding="UTF-8"?>
<svg id="Camada_1" xmlns="http://www.w3.org/2000/svg" version="1.1" viewBox="0 0 566.93 566.93">
  <!-- Generator: Adobe Illustrator 29.5.0, SVG Export Plug-In . SVG Version: 2.1.0 Build 137)  -->
  <defs>
    <style>
      .st0 {
        fill: #30888c;
      }

      .st1 {
        fill: #d6ad43;
      }
    </style>
  </defs>
  <rect class="st1" x="0" y="0" width="566.93" height="566.93"/>
  <path class="st0" d="M44.18,300.33s12.08,23.16,18.12,36.24c6.04,13.09,14.1,26.18,19.13,37.25s11.07,23.16,19.13,37.25c8.05,14.1,7.05,18.12,20.14,31.21s28.19,32.22,49.33,46.31,27.18,18.12,37.25,19.13,18.12,6.04,31.21,7.05c13.09,1.01,78.87-14.77,91.62-21.48,12.75-6.71,32.65-9.92,38.02-19.99,5.37-10.07,9.34-16.14,17.39-21.51s29.83-26.96,37.22-37.7c7.38-10.74,8.46-10.38,16.51-19.11s21.75-15.12,31.14-24.52,20.81-16.78,25.51-31.55,4.72-16,8.07-31.43c3.36-15.44,3.04-13.69,10.72-35.03,4.67-12.99,9.29-15.57,10.64-18.07,6.04-11.16-8.63-42.32-14.74-50.21-7.2-9.3-10-24.33-15.37-32.39s-8.73-32.22-36.24-36.92c-22.82-16.11-51.01-30.2-69.13-34.23s-25.51-15.44-34.9-16.78-20.81-4.03-34.23-4.03-29.98-4.7-39.82-4.03c-7.1.48-23.05-6.72-31.39-10.77-3.4-1.65-7.28-1.95-10.88-.8-4.48,1.42-10.95,3.33-16.71,4.49-10.07,2.01-24.02,5.07-24.02,5.07,0,0-13.57,1.63-18.94,1.63s-13.04,8.18-17.07,12.87-16.35,11-21.05,13.69-24.54,19.46-30.39,25.51-38.78,31.61-42.8,43.69c-4.03,12.08-6.01,14.7-10.04,24.77s-11.05,30.23-15.08,40.3-5.06,32.19-4.39,38.9.27,13.96,6.04,25.17Z"/>
</svg>